<?xml version="1.0" encoding="UTF-8"?>
<svg width="760px" height="838px" viewBox="0 0 760 838" version="1.1" xmlns="http://www.w3.org/2000/svg" xmlns:xlink="http://www.w3.org/1999/xlink">
    <title>illustration-4</title>
    <defs>
        <path d="M29.2632945,0.234303918 L153.008293,28.8030878 L124.439509,152.548086 L0.694510609,123.979302 L10.7505106,80.4223039 L46.8350871,89.9395998 L60.3775924,92.7783214 L50.5512484,82.9762059 L47.6671367,76.391195 L59.5918529,39.4704052 L53.8383507,46.0927599 L46.8350871,55.3551012 L52.2162678,28.4633051 C52.1780338,27.6704095 51.4109002,27.2739617 49.9148669,27.2739617 C48.4188337,27.2739617 43.2411927,35.9542056 34.3819442,53.3146934 C36.8084746,35.9542056 37.6643438,27.2739617 36.9495519,27.2739617 C36.23476,27.2739617 31.4547937,34.6863496 22.6096528,49.5111254 L22.6096528,49.5111254 L18.4025106,47.2743039 L29.2632945,0.234303918 Z" id="path-1"></path>
        <path d="M69.5020849,0.469966821 C107.609733,0.469966821 138.502085,31.3623191 138.502085,69.4699668 C138.502085,107.577615 107.609733,138.469967 69.5020849,138.469967 C31.3944372,138.469967 0.50208493,107.577615 0.50208493,69.4699668 C0.50208493,31.3623191 31.3944372,0.469966821 69.5020849,0.469966821 Z M69.5020849,41.4699668 C54.0381119,41.4699668 41.5020849,54.0059938 41.5020849,69.4699668 C41.5020849,84.9339398 54.0381119,97.4699668 69.5020849,97.4699668 C84.9660579,97.4699668 97.5020849,84.9339398 97.5020849,69.4699668 C97.5020849,54.0059938 84.9660579,41.4699668 69.5020849,41.4699668 Z" id="path-3"></path>
        <circle id="path-5" cx="26.5" cy="26.5" r="26.5"></circle>
        <path d="M57.090326,239.917984 C57.9862723,239.917984 76.3656504,230.576995 112.22846,211.895016 L71.1032136,129.843865 L134.00632,71.3309578 L209.392155,152.277774 L184.590477,245.203818 L240.770242,271.663871 L272.419733,166.930802 C278.631461,143.225659 274.909478,122.437022 261.253784,104.564889 C247.598089,86.6927562 229.715038,62.0526723 207.60463,30.6446374 C188.486533,10.2256712 164.611061,0.0161880387 135.978213,0.0161880387 C107.345366,0.0161880387 83.7812285,11.0704562 65.2858016,33.1789925 L15.966951,88.6699525 C-0.966808942,109.836996 -3.63904998,131.039604 7.95022792,152.277774 C25.3341448,184.13503 55.7464065,239.917984 57.090326,239.917984 Z" id="path-7"></path>
        <path d="M110,30.7355605 L161.262091,119.991907 C150.934839,116.080013 146.705667,115.751115 148.574575,119.005214 C150.443483,122.259312 157.976807,128.341322 171.174546,137.251241 L195,178.73556 L25,178.73556 L110,30.7355605 Z" id="path-9"></path>
        <path d="M63.4442569,42.8226932 L78.0782417,182.055759 C39.6300924,186.096822 5.18577996,158.204368 1.14471663,119.756218 C-2.8963467,81.308069 24.9961075,46.8637566 63.4442569,42.8226932 Z M148.374144,45.7805769 C151.278033,53.3454665 152.7813,61.1035506 153.011172,68.7690759 C146.160221,60.2282729 141.700969,56.3584133 139.632706,57.1589128 C137.418733,58.015808 141.550929,66.5211958 152.029295,82.6750764 C148.023681,105.959432 132.324217,126.626668 108.823788,135.938278 L108.10927,136.216963 L57.9377572,5.5157035 C94.0299135,-8.33877724 134.519663,9.68842063 148.374144,45.7805769 Z" id="path-11"></path>
    </defs>
    <g id="Desktop" stroke="none" stroke-width="1" fill="none" fill-rule="evenodd">
        <g id="Artboard" transform="translate(-1741.000000, -3579.000000)">
            <g id="illustration-4" transform="translate(1741.000000, 3579.000000)">
                <path d="M420.209577,794.516534 C430.874065,773.188613 452.84802,766.359308 480.966291,771.280316 C486.085419,772.17622 491.268693,773.45793 496.323701,775.035019 C494.105804,781.710946 491.143148,788.046968 487.534735,793.944997 C486.790609,793.970501 486.050056,794.001715 485.304982,794.037687 L485.304982,794.037687 L483.846739,794.113793 C469.903946,794.894947 458.896707,797.368756 450.692585,802.260157 C437.315717,810.235614 436.058341,819.809591 444.905874,828.070711 C445.547108,828.669444 446.237365,829.253966 446.969681,829.821896 C435.395909,835.075214 422.539515,838 409,838 C389.822829,838 372.016099,832.132447 357.277144,822.094675 C363.303511,821.753231 369.193188,821.105461 374.804904,820.145254 C397.514163,816.259528 413.844974,807.691607 419.889878,795.167276 L419.889878,795.167276 Z M485.562575,797.029068 C476.684911,810.32238 464.437206,821.173557 450.040832,828.361225 C448.911921,827.5686 447.874418,826.738052 446.953282,825.877968 C439.741342,819.144034 440.503168,812.097898 451.533486,805.259646 L451.533486,805.259646 L452.22889,804.836931 C459.934412,800.242802 470.51182,797.865595 484.014552,797.109095 C484.370298,797.089164 484.724189,797.070336 485.076902,797.052591 Z M387.287547,656.579618 C387.929715,657.238526 388.376689,657.694629 388.545101,657.857312 L388.545101,657.857312 L389.157898,658.444975 C396.50479,665.43868 403.62773,670.340616 412.300312,673.682883 C423.371131,677.949391 436.252818,679.216754 451.67176,677.025807 L451.67176,677.025807 L453.417855,676.786251 C459.636083,675.964661 464.613393,675.655566 468.483889,675.817187 C472.157176,678.930826 475.581407,682.329049 478.724293,685.976575 C478.033834,687.977045 476.884498,690.324262 475.275206,693.064685 C474.06201,695.130607 472.607316,697.396494 470.711259,700.205875 L470.711259,700.205875 L469.943539,701.338089 L464.329624,709.50773 C463.059759,711.371665 462.000293,712.95808 461.011818,714.483217 L461.011818,714.483217 L460.478853,715.310333 C451.425734,729.44318 448.354717,739.104148 452.689639,746.740508 C460.020423,759.654355 476.14705,760.022625 500.969226,748.241148 C500.774576,756.550055 499.474378,764.585953 497.213079,772.2086 C492.036583,770.585603 486.691181,769.236639 481.483463,768.32523 C451.902797,763.148287 428.418694,770.594811 417.188111,793.86326 C409.782712,809.206378 383.633505,818.24505 353.46824,819.356112 C331.310868,802.55644 317,775.949461 317,746 C317,739.0768 317.764719,732.332209 319.214295,725.846089 C329.052965,721.218636 337.468877,719.365732 344.806442,719.930058 C350.785605,720.389911 356.072146,722.431654 361.263293,726.015482 C365.014571,728.605263 368.043182,731.355543 373.25396,736.680775 L373.25396,736.680775 L376.812321,740.339156 C383.918242,747.596481 388.113496,751.113124 393.620542,753.798633 C401.114293,757.452958 409.279227,757.99324 418.984675,754.97317 C443.381065,747.38168 449.638781,728.16951 439.211681,708.766925 C429.535587,690.7618 409.996305,681.356238 396.243853,690.97705 L396.243853,690.97705 L395.874468,691.230331 C383.617791,699.466625 364.771527,695.639171 351.661401,683.640479 C349.775445,681.914408 348.120685,680.127837 346.706765,678.300552 C357.894557,667.997663 371.644387,660.434862 386.891335,656.673765 Z M344.526224,680.374935 C346.003133,682.257506 347.709588,684.090468 349.635963,685.853532 C363.819503,698.834636 384.413662,702.914332 397.963532,693.435241 L397.963532,693.435241 L398.324748,693.188793 C410.300412,685.222731 427.72662,693.733104 436.569106,710.187065 C440.874778,718.198993 442.137622,726.67193 439.790141,733.879064 C437.124107,742.064206 429.966465,748.414049 418.093314,752.108649 C409.107917,754.904659 401.732242,754.416604 394.935475,751.102163 C389.61432,748.507304 385.494955,744.975894 378.07932,737.341365 L378.07932,737.341365 L376.19624,735.400687 C370.637538,729.686201 367.428553,726.700585 363.554211,723.956745 L363.554211,723.956745 L362.967692,723.546672 C357.361072,719.676013 351.576359,717.441867 345.03649,716.938891 C337.721,716.376263 329.51695,718.020313 320.126666,722.142467 C324.358914,706.324702 332.704729,692.187623 343.946176,680.946176 Z M480.922435,688.625805 C493.487872,704.356773 501,724.301111 501,746 L500.991002,744.912236 C476.931045,756.615691 461.734373,756.596723 455.298583,745.259492 C451.730312,738.973656 454.534649,730.151623 463.00501,716.92852 L463.00501,716.92852 L463.266257,716.521898 C464.579444,714.483988 466.004686,712.362098 467.891407,709.614653 L467.891407,709.614653 L471.571039,704.273113 C471.87485,703.8302 472.156123,703.418827 472.424167,703.025245 L472.424167,703.025245 L473.900651,700.837501 C475.266272,698.79231 476.397668,697.027121 477.381885,695.391529 L477.381885,695.391529 L477.862131,694.583836 C479.088201,692.495992 480.075196,690.60269 480.818218,688.870566 Z M409,654 C429.966345,654 449.294605,661.013478 464.766674,672.822328 C461.24263,672.900395 457.167885,673.253738 452.519618,673.87984 L452.519618,673.87984 L450.423072,674.170047 C435.865412,676.130635 423.760992,674.884566 413.379121,670.883567 C404.886912,667.610813 397.928434,662.750361 390.629407,655.699612 L390.746525,655.810715 C396.646308,654.623153 402.750381,654 409,654 Z" id="Combined-Shape" fill="#7C00D9"></path>
                <circle id="Oval-Copy-3" fill="#FFFFFF" cx="465" cy="223" r="13"></circle>
                <circle id="Oval-Copy-5" fill="#DD63B1" cx="138.5" cy="684.5" r="49.5"></circle>
                <polygon id="Triangle" fill="#FFFFFF" transform="translate(239.053675, 628.878785) rotate(-44.000000) translate(-239.053675, -628.878785) " points="239.053675 595.878785 272.053675 661.878785 206.053675 661.878785"></polygon>
                <polygon id="Triangle-Copy" fill="#DD63B1" transform="translate(496.005413, 89.879399) rotate(29.000000) translate(-496.005413, -89.879399) " points="496.005413 23.879399 562.005413 155.879399 430.005413 155.879399"></polygon>
                <rect id="Rectangle" fill="#E73D11" transform="translate(284.431903, 135.868750) rotate(-27.000000) translate(-284.431903, -135.868750) " x="233.931903" y="113.86875" width="101" height="44" rx="22"></rect>
                <rect id="Rectangle-Copy-3" fill="#7C00D9" transform="translate(626.956773, 634.512386) rotate(22.000000) translate(-626.956773, -634.512386) " x="554.456773" y="603.012386" width="145" height="63" rx="31.5"></rect>
                <g id="Group" transform="translate(0.000000, 153.809620)">
                    <g id="Combined-Shape" transform="translate(584.648598, 222.299185)">
                        <mask id="mask-2" fill="white">
                            <use xlink:href="#path-1"></use>
                        </mask>
                        <use id="Mask" fill="#DD63B1" xlink:href="#path-1"></use>
                        <path d="M154.905795,122 L156.489489,124.547923 L-5.41630623,225.182499 L-7,222.634576 L154.905795,122 Z M154.905795,98 L156.489489,100.547923 L-5.41630623,201.182499 L-7,198.634576 L154.905795,98 Z M154.905795,74 L156.489489,76.5479235 L-5.41630623,177.182499 L-7,174.634576 L154.905795,74 Z M154.905795,50 L156.489489,52.5479235 L-5.41630623,153.182499 L-7,150.634576 L154.905795,50 Z M154.905795,26 L156.489489,28.5479235 L-5.41630623,129.182499 L-7,126.634576 L154.905795,26 Z M154.905795,2 L156.489489,4.54792348 L-5.41630623,105.182499 L-7,102.634576 L154.905795,2 Z M154.905795,-22 L156.489489,-19.4520765 L-5.41630623,81.1824994 L-7,78.6345759 L154.905795,-22 Z M154.905795,-46 L156.489489,-43.4520765 L-5.41630623,57.1824994 L-7,54.6345759 L154.905795,-46 Z M154.905795,-70 L156.489489,-67.4520765 L-5.41630623,33.1824994 L-7,30.6345759 L154.905795,-70 Z" fill="#F7AD01" fill-rule="nonzero" mask="url(#mask-2)"></path>
                    </g>
                    <g id="Path-11" transform="translate(620.497915, 49.720413)">
                        <mask id="mask-4" fill="white">
                            <use xlink:href="#path-3"></use>
                        </mask>
                        <use id="Mask" fill="#E73D11" fill-rule="nonzero" xlink:href="#path-3"></use>
                        <path d="M52.9872617,-23.8855694 L55.9850785,-24 L56.0184267,-23.3779201 L56.0634414,-22.7102711 C56.0806364,-22.4743468 56.1000687,-22.2252012 56.1218796,-21.9632937 L56.1563977,-21.5609186 C56.3300314,-19.5930324 56.5913951,-17.39746 56.9580372,-15.0317739 C58.0050518,-8.27611817 59.6827441,-1.52302333 62.1260326,4.7642657 C65.6907556,13.9373303 70.5139965,21.2174565 76.7540251,26.0966849 L76.9140849,26.2199668 L76.8886141,26.1353232 C75.9043205,22.848424 75.6030516,19.4041434 76.0242051,16.0162563 L76.0739749,15.6400674 C77.5467002,5.14369035 85.5457565,0.760264773 93.5390365,8.40767191 C98.7346819,13.3784993 98.3144319,22.089768 93.6323838,32.7614931 L93.5560849,32.9309668 L93.6002065,32.9389249 C104.503432,34.5591553 120.194172,33.8100969 143.946967,31.158004 L150.129454,30.4480862 L172.236034,27.8184658 C182.851704,26.5877569 187.713322,26.1386952 193.579194,25.8058857 L194.610787,25.7490482 C206.67666,25.1029241 213.949299,25.9073374 217.108155,28.8521446 C219.625205,31.198635 218.404123,33.7156749 214.859009,35.5456444 C212.273892,36.8800684 208.106605,38.1919457 202.221111,39.592028 L200.722611,39.9420068 C196.200236,40.9798114 190.812599,42.0573981 183.797563,43.3494834 L177.690354,44.4534311 C171.421927,45.5693738 159.58153,47.658411 156.169991,48.2745636 L152.723145,48.9025105 C131.251783,52.8494679 116.57362,56.2376165 107.472589,59.7474587 L106.963085,59.9469668 L106.962553,60.017393 C106.920919,62.2796632 106.490435,64.5677066 105.661812,66.8098953 L105.534532,67.1458707 C103.861705,71.4555941 101.014005,74.7740517 97.4560936,76.7638331 L97.2010849,76.9029668 L97.231729,76.9119097 C99.0873626,77.3759052 101.444243,77.7525223 104.344046,78.075173 L105.488568,78.1972995 L110.560593,78.6908582 C111.593112,78.7951024 112.389012,78.8841536 113.152184,78.9821927 C119.036852,79.7381527 124.099901,83.7021325 126.183039,88.6824587 C128.393113,93.9662621 126.619357,99.0005853 121.103107,100.790399 C116.843891,102.172354 111.185849,100.095158 100.476409,94.3231488 L95.6043261,91.6668888 C84.1537378,85.4571738 79.9614777,83.8520347 78.2919095,85.3143793 C75.0677847,88.1383321 73.8704365,96.9649145 77.2437708,103.557606 C81.9203185,112.69724 93.9487949,117.843205 114.429606,116.765251 L115.052825,116.730678 C127.16447,116.024614 133.23395,120.812388 132.295063,129.454287 C131.501164,136.761668 125.55424,146.272761 116.59495,154.958666 C107.257052,164.011628 95.7804604,171.108797 84.7285628,174.221847 C71.8335531,177.854056 60.1293077,175.997568 51.0574069,167.880698 C39.3047667,157.364379 34.9317034,149.496683 36.7970458,143.073932 C38.1966043,138.254969 41.7480901,135.535361 50.7580338,130.849595 L52.8808404,129.748734 C60.4792097,125.767645 63.4051362,123.466898 64.2557259,120.102322 C65.9651719,113.340471 63.2232934,106.148234 57.294851,101.528114 C51.0077925,96.6285182 42.2346334,95.3598802 32.992921,98.6994427 L32.5226095,98.8732272 C21.9113603,102.880727 10.0601219,99.471518 3.13102446,91.2490484 C-4.12285569,82.6411727 -3.89085017,71.3570758 5.14224658,62.404565 C10.5537795,57.0413094 16.0651795,55.5404229 21.8430156,57.3350625 C26.0246332,58.6339045 29.5018611,61.0601404 35.4837531,66.2614697 L37.0567541,67.6310754 C45.1318959,74.6258516 48.0634097,76.3930918 51.8360715,75.8296388 C54.9799302,75.3600984 60.0541459,71.7879054 65.6285022,66.4438248 L66.5550849,65.5429668 L66.28991,65.25106 L65.5315841,64.4000276 C53.2258838,50.4273605 38.6835999,26.0602056 21.7886784,-8.76602323 L20.5258537,-11.3795102 L23.2290517,-12.6805562 L24.2797115,-10.5048049 C41.3908678,24.8115295 56.0697636,49.3014468 68.1915896,62.8954885 L68.6580849,63.4139668 L68.7937048,63.2739644 C73.1173157,58.7625616 77.5745263,53.3780805 81.5448297,47.6978807 L81.865667,47.2366873 C83.3795014,45.0502097 84.7661106,42.9063902 86.0190592,40.8185378 L86.6320849,39.7809668 C83.4561212,37.4518653 80.9499411,34.5899771 79.1547781,31.4311094 L79.0720849,31.2829668 L78.6618213,31.0426163 C70.2333868,26.0358155 63.9578079,17.5126571 59.5452627,6.39955151 L59.329753,5.85092131 C56.8000139,-0.658830132 55.0714114,-7.61685008 53.9934306,-14.5723091 C53.6163243,-17.0055132 53.3472269,-19.2660531 53.1680077,-21.2972421 L53.0998829,-22.1149209 C53.0795928,-22.3745725 53.0616729,-22.6211646 53.0459792,-22.8542427 L52.9872617,-23.8855694 Z M20.9531314,60.2000417 C16.2645074,58.7437197 11.8980206,59.9328188 7.25404098,64.5353687 C-0.645706611,72.3646412 -0.841340767,81.8797373 5.42508262,89.3158393 C11.467017,96.4855498 21.7756852,99.5275147 31.0652013,96.2126697 L31.4626841,96.0667065 C41.8402878,92.147446 51.9070536,93.5259086 59.1389376,99.1618201 C65.9763256,104.490295 69.1754654,112.881977 67.164222,120.837611 C66.0179627,125.371732 62.723689,127.979171 54.315598,132.384025 L51.7252006,133.728865 C43.8233716,137.866361 40.7333842,140.276752 39.6780037,143.910641 C38.2304292,148.894933 42.0813211,155.823175 53.0578759,165.64505 C61.2986949,173.018975 71.942535,174.706619 83.9151872,171.334214 C94.4529756,168.365976 105.506264,161.530579 114.506747,152.804738 C123.010911,144.56007 128.608965,135.606936 129.312613,129.130263 C130.01678,122.648821 125.77306,119.208666 115.636043,119.703692 L115.227417,119.725593 C93.2889583,121.004526 79.9140093,115.362209 74.5730804,104.924139 C70.6016676,97.1625901 72.0026317,86.8349968 76.3152687,83.0576359 C78.3076675,81.3125297 81.3880132,81.623205 85.8346431,83.4081226 L86.703744,83.7666755 C89.303984,84.8617258 91.3706019,85.927524 97.2225359,89.1278531 L100.891742,91.1362499 L102.349519,91.9234575 C111.854446,97.0126135 117.121498,98.9283177 120.177237,97.9368462 C123.893098,96.7311904 124.992541,93.6107185 123.415389,89.8400927 C121.740081,85.8347982 117.576762,82.5752384 112.769938,81.9577409 L111.856708,81.846746 C111.45768,81.800809 111.028933,81.7544855 110.545807,81.7048687 L105.542002,81.2182908 C105.173232,81.1810432 104.826495,81.1450215 104.486595,81.1085767 C99.177302,80.539304 95.4887349,79.8306895 92.9773367,78.6204609 L92.7640849,78.5149668 L92.6972207,78.5295909 C88.9278233,79.2988075 84.7138475,78.8064971 80.4252384,76.7840278 L80.0865157,76.6211753 C76.6079541,74.9167025 72.8854734,72.0559994 68.9147509,68.0366605 L68.6150849,67.7309668 L67.7063147,68.6110245 C61.8024276,74.2475932 56.2882858,78.0757496 52.5089978,78.7587665 L52.2792113,78.7967294 C49.3765114,79.2302523 46.4412635,78.336362 43.1729647,76.2871961 L42.5149189,75.8633637 C40.8354915,74.760934 39.6894845,73.8735231 36.9950036,71.552348 L32.7545294,67.867523 C27.5521663,63.3948283 24.4376592,61.2823624 20.9531314,60.2000417 Z M89.5116551,41.6358119 L89.1520849,41.4299668 L89.0435397,41.6151864 C87.6346016,44.0003111 86.0602095,46.4485629 84.3321806,48.9444081 C80.2127692,54.8942007 75.5892142,60.5305668 71.045098,65.2735603 L70.7190849,65.6109668 L70.729944,65.6212167 C74.3962374,69.3781447 77.8130884,72.075364 80.9767139,73.7107694 L81.4065475,73.9271975 C84.19249,75.2922914 86.9199035,75.9078918 89.4641605,75.8702284 L89.6720849,75.8649668 L89.5856047,75.7214545 C87.6919102,72.4646065 89.9149569,68.1318737 96.1870634,62.6262283 L96.5209127,62.3353739 C98.2339571,60.8539688 100.565921,59.4583824 103.592385,58.1076237 L103.880085,57.9799668 L103.872617,57.8944664 C103.233338,51.8937219 99.3085555,46.3241003 92.2518742,43.0063321 L91.8840812,42.8367409 C91.0635061,42.4657077 90.2725533,42.0646161 89.5116551,41.6358119 Z M103.880767,61.342784 L103.886085,61.2719668 L103.788488,61.3187872 C101.544611,62.3878443 99.7871693,63.4769636 98.4832572,64.6045597 L97.8720252,65.1399249 C92.2222377,70.1543443 91.0251813,73.1377051 92.6224649,74.7834784 C92.7704983,74.9360056 92.9385115,75.0828675 93.1268937,75.2243758 L93.2350849,75.3029668 L93.3953433,75.2561876 C97.4838177,73.9942355 100.788922,70.8496453 102.620469,66.3553382 L102.737822,66.0603231 C103.342273,64.5030669 103.722369,62.9200557 103.880767,61.342784 Z M215.062485,31.0465084 C212.838492,28.9732168 206.400617,28.1991928 195.892365,28.6885772 L194.003806,28.7867373 C186.649321,29.1979595 180.988179,29.7811235 163.575236,31.8617958 L149.948498,33.4898465 L145.137556,34.0433022 C120.283874,36.8436135 104.064054,37.6251486 92.6510416,35.8293336 L92.2290849,35.7609668 L92.0524489,36.1175553 C91.7806289,36.6595399 91.4989031,37.2057951 91.2074309,37.7561111 L90.6340849,38.8189668 L90.7942641,38.9136459 C91.4130199,39.2693164 92.05464,39.6045994 92.7188524,39.9178786 L93.1200887,40.1031928 C101.056608,43.691788 105.682604,49.885572 106.734529,56.6522712 L106.757085,56.8069668 L106.85315,56.7702894 C116.357622,53.1688066 131.175817,49.797417 152.824069,45.833756 L158.827895,44.7519046 C165.196754,43.6189284 177.009189,41.5346401 180.265214,40.9448741 L183.96309,40.2682288 C191.065663,38.9539837 196.455254,37.8634726 200.961392,36.8069999 L202.058586,36.5460208 C207.260048,35.2903347 210.987924,34.1167987 213.25376,32.9956493 L213.482942,32.8798539 C215.469679,31.8543106 215.612719,31.5594582 215.062485,31.0465084 Z M84.5290849,33.8219668 L84.7458477,34.0644984 C85.7161821,35.1365096 86.8021804,36.1395703 88.0009475,37.0564712 L88.1170849,37.1439668 L88.1286233,37.123723 C88.3501323,36.7141432 88.5659643,36.3072034 88.7760655,35.9030152 L89.1540849,35.1649668 L88.4995425,35.0125751 L88.14387,34.9255367 C87.0026316,34.6414162 85.8910569,34.3067908 84.8087081,33.9230603 L84.5290849,33.8219668 Z M91.4651334,10.5753725 C85.4770891,4.84643366 80.2130533,7.73108759 79.0448744,16.0569082 C78.4518333,20.2836181 79.1470445,24.6338511 81.0395072,28.5667152 L81.2940849,29.0789668 L81.595776,29.2419817 C83.7213242,30.3663124 85.9832731,31.2539952 88.3861631,31.8904582 L88.8686217,32.0143969 C89.1702755,32.0894961 89.4762458,32.1621333 89.7866374,32.2323236 L90.4910849,32.3849668 L90.5762207,32.19777 C94.9418463,22.5020142 95.5833054,14.7634413 91.6445589,10.7524711 L91.4651334,10.5753725 Z" fill="#F7AD01" fill-rule="nonzero" mask="url(#mask-4)"></path>
                    </g>
                    <polygon id="Path-3" fill="#E73D11" points="361.932107 461.353856 383.543749 506.588276 307.826668 538.396525 333.39166 510.511108 342.614774 513.186348 334.888402 508.603135 339.347302 504.649448 348.394387 508.603135 340.456184 503.008501 344.734579 498.4775 354.842313 500.806152 345.685209 496.702791 351.173554 490.240943 341.725182 471.285523"></polygon>
                    <polygon id="Path-3-Copy" fill="#E73D11" transform="translate(498.858540, 527.711714) scale(-1, 1) translate(-498.858540, -527.711714) " points="515.105439 489.19038 536.717081 534.424799 461 566.233049 486.564992 538.347632 495.788106 541.022872 488.061734 536.439658 492.520633 532.485972 501.567719 536.439658 493.629516 530.845025 497.907911 526.314023 508.015644 528.642676 498.85854 524.539315 504.346886 518.077466 494.898514 499.122047"></polygon>
                    <path d="M398.290333,212.063917 C430.046706,212.063917 455.790333,186.32029 455.790333,154.563917 L340.790333,154.563917 C340.790333,186.32029 366.53396,212.063917 398.290333,212.063917 Z" id="Oval" fill="#E73D11" transform="translate(398.290333, 183.313917) rotate(-11.000000) translate(-398.290333, -183.313917) "></path>
                    <g id="Group-2" transform="translate(352.000000, 6.190380)">
                        <circle id="Oval" fill="#131313" cx="44.5" cy="68.5" r="10.5"></circle>
                        <g id="Oval-Copy-4" transform="translate(8.000000, 77.000000)">
                            <mask id="mask-6" fill="white">
                                <use xlink:href="#path-5"></use>
                            </mask>
                            <use id="Mask" fill="#DD63B1" xlink:href="#path-5"></use>
                            <circle fill="#131313" mask="url(#mask-6)" cx="32.5" cy="4.5" r="26.5"></circle>
                        </g>
                        <circle id="Oval-Copy-2" fill="#131313" cx="31.5" cy="31.5" r="31.5"></circle>
                        <ellipse id="Oval" fill="#131313" cx="28" cy="113.5" rx="3" ry="4.5"></ellipse>
                        <ellipse id="Oval-Copy" fill="#131313" cx="18.5" cy="112" rx="2.5" ry="4"></ellipse>
                        <path d="M22.7271546,115.005384 C23.2764659,115.062616 23.6753748,115.554317 23.6181424,116.103628 C23.3397019,118.776077 21.5530799,120.816685 18.4089419,122.186734 C17.9026368,122.407355 17.3133468,122.175762 17.0927259,121.669457 C16.8721049,121.163152 17.1036977,120.573862 17.6100028,120.353241 C20.1436056,119.249231 21.4330196,117.776514 21.6289102,115.896372 C21.6820545,115.386297 22.1098171,115.005906 22.6104642,114.99999 L22.7271546,115.005384 Z" id="Path-2" fill="#131313" fill-rule="nonzero"></path>
                    </g>
                    <g id="Path-4" transform="translate(275.388039, 239.861181)">
                        <mask id="mask-8" fill="white">
                            <use xlink:href="#path-7"></use>
                        </mask>
                        <use id="Mask" fill="#131313" xlink:href="#path-7"></use>
                        <path d="M55.2349326,200.105356 C41.8503931,200.105356 28.6577721,205.084003 15.6295903,215.086966 L15.097,215.498 L23.179,253.788 L98.469,229.437 L94.0677956,226.916552 L93.8743322,226.634035 C81.7190509,208.883568 68.8406855,200.105356 55.2349326,200.105356 Z M135.214468,108.212975 L130.513247,113.629373 C128.009114,116.472569 126.326948,118.180791 124.556192,119.597189 C118.827672,124.179335 113.350122,124.010112 106.636358,118.261424 C93.9222395,107.374911 81.7657041,99.4633792 70.3849912,95.4201798 C56.640849,90.5373303 44.7381476,91.5790855 34.9158655,99.5425342 C25.8396842,106.901079 25.3335738,116.382171 31.0016255,130.693927 L31.2739436,131.374736 C32.1907505,133.644227 33.2109078,135.945065 34.710914,139.179119 L36.7852442,143.648969 C41.9263167,154.817688 43.2663994,158.741365 43.3021493,163.851557 L43.3028907,164.065191 C43.3028907,173.668387 37.2590218,178.420716 27.287057,177.483026 C18.0149544,176.611146 5.73876841,170.919972 -7.00975936,161.517265 C-19.2052667,152.522439 -21.310512,129.535901 -15.2794767,101.047985 L-14.9610412,99.5747129 C-9.66006819,75.5415433 0.48727286,53.1007494 8.59623896,48.2242313 C15.4889319,44.0791477 28.0159012,45.8740558 52.0657079,52.5581573 L56.8112213,53.8928073 L67.8205469,57.0031273 C74.8393878,58.9632246 77.521979,59.6256396 81.6164577,60.4966172 L82.595138,60.7001783 C89.5001791,62.1027114 94.0650272,62.2935171 96.2731281,61.2210594 C99.0619007,59.8665739 100.257908,58.472654 100.511369,56.7383439 L100.54372,56.4917243 C100.664919,55.4371153 100.533203,54.5247866 99.9100313,52.1671142 L99.3971567,50.2844556 C97.5557006,43.6475721 97.4712317,39.4329086 100.285279,34.0990967 C102.59325,29.7245127 107.485585,29.0412868 114.863283,31.076526 L116.531961,31.5578039 C120.03233,32.5995653 122.471708,33.5684177 130.75402,37.261841 L139.751566,41.2950603 C141.570855,42.1066506 143.144417,42.7967246 144.652102,43.4416771 L145.550246,43.8238452 C156.552031,48.479909 164.519937,50.8106021 171.013262,50.8106021 C185.74752,50.8106021 199.633574,42.8855012 212.703254,26.9035434 L213.132,26.375 L176.789,-4.258 L176.807374,-4.08283466 C178.067701,9.54304716 169.809502,18.2447591 152.500713,21.6899212 L151.920401,21.8028127 C150.924831,21.9920528 149.920093,22.1451555 148.906482,22.2627532 C136.09509,23.7491114 122.613889,19.6898673 108.619199,11.8453773 C104.89474,9.75769341 101.62304,7.69534632 97.7906059,5.10687762 L94.0383734,2.55242644 L93.4704295,2.17533241 C93.0371516,1.89170746 92.7149234,1.69271214 92.4877532,1.56842853 L92.3663383,1.50466571 C92.3329797,1.48806722 92.3070712,1.4761857 92.289624,1.46920467 C92.3387049,1.48884307 92.4041404,1.50712939 92.5174805,1.51365838 L92.6119607,1.51618804 L92.6119607,-1.48381196 C93.2358471,-1.48381196 93.7215265,-1.23817732 94.8868461,-0.482447767 L95.8744436,0.171979048 L98.6483869,2.06387906 C102.780396,4.87617665 106.184325,7.04139501 110.086072,9.22845446 C123.580801,16.7927004 136.498294,20.6822094 148.560745,19.282742 C149.502937,19.1734303 150.436142,19.0312279 151.360186,18.8555836 C169.094623,15.4845859 176.201068,6.93000016 173.302342,-7.25057128 L173.21144,-7.68200808 L172.278254,-11.9838923 L217.291618,25.9567586 L216.394298,27.0966026 C202.412481,44.8573703 187.273737,53.8106021 171.013262,53.8106021 C164.286891,53.8106021 156.390013,51.5793868 145.728251,47.151535 L144.381015,46.5866152 C142.575691,45.8225845 140.73074,45.0168368 138.532656,44.0362788 L128.179432,39.3999444 C120.273454,35.8899164 118.323398,35.1825504 114.437176,34.072851 L113.683709,33.864878 C107.761123,32.2886581 104.354812,32.8147346 102.938643,35.4989757 C100.620896,39.8920884 100.629798,43.3372644 102.166723,49.0392618 L102.75721,51.1979896 C103.607411,54.3764762 103.734421,55.4301742 103.479836,57.1721718 C103.068549,59.9863989 101.201338,62.162593 97.5837921,63.9196072 C94.5167496,65.4092463 89.3384467,65.168728 81.5175759,63.5414952 L79.253127,63.0543199 C74.7662992,62.0618562 71.1072642,61.0654377 59.1759803,57.682262 L52.9228874,55.9125135 L49.9103057,55.0749475 C27.8008951,48.9971304 15.8486566,47.3635118 10.1423221,50.7951508 C2.82737131,55.1941691 -7.30579552,77.8686157 -12.3445266,101.669329 C-18.1484346,129.084396 -16.1359109,151.058536 -5.22905098,159.102917 C7.11949827,168.210619 18.9247296,173.683461 27.5679159,174.496202 C35.7498502,175.265571 40.1717319,171.894544 40.3000178,164.40337 L40.3028907,164.065191 C40.3028907,159.38741 38.9966784,155.605121 33.8303708,144.405592 L31.5447237,139.479457 C30.118211,136.382187 29.1350583,134.128264 28.2124045,131.798575 L27.8439161,130.852401 C22.1451178,115.963027 22.9077314,105.41606 33.0265403,97.2122015 C43.7436282,88.523286 56.7331187,87.3864122 71.3892977,92.5932789 C82.7242397,96.6202174 94.6625925,104.260912 107.093498,114.714743 L108.587564,115.982654 C114.220336,120.805738 118.092942,120.925378 122.682273,117.254449 L123.069163,116.938263 C124.683466,115.590755 126.348439,113.846353 128.903073,110.914464 L132.961401,106.232145 C134.485812,104.498224 135.834632,103.023658 137.204645,101.611112 C148.690807,89.7683642 161.218182,83.2587965 179.148407,82.5513845 C191.20295,82.0757893 199.926749,84.8058768 206.20627,90.4629815 C211.041889,94.8193012 214.069966,100.275196 217.141388,108.817866 L217.604231,110.126118 L219.522959,115.757063 C221.817166,122.422519 223.358662,125.820797 225.669282,128.715519 C228.660343,132.46269 232.559046,134.340029 238.177875,134.340029 C257.877792,134.340029 271.65544,127.059842 279.736438,112.455755 L279.987115,111.996993 L282.807207,106.770494 L282.807207,160.496468 L258.434131,257.061749 L257.449525,257.211838 C239.157027,260.000266 229.625686,252.143799 229.625686,234.217149 C229.625686,227.656565 232.15088,220.289226 237.001235,211.224025 L237.335542,210.603301 C238.822815,207.859546 240.44005,205.088742 242.540827,201.6497 L244.526821,198.426849 C253.812015,183.421064 254.509213,182.218487 256.285005,177.623587 L256.397484,177.331833 C258.827472,171.015332 258.167772,167.379717 253.958363,165.425754 C244.58638,161.07538 229.912186,159.356081 217.151378,161.416215 C202.453305,163.789105 192.023964,170.635387 188.576816,181.555603 C186.783716,187.235965 186.917232,191.678967 188.657939,195.587529 C189.930273,198.444412 191.614544,200.54069 195.411491,204.339312 L197.249732,206.164415 C200.977478,209.889071 202.724085,211.981971 204.273617,214.924747 C206.473922,219.103435 207.160906,223.731025 206.143677,229.283458 C201.987311,251.970526 180.703973,265.97711 162.46526,261.238268 C152.720483,258.706348 132.78055,248.885516 102.498932,231.729142 L102.001,231.447 L20.9319905,257.66889 L11.7777302,214.297249 L12.5048103,213.720439 C26.4461427,202.660462 40.6995919,197.105356 55.2349326,197.105356 C69.8255995,197.105356 83.3984701,206.252272 95.9493755,224.358125 L96.152,224.653 L98.1773366,225.815313 L102.335,228.186 L145.733,214.15 L119.86,183.024 L119.622038,183.15782 C98.1324687,195.033352 82.4545364,193.374355 73.2558031,177.919392 L72.9733728,177.437005 C63.5251715,161.032342 75.1047447,148.758129 106.301741,140.88496 L107.253108,140.647727 L107.970813,143.560612 C77.6977821,151.019576 67.3830278,161.719661 75.5730282,175.939743 C83.8773507,190.358319 98.0621639,191.857933 118.837179,180.160644 L119.468743,179.802141 L120.56202,179.176555 L150.873651,215.640806 L105.879,230.193 L109.271299,232.101121 C136.040934,247.104673 153.958897,255.833699 162.909103,258.252345 L163.21968,258.334676 C179.75191,262.630134 199.347016,249.734576 203.19279,228.742843 C204.089726,223.847016 203.504128,219.902369 201.619123,216.322482 L201.350222,215.826181 C200.077175,213.543837 198.520122,211.693739 195.438412,208.596436 L193.258402,206.4289 C189.225727,202.392762 187.379448,200.090823 185.917434,196.808034 C183.866307,192.202458 183.710169,187.006696 185.715967,180.652529 C189.55904,168.478062 200.965298,160.990488 216.673243,158.454562 C230.005719,156.302137 245.285322,158.092368 255.221481,162.704627 C261.063669,165.416508 262.094136,170.627423 259.333948,178.048195 L258.739805,179.585525 C257.493258,182.738629 256.533504,184.605861 252.319666,191.50234 L245.778898,202.10781 C243.365192,206.031399 241.586771,209.0558 239.972987,212.032947 C235.12206,220.982051 232.625686,228.12118 232.625686,234.217149 C232.625686,249.795432 240.027925,256.364278 255.53533,254.448209 L256.015,254.386 L279.807,160.121 L279.807,118.037 L279.562378,118.390291 C270.781231,130.871027 257.142518,137.197051 238.804843,137.337633 L238.177875,137.340029 C231.646341,137.340029 226.884825,135.047221 223.324639,130.587056 L222.952632,130.109801 C220.636823,127.065987 219.061747,123.577728 216.871558,117.269583 L215.160443,112.239513 C214.978817,111.709429 214.811939,111.227736 214.649144,110.764348 L214.527648,110.41977 C211.534516,101.962202 208.687702,96.7363147 204.198291,92.6918866 C198.538468,87.593057 190.580634,85.1026759 179.266676,85.5490524 C162.17824,86.2232527 150.34439,92.3724454 139.358139,103.699764 C138.026046,105.073211 136.708957,106.513089 135.214468,108.212975 Z" fill="#F7AD01" fill-rule="nonzero" mask="url(#mask-8)"></path>
                    </g>
                    <path d="M466.650133,187.123352 C467.181879,186.488106 468.127913,186.404203 468.763159,186.935949 L489.909876,204.614962 C515.233036,225.752887 529.052321,237.143095 531.199477,238.649411 C533.524969,240.280838 554.789967,249.164754 594.199658,264.943517 L606.75,269.95638 L607.975596,267.633053 C615.949002,252.591509 619.974037,246.729163 622.701954,247.749188 L622.790335,247.784836 C624.791138,248.651217 624.781749,253.166954 622.957027,262.889306 L622.732,264.06138 L622.866542,263.794348 C628.628708,252.311886 632.652731,247.117247 635.787732,247.67373 L635.911022,247.698682 C639.570184,248.53092 638.818141,255.800755 634.099268,271.099027 L633.523,272.94438 L634.641716,271.283261 C641.12997,261.69263 644.535251,257.563185 646.224963,257.455698 L646.291942,257.453541 C647.025224,257.453541 647.597613,257.910115 647.832916,258.532055 C647.949009,258.838904 647.974905,259.136096 647.955606,259.468779 C647.932276,259.870958 647.832567,260.364091 647.661083,260.991681 L647.534896,261.433803 C647.28219,262.286509 646.911636,263.372787 646.417228,264.72167 L645.796086,266.3842 C645.36335,267.524163 644.859551,268.819413 644.238099,270.393694 L640.400765,280.042208 L639.179657,283.1579 C635.654667,292.238349 633.874658,297.673918 633.874658,299.820509 C633.874658,301.933448 635.763268,304.354137 639.534066,307.486471 L640.159726,307.994891 C641.132352,308.767476 644.087612,311.099077 644.819056,311.748517 L645.192827,312.087957 C646.925952,313.701724 647.580503,314.938984 646.557483,316.36266 L646.486197,316.452472 C645.31264,317.792744 640.894193,316.716542 625.731667,312.284418 L623.334704,311.581413 C612.183299,308.295433 597.415665,303.714913 581.429498,298.598052 L571.350012,295.353422 C541.936888,285.830825 517.483233,277.428821 514.122698,275.5587 L514.017433,275.498144 C509.613381,272.867996 483.792948,254.457332 436.293883,220.085164 C435.622746,219.599503 435.472387,218.661733 435.958048,217.990596 C436.443709,217.319459 437.381479,217.169101 438.052616,217.654762 L461.514759,234.606192 C493.982504,258.020143 512.044328,270.82551 515.555635,272.922502 C518.392048,274.616439 547.063936,284.410392 579.339692,294.777525 L586.392314,297.033453 C601.128026,301.726852 614.616222,305.893609 624.886403,308.910808 L629.192328,310.162576 C633.21429,311.318032 636.562342,312.236741 639.161822,312.8959 L639.884097,313.077149 C640.6142,313.258325 641.275449,313.415834 641.865611,313.549176 L642.462,313.68038 L641.299798,312.736296 L637.972398,310.086944 C633.284471,306.252861 630.874658,303.24116 630.874658,299.820509 C630.874658,297.088216 632.71198,291.486236 636.570545,281.588707 L637.813919,278.425877 L641.446145,269.295961 C642.063151,267.732966 642.562537,266.449108 642.990058,265.322958 L643.466,264.05338 L642.863548,264.852147 C642.695334,265.077243 642.522573,265.310263 642.345287,265.551188 L641.601769,266.571215 C638.698856,270.588842 634.756641,276.430741 629.779973,284.090829 C628.816532,285.573757 626.529253,284.459262 627.10338,282.786638 L627.824705,280.670856 C631.19152,270.725401 633.418509,263.12073 634.503324,257.876352 C635.06839,255.144625 635.316377,253.081528 635.257217,251.72689 C635.238558,251.299625 635.189897,250.968422 635.124983,250.740872 L635.1,250.66438 C634.907466,250.755051 634.563238,250.98567 634.092864,251.432141 L633.947997,251.572632 C633.031541,252.479968 631.929671,253.938829 630.663864,255.936505 L630.424609,256.317381 C627.621247,260.818089 624.098583,267.781985 619.870422,277.191348 C619.127662,278.84429 616.635175,278.007647 617.040146,276.241321 L617.683493,273.400598 C619.278555,266.264361 620.354964,260.69638 620.912031,256.706879 L620.96432,256.325727 C621.243112,254.255581 621.371931,252.649356 621.354584,251.527927 L621.35,251.36438 L621.338742,251.378056 C620.715983,252.067218 619.93929,253.104748 619.02082,254.481056 L618.586888,255.140296 L618.174739,255.781773 C615.794861,259.525532 612.660897,265.117395 608.78151,272.545796 C608.425419,273.227651 607.611246,273.529621 606.896652,273.244873 L591.557344,267.117557 C552.932645,251.646418 532.517953,243.108303 529.570275,241.168889 L529.476551,241.105328 C526.677982,239.142019 505.907852,221.941023 466.837536,189.236379 C466.20229,188.704632 466.118387,187.758598 466.650133,187.123352 Z" id="Path-5" fill="#131313" fill-rule="nonzero"></path>
                    <path d="M612.712449,86.6342984 C613.251827,86.0055197 614.198806,85.9330462 614.827584,86.4724243 C615.456363,87.0118025 615.528837,87.9587807 614.989458,88.5875595 L607.560132,97.2312776 C583.448762,125.224412 568.720005,141.699705 563.293435,146.740126 C557.064634,152.525691 525.441935,160.600772 467.402458,171.411624 C466.588039,171.563323 465.804845,171.026083 465.653145,170.211664 C465.501445,169.397244 466.038686,168.61405 466.853105,168.462351 C523.870215,157.841932 555.677395,149.719743 561.251764,144.542041 L561.615777,144.199883 C567.783734,138.338602 584.84944,119.115533 612.712449,86.6342984 Z" id="Path-6" fill="#131313" fill-rule="nonzero"></path>
                    <path d="M585.152624,68.3357292 C585.765041,67.7778431 586.713759,67.8220493 587.271645,68.4344664 C587.829532,69.0468834 587.785325,69.9956016 587.172908,70.5534876 L579.440089,77.5877807 C554.600007,100.148372 542.068645,111.14784 540.301316,111.866401 L540.080343,111.946712 C537.034082,112.979754 512.485334,119.430578 465.299008,131.609517 C464.496868,131.816552 463.67877,131.334124 463.471736,130.531984 C463.264701,129.729845 463.747129,128.911747 464.549268,128.704712 L498.30326,119.96565 C524.247834,113.220852 538.031821,109.55065 539.171398,109.087321 C540.560752,108.522437 556.571103,94.3722856 585.152624,68.3357292 Z" id="Path-8" fill="#131313" fill-rule="nonzero"></path>
                    <path d="M536.08299,59.0726122 L587.236096,59.0726122 C589.495714,77.7465824 591.648262,87.0835674 593.69374,87.0835674 C595.739217,87.0835674 597.67796,77.7465824 599.509966,59.0726122 L599.214062,77.0145617 L600.799278,86.0582348 L604.350091,86.0860584 L608.707493,59.0726122 C609.728407,77.1336392 610.988147,86.1641527 612.486712,86.1641527 C613.985277,86.1641527 615.820378,77.1336392 617.992015,59.0726122 L691.08299,59.0726122 L691.08299,86.0726122 L536.08299,86.0726122 L536.08299,59.0726122 Z" id="Rectangle" fill="#7C00D9" transform="translate(613.582990, 73.078090) rotate(33.000000) translate(-613.582990, -73.078090) "></path>
                    <path d="M600.260975,42.4508762 C600.655537,41.7224446 601.565903,41.4517895 602.294335,41.8463511 C603.022766,42.2409128 603.293421,43.1512787 602.89886,43.8797103 L601.849,45.8274078 C597.166982,54.5575024 593.861005,61.3362961 591.93591,66.1479538 L591.595699,67.0152934 C590.78561,69.1249353 590.278794,70.793311 590.074719,71.9987483 C590.011278,72.3734835 589.979605,72.6905959 589.975495,72.9447538 L589.977,73.1063796 L590.036523,73.0820784 C590.198198,73.0083279 590.388159,72.9040624 590.602874,72.7680402 L590.768495,72.6600497 C591.829603,71.9492208 593.245055,70.6547967 594.982421,68.7899484 L595.555461,68.1670595 C597.890181,65.5986135 600.735514,62.1075865 604.087309,57.6977192 L605.521,55.7953796 L605.776602,55.4430032 C606.404862,54.5762174 607.054655,53.6875584 607.725956,52.7767589 L609.537511,50.3348776 C610.725103,48.7438551 613.118775,50.5033701 611.954658,52.1116487 L610.82333,53.6692964 C610.265438,54.4346863 609.719153,55.179946 609.184253,55.9051689 L607.888,57.6523796 L606.832961,59.1268294 C602.786848,64.8139071 599.773653,69.4639905 597.797022,73.0683127 L597.613659,73.4051727 L597.19456,74.1963503 C596.126926,76.2543648 595.458967,77.8968362 595.189799,79.0949334 C595.060916,79.6686055 595.033264,80.1001566 595.082434,80.3726596 L595.104827,80.4949511 L595.142046,80.4937624 C595.170771,80.4915955 595.219216,80.4859359 595.297584,80.4716172 C595.614126,80.4137812 596.059573,80.2227663 596.610493,79.8848546 C597.873194,79.1103669 599.526226,77.6694785 601.534291,75.5733914 L602.07973,74.9972907 C606.138369,70.6617013 611.489328,63.8876067 618.115964,54.6892192 C619.241939,53.1262612 621.618006,54.7060483 620.61242,56.3490496 L619.096261,58.8391847 C614.427849,66.5486156 611.020786,72.5856831 608.879613,76.9391931 L608.713203,77.2793934 C607.631013,79.5041824 606.901942,81.2545231 606.528941,82.5059512 L606.435611,82.836534 L606.4,82.9763796 L606.584998,82.8492413 C607.634793,82.1066397 609.068856,80.8032595 610.860565,78.9523664 L611.393252,78.3970577 C615.009511,74.5943321 619.925844,68.7784342 626.130831,60.9596365 C626.645809,60.3107222 627.589329,60.202145 628.238243,60.7171225 C628.887158,61.2320999 628.995735,62.1756206 628.480757,62.8245348 L626.781139,64.9585811 C613.473573,81.6040342 607.065171,88.0289736 604.240128,86.0686218 C602.529296,84.881443 603.27373,81.3717746 606.613924,74.689506 L606.862,74.1963796 L606.639219,74.4544348 C600.254992,81.7925087 596.079309,84.6025204 593.540987,83.0550571 L593.419441,82.9767799 C591.539119,81.6998718 591.670691,78.8838226 593.793854,74.2945538 L593.955,73.9513796 L593.773371,74.1012607 C591.356864,76.0661534 589.57662,76.6267751 588.289434,75.8432589 L588.186145,75.7767863 C584.855706,73.5150094 588.871318,63.4782296 600.260975,42.4508762 Z" id="Path-7" fill="#131313" fill-rule="nonzero"></path>
                    <path d="M344.057851,223.672173 C344.647924,223.090705 345.597646,223.09768 346.179114,223.687753 C346.760583,224.277826 346.753607,225.227548 346.163534,225.809016 L342.501617,229.411382 C303.545161,267.667036 281.098264,287.50395 274.292196,289.523793 C267.508575,291.536974 236.160236,295.336943 179.811499,300.997434 C178.987221,301.080237 178.251886,300.479152 178.169084,299.654873 C178.086281,298.830595 178.687366,298.09526 179.511645,298.012457 L189.321729,297.019942 C239.16838,291.939049 267.327986,288.461245 273.438677,286.64777 C279.706468,284.787672 303.563478,263.576061 344.057851,223.672173 Z" id="Path-12" fill="#131313" fill-rule="nonzero"></path>
                    <g id="Path-18" transform="translate(0.000000, 180.454819)">
                        <mask id="mask-10" fill="white">
                            <use xlink:href="#path-9"></use>
                        </mask>
                        <use id="Mask" fill="#FFFFFF" transform="translate(110.000000, 104.735560) rotate(-27.000000) translate(-110.000000, -104.735560) " xlink:href="#path-9"></use>
                        <path d="M98.9220046,26 C113.32733,70.4378091 106.211219,101.177078 77.4265811,117.728457 L76.5476867,118.22567 C56.2450695,129.525771 51.0740012,145.078517 62.3779848,156.959715 C75.0594594,170.288742 104.907226,176.417335 145.227037,171.546989 C165.677097,169.076767 178.931244,165.188707 185.011972,160.441214 C189.764227,156.730918 189.62941,152.899724 185.12999,148.87114 C175.206383,139.985976 150.346198,135.285218 133.013018,140.123922 L132.490097,140.273475 C114.659755,145.496281 102.235227,138.263341 100.479512,125.096616 C98.8056521,112.543754 107.933986,101.842654 122.00205,103.242936 C129.070127,103.946466 135.254494,106.14835 145.63636,111.014389 L151.543933,113.789593 C155.789329,115.768515 156.982412,116.2518 159.52991,117.172564 C164.075961,118.815681 167.815679,119.5081 171.171283,119.206833 C178.894617,118.513432 185.04717,112.321476 190.31807,98.3415377 L190.512886,97.8201969 C194.874974,86.0428552 193.649909,80.8887072 188.090878,79.924863 C183.255019,79.0864048 175.920854,80.9101652 163.642835,85.4423666 L160.61089,86.5753623 L151.492808,90.0066513 C147.485511,91.491944 145.84843,92.0287049 143.318077,92.7676961 L143.14413,92.8184087 C137.492836,94.4632403 133.726073,94.8201269 131.345794,93.5115232 C120.043235,87.2977259 119.789319,67.3387186 128.831429,58.5678338 L129.108276,58.3054997 L131.146022,60.507225 C123.210902,67.8513527 123.337184,85.6851572 132.791084,90.8826191 C134.171751,91.6416673 137.228517,91.3782226 141.878632,90.0606216 L143.12667,89.6966586 C146.146281,88.7988526 148.231169,88.0462372 156.347868,84.9796438 L161.217019,83.1432919 L161.99041,82.8551815 C175.19044,77.952146 182.946813,75.9882082 188.603382,76.9689639 C196.526071,78.3426273 198.246005,85.5788155 193.326124,98.8621628 C187.650967,114.184704 180.609581,121.371529 171.439544,122.194815 C167.729465,122.527906 163.751506,121.830609 159.074752,120.194735 L157.254375,119.533691 C154.80443,118.618124 153.099878,117.844263 146.631954,114.798982 L143.774105,113.455519 C134.043501,108.921086 128.206034,106.875282 121.704909,106.228185 C109.659251,105.029205 102.023756,113.980258 103.453191,124.700091 C104.941151,135.858823 115.306251,141.995792 131.164548,137.532932 L131.646781,137.394444 C149.956087,132.031341 176.299597,136.938011 187.131144,146.636105 C192.954485,151.85007 193.166693,157.880518 186.858162,162.805867 C180.235834,167.976212 166.537085,171.994694 145.5868,174.525339 C104.421092,179.497864 73.6737243,173.184557 60.2045259,159.027582 C47.4778853,145.651082 53.1376387,128.112006 74.4384359,115.970602 L75.0886994,115.604343 C102.895096,100.127763 110.07669,71.1662563 96.4863909,28.2304732 L96.0682054,26.925111 L98.9220046,26 Z" fill="#F7AD01" fill-rule="nonzero" mask="url(#mask-10)"></path>
                    </g>
                    <path d="M313.207523,200.366869 C313.75596,200.987762 313.697222,201.935692 313.076328,202.484129 L255.579296,253.271395 L238.692843,257.975056 C233.025383,259.556669 227.393772,261.13117 221.941356,262.659153 L196.621003,269.791249 C187.130454,272.484494 180.670627,274.352522 177.996092,275.187219 L176.962891,275.520828 C174.769233,276.233225 172.098625,276.537778 165.911258,276.946896 L163.26215,277.120527 C154.761328,277.708242 150.867395,278.532185 150.867395,279.487649 L150.88017,279.511357 C150.895141,279.53445 150.926277,279.576193 150.988397,279.64465 C151.191993,279.869016 151.559448,280.129238 152.090906,280.400949 C153.314507,281.026521 155.241951,281.632382 157.846681,282.194676 L158.611946,282.354701 C163.962842,283.439084 171.805979,284.33636 182.120497,285.039644 C182.947005,285.095999 183.571338,285.8117 183.514983,286.638208 C183.458629,287.464716 182.742927,288.089049 181.916419,288.032695 L179.184964,287.838713 C157.81049,286.256727 147.867395,283.932476 147.867395,279.487649 C147.867395,277.188972 149.854717,275.971576 153.352826,275.21588 L153.665392,275.150383 C155.860819,274.704099 158.240694,274.454683 162.571634,274.159236 L166.886468,273.873831 C171.800422,273.531951 174.172307,273.244695 175.89411,272.712425 L176.919857,272.380922 C179.939242,271.43146 188.101099,269.080569 200.299601,265.631133 L215.079557,261.468129 L235.762642,255.678292 L254.11,250.56538 L311.090263,200.235674 C311.711157,199.687238 312.659086,199.745976 313.207523,200.366869 Z" id="Path-13" fill="#131313" fill-rule="nonzero"></path>
                    <path d="M306.951866,196.933914 C251.439287,175.365283 222.232282,161.87136 219.330852,156.452146 C216.429421,151.032931 206.005222,133.258144 188.058255,103.127784" id="Path-14" stroke="#131313" stroke-width="3" stroke-linecap="round"></path>
                    <path d="M197.691454,63.0099835 C198.302624,62.5307581 199.169517,62.6010837 199.696685,63.1489076 L199.797412,63.2648177 L248.464,125.33138 L317.563498,157.624256 C318.269862,157.95437 318.598483,158.764595 318.342281,159.48448 L318.287339,159.618261 C317.957225,160.324625 317.147,160.653246 316.427115,160.397044 L316.293334,160.342102 L246.5456,127.746058 L197.43662,65.1159416 C196.925446,64.4640268 197.039539,63.5211572 197.691454,63.0099835 Z" id="Path-15" fill="#131313" fill-rule="nonzero"></path>
                    <g id="Path-17" transform="translate(43.775238, 0.000000)">
                        <mask id="mask-12" fill="white">
                            <use xlink:href="#path-11"></use>
                        </mask>
                        <use id="Mask" fill="#7C00D9" xlink:href="#path-11"></use>
                        <path d="M131.237846,-15 L132.464054,-12.2620418 L62.7377624,18.9643796 L77.8917624,26.2853796 L169.491498,5.79177009 L107.652762,40.6613796 L155.924762,63.9803796 L186.611112,56.8622632 L187.565985,59.6911887 L166.592762,69.1343796 L219.263362,94.5780629 L217.958428,97.2793863 L163.022762,70.7413796 L23.2837624,133.66538 L23.2837624,136.28138 L161.919641,97.795552 L32.6427624,164.52538 L113.095266,164.526079 L20.2846042,202.534382 L20.2837624,140.22738 L-10.0033102,148.635721 L-11.0204219,145.822646 L20.2837624,131.72638 L20.2837624,98.5293796 L-16,106.947651 L20.2837624,86.4863796 L20.2837624,42.2483796 L-13.4360116,49.7928773 L20.2837624,34.6903796 L20.2846042,-1.54299994 L59.2067624,17.2583796 L131.237846,-15 Z M97.8537624,167.52538 L23.2837624,167.52538 L23.2837624,198.06338 L97.8537624,167.52538 Z M134.719762,108.45938 L23.2837624,139.39438 L23.2837624,165.98038 L134.719762,108.45938 Z M20.2837624,135.01538 L8.13476238,140.48638 L20.2837624,137.11338 L20.2837624,135.01538 Z M155.572762,67.1423796 L23.2837624,97.8333796 L23.2837624,130.37538 L159.498762,69.0393796 L155.572762,67.1423796 Z M20.2837624,89.9293796 L3.65276238,99.3083796 L20.2837624,95.4493796 L20.2837624,89.9293796 Z M104.470762,42.4563796 L23.2837624,88.2383796 L23.2837624,94.7533796 L151.264762,65.0613796 L104.470762,42.4563796 Z M77.5277624,29.4403796 L23.2837624,41.5773796 L23.2837624,84.7943796 L101.181762,40.8673796 L77.5277624,29.4403796 Z M172.358762,63.2483796 L160.231762,66.0613796 L163.068762,67.4313796 L172.358762,63.2483796 Z M20.2837624,37.9773796 L14.9467624,40.3683796 L20.2837624,39.1743796 L20.2837624,37.9773796 Z M150.330762,13.1523796 L82.2407624,28.3863796 L104.363762,39.0733796 L150.330762,13.1523796 Z M59.1587624,20.5673796 L23.2837624,36.6343796 L23.2837624,38.5023796 L73.1777624,27.3393796 L59.1587624,20.5673796 Z M23.2837624,3.23737963 L23.2837624,33.3473796 L55.6277624,18.8613796 L23.2837624,3.23737963 Z" fill="#F7AD01" fill-rule="nonzero" mask="url(#mask-12)"></path>
                    </g>
                    <path d="M182.866522,55.7600337 C186.416485,54.3860573 192.440898,60.2691406 202.561473,73.7915885 C203.057862,74.4548304 202.9226,75.3948967 202.259359,75.8912853 C201.596117,76.387674 200.65605,76.2524127 200.159662,75.5891708 L199.31602,74.4678095 C195.006996,68.7708861 191.470075,64.5742587 188.721288,61.8899559 C186.715887,59.9316002 185.212073,58.8907423 184.43082,58.6139535 L184.348,58.5873796 L184.36185,58.6869035 C184.382523,58.8211964 184.412998,58.9752368 184.454332,59.1475721 L184.499323,59.3259519 C184.850054,60.6540572 185.701275,62.6309557 187.048797,65.2156075 L187.411986,65.9044541 C190.218389,71.1706701 194.880541,78.6836179 201.390918,88.4260794 C201.8512,89.1148694 201.665958,90.0463766 200.977168,90.5066589 C200.288378,90.9669411 199.356871,90.781699 198.896588,90.092909 L197.19029,87.526669 C191.23345,78.5204604 186.968417,71.550746 184.388624,66.6025029 L184.039618,65.9265769 C180.984033,59.9474232 180.248816,56.7731894 182.866522,55.7600337 Z" id="Path-16" fill="#131313" fill-rule="nonzero"></path>
                </g>
            </g>
        </g>
    </g>
</svg>