<?xml version="1.0" encoding="UTF-8"?>
<svg width="642px" height="480px" viewBox="0 0 642 480" version="1.1" xmlns="http://www.w3.org/2000/svg" xmlns:xlink="http://www.w3.org/1999/xlink">
    <title>illustration-8 hover</title>
    <defs>
        <rect id="path-1" x="0" y="0.697240415" width="118.653576" height="74.0532959" rx="6"></rect>
        <rect id="path-3" x="0.11715325" y="0.318573245" width="118.653576" height="74.0532959" rx="6"></rect>
        <rect id="path-5" x="0.531078958" y="0.365870172" width="118.653576" height="74.0532959" rx="6"></rect>
        <rect id="path-7" x="0" y="0.697240415" width="118.653576" height="74.0532959" rx="6"></rect>
        <rect id="path-9" x="0" y="0.697240415" width="118.653576" height="74.0532959" rx="6"></rect>
        <path d="M0,181.947972 L148.481658,20.0535236 C161.148711,7.17287527 175.220194,0.732551116 190.696107,0.732551116 C206.17202,0.732551116 221.928631,8.00586579 237.965939,22.5524951 L383.823737,182.440293 L338.780017,218.436552 L191.911868,64.0105203 L44.9301328,219.742444 L0,181.947972 Z" id="path-11"></path>
    </defs>
    <g id="Desktop" stroke="none" stroke-width="1" fill="none" fill-rule="evenodd" opacity="0.2">
        <g id="Artboard" transform="translate(-2214.000000, -1212.000000)">
            <g id="illustration-8-hover" transform="translate(2214.000000, 1212.000000)">
                <g id="Group-3" transform="translate(0.430575, 0.695466)">
                    <g id="Group-2" transform="translate(0.841515, 0.000000)">
                        <path d="M0,10.7954171 L0,-8.37105046e-14 L32.1355329,-8.37105046e-14 L40.9137788,10.7954171 L112.653576,10.7954171 C115.967285,10.7954171 118.653576,13.4817086 118.653576,16.7954171 L118.653576,78.8487131 C118.653576,82.1624216 115.967285,84.8487131 112.653576,84.8487131 L6,84.8487131 C2.6862915,84.8487131 4.05812251e-16,82.1624216 0,78.8487131 L0,10.7954171 L0,10.7954171 Z" id="Rectangle" fill="#7C00D9"></path>
                        <rect id="Rectangle-Copy-3" fill="#DD63B1" x="0" y="20.0520791" width="118.653576" height="74.0532959" rx="6"></rect>
                    </g>
                    <g id="Group-2-Copy" transform="translate(0.841515, 127.765964)">
                        <path d="M0,10.7954171 L0,0 L32.1355329,0 L40.9137788,10.7954171 L112.653576,10.7954171 C115.967285,10.7954171 118.653576,13.4817086 118.653576,16.7954171 L118.653576,78.8487131 C118.653576,82.1624216 115.967285,84.8487131 112.653576,84.8487131 L6,84.8487131 C2.6862915,84.8487131 4.05812251e-16,82.1624216 0,78.8487131 L0,10.7954171 L0,10.7954171 Z" id="Rectangle" fill="#131313"></path>
                        <g id="Combined-Shape" transform="translate(0.000000, 19.354839)">
                            <mask id="mask-2" fill="white">
                                <use xlink:href="#path-1"></use>
                            </mask>
                            <use id="Mask" fill="#DD63B1" xlink:href="#path-1"></use>
                            <path d="M266.535923,34.1571913 L267.304979,36.5617446 L-87.0598846,149.899389 L-87.8289405,147.494835 L266.535923,34.1571913 Z M266.535923,13.9608379 L267.304979,16.3653912 L-87.0598846,129.703035 L-87.8289405,127.298482 L266.535923,13.9608379 Z M266.535923,-6.23551552 L267.304979,-3.83096228 L-87.0598846,109.506682 L-87.8289405,107.102128 L266.535923,-6.23551552 Z M266.535923,-26.431869 L267.304979,-24.0273157 L-87.0598846,89.3103283 L-87.8289405,86.905775 L266.535923,-26.431869 Z M266.535923,-46.6282224 L267.304979,-44.2236692 L-87.0598846,69.1139748 L-87.8289405,66.7094216 L266.535923,-46.6282224 Z M266.535923,-66.8245758 L267.304979,-64.4200226 L-87.0598846,48.9176214 L-87.8289405,46.5130682 L266.535923,-66.8245758 Z M266.535923,-87.0209293 L267.304979,-84.616376 L-87.0598846,28.721268 L-87.8289405,26.3167147 L266.535923,-87.0209293 Z M266.535923,-107.217283 L267.304979,-104.812729 L-87.0598846,8.52491452 L-87.8289405,6.12036128 L266.535923,-107.217283 Z M266.535923,-127.413636 L267.304979,-125.009083 L-87.0598846,-11.6714389 L-87.8289405,-14.0759922 L266.535923,-127.413636 Z" fill="#F7AD01" fill-rule="nonzero" mask="url(#mask-2)" transform="translate(89.738019, 11.242876) rotate(-22.000000) translate(-89.738019, -11.242876) "></path>
                        </g>
                    </g>
                    <g id="Group-2-Copy-2" transform="translate(0.841515, 255.676203)">
                        <path d="M0,10.7954171 L0,-8.37105046e-14 L32.1355329,-8.37105046e-14 L40.9137788,10.7954171 L112.653576,10.7954171 C115.967285,10.7954171 118.653576,13.4817086 118.653576,16.7954171 L118.653576,78.8487131 C118.653576,82.1624216 115.967285,84.8487131 112.653576,84.8487131 L6,84.8487131 C2.6862915,84.8487131 4.05812251e-16,82.1624216 0,78.8487131 L0,10.7954171 L0,10.7954171 Z" id="Rectangle" fill="#7C00D9"></path>
                        <rect id="Rectangle-Copy-3" fill="#FFFFFF" x="0" y="20.0520791" width="118.653576" height="74.0532959" rx="6"></rect>
                    </g>
                    <g id="Group-2-Copy-3" transform="translate(0.000000, 383.586441)">
                        <path d="M0.841514727,10.7954171 L0.841514727,0 L32.9770477,0 L41.7552936,10.7954171 L113.495091,10.7954171 C116.8088,10.7954171 119.495091,13.4817086 119.495091,16.7954171 L119.495091,78.8487131 C119.495091,82.1624216 116.8088,84.8487131 113.495091,84.8487131 L6.84151473,84.8487131 C3.52780623,84.8487131 0.841514727,82.1624216 0.841514727,78.8487131 L0.841514727,10.7954171 L0.841514727,10.7954171 Z" id="Rectangle" fill="#131313"></path>
                        <g id="Path-17" transform="translate(0.724361, 19.733506)">
                            <mask id="mask-4" fill="white">
                                <use xlink:href="#path-3"></use>
                            </mask>
                            <use id="Mask" fill="#E73D11" xlink:href="#path-3"></use>
                            <path d="M51.5325495,-64.7966339 L52.5644213,-62.4926018 L-6.1112799,-36.2151083 L6.64103426,-30.054379 L83.723561,-47.3000532 L31.685354,-17.9567633 L72.3069529,1.66651862 L98.129968,-4.32348114 L98.9335081,-1.94289875 L81.284232,6.00368552 L125.607317,27.4149197 L124.509196,29.6881231 L78.2800244,7.35599969 L-39.3124019,60.3074723 L-39.3124019,62.5088749 L77.3517312,30.1224842 L-31.4366656,86.2766168 L36.2653012,86.2772057 L-41.8362377,118.261752 L-41.8369461,65.829492 L-67.3239637,72.9052349 L-68.1798782,70.5379911 L-41.8369461,58.6757753 L-41.8369461,30.7400109 L-72.3702665,37.8241104 L-41.8369461,20.6056491 L-41.8369461,-16.6212794 L-70.2126325,-10.2724735 L-41.8369461,-22.9814477 L-41.8362377,-53.4723702 L-9.0826684,-37.6507324 L51.5325495,-64.7966339 Z M23.4393512,88.801161 L-39.3124019,88.801161 L-39.3124019,114.499338 L23.4393512,88.801161 Z M54.4626331,39.0962521 L-39.3124019,65.1285102 L-39.3124019,87.5010207 L54.4626331,39.0962521 Z M-41.8369461,61.4435172 L-52.0605085,66.0474443 L-41.8369461,63.2090151 L-41.8369461,61.4435172 Z M72.0107397,4.32738819 L-39.3124019,30.1543167 L-39.3124019,57.5388889 L75.3145265,5.92374163 L72.0107397,4.32738819 Z M-41.8369461,23.5029843 L-55.8321775,31.3955509 L-41.8369461,28.1481456 L-41.8369461,23.5029843 Z M29.0076542,-16.4462443 L-39.3124019,22.0799829 L-39.3124019,27.5624513 L68.3854943,2.57619604 L29.0076542,-16.4462443 Z M6.3347229,-27.3994 L-39.3124019,-17.1859358 L-39.3124019,19.1818061 L26.2399122,-17.7834112 L6.3347229,-27.3994 Z M86.1364059,1.05052984 L75.9313568,3.41771077 L78.3187341,4.57058595 L86.1364059,1.05052984 Z M-41.8369461,-20.2153888 L-46.3281102,-18.2033271 L-41.8369461,-19.2080957 L-41.8369461,-20.2153888 Z M67.5995195,-41.1059919 L10.3007818,-28.2863566 L28.9176121,-19.2930887 L67.5995195,-41.1059919 Z M-9.12306111,-34.8661602 L-39.3124019,-21.3455431 L-39.3124019,-19.7735936 L2.67413384,-29.1674225 L-9.12306111,-34.8661602 Z M-39.3124019,-49.4496104 L-39.3124019,-24.111602 L-12.0944496,-36.3017843 L-39.3124019,-49.4496104 Z" fill="#F7AD01" fill-rule="nonzero" mask="url(#mask-4)" transform="translate(26.618525, 26.732559) scale(-1, -1) rotate(47.000000) translate(-26.618525, -26.732559) "></path>
                        </g>
                    </g>
                    <g id="Group-2-Copy-7" transform="translate(165.778401, 0.000000)">
                        <path d="M0.841514727,10.7954171 L0.841514727,0 L32.9770477,0 L41.7552936,10.7954171 L113.495091,10.7954171 C116.8088,10.7954171 119.495091,13.4817086 119.495091,16.7954171 L119.495091,78.8487131 C119.495091,82.1624216 116.8088,84.8487131 113.495091,84.8487131 L6.84151473,84.8487131 C3.52780623,84.8487131 0.841514727,82.1624216 0.841514727,78.8487131 L0.841514727,10.7954171 L0.841514727,10.7954171 Z" id="Rectangle" fill="#DD63B1"></path>
                        <g id="Path-9" transform="translate(0.310436, 19.686209)">
                            <mask id="mask-6" fill="white">
                                <use xlink:href="#path-5"></use>
                            </mask>
                            <use id="Mask" fill="#FFFFFF" xlink:href="#path-5"></use>
                            <path d="M32.4068695,89.0927996 C42.5531679,65.4130747 25.3946998,54.6627914 -3.63185171,64.4713972 L-4.38000099,64.7286578 L-4.25139638,64.9623617 C-1.90223533,69.1991599 0.973545044,73.6590143 4.04416395,77.7572879 L4.5061766,78.3692441 C10.1881277,85.8378087 15.9593742,91.3593435 20.8189343,93.6950539 C26.0960141,96.2314419 29.8968473,94.9507622 32.4068695,89.0927996 Z M61.2404759,63.0203829 L61.5227948,62.5879461 C66.3407751,55.1595299 68.5453657,49.8574693 68.2353866,44.6024784 C68.099997,42.3072559 67.4374706,40.1285239 66.1907466,38.0393672 C60.8066661,29.0171716 51.0629724,24.8070316 39.1665512,24.9520728 C29.6798866,25.0677343 19.7286066,28.2192798 16.3046754,31.628814 L15.5857075,32.3551986 C15.1527163,32.7986226 14.6872892,33.2852616 14.1440253,33.8610031 L11.1862283,37.0134243 L10.8636055,37.3532974 C3.26999743,45.3314328 -2.2772709,48.9906355 -9.49271537,48.9906355 C-9.89667229,48.9906355 -10.0674934,49.2948509 -9.97337772,50.5805855 C-9.85242034,52.2330102 -9.11459948,54.7036578 -7.83947273,57.703307 C-7.28025086,59.0188386 -6.63213224,60.4046653 -5.90934196,61.835721 L-5.57326887,62.4944362 L-5.1494138,62.3464148 C25.8310328,51.720196 45.6252326,63.3542639 35.0938706,89.2101657 L34.7273682,90.0870879 C31.635444,97.3031101 26.2637641,99.1130819 19.7252979,95.9704182 C14.4287409,93.4246686 8.39956707,87.6563665 2.49698733,79.8977995 C-0.824456053,75.5319727 -3.94311637,70.7275712 -6.47342559,66.1607839 L-6.78168402,65.5996255 L-7.61606134,65.9191821 C-9.6427241,66.706059 -11.7201727,67.587932 -13.8436774,68.5671387 L-14.9092459,69.0648641 L-15.9887798,66.7827751 C-13.3734081,65.5455831 -10.8139325,64.4516824 -8.31966505,63.4971619 L-7.96485372,63.3628794 L-8.17552542,62.9483303 C-8.81217811,61.6868146 -9.39330811,60.4578386 -9.90992258,59.2771735 L-10.1628119,58.6909398 C-11.537045,55.4581496 -12.3459024,52.7496307 -12.4911854,50.7648889 C-12.6784219,48.2070115 -11.7008711,46.4660913 -9.49271537,46.4660913 C-3.28599249,46.4660913 1.71658373,43.2344264 8.67922191,35.9848751 L9.3535667,35.2771415 L12.5435318,31.8790937 C13.3030672,31.0770137 13.9176787,30.4430274 14.523318,29.8399347 C18.4821889,25.8977101 29.050751,22.5506729 39.1357743,22.4277163 C51.8549632,22.2726438 62.4549399,26.8527741 68.3586185,36.7456691 C69.8144176,39.1851765 70.5964695,41.7569707 70.7555501,44.4538201 C71.1064224,50.4020627 68.7371781,56.1042461 63.645049,63.955249 L63.2434075,64.565656 C62.6020169,65.5211452 59.3328927,70.415801 58.548226,71.7046827 L58.2114214,72.2675655 C57.0287251,74.2812573 56.4193065,75.7475843 56.333223,76.8304911 C56.1535819,79.0903284 58.9859538,80.21527 67.2142833,79.821096 C98.2597521,78.3338787 113.123353,41.3889563 89.6762271,28.5456867 C73.1153814,19.4744083 69.8296855,3.28495537 79.691923,-19.5037667 L79.994803,-20.1963534 L82.3039876,-19.1760645 C72.6521336,2.66864214 75.4031833,17.5797095 90.4299203,26.0760431 L90.8890334,26.3315448 C102.858534,32.8878933 106.559142,46.118402 101.338817,59.0940256 C96.0725466,72.1838512 83.1780263,81.5838003 67.3350818,82.3427485 L66.5797711,82.3748448 C57.5271937,82.7089211 53.470993,80.9783042 53.8166177,76.6304387 C53.9451073,75.0140738 54.7255117,73.1757924 56.1961242,70.7162595 L56.3918607,70.3918949 C56.7673772,69.7750771 57.6725384,68.3903503 58.6006095,66.9854079 L61.2404759,63.0203829 Z" fill="#F7AD01" fill-rule="nonzero" mask="url(#mask-6)"></path>
                        </g>
                    </g>
                    <g id="Group-2-Copy-6" transform="translate(166.619916, 127.765964)">
                        <path d="M0,10.7954171 L0,-8.37105046e-14 L32.1355329,-8.37105046e-14 L40.9137788,10.7954171 L112.653576,10.7954171 C115.967285,10.7954171 118.653576,13.4817086 118.653576,16.7954171 L118.653576,78.8487131 C118.653576,82.1624216 115.967285,84.8487131 112.653576,84.8487131 L6,84.8487131 C2.6862915,84.8487131 4.05812251e-16,82.1624216 0,78.8487131 L0,10.7954171 L0,10.7954171 Z" id="Rectangle" fill="#7C00D9"></path>
                        <rect id="Rectangle-Copy-3" fill="#E73D11" x="0" y="20.0520791" width="118.653576" height="74.0532959" rx="6"></rect>
                    </g>
                    <g id="Group-2-Copy-5" transform="translate(166.619916, 255.676203)">
                        <path d="M0,10.7954171 L0,0 L32.1355329,0 L40.9137788,10.7954171 L112.653576,10.7954171 C115.967285,10.7954171 118.653576,13.4817086 118.653576,16.7954171 L118.653576,78.8487131 C118.653576,82.1624216 115.967285,84.8487131 112.653576,84.8487131 L6,84.8487131 C2.6862915,84.8487131 4.05812251e-16,82.1624216 0,78.8487131 L0,10.7954171 L0,10.7954171 Z" id="Rectangle" fill="#E73D11"></path>
                        <g id="Path-17" transform="translate(0.000000, 19.354839)">
                            <mask id="mask-8" fill="white">
                                <use xlink:href="#path-7"></use>
                            </mask>
                            <use id="Mask" fill="#FFFFFF" xlink:href="#path-7"></use>
                            <path d="M103.706463,-22.7208976 L104.738334,-20.4168655 L46.0626331,5.86062802 L58.8149473,12.0213573 L135.897474,-5.2243169 L83.8592671,24.118973 L124.480866,43.7422549 L150.303881,37.7522552 L151.107421,40.1328376 L133.458145,48.0794219 L177.78123,69.490656 L176.683109,71.7638594 L130.453937,49.431736 L12.8615111,102.383209 L12.8615111,104.584611 L129.525644,72.1982205 L20.7372474,128.352353 L88.4392143,128.352942 L10.3376753,160.337489 L10.3369669,107.905228 L-15.1500507,114.980971 L-16.0059651,112.613727 L10.3369669,100.751512 L10.3369669,72.8157472 L-20.1963534,79.8998467 L10.3369669,62.6813854 L10.3369669,25.4544569 L-18.0387195,31.8032628 L10.3369669,19.0942886 L10.3376753,-11.3966339 L43.0912446,4.4250039 L103.706463,-22.7208976 Z M75.6132643,130.876897 L12.8615111,130.876897 L12.8615111,156.575074 L75.6132643,130.876897 Z M106.636546,81.1719885 L12.8615111,107.204247 L12.8615111,129.576757 L106.636546,81.1719885 Z M10.3369669,103.519254 L0.113404528,108.123181 L10.3369669,105.284751 L10.3369669,103.519254 Z M124.184653,46.4031245 L12.8615111,72.230053 L12.8615111,99.6146252 L127.48844,47.999478 L124.184653,46.4031245 Z M10.3369669,65.5787206 L-3.65826448,73.4712872 L10.3369669,70.2238819 L10.3369669,65.5787206 Z M81.1815672,25.629492 L12.8615111,64.1557192 L12.8615111,69.6381876 L120.559407,44.6519324 L81.1815672,25.629492 Z M58.5086359,14.6763363 L12.8615111,24.8898005 L12.8615111,61.2575425 L78.4138253,24.2923251 L58.5086359,14.6763363 Z M138.310319,43.1262662 L128.10527,45.4934471 L130.492647,46.6463223 L138.310319,43.1262662 Z M10.3369669,21.8603475 L5.84580285,23.8724092 L10.3369669,22.8676406 L10.3369669,21.8603475 Z M119.773433,0.969744431 L62.4746949,13.7893798 L81.0915251,22.7826477 L119.773433,0.969744431 Z M43.0508519,7.20957613 L12.8615111,20.7301932 L12.8615111,22.3021427 L54.8480469,12.9083139 L43.0508519,7.20957613 Z M12.8615111,-7.37387408 L12.8615111,17.9641343 L40.0794634,5.773952 L12.8615111,-7.37387408 Z" fill="#F7AD01" fill-rule="nonzero" mask="url(#mask-8)"></path>
                        </g>
                    </g>
                    <g id="Group-2-Copy-4" transform="translate(166.619916, 383.586441)">
                        <path d="M0,10.7954171 L0,-8.37105046e-14 L32.1355329,-8.37105046e-14 L40.9137788,10.7954171 L112.653576,10.7954171 C115.967285,10.7954171 118.653576,13.4817086 118.653576,16.7954171 L118.653576,78.8487131 C118.653576,82.1624216 115.967285,84.8487131 112.653576,84.8487131 L6,84.8487131 C2.6862915,84.8487131 4.05812251e-16,82.1624216 0,78.8487131 L0,10.7954171 L0,10.7954171 Z" id="Rectangle" fill="#FFFFFF"></path>
                        <rect id="Rectangle-Copy-3" fill="#DD63B1" x="0" y="20.0520791" width="118.653576" height="74.0532959" rx="6"></rect>
                    </g>
                    <g id="Group-2-Copy-8" transform="translate(332.398317, 383.586441)">
                        <path d="M0,10.7954171 L0,0 L32.1355329,0 L40.9137788,10.7954171 L112.653576,10.7954171 C115.967285,10.7954171 118.653576,13.4817086 118.653576,16.7954171 L118.653576,78.8487131 C118.653576,82.1624216 115.967285,84.8487131 112.653576,84.8487131 L6,84.8487131 C2.6862915,84.8487131 4.05812251e-16,82.1624216 0,78.8487131 L0,10.7954171 L0,10.7954171 Z" id="Rectangle" fill="#FFFFFF"></path>
                        <g id="Combined-Shape" transform="translate(0.000000, 19.354839)">
                            <mask id="mask-10" fill="white">
                                <use xlink:href="#path-9"></use>
                            </mask>
                            <use id="Mask" fill="#E73D11" xlink:href="#path-9"></use>
                            <path d="M230.662198,31.9775596 L231.431254,34.3821128 L-122.933609,147.719757 L-123.702665,145.315204 L230.662198,31.9775596 Z M230.662198,11.7812062 L231.431254,14.1857594 L-122.933609,127.523403 L-123.702665,125.11885 L230.662198,11.7812062 Z M230.662198,-8.41514727 L231.431254,-6.01059402 L-122.933609,107.32705 L-123.702665,104.922497 L230.662198,-8.41514727 Z M230.662198,-28.6115007 L231.431254,-26.2069475 L-122.933609,87.1306965 L-123.702665,84.7261433 L230.662198,-28.6115007 Z M230.662198,-48.8078541 L231.431254,-46.4033009 L-122.933609,66.9343431 L-123.702665,64.5297898 L230.662198,-48.8078541 Z M230.662198,-69.0042076 L231.431254,-66.5996543 L-122.933609,46.7379897 L-123.702665,44.3334364 L230.662198,-69.0042076 Z M230.662198,-89.200561 L231.431254,-86.7960078 L-122.933609,26.5416362 L-123.702665,24.137083 L230.662198,-89.200561 Z M230.662198,-109.396914 L231.431254,-106.992361 L-122.933609,6.34528278 L-123.702665,3.94072954 L230.662198,-109.396914 Z M230.662198,-129.593268 L231.431254,-127.188715 L-122.933609,-13.8510707 L-123.702665,-16.2556239 L230.662198,-129.593268 Z" fill="#F7AD01" fill-rule="nonzero" mask="url(#mask-10)" transform="translate(53.864295, 9.063244) scale(-1, 1) rotate(-22.000000) translate(-53.864295, -9.063244) "></path>
                        </g>
                    </g>
                    <g id="Path-10" transform="translate(196.821425, 210.402810)">
                        <mask id="mask-12" fill="white">
                            <use xlink:href="#path-11"></use>
                        </mask>
                        <use id="Mask" fill="#E73D11" xlink:href="#path-11"></use>
                        <path d="M176.260802,11.1314012 C174.06705,10.7465567 171.008327,10.5930024 167.287533,10.6781331 C163.108695,10.7737438 158.230646,11.1661301 153.034942,11.8142922 L152.160623,11.9250057 L152.159537,11.9348184 C150.422603,23.5566072 153.362501,30.1825724 160.818489,32.197265 L161.089949,32.2680778 C167.359288,33.8457196 172.771522,31.424539 176.460364,26.22155 C179.665572,21.7007104 180.88739,15.7877689 179.504525,12.3832586 C179.349496,12.0015883 178.245069,11.4794963 176.260802,11.1314012 Z M113.478678,148.056437 L112.166695,146.746877 C109.992164,144.555337 108.433106,142.863627 107.14179,141.259598 L106.959101,141.031003 C102.839571,135.838148 101.853102,131.649466 104.70764,127.827953 C112.243814,117.738899 128.311006,115.274825 135.934865,124.893393 L136.163289,125.188567 L134.148981,126.710371 C127.759054,118.252459 113.42957,120.36999 106.730217,129.338748 C104.729002,132.017875 105.445752,135.061293 108.936879,139.462017 L109.288215,139.898301 C110.664838,141.582974 112.397185,143.423343 114.920917,145.93124 L120.434825,151.345764 C121.461154,152.360147 122.337991,153.239287 123.203016,154.123381 C126.034603,157.01739 128.390464,159.621338 130.496807,162.243483 C137.03673,170.384908 124.016555,188.098455 103.411314,202.444097 C81.3723317,217.787796 59.9767853,222.890198 49.8993949,211.903059 C40.100542,201.219604 38.3256769,186.872428 43.1176789,172.668122 C47.156128,160.697475 55.4241369,151.014048 61.7429166,151.014048 C65.4497923,151.014048 68.2127249,154.675506 72.0733368,162.856357 L72.7823648,164.380477 L75.3663779,170.086946 C78.9000773,177.814607 81.0806087,181.562158 83.6604502,183.707881 C86.8215498,186.337053 90.018085,185.318524 94.2296429,179.200047 C99.1048924,172.117369 98.3973915,162.910665 93.1286163,150.874874 L92.9237241,150.410563 C91.0880004,146.283276 88.8581013,142.064902 85.6973224,136.574317 L80.1559479,127.065313 C79.8388759,126.517448 79.5740759,126.05742 79.3899992,125.73344 C77.2799181,122.019636 75.8138278,119.185998 74.7563501,116.683068 C72.0450314,110.265683 72.097757,105.920827 75.8486205,103.535098 C80.2709767,100.722268 84.8058414,100.331389 95.8367435,100.843394 L97.483987,100.921529 C105.886912,101.313706 110.178073,101.068408 114.094436,99.5178505 C119.032989,97.5625908 122.029135,93.5284194 123.103147,86.4124802 C123.945035,80.8344918 122.723623,75.662115 119.651145,70.4992508 C117.322721,66.5866639 114.227134,63.0073527 109.35178,58.271722 L108.51155,57.4618741 C108.329245,57.2944635 104.353568,53.5299749 102.213995,51.4576931 L101.215187,50.4793146 C98.6331932,47.8939669 96.7865767,45.757357 95.4249882,43.6765863 C92.50218,39.2099694 91.9378313,35.0367511 94.1512581,30.8113935 C98.3467606,22.80232 116.402051,15.7362538 139.856636,11.3264176 C142.885272,10.7569858 145.852232,10.2589844 148.72055,9.83618822 L149.986991,9.6529159 L150.007505,9.53935308 C150.298815,7.94365982 150.666068,6.27662057 151.108982,4.53890789 L151.244126,4.01547455 L151.422533,3.33313666 L152.097135,3.12740514 C167.807071,-1.66360735 180.76417,-2.88446786 190.983319,-0.496611212 C198.876938,1.3478507 203.084105,8.59581994 202.244498,17.8125517 C201.394129,27.1474157 195.589293,36.9479431 186.080113,44.0339404 C177.906572,50.1246533 184.000856,73.9589261 199.327658,100.798535 C214.201847,126.84555 232.040069,145.522067 240.377171,142.820861 C266.495035,134.35872 288.625342,132.359939 295.688091,141.017105 C298.047762,143.909473 299.188693,147.466975 300.611035,154.940818 L301.781028,161.165045 C302.332371,164.016833 302.597025,165.1117 303.164254,167.22538 C305.630247,176.414463 309.545114,182.9826 316.397127,187.755382 C325.719021,194.248566 347.372077,200.293856 368.005521,201.861668 L368.630451,201.907803 C393.052545,203.657804 411.961191,199.141508 419.630835,188.072253 C426.944011,177.517472 411.537322,156.275414 382.272073,132.926763 C356.718915,112.539724 326.885664,95.921308 317.617051,96.8157127 L314.669999,97.0941103 C301.806188,98.2795115 295.517586,98.4164927 288.764317,97.2711698 C278.936132,95.6043553 272.327127,90.9909785 269.125232,82.4915863 C267.076478,77.0531912 269.600257,70.5805435 275.899862,62.0385431 L276.193291,61.6428238 C277.589529,59.7699022 279.113446,57.8564579 281.069756,55.495587 L287.444836,47.8349937 C292.243889,42.0224742 292.629967,41.2947207 293.81645,38.7532121 C295.642104,34.8425655 294.518733,33.1407887 288.719847,32.6549924 C277.292575,31.6976833 263.979738,41.640015 256.041152,56.492697 C247.596664,72.2918972 247.334166,89.3300184 256.896671,101.206044 C263.238083,109.081675 271.182755,113.204395 280.950372,114.585249 C286.665622,115.393218 291.859753,115.29175 300.421966,114.512359 L305.405895,114.049336 C309.806868,113.654295 311.331092,113.595253 313.542048,113.691819 C317.409163,113.860719 320.044937,114.791377 321.632979,116.87989 L321.823015,117.136729 C324.435795,120.767332 325.056123,125.913656 325.241025,139.127871 L325.336389,146.38187 L325.360256,147.462141 C325.702244,161.347198 327.293799,169.074157 331.652678,173.256935 C338.72806,180.046467 353.687094,176.592408 376.479685,162.398396 L377.172767,161.964986 L378.515242,164.102996 C354.414121,179.236299 338.227826,183.06531 329.904731,175.078473 C324.813996,170.193407 323.151733,161.900662 322.823614,146.973854 L322.765099,143.354837 L322.723255,139.658239 C322.551855,126.67107 321.957388,121.580087 319.705507,118.517734 L319.62339,118.40792 C317.787591,115.993568 314.645923,115.750254 303.496716,116.762196 L300.635823,117.027884 C291.897811,117.822994 286.552498,117.926872 280.596989,117.084938 C270.225236,115.618676 261.697019,111.193138 254.930325,102.789334 C244.654752,90.0277221 244.933752,71.9184341 253.814682,55.3026746 C262.180125,39.6513643 276.330308,29.0836829 288.9306,30.1392606 C296.310156,30.7574761 298.645021,34.1555647 296.204176,39.6021791 L295.678474,40.7233861 C294.644747,42.8722179 293.850815,44.0466608 289.339519,49.5064041 L283.016904,57.1024392 C281.205311,59.2886088 279.773627,61.0806466 278.47527,62.807169 L278.217303,63.1516973 C272.189368,71.2376047 269.81792,77.1691913 271.487698,81.6015974 C274.298025,89.061578 279.998286,93.1265218 288.766583,94.7086982 L289.186441,94.7821669 C296.134071,95.9604527 302.720902,95.7168935 317.374563,94.3028412 C327.567211,93.3192687 357.748388,110.131494 383.846529,130.953336 C414.249644,155.209809 430.217541,177.225637 421.705942,189.510049 C413.378237,201.529054 393.680514,206.23382 368.450013,204.42589 C347.21702,202.904408 324.802973,196.687105 314.954193,189.82692 C307.681569,184.76116 303.484987,177.847803 300.867214,168.397698 L300.400734,166.6487 C299.99353,165.072041 299.722015,163.835747 299.222736,161.230909 L298.135095,155.43459 C296.79226,148.378759 295.733656,145.066577 293.731945,142.612981 C287.666137,135.177815 266.163398,137.119914 241.155296,145.222495 C231.045149,148.498164 212.677849,129.267707 197.135383,102.050437 C181.123913,74.0118671 174.802507,49.2893369 184.571645,42.0096258 C202.680903,28.515072 204.793614,5.32291775 190.408895,1.96171344 C180.987857,-0.23965263 168.934267,0.79954361 154.261659,5.11436366 L153.511254,5.33678687 L153.438423,5.62565685 C153.158487,6.7488674 152.91201,7.83608234 152.698894,8.88753236 L152.615883,9.30032123 L152.944423,9.25886968 C168.323976,7.32754914 180.067799,7.78924723 181.782492,11.2967972 L181.843483,11.4332063 C183.586846,15.7252352 182.184228,22.5131485 178.51982,27.6816741 C174.262936,33.6858679 167.824623,36.5660685 160.47387,34.7162954 C151.584888,32.4794362 147.983094,25.0303853 149.512931,12.74129 L149.572124,12.2767588 L148.874028,12.3783909 C146.346228,12.7478369 143.769682,13.1722521 141.184944,13.6472789 L140.323118,13.8074897 C117.684756,18.0638626 100.067139,24.9586424 96.3875476,31.9828596 C94.6424924,35.3141115 95.0781979,38.5360457 97.5374506,42.2942599 C98.7274125,44.112752 100.366112,46.0298249 102.653473,48.345045 L103.287384,48.9787181 C103.719411,49.4036662 104.344864,50.0079165 105.046234,50.6810526 L110.226261,55.6071936 L110.676403,56.0403677 C115.799366,60.9826464 119.091007,64.7251067 121.601111,68.8437632 L121.820589,69.2081905 C125.176086,74.8466279 126.534005,80.597078 125.599419,86.7892436 C124.395674,94.7647354 120.82939,99.5665704 115.023762,101.865121 C110.988363,103.462806 106.81084,103.804779 99.2794968,103.524155 L96.2140422,103.388562 L95.2483757,103.343779 C85.1349666,102.892043 80.9494782,103.282647 77.2035077,105.665264 C74.8331491,107.172925 74.7953396,110.288622 77.0818572,115.70055 L77.343456,116.306817 C78.2451369,118.354912 79.447992,120.685004 81.0817916,123.595461 L82.0148245,125.236231 C83.5468091,127.89434 87.0738731,133.910226 87.5406152,134.717487 L88.2263585,135.908734 C91.1363822,140.987365 93.257722,145.006103 95.0277025,148.931978 L95.2303966,149.384607 C101.005198,162.368184 101.865082,172.55991 96.3091629,180.631451 C91.3463542,187.841333 86.5280917,189.376601 82.0461173,185.648822 C79.0132109,183.126273 76.7079615,179.129904 72.8896896,170.740737 L70.7656703,166.040205 C70.4806068,165.415313 70.2239942,164.859046 69.974432,164.325737 L69.625091,163.585968 C66.3377089,156.689811 63.9360972,153.538592 61.7429166,153.538592 C56.8219405,153.538592 49.239761,162.418781 45.5097646,173.475123 C40.9900684,186.872268 42.6462772,200.260281 51.7598799,210.196625 C60.6447296,219.883564 80.8725275,215.059773 101.968853,200.372231 C121.378783,186.85878 133.63625,170.182875 128.528631,163.824499 C126.616435,161.444042 124.482842,159.067975 121.94794,156.453028 L121.398539,155.888937 C120.372861,154.840648 119.327887,153.796932 118.027754,152.517705 L113.478678,148.056437 Z" fill="#F7AD01" fill-rule="nonzero" mask="url(#mask-12)"></path>
                    </g>
                    <ellipse id="Oval" fill="#7C00D9" transform="translate(220.168645, 411.041567) rotate(-50.000000) translate(-220.168645, -411.041567) " cx="220.168645" cy="411.041567" rx="7.15287518" ry="29.8737728"></ellipse>
                    <ellipse id="Oval-Copy-2" fill="#7C00D9" transform="translate(557.503506, 410.935670) scale(-1, 1) rotate(-50.000000) translate(-557.503506, -410.935670) " cx="557.503506" cy="410.93567" rx="7.15287518" ry="29.8737728"></ellipse>
                    <path d="M635.524302,374.135196 L635.038705,424.42062 L548.535465,424.42062 L585.635164,410.059523 L593.362316,414.490844 L590.59191,408.093815 L593.362316,406.698276 L604.400359,413.013737 L598.756301,406.698276 L602.575459,404.831904 L612.144755,410.059523 L607.027281,402.278001 L614.828422,399.857065 L614.830329,376.260751 C617.585864,375.318406 620.769566,374.661739 624.381433,374.290751 C627.993301,373.919762 631.707591,373.867911 635.524302,374.135196 Z" id="Path-21-Copy" fill="#FFFFFF" transform="translate(592.029883, 399.193961) scale(-1, 1) rotate(47.000000) translate(-592.029883, -399.193961) "></path>
                    <path d="M224.997252,370.290099 L224.511656,420.575523 L138.008415,420.575523 L175.108114,406.214426 L182.835266,410.645747 L180.064861,404.248718 L182.835266,402.853179 L193.87331,409.16864 L188.229251,402.853179 L192.048409,400.986807 L201.617706,406.214426 L196.500231,398.432904 L204.301373,396.011968 L204.303279,372.415654 C207.058815,371.473309 210.242516,370.816642 213.854384,370.445654 C217.466252,370.074665 221.180541,370.022814 224.997252,370.290099 Z" id="Path-21-Copy-2" fill="#FFFFFF" transform="translate(181.502834, 395.348864) rotate(47.000000) translate(-181.502834, -395.348864) "></path>
                    <path d="M428.267649,158.515745 C428.763383,158.025598 429.562596,158.030127 430.052743,158.52586 L432.193911,160.696634 C466.809716,195.876951 483.95449,217.556113 483.95449,226.548144 C483.95449,235.577818 472.395066,257.184811 449.16028,291.88924 C448.772442,292.46853 447.98843,292.623733 447.40914,292.235896 C446.829849,291.848058 446.674646,291.064046 447.062484,290.484755 L449.090328,287.444238 C470.614801,255.043458 481.429945,234.586529 481.429945,226.548144 C481.429945,218.407018 463.59026,196.036287 428.257534,160.300838 C427.767387,159.805105 427.771916,159.005891 428.267649,158.515745 Z" id="Path-8" fill="#FFFFFF" fill-rule="nonzero"></path>
                    <path d="M427.312048,202.93743 C427.868118,202.589167 428.590811,202.727233 428.982406,203.237255 L429.051828,203.337215 L447.596774,232.947848 L427.147818,266.339579 C426.783742,266.93409 426.006653,267.120895 425.412142,266.756819 C424.852602,266.414159 424.654213,265.705647 424.936343,265.12783 L424.994902,265.021142 L444.626928,232.962037 L426.912264,204.67721 C426.564001,204.12114 426.702066,203.398447 427.212088,203.006853 L427.312048,202.93743 Z" id="Path-7" fill="#FFFFFF" fill-rule="nonzero"></path>
                    <path d="M334.922861,251.229811 L366.573358,251.229811 L377.103861,261.565811 L450.734923,261.566806 C451.839492,261.566806 452.734923,262.462236 452.734923,263.566806 L452.734923,344.559793 C452.734923,345.664363 451.839492,346.559793 450.734923,346.559793 L336.922861,346.559793 C335.818292,346.559793 334.922861,345.664363 334.922861,344.559793 L334.922861,251.229811 Z" id="Combined-Shape" fill="#7C00D9"></path>
                    <path d="M340.803328,193.296648 C341.427799,192.986758 342.185247,193.241776 342.495138,193.866247 C342.786799,194.453984 342.578057,195.159515 342.031865,195.498842 L341.925539,195.558056 L309.086676,211.853482 L322.996237,234.384887 C323.340885,234.943205 323.198133,235.664987 322.685581,236.053264 L322.585173,236.122037 C322.026855,236.466685 321.305073,236.323933 320.916796,235.811381 L320.848023,235.710973 L305.484899,210.823227 L340.803328,193.296648 Z" id="Path-3" fill="#FFFFFF" fill-rule="nonzero"></path>
                    <circle id="Oval" fill="#DD63B1" cx="331.97756" cy="256.09696" r="23.141655"></circle>
                    <path d="M348.024497,154.763579 C348.721631,154.763579 349.286769,155.328717 349.286769,156.025851 C349.286769,156.722985 348.721631,157.288123 348.024497,157.288123 C344.181193,157.288123 331.328139,163.068994 313.841223,172.334737 L312.205558,173.204377 C297.756669,180.912169 281.470397,190.32731 276.948922,193.471733 C269.848876,198.409403 269.407892,207.98788 275.132662,220.168971 C279.671106,229.825812 299.560079,256.970033 304.933264,262.238052 C306.357532,263.634444 312.744328,265.984131 320.121521,267.895739 L320.510687,267.995938 C324.033089,268.897039 327.372441,269.590619 329.856989,269.931971 L330.466367,270.010656 C331.054159,270.081364 331.576248,270.128083 332.024148,270.150318 L332.352034,270.161196 L332.23067,270.05032 C331.609643,269.49371 330.697741,268.810858 329.502794,268.012376 L329.222016,267.826063 C326.094827,265.76506 321.231207,263.011341 314.643244,259.574201 C313.33851,258.893481 314.05595,256.909964 315.494253,257.221404 L317.889475,257.734177 C324.501861,259.132713 329.634252,260.069492 333.277828,260.543959 L333.595456,260.584623 C335.34374,260.804522 336.720175,260.91078 337.709886,260.906056 L337.864797,260.903692 L337.704956,260.784598 C336.862337,260.165808 335.623142,259.393696 333.99578,258.476266 L333.324152,258.101562 C329.106985,255.772029 322.641542,252.611659 313.937554,248.626517 C312.694821,248.057528 313.116714,246.194726 314.483334,246.216712 L316.300093,246.242297 C323.020759,246.322902 328.124405,246.221655 331.599435,245.940271 L332.268308,245.881981 C333.561206,245.760809 334.584444,245.612331 335.32778,245.44106 L335.543899,245.387844 L335.406445,245.302627 C334.602517,244.817477 333.380208,244.236742 331.751906,243.570625 L331.420836,243.436266 C327.759222,241.961815 322.235739,240.107331 314.861884,237.878366 C314.194571,237.676652 313.817129,236.972165 314.018844,236.304853 C314.220559,235.63754 314.925045,235.260098 315.592358,235.461813 L318.423191,236.325157 C332.678508,240.715308 338.709677,243.283951 338.709677,245.617705 C338.709677,248.037852 333.740865,248.802664 321.5622,248.805489 L320.326788,248.80271 L322.866247,250.002836 C327.605283,252.258542 331.398738,254.166753 334.249285,255.729135 L335.120931,256.211774 C339.900632,258.883019 341.702315,260.325079 341.165992,261.960209 C340.51268,263.952012 335.873771,263.823807 325.316046,261.819629 L323.544741,261.476764 L324.366405,261.935173 C332.7292,266.628615 336.112932,269.390262 335.452483,271.373048 L335.424607,271.450164 C334.619946,273.512753 329.16021,272.7946 320.284697,270.543534 L319.042854,270.223544 C311.36933,268.210365 305.005704,265.844552 303.16587,264.040729 C297.586579,258.570637 277.51994,231.18394 272.847865,221.242762 C266.662633,208.081906 267.163539,197.201885 275.507538,191.399117 L275.969908,191.083029 C281.087236,187.636665 296.600783,178.682082 310.567348,171.217224 L313.814269,169.493006 C331.264539,160.286842 343.653234,154.763579 348.024497,154.763579 Z" id="Path-6" fill="#FFFFFF" fill-rule="nonzero"></path>
                    <path d="M367.402108,283.446189 L469.514133,283.446189 C472.827842,283.446189 475.514133,286.13248 475.514133,289.446189 C475.514133,290.300661 475.331626,291.145277 474.978825,291.923515 L451.807324,343.03712 C450.834955,345.182052 448.697677,346.559793 446.342632,346.559793 L344.230607,346.559793 C340.916899,346.559793 338.230607,343.873502 338.230607,340.559793 C338.230607,339.705321 338.413115,338.860704 338.765916,338.082466 L361.937417,286.968862 C362.909786,284.823929 365.047063,283.446189 367.402108,283.446189 Z" id="Rectangle" fill="#DD63B1"></path>
                    <rect id="Rectangle" fill="#FFFFFF" x="337.447405" y="150.486862" width="100.140252" height="49.6493689" rx="24.8246844"></rect>
                    <g id="Group" transform="translate(391.241704, 133.158665) scale(-1, 1) rotate(-13.000000) translate(-391.241704, -133.158665) translate(363.892475, 106.230194)">
                        <circle id="Oval" fill="#DD63B1" cx="23.2840946" cy="31.9775596" r="21.8793829"></circle>
                        <path d="M47.6880217,19.3548387 L39.6936318,26.5077139 L31.6992419,30.2945302 L27.9124256,17.2510519 C22.8633373,20.3366059 16.8324817,21.4586255 9.81985899,20.6171108 C-0.699075089,19.3548387 -1.96134718,6.73211781 2.24622645,2.94530154 C6.45380009,-0.841514727 12.7651605,2.94530154 14.0274326,2.94530154 C15.2897047,2.94530154 16.1312194,0 19.9180357,0 C22.4425799,0 24.2658618,1.40252454 25.3878814,4.20757363 C34.3640385,2.52454418 39.9741367,2.94530154 42.218176,5.46984572 C44.4622152,7.9943899 46.2854971,12.6227209 47.6880217,19.3548387 Z" id="Path-4" fill="#FFFFFF"></path>
                        <circle id="Oval" fill="#DD63B1" cx="46.4257496" cy="27.3492286" r="7.9943899"></circle>
                        <ellipse id="Oval" fill="#131313" cx="24.9671241" cy="34.0813464" rx="2.52454418" ry="3.78681627"></ellipse>
                        <ellipse id="Oval-Copy" fill="#131313" cx="14.8689474" cy="34.0813464" rx="2.52454418" ry="3.78681627"></ellipse>
                        <path d="M18.3733504,37.0380977 C18.8317827,37.1145031 19.1414766,37.5480746 19.0650713,38.0065069 C18.4519104,41.6854723 16.6826499,43.9372583 13.7892254,44.5802416 C13.3355369,44.6810612 12.8860192,44.3950045 12.7851995,43.941316 C12.6843798,43.4876274 12.9704365,43.0381097 13.4241251,42.93729 C15.579789,42.4582536 16.8960825,40.7829709 17.4049412,37.7298185 C17.4758891,37.3041314 17.8548017,37.0066932 18.2756166,37.0275483 L18.3733504,37.0380977 Z" id="Path-5" fill="#131313" fill-rule="nonzero"></path>
                    </g>
                </g>
            </g>
        </g>
    </g>
</svg>