<?xml version="1.0" encoding="UTF-8"?>
<svg width="774px" height="753px" viewBox="0 0 774 753" version="1.1" xmlns="http://www.w3.org/2000/svg" xmlns:xlink="http://www.w3.org/1999/xlink">
    <title>illustration-6</title>
    <defs>
        <rect id="path-1" x="23.1473975" y="27.2407325" width="137" height="123"></rect>
        <circle id="path-3" cx="32.5" cy="32.5" r="32.5"></circle>
        <polygon id="path-5" points="118.5 31 206 206 31 206"></polygon>
        <circle id="path-7" cx="79.5" cy="79.5" r="79.5"></circle>
    </defs>
    <g id="Desktop" stroke="none" stroke-width="1" fill="none" fill-rule="evenodd">
        <g id="Artboard" transform="translate(-1739.000000, -4737.000000)">
            <g id="illustration-6" transform="translate(1739.000000, 4737.000000)">
                <g id="Path-15" transform="translate(0.000000, 1.000000)">
                    <mask id="mask-2" fill="white">
                        <use xlink:href="#path-1"></use>
                    </mask>
                    <use id="Mask" fill="#FFFFFF" transform="translate(91.647397, 88.740732) rotate(-32.000000) translate(-91.647397, -88.740732) " xlink:href="#path-1"></use>
                    <path d="M80.5572318,-12 C84.2006453,49.7437103 99.4737345,75.8193856 126.051017,67.6362066 C134.447145,65.0510283 138.926694,61.2857872 140.449772,56.3277319 C141.674438,52.3410946 141.085298,47.6449113 138.914402,41.1733196 L138.534144,40.0661797 C138.127747,38.9072238 137.684539,37.7148363 137.064722,36.0975059 L136.008272,33.3450505 C132.830569,25.0027667 132.007164,21.9582641 132.230953,18.0578722 C132.568367,12.1771106 136.517665,8.42457676 144.683117,6.82457895 C161.802707,3.47004227 174.09505,22.4310094 174.926583,48.7022604 C175.789345,75.9601312 164.27466,101.21731 142.889443,111.714751 L142.238388,112.028325 C120.93879,122.091743 107.611672,142.571153 105.203143,165.884626 C102.921588,187.969045 111.009847,208.411393 126.56512,218.09629 L127.038775,218.386469 C135.650544,223.57719 137.834898,230.366314 133.94794,237.397573 C130.71325,243.248922 123.343557,248.950276 114.097411,253.156202 C105.062763,257.265921 95.3135121,259.441358 87.8183389,258.842734 C79.007339,258.139017 73.669376,253.666752 73.669376,245.661325 L73.6752951,244.591592 C73.7959305,233.780971 75.7888784,222.949288 82.2431252,194.809022 L84.9340314,183.126394 L85.3454406,181.321533 C91.9800461,152.103963 94.448046,135.65433 93.0749116,122.925725 C91.167648,105.245877 84.0002847,86.3978532 72.8339539,72.8026031 C59.1270164,56.1141092 40.4091308,48.0233805 16.9552683,51.0079504 C-15.4034789,55.1256919 -32.2677361,61.9468247 -33.8732649,70.7854402 L-33.9006952,70.9523503 L-33.3052984,71.0561735 C29.8141271,82.1938172 60.6757176,105.622055 58.609724,141.443005 L58.536193,142.543436 C57.6222524,154.584602 54.1770674,163.306933 48.4097064,169.375668 C43.7971309,174.229273 38.0013879,177.202069 30.3629752,179.246369 L28.367751,179.757746 C26.9707796,180.101933 25.8154824,180.344241 23.0753432,180.868537 L18.3971648,181.756446 C12.1665814,182.961754 9.11299955,183.883426 6.71136505,185.498839 C3.73924315,187.497979 2.51807299,190.439366 3.07964162,195.241312 C4.52103585,207.566605 13.2066705,210.450372 30.0949597,207.553038 L30.6092378,207.463474 C32.6832404,207.096963 34.7712804,206.672936 37.4961661,206.076638 L43.8847462,204.673991 C52.3050876,202.859933 54.399814,202.658493 57.3126124,203.195824 C70.2491501,205.582258 69.9084306,228.398544 58.5631771,243.157923 L58.2160155,243.602681 L55.8649748,241.739188 C66.3863288,228.465124 66.8084519,207.998162 56.7683779,206.146045 L56.3118179,206.069968 C53.991841,205.727401 51.5605303,206.074749 43.3174043,207.8673 L37.5884493,209.126979 C35.0900412,209.669429 33.1093706,210.068141 31.1313,210.4177 C22.7459204,211.89954 16.4049647,212.053796 11.3233309,210.43604 C4.91105226,208.394668 1.03088659,203.550186 0.099948135,195.589775 C-0.587376348,189.712497 1.09450961,185.661401 5.03700056,183.009561 L5.44693322,182.742201 C8.13549103,181.043168 11.3313458,180.084431 17.3384515,178.906182 L24.3330196,177.568503 C26.3925302,177.160735 27.2853418,176.944686 28.9907424,176.505073 C36.4408277,174.584613 41.9421178,171.826319 46.2350773,167.309031 C51.4928287,161.776536 54.6802499,153.706797 55.5447973,142.316385 C58.1629344,107.822428 28.5948005,85.0173231 -33.8500659,74.0063452 L-35.7523986,73.6762893 L-37,73.4633242 L-37,72.1976768 C-37,60.3540366 -19.0494851,52.5654641 16.5765638,48.0319492 C41.0890434,44.9126673 60.8105632,53.4372128 75.1522327,70.8985067 C86.7143304,84.9756114 94.0910041,104.374059 96.0576061,122.603958 L96.1397619,123.415286 C97.3758979,136.468104 94.8489321,153.017779 88.2746336,181.969751 L84.5592033,198.13791 C78.4493075,224.922945 76.669376,235.138076 76.669376,245.661325 C76.669376,251.912548 80.6672253,255.262035 88.0571823,255.852256 C94.9901947,256.405982 104.250335,254.339685 112.855236,250.425451 C121.568609,246.461874 128.453755,241.135376 131.322415,235.946153 C134.347363,230.474216 132.822815,225.503417 125.827356,221.162082 L125.4901,220.955828 C108.539037,210.73862 99.8032735,188.959723 102.219026,165.576335 C104.706052,141.503051 118.387568,120.27653 140.290578,109.635059 L140.956819,109.315838 C161.534571,99.5934699 172.765161,75.2435445 171.928085,48.7971683 C171.1466,24.1071342 159.980932,6.88406474 145.259989,9.76859309 C138.341658,11.1242209 135.477569,13.8456136 135.226027,18.2297173 L135.208982,18.5966871 C135.099452,21.7057254 135.904901,24.6143649 138.668298,31.8990664 L140.168713,35.8168996 C140.694686,37.2013273 141.091729,38.2840269 141.469551,39.3727681 L141.572199,39.6700785 C144.078082,46.9652175 144.807827,52.3572788 143.317512,57.2086804 C141.46983,63.2234144 136.204902,67.6487981 126.933822,70.5033752 C97.9467919,79.4285185 81.6336266,52.1612718 77.6785109,-9.93103805 L77.5624412,-11.8232814 L80.5572318,-12 Z" fill="#F7AD01" fill-rule="nonzero" mask="url(#mask-2)"></path>
                </g>
                <g id="Group-2" transform="translate(441.000000, 398.000000)">
                    <g id="Group-3" transform="translate(45.855671, 45.751272) rotate(36.000000) translate(-45.855671, -45.751272) translate(13.355671, 13.251272)">
                        <g id="Oval-Copy-4">
                            <mask id="mask-4" fill="white">
                                <use xlink:href="#path-3"></use>
                            </mask>
                            <use id="Mask" fill="#DD63B1" xlink:href="#path-3"></use>
                            <circle fill="#131313" mask="url(#mask-4)" cx="39.8584906" cy="5.51886792" r="32.5"></circle>
                        </g>
                        <ellipse id="Oval" fill="#131313" cx="24.5" cy="44.5" rx="3.5" ry="5.5"></ellipse>
                        <ellipse id="Oval-Copy" fill="#131313" cx="13" cy="43" rx="3" ry="5"></ellipse>
                        <path d="M17.9157557,47.006677 C18.5801393,47.0775262 19.0626134,47.6862131 18.9933917,48.3662174 C18.6566222,51.6744994 16.4957303,54.200612 12.6929435,55.8966249 C12.0805753,56.1697363 11.3678381,55.8830427 11.1010004,55.2562767 C10.8341628,54.6295107 11.1142707,53.900016 11.7266389,53.6269045 C14.7909926,52.2602269 16.3505191,50.4371189 16.5874459,48.10965 C16.6517231,47.4782174 17.1690953,47.0073232 17.7746204,47 L17.9157557,47.006677 Z" id="Path-2" fill="#131313" fill-rule="nonzero"></path>
                    </g>
                    <circle id="Oval-Copy-2" fill="#131313" cx="90.5" cy="93.5" r="31.5"></circle>
                </g>
                <circle id="Oval" fill="#DD63B1" cx="690" cy="117" r="39"></circle>
                <circle id="Oval-Copy" fill="#E73D11" cx="726" cy="307" r="24"></circle>
                <circle id="Oval" fill="#FFFFFF" cx="162" cy="592" r="20"></circle>
                <rect id="Rectangle" fill="#7C00D9" transform="translate(633.500000, 406.500000) rotate(68.000000) translate(-633.500000, -406.500000) " x="580" y="353" width="107" height="107"></rect>
                <rect id="Rectangle-Copy-3" fill="#E73D11" transform="translate(92.500000, 662.500000) rotate(68.000000) translate(-92.500000, -662.500000) " x="39" y="609" width="107" height="107"></rect>
                <polygon id="Triangle" fill="#DD63B1" transform="translate(478.000000, 63.000000) rotate(-24.000000) translate(-478.000000, -63.000000) " points="478 16 525 110 431 110"></polygon>
                <polygon id="Triangle-Copy" fill="#E73D11" transform="translate(712.000000, 494.000000) rotate(22.000000) translate(-712.000000, -494.000000) " points="712 447 759 541 665 541"></polygon>
                <g id="Path-17" transform="translate(0.000000, 315.000000)">
                    <mask id="mask-6" fill="white">
                        <use xlink:href="#path-5"></use>
                    </mask>
                    <use id="Mask" fill="#DD63B1" transform="translate(118.500000, 118.500000) rotate(-28.000000) translate(-118.500000, -118.500000) " xlink:href="#path-5"></use>
                    <path d="M125.458516,210.361416 L126.16084,214.274358 C127.713335,223.045577 127.957072,225.398336 128.068009,229.216292 L128.102978,230.611429 C128.318836,240.200129 125.434858,245.178982 118.398981,244.704065 C102.268625,243.615275 87.569921,234.417654 79.6765956,221.964011 C71.8818133,209.665844 73.0030226,197.45043 83.9305237,192.888475 C90.5871987,190.109481 98.5311249,191.600667 108.759404,196.769017 C112.054762,198.434161 115.571971,200.463393 119.696665,203.049508 L121.254516,204.034416 L119.926119,196.791816 C118.121981,186.860907 116.991523,179.554272 116.2339,172.252459 L116.127324,171.200058 L116.074516,170.651416 L115.791433,170.845894 C115.586272,170.988597 115.38823,171.131015 115.197603,171.273012 L114.917258,171.485672 C109.475964,175.690945 91.8287818,178.705027 78.4044548,177.304263 C60.7566983,175.462805 51.9743172,166.860034 57.8758207,151.582531 C61.8402749,141.31956 68.1390786,136.325106 76.9505347,135.499436 C83.3446552,134.90028 88.5060366,135.92384 102.231234,139.77414 L105.803135,140.772131 C107.687118,141.29175 109.144813,141.677837 110.616101,142.044336 L111.206383,142.19016 C112.614664,142.535218 113.964311,142.841133 115.26278,143.10713 L116.134516,143.280416 L116.138325,143.259969 C117.309726,134.528798 119.793622,127.026979 123.811052,120.643728 L124.10775,120.178656 C127.95921,114.222463 133.117274,109.428202 139.673678,105.854508 L140.007516,105.674416 L139.763246,105.566686 L139.474586,105.447897 L139.182715,105.336957 C137.344609,104.666895 135.441459,104.478915 133.418137,104.734177 C129.235839,105.261815 125.503457,107.160356 118.376001,111.902216 L115.265743,113.980985 C110.8529,116.910943 108.869113,118.076803 106.264668,119.200913 L106.063051,119.28733 C101.720237,121.136042 97.9116378,121.44213 94.3608297,119.87184 C87.2336836,116.71997 86.2632842,108.845678 90.2209572,98.5525306 C93.4402113,90.1798694 99.8432805,80.5795344 106.788112,73.3914282 L107.285057,72.8821437 C115.355545,64.6934865 111.328812,52.1936716 94.4208676,35.0452314 L93.904562,34.5241585 L96.0304477,32.4074133 C114.200954,50.6563827 119.021563,64.8635725 109.708286,74.6915153 L109.421738,74.9879909 C102.56362,81.9465266 96.1611442,91.4625406 93.0211061,99.6291764 C89.5629632,108.623142 90.3250147,114.806797 95.57418,117.12816 C98.2640775,118.317726 101.244072,118.07823 104.888005,116.527028 L105.439921,116.286832 C107.85918,115.209476 109.906799,113.956962 114.689935,110.759554 L116.750398,109.380382 C124.25505,104.38844 128.247331,102.362745 133.042634,101.75777 C135.526479,101.444408 137.90982,101.679819 140.210192,102.518396 C141.259475,102.900901 142.254601,103.400727 143.189977,104.00339 L143.291516,104.069416 L143.339725,104.048515 C152.935888,99.7899624 165.14493,97.8050038 180.197087,98.2408005 L181.052134,98.2680545 L184.638955,98.3972755 C222.769446,99.8200446 243.854782,102.217508 248.830574,105.873478 C250.747938,107.282264 250.940418,109.296116 249.269879,110.95972 C248.061092,112.163489 245.794295,113.314864 242.394861,114.519609 L241.694465,114.763021 C235.365314,116.921161 225.26436,119.291361 211.360509,121.886968 L210.080516,122.123416 L208.929474,122.905524 C189.345412,136.263764 175.402016,148.696957 167.028558,160.219143 L166.911516,160.381416 C169.044219,161.259779 171.015019,162.34909 172.811357,163.662836 L173.193609,163.947792 C181.962426,170.610443 191.885906,191.680634 195.105623,209.97398 C196.829903,219.770757 196.480404,227.858174 193.730783,233.100981 C190.459054,239.339312 184.046693,241.247812 174.961327,238.26168 C163.962292,234.646574 153.480753,228.891616 138.125931,218.789727 L125.458516,210.361416 Z M107.89163,199.693646 L107.406422,199.446598 C97.8849386,194.635392 90.744026,193.294943 85.0862756,195.656911 C76.2116711,199.361833 75.2871217,209.434668 82.2104992,220.357981 C89.6047761,232.024253 103.450674,240.688236 118.601019,241.710876 C123.305704,242.028439 125.223288,238.854078 125.110898,231.065707 L125.057725,228.949402 C124.929469,225.093757 124.59727,222.481293 122.644836,211.65782 L121.995516,208.080416 L121.361386,207.667596 C116.060751,204.240936 111.788554,201.692722 107.89163,199.693646 Z M138.292808,215.304912 L139.013837,215.781927 L140.528474,216.778362 C155.264369,226.435728 165.394554,231.959436 175.898053,235.411672 C183.690687,237.972915 188.546,236.527837 191.073995,231.707613 C193.447405,227.182141 193.770863,219.697306 192.151037,210.494001 C189.049872,192.874226 179.433913,172.456983 171.378644,166.336495 C169.581087,164.97069 167.562284,163.859161 165.352534,162.99273 L165.158516,162.918416 L164.787643,163.486418 C155.733257,177.537298 155.206592,190.193763 163.073421,201.482458 L163.536588,202.132212 L161.112218,203.899252 C152.03933,191.451296 152.316455,177.676997 161.801471,162.604568 L162.213516,161.959416 L162.137213,161.938925 C156.104416,160.318425 148.936916,160.243421 141.127342,161.564694 L140.509472,161.671903 C132.823226,163.038683 124.986161,165.752342 119.476546,168.643272 L118.928516,168.935416 L119.034278,170.091002 L119.152896,171.307362 L119.284985,172.580262 C120.01022,179.372082 121.072829,186.257286 122.72245,195.397625 L124.715516,206.276416 L131.073524,210.489405 C134.843349,212.997188 138.367673,215.352671 138.292808,215.304912 Z M99.1681019,142.035179 C87.5137051,138.815559 82.7649911,137.967739 77.2304212,138.486351 C69.5791377,139.203308 64.2377666,143.438594 60.674287,152.663543 C55.6455396,165.681701 62.7655876,172.656135 78.7157999,174.320463 C91.2906181,175.632584 107.95131,172.829185 112.904667,169.245048 L113.082742,169.111951 C113.777787,168.57479 114.565936,168.034023 115.434543,167.495492 L115.782516,167.282416 L115.74538,166.789551 C115.200267,159.426302 115.184314,152.677997 115.767921,146.509351 L115.791516,146.269416 L115.380887,146.191035 C114.044822,145.928287 112.659881,145.624128 111.218103,145.279596 L109.891947,144.95563 C108.296202,144.558164 106.722485,144.139731 104.630436,143.560512 L99.1681019,142.035179 Z M180.947866,101.266242 C166.856136,100.776178 155.412373,102.412195 146.355241,106.028625 L145.913516,106.207416 L146.052383,106.346198 C150.516475,110.889917 152.913886,118.158956 152.262449,125.609656 L152.224628,126.00896 C151.066933,137.357614 143.334059,145.808401 130.644445,147.189653 C127.10438,147.574986 123.404687,147.450313 119.250423,146.85401 L118.760516,146.780416 L118.730724,147.094726 C118.232886,152.548716 118.213412,158.492173 118.625826,164.949573 L118.673516,165.684416 L118.709006,165.666579 C124.332957,162.81228 131.902013,160.220578 139.393048,158.825845 L139.984247,158.718238 C148.735714,157.162039 156.815709,157.250878 163.625104,159.234677 L163.984516,159.342416 L164.106305,159.169772 C172.723498,147.070434 187.11634,134.157232 207.214106,120.444206 L208.918984,119.288077 L211.577528,118.794116 C225.461818,116.18387 235.411186,113.811768 241.392745,111.691931 L242.122523,111.427125 C244.59894,110.506427 246.256807,109.652251 247.046129,108.93545 L247.280355,108.713172 C247.475085,108.535521 247.452348,108.570989 247.145142,108.356191 L247.054255,108.291057 C242.684388,105.080291 220.307215,102.63503 180.947866,101.266242 Z M142.933516,107.543416 L142.760042,107.629292 C135.836711,111.052974 130.507668,115.806213 126.626952,121.80765 C122.762048,127.784635 120.340676,134.899366 119.17247,143.252095 L119.097516,143.796416 L119.218001,143.81598 C123.121985,144.404665 126.566607,144.561193 129.80943,144.258828 L130.319815,144.207269 C141.54846,142.985042 148.221193,135.692819 149.240117,125.704505 C149.968359,118.565697 147.536348,111.644517 143.215273,107.788094 L142.933516,107.543416 Z" fill="#F7AD01" fill-rule="nonzero" mask="url(#mask-6)"></path>
                </g>
                <g id="Path-17" transform="translate(613.000000, 593.000000)">
                    <mask id="mask-8" fill="white">
                        <use xlink:href="#path-7"></use>
                    </mask>
                    <use id="Mask" fill="#7C00D9" xlink:href="#path-7"></use>
                    <path d="M144.237846,-21 L145.464054,-18.2620418 L75.7377624,12.9643796 L90.8917624,20.2853796 L182.491498,-0.208229912 L120.652762,34.6613796 L168.924762,57.9803796 L199.611112,50.8622632 L200.565985,53.6911887 L179.592762,63.1343796 L232.263362,88.5780629 L230.958428,91.2793863 L176.022762,64.7413796 L36.2837624,127.66538 L36.2837624,130.28138 L174.919641,91.795552 L45.6427624,158.52538 L126.095266,158.526079 L33.2846042,196.534382 L33.2837624,134.22738 L2.99668981,142.635721 L1.97957808,139.822646 L33.2837624,125.72638 L33.2837624,92.5293796 L-3,100.947651 L33.2837624,80.4863796 L33.2837624,36.2483796 L-0.43601165,43.7928773 L33.2837624,28.6903796 L33.2846042,-7.54299994 L72.2067624,11.2583796 L144.237846,-21 Z M110.853762,161.52538 L36.2837624,161.52538 L36.2837624,192.06338 L110.853762,161.52538 Z M147.719762,102.45938 L36.2837624,133.39438 L36.2837624,159.98038 L147.719762,102.45938 Z M33.2837624,129.01538 L21.1347624,134.48638 L33.2837624,131.11338 L33.2837624,129.01538 Z M168.572762,61.1423796 L36.2837624,91.8333796 L36.2837624,124.37538 L172.498762,63.0393796 L168.572762,61.1423796 Z M33.2837624,83.9293796 L16.6527624,93.3083796 L33.2837624,89.4493796 L33.2837624,83.9293796 Z M117.470762,36.4563796 L36.2837624,82.2383796 L36.2837624,88.7533796 L164.264762,59.0613796 L117.470762,36.4563796 Z M90.5277624,23.4403796 L36.2837624,35.5773796 L36.2837624,78.7943796 L114.181762,34.8673796 L90.5277624,23.4403796 Z M185.358762,57.2483796 L173.231762,60.0613796 L176.068762,61.4313796 L185.358762,57.2483796 Z M33.2837624,31.9773796 L27.9467624,34.3683796 L33.2837624,33.1743796 L33.2837624,31.9773796 Z M163.330762,7.15237963 L95.2407624,22.3863796 L117.363762,33.0733796 L163.330762,7.15237963 Z M72.1587624,14.5673796 L36.2837624,30.6343796 L36.2837624,32.5023796 L86.1777624,21.3393796 L72.1587624,14.5673796 Z M36.2837624,-2.76262037 L36.2837624,27.3473796 L68.6277624,12.8613796 L36.2837624,-2.76262037 Z" fill="#F7AD01" fill-rule="nonzero" mask="url(#mask-8)"></path>
                </g>
                <g id="Group" transform="translate(91.410245, 87.663974)">
                    <polygon id="Path-21" fill="#E73D11" points="281.365322 573.710402 281.365322 626.336026 178.570638 626.336026 222.657447 609.270256 231.83988 614.536143 228.547715 606.93434 231.83988 605.275974 244.956755 612.780847 238.249732 605.275974 242.788165 603.058102 254.159679 609.270256 248.078413 600.023214 257.34877 597.146335 257.34877 570.318814"></polygon>
                    <path d="M399.089755,466.836026 C430.846128,466.836026 456.589755,441.092399 456.589755,409.336026 L341.589755,409.336026 C341.589755,441.092399 367.333382,466.836026 399.089755,466.836026 Z" id="Oval" fill="#E73D11" transform="translate(399.089755, 438.086026) rotate(-11.000000) translate(-399.089755, -438.086026) "></path>
                    <path d="M314.320107,428.16619 L298.974455,399.353128 C289.741725,384.107527 276.73274,377.887125 259.9475,380.691922 C243.162261,383.496719 232.715896,398.244722 228.608405,424.935932 L218.387593,573.825335 L285.12536,573.825335 L287.526535,543.985348 C296.541712,601.994502 325.465802,628.007699 374.298805,622.024941 C447.548309,613.050803 442.999682,563.922863 435.407502,539.443546 C430.346049,523.124001 417.50631,479.556643 396.888284,408.741472 C385.281081,387.822759 369.996192,378.472909 351.033617,380.691922 C332.071042,382.910935 319.833205,398.735691 314.320107,428.16619 Z" id="Path-13" fill="#7C00D9"></path>
                    <polygon id="Path-21-Copy" fill="#E73D11" points="372.384439 573.710402 372.384439 626.336026 269.589755 626.336026 313.676564 609.270256 322.858996 614.536143 319.566831 606.93434 322.858996 605.275974 335.975871 612.780847 329.268849 605.275974 333.807281 603.058102 345.178795 609.270256 339.097529 600.023214 348.367886 597.146335 348.367886 573.710402"></polygon>
                    <path d="M309.5,144 C385.266075,144 447.868166,200.361711 457.666476,273.445333 C408.415425,292.992062 359.181494,302.761549 309.958682,302.761549 L307.006599,302.749836 C258.478127,302.364739 209.938789,292.483869 161.38567,273.100686 C171.330869,200.182688 233.854349,144 309.5,144 Z" id="Combined-Shape" fill="#7C00D9"></path>
                    <path d="M309.5,192 C364.071478,192 408.5842,235.066659 410.904922,289.066735 C377.248003,298.197985 343.600745,302.761549 309.958682,302.761549 L307.006599,302.749836 C274.045706,302.488275 241.079799,297.8461 208.107967,288.821261 C210.552036,234.934973 255.012018,192 309.5,192 Z" id="Combined-Shape" fill="#131313"></path>
                    <path d="M309.958682,62.7615492 C210.816631,62.7615492 111.724408,103.726567 12.706139,185.595458 C11.9709826,186.20329 11.9824576,187.333903 12.7297994,187.926689 C111.745455,266.465088 210.82985,305.761549 309.958682,305.761549 C409.087513,305.761549 508.171909,266.465088 607.187564,187.926689 C607.934906,187.333903 607.946381,186.20329 607.211225,185.595458 C508.192955,103.726567 409.100732,62.7615492 309.958682,62.7615492 Z M312.91037,65.7737578 C409.332667,66.5713847 505.803051,106.453023 602.344228,185.476223 L603.864755,186.727026 L605.323253,185.576297 C506.807757,263.717973 408.361001,302.761549 309.958682,302.761549 L307.006599,302.749836 C210.571452,301.984577 114.093396,263.721343 17.5495552,187.908818 L16.0517549,186.727026 L14.6177712,187.907527 C113.130653,106.456493 211.569581,65.7615492 309.958682,65.7615492 L312.91037,65.7737578 Z" id="Path-20" fill="#131313" fill-rule="nonzero"></path>
                    <polygon id="Path" fill="#F7AD01" fill-rule="nonzero" points="147.621962 374.189999 309.63351 237.375012 472.554373 374.187325 470.625137 376.484726 309.638755 241.297026 149.557548 376.482052"></polygon>
                    <path d="M309.636223,233.336026 L471.589755,369.336026 L471.589755,629.336026 L148.589755,629.336026 L148.589755,369.336026 L309.636223,233.336026 Z M309.641755,237.258026 L151.589755,370.729026 L151.589755,626.336026 L468.589755,626.336026 L468.589755,370.734026 L309.641755,237.258026 Z" id="Rectangle" fill="#131313" fill-rule="nonzero"></path>
                    <path d="M314.189711,421.500963 C314.969113,421.523495 315.593291,422.135752 315.645064,422.898112 L315.647961,423.042706 L312.505755,573.250026 L375.590755,573.250026 L379.42973,446.155564 C379.453267,445.376223 380.067226,444.753721 380.829726,444.704031 L380.974327,444.701529 C381.753668,444.725065 382.37617,445.339025 382.42586,446.101524 L382.428362,446.246126 L378.502095,576.250368 L309.422712,576.250368 L312.649092,422.960338 C312.671838,422.132223 313.361596,421.479342 314.189711,421.500963 Z" id="Path-11" fill="#F7AD01" fill-rule="nonzero"></path>
                    <path d="M0.298465647,115.731641 C0.765155158,115.10704 1.6252344,114.949816 2.2780855,115.34688 L2.39791999,115.427846 L54.9657595,154.705469 C55.6293985,155.201327 55.7654122,156.141285 55.2695546,156.804924 C54.8028651,157.429525 53.9427858,157.586749 53.2899347,157.189685 L53.1701002,157.108719 L0.602260754,117.831096 C-0.0613782561,117.335238 -0.197391958,116.39528 0.298465647,115.731641 Z" id="Path-2" fill="#131313" fill-rule="nonzero"></path>
                    <path d="M83.0856351,52.8502122 C83.7051647,52.3768105 84.5754861,52.4604552 85.0950785,53.0207213 L85.1882452,53.1313369 L128.218688,109.444261 C128.721677,110.102511 128.595814,111.043882 127.937563,111.546871 C127.318034,112.020273 126.447713,111.936628 125.92812,111.376362 L125.834953,111.265746 L82.8045104,54.9528222 C82.3015211,54.294572 82.427385,53.3532015 83.0856351,52.8502122 Z" id="Path-3" fill="#131313" fill-rule="nonzero"></path>
                    <path d="M196.235048,16.778999 C196.975092,16.5335174 197.770555,16.8964155 198.079029,17.5954994 L198.131028,17.7304508 L217.564215,76.3149203 C217.825039,77.1012169 217.399059,77.950076 216.612763,78.2109001 C215.872719,78.4563817 215.077257,78.0934836 214.768783,77.3943998 L214.716783,77.2594483 L195.283597,18.6749788 C195.022772,17.8886823 195.448752,17.0398232 196.235048,16.778999 Z" id="Path-4" fill="#131313" fill-rule="nonzero"></path>
                    <path d="M325.225844,0.00128432588 C326.004884,0.033242191 326.620716,0.653893267 326.662162,1.41688514 L326.663102,1.56150519 L324.088494,64.3230306 C324.054539,65.1507616 323.356004,65.7942439 322.528274,65.7602887 C321.749233,65.7283308 321.133402,65.1076798 321.091955,64.3446879 L321.091015,64.2000678 L323.665623,1.43854242 C323.699578,0.610811463 324.398113,-0.0326709058 325.225844,0.00128432588 Z" id="Path-5" fill="#131313" fill-rule="nonzero"></path>
                    <path d="M438.514078,23.8149748 C438.808605,23.0406717 439.675063,22.6517365 440.449366,22.9462637 C441.178122,23.2234657 441.565514,24.0072917 441.363019,24.7440889 L441.318078,24.8815521 L419.966583,81.0139902 C419.672055,81.7882933 418.805597,82.1772285 418.031294,81.8827013 C417.302538,81.6054993 416.915147,80.8216733 417.117642,80.0848762 L417.162583,79.947413 L438.514078,23.8149748 Z" id="Path-6" fill="#131313" fill-rule="nonzero"></path>
                    <path d="M532.723737,59.3289837 C533.145265,58.615818 534.065116,58.3793993 534.778282,58.8009278 C535.449497,59.1976604 535.698403,60.035814 535.373932,60.7276184 L535.306338,60.8554732 L502.551995,116.271124 C502.130466,116.98429 501.210615,117.220708 500.497449,116.79918 C499.826235,116.402447 499.577329,115.564294 499.901799,114.872489 L499.969393,114.744635 L532.723737,59.3289837 Z" id="Path-7" fill="#131313" fill-rule="nonzero"></path>
                    <path d="M612.807444,112.011149 C613.363056,111.396667 614.311604,111.348944 614.926085,111.904556 C615.502161,112.425441 615.58011,113.291681 615.129794,113.904244 L615.032678,114.023196 L572.751252,160.784543 C572.19564,161.399024 571.247093,161.446747 570.632611,160.891136 C570.056535,160.37025 569.978586,159.50401 570.428903,158.891448 L570.526018,158.772495 L612.807444,112.011149 Z" id="Path-8" fill="#131313" fill-rule="nonzero"></path>
                    <path d="M411.842902,417.335621 C411.977665,416.518228 412.74954,415.964848 413.566933,416.099612 C414.336243,416.226448 414.871688,416.917646 414.819666,417.67999 L414.802941,417.823643 L406.289007,469.463908 C406.064483,470.82573 404.275148,471.187125 403.539686,470.019194 C388.6163,446.320509 376.387281,434.530797 367.271413,434.530797 C360.870263,434.530797 351.95998,436.87227 343.019568,440.552816 C339.321207,442.075339 335.902521,443.722916 333.391308,445.170964 C332.750461,445.540498 332.182586,445.889381 331.699259,446.209294 L331.499755,446.342026 L331.586745,446.344844 C332.337931,446.356537 333.264477,446.328798 334.360975,446.260407 L335.170915,446.204783 L335.894836,446.147434 C340.230843,445.784861 346.54652,444.931548 354.827754,443.587755 C356.459599,443.322957 357.256942,445.506153 355.838535,446.355362 L352.53365,448.344959 C344.196603,453.393287 337.853977,457.4693 333.513296,460.566869 L333.183346,460.803213 C330.776117,462.534157 329.029344,463.9396 327.958255,464.999941 C327.836989,465.119989 327.725664,465.234421 327.624376,465.342798 L327.464755,465.517026 L327.604732,465.515274 C328.661651,465.488721 330.212066,465.247816 332.229562,464.788618 L332.639281,464.693867 C337.194994,463.624146 343.888431,461.531793 352.700085,458.419843 C354.26865,457.865884 355.438648,459.896715 354.172625,460.975813 L353.174255,461.831892 C348.2734,466.060299 344.73773,469.508391 342.579841,472.155137 C341.482078,473.501592 340.762638,474.615942 340.42173,475.464389 C340.246151,475.901367 340.194827,476.178816 340.20312,476.333211 L340.209755,476.389026 L340.236872,476.393988 C340.434921,476.440589 340.742543,476.450159 341.149405,476.408854 L341.32982,476.387997 C342.504828,476.236403 344.19382,475.728537 346.361375,474.860276 C350.833274,473.068962 357.230867,469.79357 365.530534,465.040889 C366.301189,464.599586 367.284392,464.920728 367.645968,465.731852 C389.442429,514.627914 405.766152,538.262226 415.343801,536.341774 C425.104327,534.384653 436.730152,503.841404 449.150045,445.604867 C449.322834,444.79466 450.119711,444.277932 450.929918,444.450722 C451.740124,444.623511 452.256853,445.420388 452.084063,446.230594 L451.317692,449.795123 C438.821615,507.442216 427.362996,536.991473 415.933603,539.283225 C404.206534,541.634666 387.834507,518.123723 365.582004,468.466083 L362.957461,469.942452 C347.758728,478.417206 339.988888,481.246367 337.792752,478.199828 L337.722518,478.097493 C335.967809,475.411094 338.742149,471.045519 345.994421,464.23338 L346.545755,463.718026 L345.10563,464.198146 C331.630283,468.649073 325.345839,469.663923 324.129428,466.993863 L324.087676,466.895777 C323.279281,464.858333 325.599476,462.561422 331.431939,458.367526 L332.177892,457.835552 C335.747038,455.310294 340.548738,452.186967 346.586666,448.462579 L347.807755,447.711026 L346.120519,447.954332 C341.905169,448.550508 338.452649,448.955165 335.759542,449.168366 L334.709964,449.245398 C329.369622,449.609421 327.187288,449.298895 327.187288,447.035769 C327.187288,442.590369 354.05209,431.530797 367.271413,431.530797 C377.293154,431.530797 389.342659,442.664357 403.778981,464.829227 L403.964755,465.116026 L411.842902,417.335621 Z" id="Path-9" fill="#131313" fill-rule="nonzero"></path>
                    <path d="M222.32008,438.237661 C216.159199,443.916719 210.891036,451.435248 209.538611,459.258233 C208.42985,465.671758 209.62816,472.778217 213.092801,480.562933 C213.279972,480.98349 213.649883,481.294817 214.096221,481.407439 L216.636974,482.040277 C228.065715,484.845785 233.548499,485.578489 235.08332,484.05027 L235.157827,483.972907 C236.809862,482.182268 234.656351,479.155845 228.128848,473.19226 L227.462755,472.588026 L229.038337,472.965628 C240.358163,475.628777 246.232251,475.898667 247.740954,473.406144 L247.798638,473.305089 C249.427638,470.271062 243.224409,464.851604 227.911396,454.834741 L225.585755,453.323026 L227.044801,452.980431 C240.270979,449.842066 246.738956,447.628454 247.791045,445.587162 C248.726453,443.772256 247.313187,442.549306 244.497205,441.207353 C242.573712,440.290713 239.883565,439.350164 237.02352,438.586293 L236.199754,438.371523 C229.795202,436.743285 224.553334,436.398291 222.450051,438.124647 L222.32008,438.237661 Z M236.249404,441.484697 C238.944347,442.204472 241.466328,443.086226 243.206612,443.915557 L243.449868,444.033701 C243.844105,444.228944 244.181874,444.415434 244.455177,444.586716 L244.563755,444.657026 L244.505549,444.689867 C242.253337,445.915286 234.159329,448.313203 221.445662,451.198549 C220.146413,451.493412 219.847707,453.209385 220.970896,453.92593 L222.820037,455.110952 C230.67632,460.169288 236.495702,464.229439 240.266305,467.280144 C242.247429,468.883024 243.643528,470.192717 244.438598,471.179809 L244.560036,471.334214 C244.713585,471.534451 244.833708,471.711806 244.921021,471.86231 L244.956755,471.929026 L244.942976,471.933293 C244.76283,471.983276 244.473909,472.04602 244.063472,472.090101 C243.084724,472.195218 241.701397,472.150561 239.933994,471.948186 L239.549393,471.902403 C235.51772,471.404693 229.715385,470.148275 222.164369,468.13337 C220.625365,467.722704 219.591727,469.677287 220.797478,470.718125 L222.168488,471.909103 C225.863386,475.140206 228.612418,477.727779 230.406838,479.660569 L230.831199,480.125294 C231.386097,480.74398 231.822956,481.278541 232.138944,481.720566 L232.240755,481.866026 L232.23095,481.866614 C231.378703,481.866614 230.163169,481.747121 228.602582,481.505052 L228.266021,481.451813 C225.424589,480.993872 221.553771,480.161645 216.662701,478.955823 L215.541755,478.677026 L215.327218,478.169812 C212.482545,471.364195 211.549887,465.234828 212.494761,459.769288 C213.709258,452.744139 218.634294,445.715306 224.353391,440.443482 C225.319976,439.552491 230.483324,439.944672 236.249404,441.484697 Z" id="Path-10" fill="#131313" fill-rule="nonzero"></path>
                    <path d="M291.039737,443.388805 C291.819002,443.415575 292.43962,444.03144 292.486972,444.794088 L292.489032,444.938696 L288.123701,576.153555 C288.096156,576.981524 287.402624,577.630396 286.574655,577.603696 C285.79539,577.576926 285.174772,576.961061 285.127419,576.198413 L285.12536,576.053805 L289.490691,444.838946 C289.518236,444.010977 290.211768,443.362105 291.039737,443.388805 Z" id="Path-12" fill="#F7AD01" fill-rule="nonzero"></path>
                    <circle id="Oval" fill="#131313" cx="438.589755" cy="362.336026" r="13"></circle>
                </g>
            </g>
        </g>
    </g>
</svg>