<?xml version="1.0" encoding="UTF-8"?>
<svg width="768px" height="763px" viewBox="0 0 768 763" version="1.1" xmlns="http://www.w3.org/2000/svg" xmlns:xlink="http://www.w3.org/1999/xlink">
    <title>illustration-5</title>
    <defs>
        <circle id="path-1" cx="79.5" cy="79.5" r="79.5"></circle>
        <path d="M111.896567,120.513507 C120.628274,75.4384905 132.193285,43.9466177 146.5916,26.0378886 C168.189072,-0.825205068 191.756965,-2.17536434 212.962587,3.26790935 C234.168209,8.71118304 249.320447,26.3739057 258.157392,55.5292247 C264.048688,74.966104 275.461087,115.501675 292.394589,177.135938 C296.109388,209.597286 288.520071,229.511966 269.62664,236.879978 C250.733208,244.24799 212.151815,261.186906 153.88246,287.696725 C134.5965,285.415328 122.33543,276.91237 117.099248,262.187851 C111.863067,247.463332 114.522102,235.959907 125.076355,227.677577 L220.906193,187.010374 L195.886625,101.891461 L166.568881,165.819979 C153.627655,191.001296 132.394624,198.87824 102.869788,189.450812 C73.3449516,180.023384 41.6229765,169.23463 7.70386249,157.08455 C-0.595387197,145.312786 -1.85621262,131.47653 3.92138622,115.575782 C9.69898506,99.6750338 19.130812,91.6004722 32.2168669,91.3520971 L111.896567,120.513507 Z" id="path-3"></path>
    </defs>
    <g id="Desktop" stroke="none" stroke-width="1" fill="none" fill-rule="evenodd">
        <g id="Artboard" transform="translate(-697.000000, -4630.000000)">
            <g id="illustration-5" transform="translate(697.000000, 4630.000000)">
                <circle id="Oval" fill="#7C00D9" cx="117.5" cy="114.5" r="114.5"></circle>
                <g id="Path-17" transform="translate(282.000000, 604.000000)">
                    <mask id="mask-2" fill="white">
                        <use xlink:href="#path-1"></use>
                    </mask>
                    <use id="Mask" fill="#7C00D9" xlink:href="#path-1"></use>
                    <path d="M144.237846,-21 L145.464054,-18.2620418 L75.7377624,12.9643796 L90.8917624,20.2853796 L182.491498,-0.208229912 L120.652762,34.6613796 L168.924762,57.9803796 L199.611112,50.8622632 L200.565985,53.6911887 L179.592762,63.1343796 L232.263362,88.5780629 L230.958428,91.2793863 L176.022762,64.7413796 L36.2837624,127.66538 L36.2837624,130.28138 L174.919641,91.795552 L45.6427624,158.52538 L126.095266,158.526079 L33.2846042,196.534382 L33.2837624,134.22738 L2.99668981,142.635721 L1.97957808,139.822646 L33.2837624,125.72638 L33.2837624,92.5293796 L-3,100.947651 L33.2837624,80.4863796 L33.2837624,36.2483796 L-0.43601165,43.7928773 L33.2837624,28.6903796 L33.2846042,-7.54299994 L72.2067624,11.2583796 L144.237846,-21 Z M110.853762,161.52538 L36.2837624,161.52538 L36.2837624,192.06338 L110.853762,161.52538 Z M147.719762,102.45938 L36.2837624,133.39438 L36.2837624,159.98038 L147.719762,102.45938 Z M33.2837624,129.01538 L21.1347624,134.48638 L33.2837624,131.11338 L33.2837624,129.01538 Z M168.572762,61.1423796 L36.2837624,91.8333796 L36.2837624,124.37538 L172.498762,63.0393796 L168.572762,61.1423796 Z M33.2837624,83.9293796 L16.6527624,93.3083796 L33.2837624,89.4493796 L33.2837624,83.9293796 Z M117.470762,36.4563796 L36.2837624,82.2383796 L36.2837624,88.7533796 L164.264762,59.0613796 L117.470762,36.4563796 Z M90.5277624,23.4403796 L36.2837624,35.5773796 L36.2837624,78.7943796 L114.181762,34.8673796 L90.5277624,23.4403796 Z M185.358762,57.2483796 L173.231762,60.0613796 L176.068762,61.4313796 L185.358762,57.2483796 Z M33.2837624,31.9773796 L27.9467624,34.3683796 L33.2837624,33.1743796 L33.2837624,31.9773796 Z M163.330762,7.15237963 L95.2407624,22.3863796 L117.363762,33.0733796 L163.330762,7.15237963 Z M72.1587624,14.5673796 L36.2837624,30.6343796 L36.2837624,32.5023796 L86.1777624,21.3393796 L72.1587624,14.5673796 Z M36.2837624,-2.76262037 L36.2837624,27.3473796 L68.6277624,12.8613796 L36.2837624,-2.76262037 Z" fill="#F7AD01" fill-rule="nonzero" mask="url(#mask-2)"></path>
                </g>
                <circle id="Oval" fill="#FFFFFF" cx="481.5" cy="209.5" r="46.5"></circle>
                <circle id="Oval-Copy-3" fill="#FFFFFF" cx="361" cy="75" r="14"></circle>
                <polygon id="Triangle" fill="#7C00D9" transform="translate(481.805053, 122.889134) rotate(-43.000000) translate(-481.805053, -122.889134) " points="481.805053 69.8891345 534.805053 175.889134 428.805053 175.889134"></polygon>
                <polygon id="Triangle-Copy" fill="#FFFFFF" transform="translate(90.500000, 615.500000) rotate(55.000000) translate(-90.500000, -615.500000) " points="90.5 551 155 680 26 680"></polygon>
                <circle id="Oval-Copy-4" fill="#E73D11" cx="454" cy="455" r="17"></circle>
                <rect id="Rectangle" fill="#FFFFFF" transform="translate(468.000000, 546.000000) rotate(-23.000000) translate(-468.000000, -546.000000) " x="443" y="521" width="50" height="50"></rect>
                <g id="Group-2" transform="translate(10.855771, 145.000000)">
                    <path d="M751.144229,0 L751.144229,81 L702.644229,81 C725.011762,81 743.144229,62.8675324 743.144229,40.5 C743.144229,18.1324676 725.011762,-4.10884904e-15 702.644229,0 L702.644229,0 L751.144229,0 Z" id="Combined-Shape" fill="#131313"></path>
                    <g id="Group" transform="translate(612.912679, 231.726763) rotate(12.000000) translate(-612.912679, -231.726763) translate(522.412679, 190.226763)">
                        <path d="M180.583423,0.331792653 L180.583423,82.3317927 L81.5834233,82.3317927 L81.5834233,0.331792653 L180.583423,0.331792653 Z M177.583,3.331 L84.583,3.331 L84.583,79.331 L177.583,79.331 L177.583,3.331 Z" id="Rectangle-Copy-3" fill="#131313" fill-rule="nonzero"></path>
                        <path d="M81.5561123,0.0432170308 L81.5561123,82.043217 L0.556112287,82.043217 L0.555542181,32.6067169 L8.25529499,33.5780448 L30.5030895,31.7971899 L50.7283209,26.2684512 L58.9510207,20.4130917 L57.4013628,18.0342769 L42.7063511,18.4284421 L39.8234925,17.324155 L38.9439234,13.1861078 L44.9215422,0.0427168979 L81.5561123,0.0432170308 Z" id="Combined-Shape" fill="#DD63B1"></path>
                    </g>
                    <polygon id="Triangle" fill="#131313" points="714.144229 189 756.144229 266 696.778344 266 707.976932 212.395327 702.501807 210.344442"></polygon>
                    <path d="M702.644229,0 C725.011762,0 743.144229,18.1324676 743.144229,40.5 C743.144229,62.8675324 725.011762,81 702.644229,81 L636.644229,81 C614.276697,81 596.144229,62.8675324 596.144229,40.5 C596.144229,18.1324676 614.276697,0 636.644229,0 L702.644229,0 Z M702.644229,3 L636.644229,3 C615.933551,3 599.144229,19.7893219 599.144229,40.5 C599.144229,61.0035713 615.599444,77.6638214 636.024098,77.9949761 L636.644229,78 L702.644229,78 C723.354908,78 740.144229,61.2106781 740.144229,40.5 C740.144229,19.9964287 723.689015,3.33617857 703.26436,3.00502393 L702.644229,3 Z" id="Rectangle" fill="#131313" fill-rule="nonzero"></path>
                    <circle id="Oval" fill="#E73D11" cx="633.644229" cy="40.5" r="40.5"></circle>
                    <rect id="Rectangle" fill="#131313" transform="translate(330.127603, 117.779737) rotate(17.000000) translate(-330.127603, -117.779737) " x="270.627603" y="88.2797366" width="119" height="59" rx="29.5"></rect>
                    <path d="M352.144229,29 C365.399063,29 376.144229,39.745166 376.144229,53 C376.144229,66.254834 365.399063,77 352.144229,77 C341.208263,77 331.980667,69.6855972 329.086726,59.6820764 C328.308269,59.8897031 327.48913,60 326.644229,60 C321.397524,60 317.144229,55.7467051 317.144229,50.5 C317.144229,49.0267691 317.479576,47.6318626 318.078099,46.3874501 L318.078099,46.3874501 L329.445605,45.1842361 C329.833183,44.0584033 330.302161,42.9704569 330.845509,41.9274279 C334.847297,34.2454635 342.883191,29 352.144229,29 Z" id="Combined-Shape" fill="#DD63B1"></path>
                    <path d="M330.283911,42.6026851 L330.598486,41.8404083 C331.380286,39.9105047 333.205383,35.2975597 334.082163,33.2921485 L334.161522,33.1119419 C337.032292,26.6447808 339.764344,22.6818408 343.067844,21.5713715 L343.293976,21.5000819 C345.141662,20.9559419 345.554399,20.4015852 345.370321,19.9321426 C345.104889,19.2552263 343.973841,18.590929 342.755528,18.590929 C339.546168,18.590929 332.85561,24.2218944 331.606408,28.457415 C331.372057,29.2520034 330.537936,29.7061651 329.743347,29.4718134 C328.948759,29.2374617 328.494597,28.403341 328.728949,27.6087525 C330.336201,22.1592328 338.140479,15.590929 342.755528,15.590929 C345.136669,15.590929 347.41519,16.9291711 348.163276,18.8369689 C349.099889,21.2255555 347.486267,23.3928496 344.141483,24.3778819 C342.030483,24.9995672 339.698034,28.2265067 337.260899,33.5371309 L336.903511,34.3291095 C335.923811,36.5361416 333.325999,43.163165 332.98817,43.9055335 C331.938,46.213249 325.79323,47.5426073 312.884298,48.8633794 L310.615317,49.0873592 C299.729697,50.1248634 284.685355,51.0541014 265.475694,51.8760612 L263.423229,51.962 L285.736698,76.7120165 C286.256754,77.2888423 286.246112,78.1585172 285.735775,78.7220535 L285.627054,78.8305014 C285.050228,79.3505571 284.180554,79.3399157 283.617017,78.8295782 L283.508569,78.7208573 L259.056261,51.5992971 C258.205269,50.6554094 258.84018,49.1471802 260.110023,49.0960893 L266.364587,48.8350095 C285.376971,48.0113702 300.224047,47.0814508 310.899216,46.0462393 L312.578949,45.8789596 C318.482804,45.2749091 322.984657,44.6367536 326.068838,43.9695225 C327.564025,43.6460541 328.708592,43.3190481 329.486645,42.999415 C329.770432,42.882832 329.993394,42.7719593 330.151945,42.6733913 L330.279861,42.5897159 C330.286952,42.587075 330.287961,42.5909395 330.283911,42.6026851 Z" id="Path-2" fill="#131313" fill-rule="nonzero"></path>
                    <path d="M329.074254,18.2870501 C331.32658,15.9235709 335.041956,15.2734125 340.11013,16.1471026 C340.926515,16.2878373 341.474238,17.0637366 341.333503,17.880122 C341.192769,18.6965075 340.41687,19.2442307 339.600484,19.103496 C335.417293,18.3823659 332.669226,18.8632536 331.246029,20.3566867 C329.469663,22.2207173 327.940434,24.1331622 326.657111,26.093787 C326.203415,26.7869325 325.273715,26.981044 324.58057,26.5273472 C323.887424,26.0736504 323.693313,25.143951 324.147009,24.4508055 C325.532272,22.3344388 327.175097,20.2799318 329.074254,18.2870501 Z" id="Path-3" fill="#131313" fill-rule="nonzero"></path>
                    <path d="M322.834501,18.0183061 C324.75051,16.9275359 327.337003,16.9275359 330.583581,17.8828759 C331.378314,18.1167347 331.832993,18.9505737 331.599134,19.7453073 C331.365275,20.5400409 330.531436,20.9947198 329.736703,20.7608609 C327.306852,20.0458514 325.552012,20.014764 324.463082,20.5490765 L324.169189,20.7113555 C323.861179,20.8917583 323.674215,21.0351495 322.792201,21.8067641 L321.78869,22.6887987 C319.649258,24.5724744 318.282105,25.4584766 316.592686,25.6367273 C316.157236,25.6826716 315.725225,25.6670354 315.300277,25.5860055 L315.046185,25.5295098 C312.620155,24.9123921 264.147234,23.6678235 246.297547,23.6678235 L245.049387,23.6730687 C224.833353,23.8447964 212.988434,28.2520776 211.283205,39.6609414 C209.891087,48.9749268 226.628245,73.3356382 261.284048,111.748207 C261.838983,112.363299 261.790217,113.311794 261.175125,113.866729 C260.560033,114.421665 259.611539,114.372899 259.056603,113.757807 L256.949343,111.415093 C222.896257,73.4411137 206.751279,49.6873606 208.316163,39.2174717 C209.445124,31.6641396 214.45648,26.6358785 222.569708,23.7651179 C228.669481,21.6067922 236.181096,20.7189505 245.47304,20.6699785 L247.435579,20.6692976 C266.394767,20.7167314 312.08964,21.8978169 315.687962,22.60052 L315.785753,22.6220988 C315.940511,22.661465 316.101511,22.6718988 316.277903,22.6532877 C317.082126,22.5684341 318.041625,21.9673953 319.572292,20.6415124 L321.01469,19.3712942 C321.108679,19.2902628 321.197531,19.2146068 321.285293,19.1409151 C321.871397,18.6487812 322.357798,18.2896898 322.834501,18.0183061 Z" id="Path-4" fill="#131313" fill-rule="nonzero"></path>
                    <path d="M395.722489,112.168252 C396.026443,111.450242 396.824055,111.092093 397.552862,111.321688 L397.68857,111.371681 L546.723229,174.463 L549.899119,173.988958 C558.554599,172.721179 564.498679,172.060803 567.783083,172.007372 L568.201338,172.003844 C574.451642,172.003844 597.084118,177.245323 599.271527,179.730857 C600.74677,181.407164 601.535163,183.432169 601.626943,185.748073 L601.635644,186.116151 L601.649155,187.83665 L575.972229,184.508 L575.799789,184.726341 C572.517705,188.894694 570.420299,192.156381 569.518353,194.454162 L569.429313,194.688422 C568.730498,196.591099 568.906234,197.150647 569.819319,197.361247 L570.327865,197.472648 C571.363453,197.68756 572.546908,197.861412 574.542367,198.107329 L577.575546,198.475559 C580.462405,198.839097 582.120645,199.12681 583.65339,199.576505 C586.332798,200.362622 587.92618,201.5735 587.92618,203.618515 C587.92618,206.72521 581.261556,208.854945 571.136052,210.067995 C560.842264,211.301207 549.430842,211.097523 539.963874,209.186849 C526.320435,206.433257 474.740226,189.14394 384.965593,157.24448 C384.184981,156.967107 383.777026,156.10944 384.054399,155.328828 C384.331773,154.548216 385.18944,154.14026 385.970052,154.417634 L396.53314,158.166009 C479.581145,187.595518 527.665211,203.644176 540.557383,206.246144 C549.686988,208.08873 560.783518,208.286793 570.779199,207.089295 C575.113169,206.570079 578.917813,205.813287 581.611555,204.95248 C582.882561,204.54632 583.860448,204.130288 584.480434,203.74288 C584.605933,203.66446 584.710498,203.591013 584.793592,203.525275 L584.882229,203.45 L584.869354,203.424866 C584.470203,202.746245 581.951668,202.056175 576.78842,201.401893 L573.808037,201.039256 C571.605706,200.763877 570.381792,200.569742 569.145082,200.284499 C566.162372,199.596548 565.364161,197.055034 566.613243,193.654136 C567.624263,190.901412 570.010907,187.185381 573.786342,182.436124 L574.156042,181.973291 L574.6833,181.316309 L598.425229,184.393 L598.399725,184.285073 C598.171191,183.419083 597.776413,182.642417 597.213366,181.943077 L597.019448,181.712812 C595.589307,180.087754 573.637209,175.003844 568.201338,175.003844 L567.601996,175.011527 C564.218452,175.093476 557.8433,175.831006 548.535765,177.223594 L546.336494,177.55636 L396.51906,114.134333 C395.756175,113.811382 395.399538,112.931137 395.722489,112.168252 Z" id="Path-5" fill="#131313" fill-rule="nonzero"></path>
                    <path d="M356.363073,42.5371642 C357.089908,42.1396681 358.001358,42.4066496 358.398854,43.1334841 C358.772968,43.8175636 358.558479,44.6651779 357.925984,45.0939253 L357.802534,45.1692646 L352.312973,48.1714327 C351.586138,48.5689288 350.674688,48.3019473 350.277192,47.5751128 C349.903078,46.8910333 350.117567,46.0434189 350.750062,45.6146715 L350.873512,45.5393322 L356.363073,42.5371642 Z" id="Path-6" fill="#131313" fill-rule="nonzero"></path>
                    <path d="M373.055531,43.6864917 C373.780962,43.2864393 374.693346,43.5502104 375.093398,44.275641 C375.469918,44.9583992 375.258414,45.8067635 374.627433,46.2377348 L374.504249,46.3135083 L370.868588,48.318462 C370.143158,48.7185144 369.230773,48.4547433 368.830721,47.7293127 C368.454201,47.0465544 368.665705,46.1981902 369.296687,45.7672189 L369.41987,45.6914454 L373.055531,43.6864917 Z" id="Path-6-Copy" fill="#131313" fill-rule="nonzero" transform="translate(371.962060, 46.002477) scale(-1, 1) translate(-371.962060, -46.002477) "></path>
                    <path d="M347.020848,58.8093338 C347.227996,58.2973687 347.810952,58.0502653 348.322917,58.257413 C348.834882,58.4645607 349.081985,59.0475168 348.874838,59.5594819 C347.271471,63.5221999 348.556855,66.4264457 352.966493,68.6216183 C353.460903,68.8677419 353.662179,69.4680633 353.416056,69.9624737 C353.169932,70.456884 352.569611,70.6581602 352.0752,70.4120366 C346.770085,67.7710842 345.0068,63.7870503 347.020848,58.8093338 Z" id="Path-7" fill="#131313" fill-rule="nonzero"></path>
                    <path d="M364.077922,62.292315 C364.215276,61.7573829 364.760272,61.435082 365.295204,61.5724357 C365.830136,61.7097895 366.152437,62.2547849 366.015083,62.7897171 C365.342691,65.4083839 366.561531,67.5110555 369.929785,69.2783344 C370.41884,69.534935 370.607281,70.1394081 370.350681,70.6284629 C370.09408,71.1175177 369.489607,71.305959 369.000552,71.0493584 C364.876853,68.8857078 363.149915,65.9064925 364.077922,62.292315 Z" id="Path-8" fill="#131313" fill-rule="nonzero"></path>
                    <ellipse id="Oval" fill="#131313" cx="369.644229" cy="59" rx="2.5" ry="4"></ellipse>
                    <ellipse id="Oval-Copy" fill="#131313" cx="359.144229" cy="58.5" rx="3" ry="4.5"></ellipse>
                    <path d="M331.186264,44.4159631 C333.639886,47.5851988 336.074887,49.4578716 338.491266,50.0339815 C340.907645,50.6100914 342.55223,50.6100914 343.425022,50.0339815 L344.851936,34.8236701 C353.169713,37.8885411 360.600477,38.4817997 367.144229,36.6034457 C376.959858,33.7859148 378.960403,22.9083879 374.552316,17.2753943 C371.613592,13.5200652 366.75853,13.8482619 359.98713,18.2599844 C357.52972,15.487587 355.347425,14.2672987 353.440245,14.5991195 C351.533064,14.9309403 349.456885,16.6047731 347.211708,19.620618 L343.425022,23.7031499 L337.956923,28.5942977 L331.186264,44.4159631 Z" id="Path-9" fill="#131313"></path>
                    <path d="M182.370971,411.550176 L155.535515,449.203873 L216.654346,513.176739 L198.356349,468.252997 L190.619172,466.754639 L196.682025,465.624604 L194.868858,459.801352 L183.454244,458.289495 L193.432208,456.930946 L190.619172,450.727801 L177.163358,449.393062 L189.759592,447.757601 C187.144697,442.308617 186.29476,439.121312 187.20978,438.195686 C188.124801,437.270059 191.497874,434.293109 197.329,429.264836 L182.370971,411.550176 Z" id="Path-13-Copy" fill="#131313" transform="translate(186.094931, 462.363457) rotate(27.000000) translate(-186.094931, -462.363457) "></path>
                    <path d="M55.8354562,246.423029 L29,284.076726 L90.1188314,348.049592 L71.8208338,303.125851 L64.0836565,301.627493 L70.1465103,300.497457 L68.3333429,294.674205 L56.9187285,293.162349 L66.8966934,291.803799 L64.0836565,285.600655 L50.6278427,284.265915 L63.2240772,282.630454 C60.6091822,277.181471 59.759245,273.994166 60.6742654,273.068539 C61.5892858,272.142913 64.9623589,269.165963 70.7934847,264.137689 L55.8354562,246.423029 Z" id="Path-13-Copy-2" fill="#131313" transform="translate(59.559416, 297.236311) rotate(60.000000) translate(-59.559416, -297.236311) "></path>
                    <g id="Path-10" transform="translate(89.556662, 167.052214)">
                        <mask id="mask-4" fill="white">
                            <use xlink:href="#path-3"></use>
                        </mask>
                        <use id="Mask" fill="#7C00D9" xlink:href="#path-3"></use>
                        <path d="M176.537679,-9 C179.938684,23.4656483 190.747413,40.3868776 208.82387,42.2977452 L209.753471,42.3899955 C217.75928,43.1315571 224.531875,42.3647535 236.766064,39.941878 L240.036664,39.2945984 C253.398614,36.6870461 258.87813,36.2100803 266.348055,37.6053365 C272.314224,38.7197163 277.883744,41.2350966 283.322993,45.4412575 C288.661324,49.5693786 290.062689,53.5586408 287.41303,57.2494139 C285.46705,59.9600154 281.557993,62.2448294 274.846412,65.0191046 L273.491643,65.5672691 C270.013217,66.9449541 261.66738,70.108926 261.317844,70.2448878 L260.212658,70.6782501 C243.46515,77.2994989 235.845227,82.8574548 235.845227,90.6757037 C235.845227,96.3983671 237.754279,100.781841 241.475946,104.481234 C244.344744,107.332862 247.682263,109.425673 253.944502,112.625267 L256.438295,113.889251 C267.575093,119.531444 272.088678,123.067123 274.028397,129.766951 C275.403784,134.517567 272.534592,138.082864 266.319786,140.807285 L265.551398,141.13481 C261.310529,142.892001 256.067225,144.245542 246.658228,146.226845 L239.115324,147.798496 L237.857254,148.065754 C217.53641,152.4205 208.344831,156.284995 206.537939,162.931762 C204.006198,172.244929 219.742874,198.79722 239.785518,217.432828 C241.249034,218.793601 242.710931,220.095486 244.169792,221.337099 L244.749567,221.826786 L244.790445,221.643176 C245.361254,218.978104 245.655353,215.649847 245.903641,210.705382 L246.009522,208.587362 C246.338539,202.27681 246.666853,199.189397 247.565148,195.287859 C248.99746,189.066938 251.626589,183.697461 255.967583,178.824974 C266.052947,167.504803 288.584331,169.466878 304.820303,181.414428 C322.825539,194.663924 325.582771,214.244553 307.140894,232.148751 C290.948975,247.868591 269.190415,244.52301 246.885299,227.393116 L246.261567,226.909786 L246.198011,227.057195 C246.046575,227.398944 245.8861,227.739934 245.715889,228.082855 L245.586394,228.340449 C242.60049,234.206665 237.067318,238.256486 227.985084,240.75263 C223.011866,242.11946 217.636438,243.008449 210.956683,243.685135 L208.488745,243.921945 C207.807047,243.983977 207.12235,244.043202 206.347677,244.106999 L197.947444,244.758519 C181.799194,246.055585 174.921744,247.510982 168.984343,251.723065 C161.143597,257.285409 158.371531,267.411752 161.283678,284.56612 L161.383994,285.147023 C164.60906,303.513813 162.047976,312.761897 152.900284,311.380916 C144.996566,310.187731 132.282124,300.001814 114.369024,280.739858 L112.884148,279.135824 L112.868501,278.573412 C112.072221,249.951525 126.690142,233.523804 156.291288,229.695277 L157.192878,229.583118 C176.065239,227.327584 186.942192,213.785316 190.729866,192.978953 C193.478752,177.878832 191.678474,159.133939 188.329259,153.89047 L188.218288,153.722522 C183.977352,147.523688 185.391885,134.86517 192.179438,115.468389 L192.535567,114.457786 L192.495039,113.546071 C190.67256,74.4988001 182.916068,57.1241003 169.90331,60.2596164 L169.503319,60.3620071 C149.033548,65.906916 139.674636,107.108131 154.691907,120.28942 C162.756956,127.368452 167.874483,139.550101 167.16456,150.037107 C166.356141,161.97909 158.421549,169.651788 144.357476,169.808719 L143.915979,169.811173 C115.441053,169.811173 90.9316521,185.844358 87.2671804,206.318374 L87.1625337,206.940146 C85.3881805,218.195321 71.7670305,219.830656 57.4062394,213.035771 C42.7059812,206.080264 33.8757212,193.577327 38.2287227,181.545647 C42.4162721,169.971277 55.4634679,162.47202 78.1873079,155.601115 L79.826531,155.111699 L81.5854726,154.606425 C88.0091211,152.7874 101.896934,149.055248 104.847272,148.177387 L105.951847,147.844559 C111.718806,146.084002 115.510016,144.550132 117.803065,142.965576 C134.100962,131.703305 139.878361,111.591886 129.436336,83.8326757 C121.779027,63.4763878 106.681605,57.5101007 83.4552927,65.8241838 L83.1345671,65.9397856 L83.1765561,66.2531097 C89.4720649,115.077115 84.0263335,139.207202 65.8640091,137.640361 L65.3040462,137.584369 C53.157744,136.205446 47.6979469,131.503676 44.2217176,122.428622 L44.0818645,122.058316 C43.9309487,121.653045 43.7804079,121.234791 43.6152954,120.76394 L42.9346158,118.786796 C40.8821106,112.807521 39.421492,110.508561 36.0095008,109.116309 C30.5228323,106.877491 25.336549,110.329292 18.117515,119.419629 L17.2783159,120.490709 C16.2770881,121.789688 13.4511161,125.513644 12.688728,126.482609 L12.112475,127.2074 C10.6152732,129.069242 9.42385606,130.372389 8.2982431,131.327724 C3.55624903,135.352374 -3.1424991,138.163449 -11.7839739,139.794247 L-12.4702315,139.920542 L-13,136.967689 C-4.50777321,135.444107 1.9395025,132.789702 6.35699133,129.040468 C7.31257049,128.229444 8.39819882,127.039875 9.79309265,125.30431 L10.3310247,124.627553 C11.1312856,123.610453 14.3397402,119.379525 15.1086635,118.392583 C18.8165063,113.633427 21.7244017,110.52259 24.8345173,108.348538 C28.9370145,105.480785 33.0321573,104.661271 37.1429144,106.338652 C41.4279668,108.087154 43.3016401,110.832328 45.4907144,117.005854 L46.3227771,119.417037 C46.5326242,120.021914 46.7134545,120.528538 46.8932638,121.0114 C49.990362,129.328378 54.5306086,133.342032 65.6424509,134.603516 C81.133408,136.362144 86.3194975,114.035721 80.195203,66.5902187 L79.8498535,63.9649845 L80.9632143,63.5445198 C106.474237,53.9101917 123.811854,60.3596585 132.244248,82.7764396 C143.161109,111.797961 136.963623,133.371727 119.508556,145.433632 C116.815459,147.294631 112.639493,148.963567 106.28641,150.878067 L104.902504,151.285093 C100.295556,152.600613 85.445329,156.590326 80.6799232,157.98777 L79.0795257,158.465559 C57.2381135,165.069781 44.7958612,172.212099 41.0497676,182.566287 C37.3450252,192.806181 45.2140668,203.948111 58.689327,210.324003 C71.3919122,216.334299 82.6226384,215.061308 84.155654,206.727668 L84.1991321,206.472973 C87.6957882,184.292791 113.286464,167.156839 143.0139,166.816338 L143.915979,166.811173 C156.664721,166.811173 163.460335,160.338501 164.17141,149.834484 C164.817741,140.28688 160.080821,129.011223 152.712894,122.544084 C135.902862,107.789212 145.93163,63.6390541 168.718939,57.4663641 C184.866572,53.0922482 193.557258,72.1237546 195.489703,113.362582 L195.5588,114.91164 L195.020767,116.431828 C188.612134,134.745333 187.222638,146.642925 190.579335,151.855402 L190.694279,152.028571 C194.643475,157.800978 196.588428,177.547205 193.681358,193.516255 C189.72106,215.270873 178.159992,229.833133 158.157608,232.485203 L157.54889,232.561919 C129.139805,235.957235 115.383462,250.859513 115.848884,277.673782 L115.854567,277.929786 L117.573237,279.77599 C134.29127,297.622726 146.262535,307.182583 153.132974,308.37953 L153.348104,308.414528 C159.259334,309.306916 161.26044,302.525673 158.598038,286.649263 L158.429201,285.665861 C155.174072,267.127863 158.229531,255.674454 167.248529,249.276241 L167.728272,248.94231 C174.22346,244.508152 181.545081,243.043998 198.284037,241.722126 L204.710776,241.229026 C206.403929,241.095405 207.603801,240.992785 208.892685,240.871789 L209.824855,240.782684 C216.741626,240.110918 222.201573,239.230918 227.19005,237.859895 C235.50601,235.574352 240.338336,232.037491 242.912806,226.979593 C243.222746,226.370674 243.498298,225.766306 243.744309,225.146482 L243.818567,224.953786 L243.078918,224.340717 C241.554985,223.067132 240.029837,221.730862 238.505066,220.333581 L237.742719,219.629864 C216.936968,200.284722 200.715376,172.914237 203.643,162.144787 C204.908087,157.491084 209.115392,153.964193 215.986162,151.08858 L216.438029,150.901958 C221.621214,148.789404 227.61977,147.184259 237.14478,145.149682 L246.581752,143.176839 C256.00618,141.181889 261.063292,139.836005 265.11531,138.059698 C270.12318,135.864368 271.996546,133.536498 271.146738,130.601242 C269.578037,125.182919 265.738316,122.039961 256.068984,117.068768 L253.100526,115.562103 C246.235645,112.076514 242.597641,109.826179 239.361002,106.608912 C235.084966,102.358468 232.845227,97.2156853 232.845227,90.6757037 C232.845227,85.2315069 235.962483,80.6256437 241.737838,76.5391902 C246.067195,73.4758779 251.490611,70.8751001 259.552338,67.7137252 L270.160743,63.6480869 C271.468289,63.141546 272.578791,62.7061554 273.227148,62.4411393 L274.155963,62.0570336 C280.066195,59.5831313 283.50712,57.5459134 284.976019,55.4998488 C286.505253,53.3697418 285.697257,51.0696202 281.487802,47.8144569 C276.422736,43.8976506 271.292852,41.5808245 265.797232,40.5543353 L265.157321,40.4389617 C258.484169,39.2803407 253.165942,39.7880218 240.557672,42.2495571 L235.920362,43.1648894 C223.834676,45.5105412 216.985339,46.1772119 208.508497,45.2811224 C188.887963,43.20703 177.317862,25.3802834 173.662356,-7.68092196 L173.554006,-8.68743927 L176.537679,-9 Z M303.04223,183.830717 C287.908921,172.694583 267.064366,170.879401 258.207551,180.820606 C254.217971,185.298652 251.812422,190.211513 250.488659,195.960972 L250.292373,196.845897 C249.588461,200.151136 249.298519,203.116899 249.004001,208.771735 L248.839079,212.017559 C248.552789,217.254803 248.184492,220.705293 247.416632,223.591714 L247.323567,223.929786 L247.809802,224.314767 C269.1178,241.037714 289.518757,244.547765 304.541147,230.482595 L305.051184,229.996285 C322.083704,213.460353 319.630299,196.037364 303.04223,183.830717 Z" fill="#F7AD01" fill-rule="nonzero" mask="url(#mask-4)"></path>
                    </g>
                    <path d="M597.646087,411.102696 L597.646087,522.102696 L504.646087,522.102696 L504.646087,411.102696 L597.646087,411.102696 Z M594.645229,414.102 L507.645229,414.102 L507.645229,519.102 L594.645229,519.102 L594.645229,414.102 Z" id="Rectangle" fill="#131313" fill-rule="nonzero" transform="translate(551.146087, 466.602696) rotate(30.000000) translate(-551.146087, -466.602696) "></path>
                    <polygon id="Triangle" fill="#7C00D9" transform="translate(596.412179, 387.758330) rotate(30.000000) translate(-596.412179, -387.758330) " points="596.412179 352.25833 642.912179 423.25833 549.912179 423.25833"></polygon>
                </g>
            </g>
        </g>
    </g>
</svg>