<?xml version="1.0" encoding="UTF-8"?>
<svg width="602px" height="601px" viewBox="0 0 602 601" version="1.1" xmlns="http://www.w3.org/2000/svg" xmlns:xlink="http://www.w3.org/1999/xlink">
    <title>illustration-5 hover</title>
    <defs>
        <circle id="path-1" cx="62.5163827" cy="62.5163827" r="62.5163827"></circle>
        <path d="M87.9920579,94.7681575 C94.8584066,59.3225351 103.952779,34.5582839 115.275177,20.4754039 C132.258772,-0.648916174 150.791847,-1.71064037 167.467303,2.56978455 C184.142759,6.85020947 196.058019,20.7396375 203.007123,43.6664938 C207.63986,58.9510647 216.614223,90.8270054 229.930214,139.294316 C232.851419,164.820933 226.883411,180.481232 212.026191,186.275212 C197.168971,192.069193 166.829736,205.389441 121.008487,226.235957 C105.842595,224.441935 96.2008624,217.755468 92.0832884,206.176554 C87.9657144,194.59764 90.056699,185.551697 98.3562423,179.038724 L173.713913,147.059272 L154.039286,80.1243465 L130.984703,130.39579 C120.808117,150.197611 104.111107,156.391801 80.8936733,148.978358 C57.6762398,141.564915 32.7310431,133.080967 6.05808322,123.526514 C-0.468194388,114.269556 -1.45966916,103.389145 3.08365889,90.8852805 C7.62698694,78.3814158 15.0438888,72.0318261 25.3343645,71.8365115 L87.9920579,94.7681575 Z" id="path-3"></path>
    </defs>
    <g id="Desktop" stroke="none" stroke-width="1" fill="none" fill-rule="evenodd" opacity="0.2">
        <g id="Artboard" transform="translate(-2159.000000, -1858.000000)">
            <g id="illustration-5-hover" transform="translate(2159.000000, 1858.000000)">
                <circle id="Oval" fill="#7C00D9" cx="90.3984273" cy="90.0393185" r="90.0393185"></circle>
                <g id="Path-17" transform="translate(219.756225, 474.967235)">
                    <mask id="mask-2" fill="white">
                        <use xlink:href="#path-1"></use>
                    </mask>
                    <use id="Mask" fill="#7C00D9" xlink:href="#path-1"></use>
                    <path d="M113.424257,-16.5137615 L114.388509,-14.3607144 L59.5578734,10.1947939 L71.4745183,15.9518057 L143.505765,-0.163745671 L94.8776637,27.256655 L132.837297,45.5940076 L156.968109,39.9965373 L157.718992,42.2211182 L141.226288,49.6469565 L182.644845,69.6550953 L181.618685,71.7793339 L138.418948,50.9106524 L28.5324475,100.392173 L28.5324475,102.449316 L137.551487,72.185231 L35.8920805,124.659538 L99.1574833,124.660089 L26.1740007,154.548663 L26.1733387,105.55233 L2.35650575,112.164394 L1.55668001,109.952277 L26.1733387,98.8674021 L26.1733387,72.7622907 L-2.35910878,79.3821634 L26.1733387,63.2920417 L26.1733387,28.5046236 L-0.342866304,34.4373871 L26.1733387,22.5612422 L26.1740007,-5.9315858 L56.7812024,8.85324742 L113.424257,-16.5137615 Z M87.1720281,127.018647 L28.5324475,127.018647 L28.5324475,151.032802 L87.1720281,127.018647 Z M116.16233,80.5709407 L28.5324475,104.897284 L28.5324475,125.803706 L116.16233,80.5709407 Z M26.1733387,101.453772 L16.6197345,105.756 L26.1733387,103.103575 L26.1733387,101.453772 Z M132.560495,48.0805082 L28.5324475,72.2149774 L28.5324475,97.8050167 L135.647782,49.5722513 L132.560495,48.0805082 Z M26.1733387,65.9995122 L13.095226,73.3748726 L26.1733387,70.3402723 L26.1733387,65.9995122 Z M92.3754357,28.6681884 L28.5324475,64.6697612 L28.5324475,69.7929591 L129.172814,46.4440731 L92.3754357,28.6681884 Z M71.1882797,18.4328018 L28.5324475,27.9769696 L28.5324475,61.9615043 L89.7890661,27.4186472 L71.1882797,18.4328018 Z M145.760495,45.018385 L136.224191,47.2304427 L138.455121,48.307769 L145.760495,45.018385 Z M26.1733387,25.146039 L21.9764842,27.0262487 L26.1733387,26.0873234 L26.1733387,25.146039 Z M128.438345,5.62441387 L74.8944396,17.6039683 L92.2912941,26.0079001 L128.438345,5.62441387 Z M56.7434567,11.4553444 L28.5324475,24.0899447 L28.5324475,25.5588831 L67.767572,16.7806393 L56.7434567,11.4553444 Z M28.5324475,-2.17244066 L28.5324475,21.5051478 L53.9667856,10.1137979 L28.5324475,-2.17244066 Z" fill="#F7AD01" fill-rule="nonzero" mask="url(#mask-2)"></path>
                </g>
                <circle id="Oval" fill="#FFFFFF" cx="376.636959" cy="164.74443" r="36.5661861"></circle>
                <circle id="Oval-Copy-3" fill="#FFFFFF" cx="281.879423" cy="58.9777195" r="11.0091743"></circle>
                <polygon id="Triangle" fill="#7C00D9" transform="translate(376.876844, 96.636279) rotate(-43.000000) translate(-376.876844, -96.636279) " points="376.876844 54.9586903 418.554432 138.313867 335.199255 138.313867"></polygon>
                <circle id="Oval-Copy-4" fill="#E73D11" cx="355.011796" cy="357.798165" r="13.3682831"></circle>
                <polygon id="Rectangle" fill="#FFFFFF" transform="translate(366.020970, 429.357798) rotate(-23.000000) translate(-366.020970, -429.357798) " points="346.36173 409.698558 385.68021 409.698558 385.68021 449.017038 346.36173 449.017038"></polygon>
                <g id="Group-2" transform="translate(6.536648, 114.023591)">
                    <path d="M590.676982,0 L590.676982,63.6959371 L552.538057,63.6959371 C570.127205,63.6959371 584.386026,49.4371159 584.386026,31.8479685 C584.386026,14.2588212 570.127205,3.87435341e-15 552.538057,0 L552.538057,0 L590.676982,0 Z" id="Combined-Shape" fill="#FFFFFF"></path>
                    <g id="Group" transform="translate(482.330088, 182.160828) rotate(12.000000) translate(-482.330088, -182.160828) translate(410.830088, 149.660828)">
                        <path d="M142.005313,0.260911654 L142.005313,64.7432183 L64.1547234,64.7432183 L64.1547234,0.260911654 L142.005313,0.260911654 Z M139.645872,2.61939712 L66.5134993,2.61939712 L66.5134993,62.3834862 L139.645872,62.3834862 L139.645872,2.61939712 Z" id="Rectangle-Copy-3" fill="#FFFFFF" fill-rule="nonzero"></path>
                        <path d="M64.1332469,0.0339845589 L64.1332469,64.5162912 L0.437309793,64.5162912 L0.436861479,25.6405913 L6.49171296,26.4047535 L23.9867021,25.0043433 L39.8912091,20.6567113 L46.3572902,16.0522346 L45.1386863,14.181607 L33.582976,14.4915666 L31.3159836,13.6231888 L30.6243172,10.3691542 L35.3248615,0.0335912696 L64.1332469,0.0339845589 Z" id="Combined-Shape" fill="#DD63B1"></path>
                    </g>
                    <polygon id="Triangle" fill="#131313" points="561.581308 148.623853 594.60883 209.174312 547.925303 209.174312 556.731533 167.021227 552.42606 165.408473"></polygon>
                    <path d="M552.538057,0 C570.127205,0 584.386026,14.2588212 584.386026,31.8479685 C584.386026,49.4371159 570.127205,63.6959371 552.538057,63.6959371 L500.637664,63.6959371 C483.048517,63.6959371 468.789695,49.4371159 468.789695,31.8479685 C468.789695,14.2588212 483.048517,0 500.637664,0 L552.538057,0 Z M552.538057,2.35910878 L500.637664,2.35910878 C484.351416,2.35910878 471.148804,15.561721 471.148804,31.8479685 C471.148804,47.9713536 484.088684,61.0724677 500.150012,61.3328776 L500.637664,61.3368283 L552.538057,61.3368283 C568.824305,61.3368283 582.026917,48.1342161 582.026917,31.8479685 C582.026917,15.7245835 569.087037,2.62346939 553.025709,2.36305945 L552.538057,2.35910878 Z" id="Rectangle" fill="#FFFFFF" fill-rule="nonzero"></path>
                    <circle id="Oval" fill="#E73D11" cx="498.278555" cy="31.8479685" r="31.8479685"></circle>
                    <path d="M236.011221,69.4205006 L283.193397,69.4205006 C296.005245,69.4205006 306.3913,79.8065555 306.3913,92.6184036 C306.3913,105.430252 296.005245,115.816307 283.193397,115.816307 L236.011221,115.816307 C223.199373,115.816307 212.813318,105.430252 212.813318,92.6184036 C212.813318,79.8065555 223.199373,69.4205006 236.011221,69.4205006 Z" id="Rectangle" fill="#FFFFFF" transform="translate(259.602309, 92.618404) rotate(17.000000) translate(-259.602309, -92.618404) "></path>
                    <path d="M276.915515,22.8047182 C287.338713,22.8047182 295.788385,31.25439 295.788385,41.6775885 C295.788385,52.1007869 287.338713,60.5504587 276.915515,60.5504587 C268.31601,60.5504587 261.059852,54.798912 258.78396,46.9327389 C258.171327,47.0954837 257.527332,47.1821756 256.86309,47.1821756 C252.737241,47.1821756 249.392579,43.8375139 249.392579,39.7116645 C249.392579,38.5531605 249.656285,37.4562484 250.126946,36.4776803 L250.126946,36.4776803 L259.066039,35.5314159 C259.370812,34.6461285 259.739591,33.7906319 260.166849,32.9704544 C263.313733,26.9295913 269.632916,22.8047182 276.915515,22.8047182 Z" id="Combined-Shape" fill="#DD63B1"></path>
                    <path d="M259.725225,33.5014562 L259.972597,32.9020249 C260.587381,31.3844074 262.022582,27.7569277 262.712055,26.1799333 L262.77446,26.0382243 C265.031946,20.9526455 267.180349,17.83631 269.778121,16.9630707 L269.955944,16.9070107 C271.408909,16.4791155 271.733473,16.0431863 271.588719,15.6740309 C271.379991,15.1417245 270.49057,14.6193413 269.532525,14.6193413 C267.008782,14.6193413 261.747531,19.0473612 260.765197,22.3780458 C260.58091,23.002886 259.924982,23.3600249 259.300142,23.1757379 C258.675302,22.9914509 258.318163,22.3355237 258.50245,21.7106835 C259.766344,17.4253469 265.903391,12.2602325 269.532525,12.2602325 C271.404982,12.2602325 273.196742,13.3125854 273.785014,14.8128196 C274.521538,16.6911314 273.252634,18.3954256 270.622398,19.1700251 C268.962372,19.6588995 267.128205,22.1964666 265.211716,26.37258 L264.930677,26.9953679 C264.16027,28.7309108 262.11743,33.9422006 261.851772,34.5259765 C261.02595,36.3406939 256.19389,37.3860608 246.042699,38.4246758 L244.258441,38.6008067 C235.69832,39.4166685 223.867907,40.147393 208.762014,40.7937572 L207.148018,40.8613368 L224.694651,60.3239973 C225.103607,60.7775955 225.095239,61.4614814 224.693925,61.9046292 L224.608431,61.9899094 C224.154832,62.3988654 223.470946,62.3904972 223.027799,61.9891834 L222.942518,61.9036886 L203.713967,40.5761183 C203.044772,39.8338737 203.544047,38.6478481 204.542613,38.6076718 L209.461012,38.4023666 C224.411773,37.7546817 236.087062,37.0234213 244.48169,36.2093625 L245.802581,36.0778188 C250.445193,35.6028118 253.985314,35.1009858 256.41062,34.5762956 C257.586389,34.3219299 258.486442,34.0647822 259.098279,33.8134325 C259.321441,33.7217552 259.496771,33.6345683 259.621451,33.5570574 L259.72204,33.4912576 C259.727616,33.4891808 259.72841,33.4922198 259.725225,33.5014562 Z" id="Path-2" fill="#FFFFFF" fill-rule="nonzero"></path>
                    <path d="M258.773988,14.3803802 C260.545148,12.521812 263.466807,12.0105472 267.452264,12.6975905 C268.094245,12.80826 268.524958,13.4184036 268.414288,14.0603843 C268.303619,14.702365 267.693475,15.1330778 267.051495,15.0224084 C263.761961,14.4553336 261.600964,14.8334891 260.481805,16.0078794 C259.084925,17.4736964 257.882386,18.9775849 256.87322,20.5193607 C256.516447,21.0644292 255.785359,21.2170726 255.240291,20.8602993 C254.695222,20.5035259 254.542579,19.7724386 254.899352,19.22737 C255.988681,17.5631236 257.280548,15.9475217 258.773988,14.3803802 Z" id="Path-3" fill="#131313" fill-rule="nonzero"></path>
                    <path d="M253.867235,14.169048 C255.373926,13.3112995 257.407866,13.3112995 259.960876,14.0625498 C260.58583,14.2464493 260.943376,14.9021549 260.759476,15.5271093 C260.575577,16.1520636 259.919871,16.5096093 259.294917,16.3257098 C257.384156,15.763448 256.004204,15.7390019 255.147902,16.159169 L254.916793,16.2867802 C254.674584,16.4286435 254.527561,16.541402 253.833972,17.1481762 L253.044841,17.8417814 C251.362457,19.3230467 250.287369,20.0197719 248.958861,20.1599428 C248.616437,20.196072 248.276717,20.1837762 247.942551,20.1200567 L247.74274,20.0756302 C245.834984,19.5903477 207.717353,18.6116568 193.680902,18.6116568 L192.699387,18.6157814 C176.802113,18.7508229 167.487628,22.2165748 166.146688,31.1881583 C165.051969,38.5123933 178.213561,57.668916 205.46583,87.8753922 C205.902215,88.3590818 205.863867,89.1049491 205.380177,89.5413336 C204.896488,89.9777181 204.15062,89.9393698 203.714236,89.4556802 L202.05715,87.6134417 C175.278839,57.7518587 162.582919,39.0726295 163.813497,30.8394273 C164.701277,24.8997166 168.642055,20.9456449 175.022051,18.6881661 C179.818727,16.9909244 185.725632,16.2927527 193.032535,16.2542426 L194.575816,16.2537072 C209.484745,16.2910077 245.417804,17.2197774 248.247415,17.7723617 L248.324314,17.7893306 C248.446011,17.8202871 248.572617,17.8284919 248.711326,17.8138567 C249.343742,17.7471304 250.098264,17.2744917 251.301933,16.2318577 L252.436191,15.2329967 C252.510101,15.1692761 252.579972,15.1097826 252.648986,15.0518336 C253.109879,14.6648345 253.49237,14.3824559 253.867235,14.169048 Z" id="Path-4" fill="#FFFFFF" fill-rule="nonzero"></path>
                    <path d="M311.184133,88.2057027 C311.423153,87.6410817 312.050371,87.3594437 312.623483,87.5399909 L312.730199,87.5793034 L429.926524,137.192398 L432.423947,136.819626 C439.230353,135.822684 443.904596,135.303383 446.487352,135.261367 L446.816255,135.258593 C451.731304,135.258593 469.528796,139.380333 471.248907,141.334881 C472.408994,142.653078 473.028962,144.24548 473.101135,146.066637 L473.107977,146.356082 L473.118602,147.70903 L452.927048,145.091481 L452.791446,145.263178 C450.210515,148.541044 448.561179,151.105935 447.851916,152.91284 L447.781897,153.097055 C447.23237,154.593263 447.370564,155.033274 448.088586,155.198883 L448.488492,155.286486 C449.302847,155.455486 450.23348,155.592198 451.802648,155.78558 L454.187848,156.075145 C456.457986,156.36102 457.761975,156.587268 458.967279,156.940895 C461.074284,157.559074 462.327272,158.511271 462.327272,160.119409 C462.327272,162.56242 457.086414,164.237178 449.124025,165.191084 C441.029303,166.160844 432.055708,166.000673 424.611173,164.498177 C413.882386,162.332836 373.321278,148.737043 302.725237,123.652278 C302.111387,123.43416 301.790584,122.759717 302.008702,122.145867 C302.22682,121.532017 302.901263,121.211214 303.515113,121.429332 L311.821604,124.37694 C377.12803,147.519411 414.939878,160.139588 425.07789,162.185696 C432.257134,163.63465 440.983107,163.790401 448.843407,162.848725 C452.251509,162.440429 455.243365,161.845311 457.361642,161.168398 C458.361123,160.849006 459.130103,160.521851 459.617641,160.217206 C459.71633,160.155539 459.798557,160.097782 459.863899,160.046088 L459.933601,159.986894 L459.923476,159.967129 C459.609596,159.433482 457.629097,158.890832 453.568875,158.376325 L451.225193,158.091158 C449.493347,157.874608 448.530898,157.721946 447.558387,157.49764 C445.212875,156.956657 444.585185,154.958087 445.567425,152.283724 C446.362461,150.119066 448.239245,147.196892 451.208133,143.462221 L451.498854,143.098263 L451.913473,142.581632 L470.583405,145.001048 L470.563349,144.916178 C470.383636,144.235189 470.073195,143.624443 469.630432,143.074504 L469.477941,142.89343 C468.353321,141.615534 451.090859,137.617701 446.816255,137.617701 L446.344951,137.623743 C443.684235,137.688186 438.671009,138.268157 431.351847,139.363246 L429.622407,139.624922 L311.810532,89.751769 C311.210622,89.4978099 310.930174,88.8056125 311.184133,88.2057027 Z" id="Path-5" fill="#FFFFFF" fill-rule="nonzero"></path>
                    <path d="M280.233085,33.4499325 C280.804646,33.1373537 281.521382,33.3472998 281.833961,33.9188603 C282.128153,34.4567997 281.959485,35.1233378 281.46211,35.4604917 L281.365033,35.5197363 L277.048209,37.8805499 C276.476649,38.1931288 275.759912,37.9831826 275.447333,37.4116221 C275.153141,36.8736828 275.321809,36.2071446 275.819184,35.8699907 L275.916261,35.8107462 L280.233085,33.4499325 Z" id="Path-6" fill="#131313" fill-rule="nonzero"></path>
                    <path d="M293.359526,34.3537287 C293.929983,34.0391397 294.647454,34.2465613 294.962043,34.8170178 C295.258127,35.3539182 295.091807,36.021046 294.595622,36.3599488 L294.498754,36.4195347 L291.639781,37.9961693 C291.069325,38.3107584 290.351853,38.1033368 290.037264,37.5328802 C289.74118,36.9959799 289.907501,36.3288521 290.403685,35.9899493 L290.500553,35.9303633 L293.359526,34.3537287 Z" id="Path-6-Copy" fill="#131313" fill-rule="nonzero" transform="translate(292.499654, 36.174949) scale(-1, 1) translate(-292.499654, -36.174949) "></path>
                    <path d="M272.886643,46.245872 C273.049538,45.8432781 273.507957,45.6489636 273.910551,45.8118582 C274.313144,45.9747528 274.507459,46.4331718 274.344564,46.8357656 C273.083725,49.9519266 274.094512,52.2357371 277.562118,53.9619541 C277.950907,54.1554982 278.109184,54.6275727 277.91564,55.016362 C277.722096,55.4051513 277.250021,55.5634287 276.861232,55.3698846 C272.689451,53.29312 271.302857,50.1601968 272.886643,46.245872 Z" id="Path-7" fill="#131313" fill-rule="nonzero"></path>
                    <path d="M286.299808,48.9847825 C286.407819,48.5641281 286.836387,48.3106804 287.257041,48.4186913 C287.677695,48.5267021 287.931143,48.9552699 287.823132,49.3759243 C287.294384,51.4351642 288.252842,53.0886413 290.901535,54.4783757 C291.286113,54.6801586 291.434297,55.1554979 291.232514,55.5400757 C291.030731,55.9246535 290.555392,56.072838 290.170814,55.8710551 C286.928063,54.169626 285.570051,51.8268617 286.299808,48.9847825 Z" id="Path-8" fill="#131313" fill-rule="nonzero"></path>
                    <ellipse id="Oval" fill="#131313" cx="290.676982" cy="46.395806" rx="1.96592398" ry="3.14547837"></ellipse>
                    <ellipse id="Oval-Copy" fill="#131313" cx="282.420102" cy="46.0026212" rx="2.35910878" ry="3.53866317"></ellipse>
                    <path d="M260.434808,34.9273629 C262.364262,37.4195534 264.279072,38.8921664 266.179239,39.3452017 C268.079406,39.798237 269.372658,39.798237 270.058995,39.3452017 L271.181077,27.3842753 C277.721923,29.7943967 283.565251,30.2609172 288.711058,28.7838367 C296.42977,26.5682161 298.002938,18.0144597 294.536553,13.5848448 C292.225629,10.6317682 288.407756,10.8898521 283.082933,14.3590965 C281.150501,12.1789675 279.43441,11.2193699 277.934662,11.4803037 C276.434913,11.7412375 274.802269,13.0574887 273.03673,15.4290574 L270.058995,18.6394363 L265.759048,22.4856863 L260.434808,34.9273629 Z" id="Path-9" fill="#FFFFFF"></path>
                    <path d="M143.410987,323.630545 L122.3084,353.240267 L170.37039,403.546584 L155.981401,368.219919 L149.89712,367.041656 L154.664764,366.15303 L153.238945,361.573802 L144.262839,360.384924 L152.109207,359.316602 L149.89712,354.438638 L139.315878,353.38904 L149.221174,352.102963 C147.1649,347.818048 146.496535,345.311648 147.216079,344.583763 C147.935623,343.855879 150.588105,341.514896 155.173525,337.560815 L143.410987,323.630545 Z" id="Path-13-Copy" fill="#FFFFFF" transform="translate(146.339395, 363.588564) rotate(27.000000) translate(-146.339395, -363.588564) "></path>
                    <path d="M43.907305,193.779577 L22.8047182,223.3893 L70.8667088,273.695616 L56.4777199,238.368952 L50.3934389,237.190689 L55.1610828,236.302063 L53.7352631,231.722835 L44.7591574,230.533957 L52.6055256,229.465635 L50.3934389,224.587671 L39.8121961,223.538072 L49.7174919,222.251995 C47.661218,217.967081 46.9928532,215.460681 47.7123974,214.732796 C48.4319416,214.004912 51.0844238,211.663929 55.6698438,207.709847 L43.907305,193.779577 Z" id="Path-13-Copy-2" fill="#FFFFFF" transform="translate(46.835714, 233.737597) rotate(60.000000) translate(-46.835714, -233.737597) "></path>
                    <g id="Path-10" transform="translate(70.424636, 131.364782)">
                        <mask id="mask-4" fill="white">
                            <use xlink:href="#path-3"></use>
                        </mask>
                        <use id="Mask" fill="#7C00D9" xlink:href="#path-3"></use>
                        <path d="M138.823863,-7.07732634 C141.49831,18.4526723 149.997966,31.7590125 164.212742,33.2616607 L164.943752,33.3342035 C171.239276,33.9173451 176.56504,33.314354 186.185634,31.4090784 L188.757534,30.9000773 C199.264965,28.8495775 203.57389,28.4745062 209.448012,29.5716932 C214.139626,30.4480076 218.519327,32.4260262 222.796587,35.7336232 C226.994488,38.9798521 228.096479,42.1168866 226.012867,45.0191984 C224.482608,47.1507329 221.408644,48.9474412 216.130861,51.1290469 L215.065512,51.5601067 C212.330183,52.6434764 205.767271,55.1315276 205.492406,55.2384439 L204.623322,55.5792268 C191.453591,60.7859755 185.461515,65.1565831 185.461515,71.3046163 C185.461515,75.8047448 186.962735,79.2517754 189.889341,82.1608654 C192.145277,84.4032993 194.769801,86.049022 199.694235,88.5650856 L201.655277,89.5590444 C210.412917,93.9958934 213.962263,96.7762435 215.487599,102.044784 C216.569162,105.780525 214.312916,108.584166 209.425782,110.726568 L208.821545,110.984124 C205.486654,112.365925 201.363479,113.430308 193.96453,114.988344 L188.033021,116.224243 L187.043712,116.434407 C171.064018,119.858846 163.83604,122.897768 162.415155,128.124584 C160.424271,135.448175 172.799115,156.328089 188.560041,170.982564 C189.710905,172.052635 190.860496,173.076398 192.0077,174.052765 L192.463618,174.437839 L192.495763,174.293454 C192.94463,172.197723 193.1759,169.580483 193.371147,165.692306 L193.454408,164.026759 C193.713137,159.064333 193.971313,156.636485 194.677705,153.568434 C195.804032,148.676491 197.871498,144.454098 201.285124,140.622523 C209.215948,131.720684 226.933943,133.2636 239.701418,142.65879 C253.860188,153.077791 256.028391,168.475402 241.52626,182.554719 C228.793427,194.916323 211.683157,192.28546 194.143092,178.815033 L193.652608,178.434956 L193.60263,178.550874 C193.483545,178.819615 193.357353,179.08776 193.223504,179.357422 L193.121673,179.559986 C190.773649,184.173 186.422531,187.357656 179.280538,189.320548 C175.369751,190.395382 171.142677,191.094455 165.889921,191.626581 L163.94921,191.8128 C163.413143,191.861581 162.874718,191.908153 162.265539,191.958322 L155.659851,192.470657 C142.961358,193.490631 137.553141,194.635111 132.884149,197.947364 C126.718425,202.321423 124.538557,210.28447 126.828581,223.774144 L126.907466,224.230948 C129.443559,238.674034 127.429601,245.946446 120.236134,244.860484 C114.02089,243.9222 104.02264,235.912304 89.9363232,220.765288 L88.7686612,219.503925 L88.7563571,219.06166 C88.1301871,196.554279 99.6252757,183.636019 122.902717,180.625381 L123.6117,180.537183 C138.452351,178.7635 147.005656,168.114272 149.984167,151.752781 C152.145808,139.878505 150.730124,125.138091 148.096403,121.014786 L148.009139,120.882717 C144.674195,116.008143 145.786542,106.053869 151.124067,90.8008301 L151.404116,90.0061223 L151.372245,89.2891776 C149.939103,58.5835911 143.839634,44.9206555 133.606797,47.3863301 L133.292256,47.466847 C117.195451,51.8271947 109.835887,84.2265771 121.645012,94.5919424 C127.987121,100.158678 132.011389,109.737956 131.453127,117.984619 C130.817411,127.375432 124.577889,133.409008 113.518329,133.532413 L113.17115,133.534343 C90.779334,133.534343 71.5058863,146.142352 68.6242572,162.242496 L68.5419662,162.731439 C67.1466688,171.582166 56.4354106,172.868144 45.1425211,167.524852 C33.5826851,162.055254 26.6388371,152.223324 30.0619051,142.761977 C33.3548666,133.660244 43.6147847,127.763056 61.4841215,122.359985 L62.7731568,121.975123 L64.1563349,121.577791 C69.2076968,120.147366 80.1286505,117.212515 82.4487065,116.522192 L83.3173106,116.260466 C87.8522724,114.876018 90.8335644,113.669829 92.6367484,112.423782 C105.452919,103.567474 109.99609,87.752466 101.784799,65.9234671 C95.7633237,49.9159013 83.8911705,45.2241945 65.6267046,51.7621366 L65.3744958,51.8530424 L65.4075146,52.099431 C70.3581113,90.4931442 66.0757537,109.468311 51.7934541,108.236195 L51.3531163,108.192164 C41.8016336,107.107821 37.5082152,103.410492 34.7746141,96.274146 L34.6646379,95.9829486 C34.5459623,95.6642559 34.4275816,95.3353534 34.2977421,94.9650904 L33.7624764,93.4103244 C32.1484487,88.7084042 30.9998626,86.9005718 28.3167765,85.8057473 C24.0022272,84.0452095 19.9238917,86.7596005 14.2470629,93.9079653 L13.5871423,94.7502299 C12.7998072,95.7717074 10.5775487,98.7001135 9.97802992,99.4620781 L9.52488204,100.032032 C8.34752806,101.496127 7.41063386,102.520882 6.52548606,103.272129 C2.7965261,106.436991 -2.47116574,108.647535 -9.26655877,109.929945 L-9.80621086,110.02926 L-10.2228047,107.707226 C-3.54477579,106.509127 1.52516579,104.421784 4.99894469,101.473501 C5.75038308,100.835736 6.6040882,99.9002946 7.70099029,98.5354994 L8.12400369,98.003318 C8.75330452,97.2035016 11.2763357,93.8764288 11.8809935,93.1003276 C14.7967284,89.3578717 17.083409,86.9116041 19.5291092,85.2019957 C22.7551883,82.9468821 25.9754841,82.3024415 29.2080585,83.621483 C32.5776934,84.9964515 34.0510931,87.1551731 35.7725146,92.0098458 L36.4268234,93.905927 C36.5918408,94.381584 36.7340403,94.7799777 36.8754368,95.1596854 C39.3109006,101.699904 42.8812125,104.856119 51.6192274,105.848112 C63.8008451,107.231044 67.8790282,89.6742234 63.0630692,52.3645232 L62.7914968,50.3001188 L63.6670099,49.9694782 C83.7281027,42.3933356 97.3618771,47.4650002 103.992855,65.0928752 C112.577543,87.9145175 107.704028,104.87947 93.9778947,114.364586 C91.8601254,115.828019 88.5762725,117.14042 83.5804007,118.645924 L82.4921397,118.965997 C78.8693755,120.000482 67.1916086,123.137871 63.4442384,124.236779 L62.1857345,124.612497 C45.0103121,129.805856 35.2261032,135.422358 32.280289,143.564577 C29.3669923,151.616918 35.5549673,160.378593 46.1515023,165.392401 C56.140429,170.118715 64.9719306,169.117673 66.1774474,162.564352 L66.2116373,162.364068 C68.9613014,144.922247 89.0850304,131.447055 112.461782,131.179296 L113.17115,131.175234 C123.196373,131.175234 128.540237,126.085322 129.099405,117.825282 C129.60766,110.317337 125.88269,101.450503 120.088776,96.3649412 C106.869879,84.762159 114.756197,50.0438171 132.675444,45.1898014 C145.373451,41.7501296 152.207543,56.7159276 153.727159,89.1448873 L153.781494,90.3630198 L153.358401,91.5584494 C148.318847,105.959633 147.22619,115.315537 149.865794,119.414471 L149.956183,119.550646 C153.06171,124.089891 154.591162,139.617723 152.305131,152.175299 C149.190873,169.282469 140.099601,180.733787 124.370334,182.819295 L123.891657,182.879622 C101.551616,185.549595 90.7340462,197.268294 91.1000399,218.354219 L91.1045089,218.555533 L92.4560185,220.007332 C105.602571,234.041462 115.01641,241.559043 120.419115,242.500286 L120.588287,242.527807 C125.236698,243.229554 126.810307,237.896991 124.716675,225.412264 L124.583906,224.638947 C122.024172,210.061229 124.426892,201.054617 131.519158,196.023256 L131.896413,195.760663 C137.004032,192.273776 142.761532,191.12241 155.924538,190.08293 L160.97833,189.695171 C162.309773,189.590096 163.253316,189.509398 164.266856,189.41425 L164.999886,189.344181 C170.439025,188.815925 174.732561,188.12392 178.655347,187.045789 C185.194765,185.248507 188.99476,182.467228 191.019245,178.48985 C191.262972,178.011015 191.479658,177.535759 191.673113,177.048348 L191.731508,176.896817 L191.14987,176.414718 C189.951496,175.41321 188.752166,174.362408 187.553132,173.263629 L186.953645,172.710247 C170.592636,157.497816 157.836469,135.974499 160.138663,127.50573 C161.133489,123.8462 164.441986,121.07276 169.84495,118.811465 L170.200285,118.664711 C174.276184,117.003463 178.993266,115.741226 186.483444,114.141297 L193.904392,112.589913 C201.315476,111.021144 205.292235,109.962782 208.478619,108.565948 C212.416655,106.839608 213.889814,105.009042 213.22155,102.700846 C211.987972,98.4400414 208.968532,95.9685147 201.364863,92.0593195 L199.030558,90.8745236 C193.632224,88.1335631 190.771408,86.3639676 188.226214,83.8340066 C184.863669,80.4915868 183.102407,76.4474589 183.102407,71.3046163 C183.102407,67.0234655 185.553722,63.4015546 190.095285,60.1880919 C193.49976,57.7791962 197.764569,55.7340237 204.104067,53.2480145 L212.446194,50.0509203 C213.474408,49.6525919 214.347673,49.310214 214.857522,49.1018134 L215.587914,48.7997643 C220.23554,46.8543627 222.941379,45.2523566 224.096476,43.6433935 C225.29902,41.9683422 224.663636,40.1595965 221.353449,37.599835 C217.370434,34.5197776 213.336449,32.697896 209.014861,31.8906962 L208.511654,31.7999699 C203.264091,30.8888656 199.081999,31.2880906 189.167239,33.223767 L185.5206,33.9435565 C176.016783,35.7881058 170.630673,36.3123554 163.964742,35.6076978 C148.53575,33.9766946 139.437375,19.9582832 136.562797,-6.04004348 L136.477593,-6.83153809 L138.823863,-7.07732634 Z M238.303195,144.558887 C226.402821,135.801769 210.011297,134.374365 203.046567,142.191826 C199.909283,145.713226 198.017632,149.57655 196.976665,154.09775 L196.822312,154.793628 C196.268777,157.392768 196.040775,159.724953 195.809175,164.171745 L195.679486,166.724162 C195.454356,170.842571 195.164738,173.555931 194.560917,175.825726 L194.487733,176.091574 L194.870093,176.394312 C211.626055,189.544729 227.668748,192.304927 239.481898,181.244504 L239.882975,180.862085 C253.276832,167.858731 251.347548,154.157823 238.303195,144.558887 Z" fill="#F7AD01" fill-rule="nonzero" mask="url(#mask-4)"></path>
                    </g>
                    <path d="M469.970711,323.27866 L469.970711,410.565685 L396.838338,410.565685 L396.838338,323.27866 L469.970711,323.27866 Z M467.610927,325.637221 L399.196773,325.637221 L399.196773,408.206029 L467.610927,408.206029 L467.610927,325.637221 Z" id="Rectangle" fill="#FFFFFF" fill-rule="nonzero" transform="translate(433.404525, 366.922173) rotate(30.000000) translate(-433.404525, -366.922173) "></path>
                    <polygon id="Triangle" fill="#7C00D9" transform="translate(469.000403, 304.921361) rotate(30.000000) translate(-469.000403, -304.921361) " points="469.000403 277.00524 505.566589 332.837481 432.434216 332.837481"></polygon>
                </g>
            </g>
        </g>
    </g>
</svg>