<?xml version="1.0" encoding="UTF-8"?>
<svg width="1005px" height="769px" viewBox="0 0 1005 769" version="1.1" xmlns="http://www.w3.org/2000/svg" xmlns:xlink="http://www.w3.org/1999/xlink">
    <title>illustration-3</title>
    <defs>
        <rect id="path-1" x="29.7477891" y="35.6709345" width="180" height="162"></rect>
        <polygon id="path-3" points="118.5 31 206 206 31 206"></polygon>
        <polygon id="path-5" points="126.456947 27.4287054 225.456947 225.428705 27.4569474 225.428705"></polygon>
        <path d="M26.6004843,55 L25.6004843,0 L155.600484,14 L137.100484,154.5 L0.600484262,136 L21.6004843,81.5 C38.2671509,56.5 45.9338176,43.1666667 44.6004843,41.5 C43.2671509,39.8333333 37.2671509,44.3333333 26.6004843,55 Z" id="path-7"></path>
        <path d="M188.907752,90 C183.574419,149.333333 174.907752,182.666667 162.907752,190 C150.907752,197.333333 109.574419,218.5 38.907752,253.5 C33.2410853,258.166667 26.7410853,258.166667 19.407752,253.5 C8.40775198,246.5 -13.092248,197.5 10.907752,185.5 C26.907752,177.5 57.407752,159.666667 102.407752,132 C104.074419,44 132.907752,0 188.907752,0 C243.907752,0 333.907752,161 313.907752,185.5 C300.574419,201.833333 272.574419,236 229.907752,288 C218.574419,299.333333 204.907752,298.333333 188.907752,285 C164.907752,265 173.907752,243 188.907752,225.5 C198.907752,213.833333 215.241085,193.666667 237.907752,165 L188.907752,90 Z" id="path-9"></path>
    </defs>
    <g id="Desktop" stroke="none" stroke-width="1" fill="none" fill-rule="evenodd">
        <g id="Artboard" transform="translate(-582.000000, -3579.000000)">
            <g id="illustration-3" transform="translate(582.000000, 3579.000000)">
                <path d="M707.984937,245.564702 C708.740398,245.224745 709.628409,245.561577 709.968367,246.317037 C710.308324,247.072498 709.971492,247.960509 709.216031,248.300467 C703.087994,251.058083 694.812796,263.809179 684.776672,286.353805 L684.255713,287.528382 L617.779399,321.270147 C617.040683,321.645102 616.137875,321.350215 615.762921,320.611499 C615.410023,319.916237 615.650479,319.07562 616.295861,318.666528 L616.42157,318.595021 L681.945,285.336 L682.655848,283.748305 C692.627377,261.580004 700.881287,248.946142 707.770192,245.664179 L707.984937,245.564702 Z" id="Path-2" fill="#131313" fill-rule="nonzero"></path>
                <rect id="Rectangle" fill="#DD63B1" transform="translate(629.279520, 147.642755) rotate(36.000000) translate(-629.279520, -147.642755) " x="556.27952" y="127.142755" width="146" height="41" rx="20.5"></rect>
                <circle id="Oval" fill="#E73D11" cx="200.600484" cy="638.932584" r="67"></circle>
                <g id="Path-15" transform="translate(85.852695, 0.261650)">
                    <mask id="mask-2" fill="white">
                        <use xlink:href="#path-1"></use>
                    </mask>
                    <use id="Mask" fill="#FFFFFF" transform="translate(119.747789, 116.670935) rotate(-32.000000) translate(-119.747789, -116.670935) " xlink:href="#path-1"></use>
                    <path d="M116.557232,-12 C120.200645,49.7437103 135.473735,75.8193856 162.051017,67.6362066 C170.447145,65.0510283 174.926694,61.2857872 176.449772,56.3277319 C177.674438,52.3410946 177.085298,47.6449113 174.914402,41.1733196 L174.534144,40.0661797 C174.127747,38.9072238 173.684539,37.7148363 173.064722,36.0975059 L172.008272,33.3450505 C168.830569,25.0027667 168.007164,21.9582641 168.230953,18.0578722 C168.568367,12.1771106 172.517665,8.42457676 180.683117,6.82457895 C197.802707,3.47004227 210.09505,22.4310094 210.926583,48.7022604 C211.789345,75.9601312 200.27466,101.21731 178.889443,111.714751 L178.238388,112.028325 C156.93879,122.091743 143.611672,142.571153 141.203143,165.884626 C138.921588,187.969045 147.009847,208.411393 162.56512,218.09629 L163.038775,218.386469 C171.650544,223.57719 173.834898,230.366314 169.94794,237.397573 C166.71325,243.248922 159.343557,248.950276 150.097411,253.156202 C141.062763,257.265921 131.313512,259.441358 123.818339,258.842734 C115.007339,258.139017 109.669376,253.666752 109.669376,245.661325 L109.675295,244.591592 C109.795931,233.780971 111.788878,222.949288 118.243125,194.809022 L120.934031,183.126394 L121.345441,181.321533 C127.980046,152.103963 130.448046,135.65433 129.074912,122.925725 C127.167648,105.245877 120.000285,86.3978532 108.833954,72.8026031 C95.1270164,56.1141092 76.4091308,48.0233805 52.9552683,51.0079504 C20.5965211,55.1256919 3.73226394,61.9468247 2.12673509,70.7854402 L2.0993048,70.9523503 L2.69470158,71.0561735 C65.8141271,82.1938172 96.6757176,105.622055 94.609724,141.443005 L94.536193,142.543436 C93.6222524,154.584602 90.1770674,163.306933 84.4097064,169.375668 C79.7971309,174.229273 74.0013879,177.202069 66.3629752,179.246369 L64.367751,179.757746 C62.9707796,180.101933 61.8154824,180.344241 59.0753432,180.868537 L54.3971648,181.756446 C48.1665814,182.961754 45.1129996,183.883426 42.711365,185.498839 C39.7392431,187.497979 38.518073,190.439366 39.0796416,195.241312 C40.5210358,207.566605 49.2066705,210.450372 66.0949597,207.553038 L66.6092378,207.463474 C68.6832404,207.096963 70.7712804,206.672936 73.4961661,206.076638 L79.8847462,204.673991 C88.3050876,202.859933 90.399814,202.658493 93.3126124,203.195824 C106.24915,205.582258 105.908431,228.398544 94.5631771,243.157923 L94.2160155,243.602681 L91.8649748,241.739188 C102.386329,228.465124 102.808452,207.998162 92.7683779,206.146045 L92.3118179,206.069968 C89.991841,205.727401 87.5605303,206.074749 79.3174043,207.8673 L73.5884493,209.126979 C71.0900412,209.669429 69.1093706,210.068141 67.1313,210.4177 C58.7459204,211.89954 52.4049647,212.053796 47.3233309,210.43604 C40.9110523,208.394668 37.0308866,203.550186 36.0999481,195.589775 C35.4126237,189.712497 37.0945096,185.661401 41.0370006,183.009561 L41.4469332,182.742201 C44.135491,181.043168 47.3313458,180.084431 53.3384515,178.906182 L60.3330196,177.568503 C62.3925302,177.160735 63.2853418,176.944686 64.9907424,176.505073 C72.4408277,174.584613 77.9421178,171.826319 82.2350773,167.309031 C87.4928287,161.776536 90.6802499,153.706797 91.5447973,142.316385 C94.1629344,107.822428 64.5948005,85.0173231 2.14993407,74.0063452 L0.247601399,73.6762893 L-1,73.4633242 L-1,72.1976768 C-1,60.3540366 16.9505149,52.5654641 52.5765638,48.0319492 C77.0890434,44.9126673 96.8105632,53.4372128 111.152233,70.8985067 C122.71433,84.9756114 130.091004,104.374059 132.057606,122.603958 L132.139762,123.415286 C133.375898,136.468104 130.848932,153.017779 124.274634,181.969751 L120.559203,198.13791 C114.449308,224.922945 112.669376,235.138076 112.669376,245.661325 C112.669376,251.912548 116.667225,255.262035 124.057182,255.852256 C130.990195,256.405982 140.250335,254.339685 148.855236,250.425451 C157.568609,246.461874 164.453755,241.135376 167.322415,235.946153 C170.347363,230.474216 168.822815,225.503417 161.827356,221.162082 L161.4901,220.955828 C144.539037,210.73862 135.803273,188.959723 138.219026,165.576335 C140.706052,141.503051 154.387568,120.27653 176.290578,109.635059 L176.956819,109.315838 C197.534571,99.5934699 208.765161,75.2435445 207.928085,48.7971683 C207.1466,24.1071342 195.980932,6.88406474 181.259989,9.76859309 C174.341658,11.1242209 171.477569,13.8456136 171.226027,18.2297173 L171.208982,18.5966871 C171.099452,21.7057254 171.904901,24.6143649 174.668298,31.8990664 L176.168713,35.8168996 C176.694686,37.2013273 177.091729,38.2840269 177.469551,39.3727681 L177.572199,39.6700785 C180.078082,46.9652175 180.807827,52.3572788 179.317512,57.2086804 C177.46983,63.2234144 172.204902,67.6487981 162.933822,70.5033752 C133.946792,79.4285185 117.633627,52.1612718 113.678511,-9.93103805 L113.562441,-11.8232814 L116.557232,-12 Z" fill="#F7AD01" fill-rule="nonzero" mask="url(#mask-2)"></path>
                </g>
                <rect id="Rectangle-Copy-6" fill="#E73D11" transform="translate(644.600484, 693.932584) rotate(37.000000) translate(-644.600484, -693.932584) " x="587.600484" y="643.932584" width="114" height="100"></rect>
                <g id="Path-17" transform="translate(86.600484, 274.932584)">
                    <mask id="mask-4" fill="white">
                        <use xlink:href="#path-3"></use>
                    </mask>
                    <use id="Mask" fill="#DD63B1" transform="translate(118.500000, 118.500000) rotate(-28.000000) translate(-118.500000, -118.500000) " xlink:href="#path-3"></use>
                    <path d="M125.458516,210.361416 L126.16084,214.274358 C127.713335,223.045577 127.957072,225.398336 128.068009,229.216292 L128.102978,230.611429 C128.318836,240.200129 125.434858,245.178982 118.398981,244.704065 C102.268625,243.615275 87.569921,234.417654 79.6765956,221.964011 C71.8818133,209.665844 73.0030226,197.45043 83.9305237,192.888475 C90.5871987,190.109481 98.5311249,191.600667 108.759404,196.769017 C112.054762,198.434161 115.571971,200.463393 119.696665,203.049508 L121.254516,204.034416 L119.926119,196.791816 C118.121981,186.860907 116.991523,179.554272 116.2339,172.252459 L116.127324,171.200058 L116.074516,170.651416 L115.791433,170.845894 C115.586272,170.988597 115.38823,171.131015 115.197603,171.273012 L114.917258,171.485672 C109.475964,175.690945 91.8287818,178.705027 78.4044548,177.304263 C60.7566983,175.462805 51.9743172,166.860034 57.8758207,151.582531 C61.8402749,141.31956 68.1390786,136.325106 76.9505347,135.499436 C83.3446552,134.90028 88.5060366,135.92384 102.231234,139.77414 L105.803135,140.772131 C107.687118,141.29175 109.144813,141.677837 110.616101,142.044336 L111.206383,142.19016 C112.614664,142.535218 113.964311,142.841133 115.26278,143.10713 L116.134516,143.280416 L116.138325,143.259969 C117.309726,134.528798 119.793622,127.026979 123.811052,120.643728 L124.10775,120.178656 C127.95921,114.222463 133.117274,109.428202 139.673678,105.854508 L140.007516,105.674416 L139.763246,105.566686 L139.474586,105.447897 L139.182715,105.336957 C137.344609,104.666895 135.441459,104.478915 133.418137,104.734177 C129.235839,105.261815 125.503457,107.160356 118.376001,111.902216 L115.265743,113.980985 C110.8529,116.910943 108.869113,118.076803 106.264668,119.200913 L106.063051,119.28733 C101.720237,121.136042 97.9116378,121.44213 94.3608297,119.87184 C87.2336836,116.71997 86.2632842,108.845678 90.2209572,98.5525306 C93.4402113,90.1798694 99.8432805,80.5795344 106.788112,73.3914282 L107.285057,72.8821437 C115.355545,64.6934865 111.328812,52.1936716 94.4208676,35.0452314 L93.904562,34.5241585 L96.0304477,32.4074133 C114.200954,50.6563827 119.021563,64.8635725 109.708286,74.6915153 L109.421738,74.9879909 C102.56362,81.9465266 96.1611442,91.4625406 93.0211061,99.6291764 C89.5629632,108.623142 90.3250147,114.806797 95.57418,117.12816 C98.2640775,118.317726 101.244072,118.07823 104.888005,116.527028 L105.439921,116.286832 C107.85918,115.209476 109.906799,113.956962 114.689935,110.759554 L116.750398,109.380382 C124.25505,104.38844 128.247331,102.362745 133.042634,101.75777 C135.526479,101.444408 137.90982,101.679819 140.210192,102.518396 C141.259475,102.900901 142.254601,103.400727 143.189977,104.00339 L143.291516,104.069416 L143.339725,104.048515 C152.935888,99.7899624 165.14493,97.8050038 180.197087,98.2408005 L181.052134,98.2680545 L184.638955,98.3972755 C222.769446,99.8200446 243.854782,102.217508 248.830574,105.873478 C250.747938,107.282264 250.940418,109.296116 249.269879,110.95972 C248.061092,112.163489 245.794295,113.314864 242.394861,114.519609 L241.694465,114.763021 C235.365314,116.921161 225.26436,119.291361 211.360509,121.886968 L210.080516,122.123416 L208.929474,122.905524 C189.345412,136.263764 175.402016,148.696957 167.028558,160.219143 L166.911516,160.381416 C169.044219,161.259779 171.015019,162.34909 172.811357,163.662836 L173.193609,163.947792 C181.962426,170.610443 191.885906,191.680634 195.105623,209.97398 C196.829903,219.770757 196.480404,227.858174 193.730783,233.100981 C190.459054,239.339312 184.046693,241.247812 174.961327,238.26168 C163.962292,234.646574 153.480753,228.891616 138.125931,218.789727 L125.458516,210.361416 Z M107.89163,199.693646 L107.406422,199.446598 C97.8849386,194.635392 90.744026,193.294943 85.0862756,195.656911 C76.2116711,199.361833 75.2871217,209.434668 82.2104992,220.357981 C89.6047761,232.024253 103.450674,240.688236 118.601019,241.710876 C123.305704,242.028439 125.223288,238.854078 125.110898,231.065707 L125.057725,228.949402 C124.929469,225.093757 124.59727,222.481293 122.644836,211.65782 L121.995516,208.080416 L121.361386,207.667596 C116.060751,204.240936 111.788554,201.692722 107.89163,199.693646 Z M138.292808,215.304912 L139.013837,215.781927 L140.528474,216.778362 C155.264369,226.435728 165.394554,231.959436 175.898053,235.411672 C183.690687,237.972915 188.546,236.527837 191.073995,231.707613 C193.447405,227.182141 193.770863,219.697306 192.151037,210.494001 C189.049872,192.874226 179.433913,172.456983 171.378644,166.336495 C169.581087,164.97069 167.562284,163.859161 165.352534,162.99273 L165.158516,162.918416 L164.787643,163.486418 C155.733257,177.537298 155.206592,190.193763 163.073421,201.482458 L163.536588,202.132212 L161.112218,203.899252 C152.03933,191.451296 152.316455,177.676997 161.801471,162.604568 L162.213516,161.959416 L162.137213,161.938925 C156.104416,160.318425 148.936916,160.243421 141.127342,161.564694 L140.509472,161.671903 C132.823226,163.038683 124.986161,165.752342 119.476546,168.643272 L118.928516,168.935416 L119.034278,170.091002 L119.152896,171.307362 L119.284985,172.580262 C120.01022,179.372082 121.072829,186.257286 122.72245,195.397625 L124.715516,206.276416 L131.073524,210.489405 C134.843349,212.997188 138.367673,215.352671 138.292808,215.304912 Z M99.1681019,142.035179 C87.5137051,138.815559 82.7649911,137.967739 77.2304212,138.486351 C69.5791377,139.203308 64.2377666,143.438594 60.674287,152.663543 C55.6455396,165.681701 62.7655876,172.656135 78.7157999,174.320463 C91.2906181,175.632584 107.95131,172.829185 112.904667,169.245048 L113.082742,169.111951 C113.777787,168.57479 114.565936,168.034023 115.434543,167.495492 L115.782516,167.282416 L115.74538,166.789551 C115.200267,159.426302 115.184314,152.677997 115.767921,146.509351 L115.791516,146.269416 L115.380887,146.191035 C114.044822,145.928287 112.659881,145.624128 111.218103,145.279596 L109.891947,144.95563 C108.296202,144.558164 106.722485,144.139731 104.630436,143.560512 L99.1681019,142.035179 Z M180.947866,101.266242 C166.856136,100.776178 155.412373,102.412195 146.355241,106.028625 L145.913516,106.207416 L146.052383,106.346198 C150.516475,110.889917 152.913886,118.158956 152.262449,125.609656 L152.224628,126.00896 C151.066933,137.357614 143.334059,145.808401 130.644445,147.189653 C127.10438,147.574986 123.404687,147.450313 119.250423,146.85401 L118.760516,146.780416 L118.730724,147.094726 C118.232886,152.548716 118.213412,158.492173 118.625826,164.949573 L118.673516,165.684416 L118.709006,165.666579 C124.332957,162.81228 131.902013,160.220578 139.393048,158.825845 L139.984247,158.718238 C148.735714,157.162039 156.815709,157.250878 163.625104,159.234677 L163.984516,159.342416 L164.106305,159.169772 C172.723498,147.070434 187.11634,134.157232 207.214106,120.444206 L208.918984,119.288077 L211.577528,118.794116 C225.461818,116.18387 235.411186,113.811768 241.392745,111.691931 L242.122523,111.427125 C244.59894,110.506427 246.256807,109.652251 247.046129,108.93545 L247.280355,108.713172 C247.475085,108.535521 247.452348,108.570989 247.145142,108.356191 L247.054255,108.291057 C242.684388,105.080291 220.307215,102.63503 180.947866,101.266242 Z M142.933516,107.543416 L142.760042,107.629292 C135.836711,111.052974 130.507668,115.806213 126.626952,121.80765 C122.762048,127.784635 120.340676,134.899366 119.17247,143.252095 L119.097516,143.796416 L119.218001,143.81598 C123.121985,144.404665 126.566607,144.561193 129.80943,144.258828 L130.319815,144.207269 C141.54846,142.985042 148.221193,135.692819 149.240117,125.704505 C149.968359,118.565697 147.536348,111.644517 143.215273,107.788094 L142.933516,107.543416 Z" fill="#F7AD01" fill-rule="nonzero" mask="url(#mask-4)"></path>
                </g>
                <polygon id="Triangle-Copy-2" fill="#E73D11" transform="translate(360.100484, 56.432584) rotate(75.000000) translate(-360.100484, -56.432584) " points="360.100484 11.9325843 404.600484 100.932584 315.600484 100.932584"></polygon>
                <g id="Combined-Shape" transform="translate(708.143537, 441.503879)">
                    <mask id="mask-6" fill="white">
                        <use xlink:href="#path-5"></use>
                    </mask>
                    <use id="Mask" fill="#7C00D9" transform="translate(126.456947, 126.428705) rotate(71.000000) translate(-126.456947, -126.428705) " xlink:href="#path-5"></use>
                    <path d="M303.766131,167.895234 L304.680026,170.752645 L-116.423553,305.435545 L-117.337448,302.578134 L303.766131,167.895234 Z M303.766131,143.895234 L304.680026,146.752645 L-116.423553,281.435545 L-117.337448,278.578134 L303.766131,143.895234 Z M303.766131,119.895234 L304.680026,122.752645 L-116.423553,257.435545 L-117.337448,254.578134 L303.766131,119.895234 Z M303.766131,95.8952337 L304.680026,98.7526445 L-116.423553,233.435545 L-117.337448,230.578134 L303.766131,95.8952337 Z M303.766131,71.8952337 L304.680026,74.7526445 L-116.423553,209.435545 L-117.337448,206.578134 L303.766131,71.8952337 Z M303.766131,47.8952337 L304.680026,50.7526445 L-116.423553,185.435545 L-117.337448,182.578134 L303.766131,47.8952337 Z M303.766131,23.8952337 L304.680026,26.7526445 L-116.423553,161.435545 L-117.337448,158.578134 L303.766131,23.8952337 Z M303.766131,-0.104766253 L304.680026,2.75264452 L-116.423553,137.435545 L-117.337448,134.578134 L303.766131,-0.104766253 Z M303.766131,-24.1047663 L304.680026,-21.2473555 L-116.423553,113.435545 L-117.337448,110.578134 L303.766131,-24.1047663 Z" fill="#F7AD01" fill-rule="nonzero" mask="url(#mask-6)" transform="translate(93.671289, 140.665389) rotate(-53.000000) translate(-93.671289, -140.665389) "></path>
                </g>
                <circle id="Oval" fill="#E73D11" cx="428" cy="110" r="22"></circle>
                <circle id="Oval-Copy-3" fill="#FFFFFF" cx="354.600484" cy="687.932584" r="18"></circle>
                <circle id="Oval-Copy-4" fill="#FFFFFF" cx="392.100484" cy="218.432584" r="14.5"></circle>
                <circle id="Oval-Copy-2" fill="#FFFFFF" cx="752.600484" cy="432.932584" r="32"></circle>
                <path d="M506.315363,592.589698 L479.479906,630.243395 L540.598738,694.216261 L522.30074,649.29252 L514.563563,647.794162 L520.626417,646.664126 L518.813249,640.840874 L507.398635,639.329018 L517.3766,637.970468 L514.563563,631.767324 L501.107749,630.432584 L513.703984,628.797123 C511.089089,623.34814 510.239151,620.160835 511.154172,619.235208 C512.069192,618.309582 515.442265,615.332632 521.273391,610.304358 L506.315363,592.589698 Z" id="Path-13" fill="#131313"></path>
                <path d="M313.43594,536.932584 L286.600484,574.586281 L347.719316,638.559147 L329.421318,593.635406 L321.684141,592.137048 L327.746995,591.007012 L325.933827,585.18376 L314.519213,583.671904 L324.497178,582.313354 L321.684141,576.11021 L308.228327,574.77547 L320.824561,573.140009 C318.209667,567.691026 317.359729,564.503721 318.27475,563.578094 C319.18977,562.652468 322.562843,559.675518 328.393969,554.647244 L313.43594,536.932584 Z" id="Path-13-Copy" fill="#131313" transform="translate(317.159900, 587.745866) rotate(25.000000) translate(-317.159900, -587.745866) "></path>
                <path d="M837.100484,132.932584 C878.245698,132.932584 911.600484,166.28737 911.600484,207.432584 C911.600484,248.577798 878.245698,281.932584 837.100484,281.932584 C795.95527,281.932584 762.600484,248.577798 762.600484,207.432584 C762.600484,166.28737 795.95527,132.932584 837.100484,132.932584 Z M837.100484,182.932584 C823.569508,182.932584 812.600484,193.901608 812.600484,207.432584 C812.600484,220.963561 823.569508,231.932584 837.100484,231.932584 C850.631461,231.932584 861.600484,220.963561 861.600484,207.432584 C861.600484,193.901608 850.631461,182.932584 837.100484,182.932584 Z" id="Oval" fill="#E73D11" fill-rule="nonzero"></path>
                <path d="M478.666967,298.25847 L480.534002,300.606699 L478.094225,302.54218 C438.546565,333.843971 413.793832,349.904752 403.244971,350.925609 C397.754536,351.456942 389.893468,348.841088 380.141662,343.792587 C376.857605,342.092434 373.420667,340.144287 369.877627,337.99523 C365.239636,335.182022 360.653755,332.169994 356.32118,329.157995 L355.210327,328.381718 C354.66838,328.001001 354.146949,327.631707 353.647369,327.275151 L351.966681,326.064193 L350.700484,325.132584 L352.500484,322.732584 L353.732479,323.638918 L354.904839,324.485988 C355.862498,325.173158 356.909013,325.912931 358.03362,326.694756 C362.318279,329.673443 366.853353,332.652102 371.433464,335.430201 C374.921852,337.546109 378.300952,339.461471 381.520893,341.128432 L382.581555,341.671425 C391.351967,346.10993 398.401105,348.380355 402.955998,347.939559 C412.66047,347.000417 437.293203,331.008664 476.263143,300.165388 L478.666967,298.25847 Z" id="Path-9" fill="#131313" fill-rule="nonzero"></path>
                <path d="M565.971202,302.823377 C583.067855,341.290847 599.393138,360.064922 614.538038,359.433885 C629.701992,358.802053 654.759768,346.948812 689.511062,323.862285 L692.763219,321.688001 L694.437749,324.177167 C657.548437,348.993614 631.029989,361.749323 614.66293,362.431284 C597.976382,363.126557 581.139926,343.96348 563.756699,305.221776 L563.229767,304.041792 L565.971202,302.823377 Z" id="Path-6" fill="#131313" fill-rule="nonzero"></path>
                <path d="M317.725561,185.875847 C325.457548,185.875847 331.725561,192.143861 331.725561,199.875847 L331.725561,280.525725 L331.725561,280.525725 L327.346154,279.29605 L331.725561,292.378768 L331.725561,369.875847 C331.725561,377.607834 325.457548,383.875847 317.725561,383.875847 C309.993575,383.875847 303.725561,377.607834 303.725561,369.875847 L303.725561,308.002601 L303.725561,308.002601 C307.94832,309.304299 310.059699,309.507452 310.059699,308.612061 C310.059699,307.71667 307.94832,305.27815 303.725561,301.2965 L303.725561,297.94345 L318.051469,302.101945 L303.725561,289.443457 L303.725561,285.414197 L316.09608,290.869116 L303.725561,280.943464 L303.725561,199.875847 C303.725561,192.143861 309.993575,185.875847 317.725561,185.875847 Z" id="Rectangle" fill="#7C00D9" transform="translate(317.725561, 284.875847) rotate(-28.000000) translate(-317.725561, -284.875847) "></path>
                <g id="Group" transform="translate(494.931218, 166.932584)">
                    <circle id="Oval" fill="#DD63B1" cx="27.6692658" cy="38" r="26"></circle>
                    <path d="M56.6692658,23 L47.1692658,31.5 L37.6692658,36 L33.1692658,20.5 C27.1692658,24.1666667 20.0025991,25.5 11.6692658,24.5 C-0.830734231,23 -2.33073423,8 2.66926577,3.5 C7.66926577,-1 15.1692658,3.5 16.6692658,3.5 C18.1692658,3.5 19.1692658,0 23.6692658,0 C26.6692658,0 28.8359324,1.66666667 30.1692658,5 C40.8359324,3 47.5025991,3.5 50.1692658,6.5 C52.8359324,9.5 55.0025991,15 56.6692658,23 Z" id="Path-4" fill="#131313"></path>
                    <circle id="Oval" fill="#DD63B1" cx="55.1692658" cy="32.5" r="9.5"></circle>
                    <ellipse id="Oval" fill="#131313" cx="29.6692658" cy="40.5" rx="3" ry="4.5"></ellipse>
                    <ellipse id="Oval-Copy" fill="#131313" cx="17.6692658" cy="40.5" rx="3" ry="4.5"></ellipse>
                    <path d="M21.8336648,44.0136061 C22.3784351,44.1044011 22.7464547,44.6196287 22.6556597,45.164399 C21.9270201,49.5362363 19.824549,52.2121087 16.3861962,52.9761871 C15.847063,53.0959944 15.3128861,52.7560637 15.1930787,52.2169305 C15.0732713,51.6777972 15.4132021,51.1436203 15.9523353,51.0238129 C18.5139825,50.454558 20.0781781,48.4637637 20.6828718,44.835601 C20.7671815,44.3297429 21.217456,43.9762871 21.7175244,44.0010699 L21.8336648,44.0136061 Z" id="Path-5" fill="#131313" fill-rule="nonzero"></path>
                </g>
                <rect id="Rectangle" fill="#131313" x="462.600484" y="242.932584" width="125" height="73" rx="32"></rect>
                <path d="M595.789348,263.670817 C596.445211,263.24919 597.305889,263.403105 597.778358,264.003644 L597.862252,264.121448 L629.362252,313.121448 C629.81023,313.818303 629.608476,314.746374 628.911621,315.194352 C628.255757,315.615979 627.39508,315.462063 626.92261,314.861524 L626.838717,314.743721 L595.338717,265.743721 C594.890738,265.046866 595.092493,264.118795 595.789348,263.670817 Z" id="Path-3" fill="#131313" fill-rule="nonzero"></path>
                <g id="Rectangle-+-Rectangle-Copy-4-+-Rectangle-Copy-3-Mask" transform="translate(681.000000, 208.432584)">
                    <mask id="mask-8" fill="white">
                        <use xlink:href="#path-7"></use>
                    </mask>
                    <use id="Mask" fill="#FFFFFF" xlink:href="#path-7"></use>
                    <rect id="Rectangle" fill="#F7AD01" mask="url(#mask-8)" transform="translate(90.250729, 32.008759) rotate(6.000000) translate(-90.250729, -32.008759) " x="42.7507293" y="20.008759" width="95" height="24"></rect>
                    <rect id="Rectangle-Copy-4" fill="#F7AD01" mask="url(#mask-8)" transform="translate(80.100484, 96.500000) rotate(6.000000) translate(-80.100484, -96.500000) " x="32.6004843" y="84.5" width="95" height="24"></rect>
                    <rect id="Rectangle-Copy-3" fill="#E73D11" mask="url(#mask-8)" transform="translate(58.080271, 62.057009) rotate(6.000000) translate(-58.080271, -62.057009) " x="37.5802715" y="49.0570091" width="41" height="26"></rect>
                </g>
                <path d="M460.589541,256.824435 C461.201555,256.266107 462.150305,256.309627 462.708633,256.921641 C463.232066,257.495404 463.22653,258.365127 462.71951,258.931649 L462.611427,259.040733 L404.876192,311.711474 L388.102222,303.99697 C370.107007,295.746667 355.652707,289.213122 344.740541,284.396851 L339.865376,282.256482 C333.874376,279.641778 329.210566,277.670363 325.878414,276.34386 L324.121,275.656 L324.273988,275.804922 C324.851873,276.36308 325.51337,276.982738 326.25787,277.663113 L326.980137,278.31873 C331.206713,282.130935 337.730817,287.616169 346.545546,294.767741 C347.188871,295.289684 347.28727,296.234321 346.765327,296.877646 C346.243384,297.520971 345.298748,297.61937 344.655423,297.097427 L340.604691,293.796316 C333.774311,288.20299 328.564392,283.78769 324.970831,280.546439 L323.833536,279.515376 C319.078253,275.17672 317.839133,273.620447 318.852409,272.100534 L318.922372,272.00377 C319.993828,270.639276 323.126452,271.701728 337.122136,277.786 L344.362537,280.951921 C355.288068,285.75842 369.988782,292.395447 388.466024,300.86357 L404.324,308.153 L460.589541,256.824435 Z" id="Path-7" fill="#131313" fill-rule="nonzero"></path>
                <path d="M300.805486,282.160587 C301.507991,281.721521 302.433416,281.935081 302.872482,282.637586 C303.28572,283.298767 303.120854,284.157414 302.514345,284.622195 L302.395483,284.704582 L301.952,284.981 L304.049883,285.265911 C317.344278,287.113434 322.967464,288.715415 323.098149,291.338314 L323.100484,291.432584 C323.100484,293.340137 321.537111,293.786815 317.975052,294.083653 L317.437495,294.124944 C315.878726,294.234959 314.00382,294.286544 311.487489,294.302204 L309.707,294.307 L314.680306,295.021916 C327.367168,296.878173 330.100484,297.5322 330.100484,299.932584 L330.094058,300.127807 C329.934397,302.484637 326.757283,302.97627 315.847372,303.684146 L310.179,304.025 L314.166629,304.783802 C315.666476,305.075396 316.942809,305.334466 318.089035,305.582495 L318.834936,305.746449 C324.386067,306.986595 326.100484,307.577522 326.100484,309.432584 C326.100484,311.450718 323.061793,312.474989 315.489466,313.177424 L314.872,313.232 L318.404393,313.963694 C319.167918,314.121664 319.674854,314.834035 319.591919,315.593637 L319.569375,315.736493 C319.411404,316.500018 318.699034,317.006954 317.939431,316.924019 L317.796576,316.901475 L303.296576,313.901475 C301.570146,313.544282 301.768138,311.018139 303.529137,310.934282 L304.853788,310.869139 C310.933584,310.560364 315.58631,310.18479 318.799582,309.745023 L319.138352,309.69766 C319.710426,309.615935 320.231399,309.532302 320.700214,309.447292 L321.058,309.38 L320.895536,309.335617 C320.338862,309.184278 319.706326,309.026158 318.999353,308.861091 L318.180847,308.674275 L317.450791,308.513823 C316.452304,308.297802 315.348225,308.072237 314.075178,307.822592 L312.003049,307.422918 L307.181477,306.513057 C306.515302,306.386016 305.945482,306.275659 305.432405,306.174009 L304.470174,305.979955 C303.256482,305.730331 302.352043,305.522601 301.702226,305.338914 C301.309048,305.227772 300.99819,305.122785 300.749257,305.010853 C300.56006,304.925782 300.395257,304.8331 300.23906,304.709923 C299.869582,304.41855 299.600484,304.023309 299.600484,303.432584 C299.600484,302.653885 300.008559,302.245472 300.540374,301.983504 C300.725679,301.892224 300.920935,301.829003 301.151492,301.773702 L301.454626,301.709558 C301.619104,301.678639 301.803345,301.649305 302.009137,301.6209 L302.449987,301.565139 C303.185341,301.479347 304.148002,301.397706 305.432204,301.309391 L307.781434,301.161935 C309.864659,301.038688 313.51464,300.827058 314.755222,300.748112 L315.800451,300.680008 C319.202384,300.452836 321.790399,300.222771 323.79566,299.949783 L324.404027,299.862897 L324.693,299.818 L324.478529,299.767873 L323.806789,299.617512 L323.448912,299.541285 C321.134873,299.056083 318.212547,298.573778 313.904194,297.940834 L305.043565,296.657231 C303.930199,296.489552 303.029239,296.347651 302.197636,296.20905 L301.492435,296.089099 C300.250063,295.873111 299.28349,295.678055 298.560839,295.493229 L298.15027,295.38575 C296.597302,294.966792 296.100484,294.651343 296.100484,293.432584 C296.100484,292.143103 296.819381,291.812513 298.136816,291.578632 C298.643182,291.488738 299.306678,291.426458 300.153097,291.383504 L300.956181,291.349686 C301.65151,291.325321 302.390429,291.311535 303.387304,291.304984 L310.083193,291.30727 C313.253149,291.30305 315.469068,291.255825 317.215565,291.133123 L318.017014,291.068408 L318.204,291.05 L318.173015,291.040282 C317.573619,290.850507 316.867281,290.655561 316.056301,290.456931 L315.26542,290.269683 L314.549066,290.109812 C310.616981,289.254512 304.900686,288.356783 297.414432,287.421001 C296.060274,287.251731 295.636444,285.529441 296.691088,284.738937 L296.805486,284.660587 L300.805486,282.160587 Z" id="Path-8" fill="#131313" fill-rule="nonzero"></path>
                <g id="Path-11" transform="translate(332.192732, 334.432584)">
                    <mask id="mask-10" fill="white">
                        <use xlink:href="#path-9"></use>
                    </mask>
                    <use id="Mask" fill="#7C00D9" xlink:href="#path-9"></use>
                    <path d="M160.601046,46.2037238 C161.47562,44.9989163 162.245371,43.9514899 162.990197,42.954955 L163.834057,41.834298 C168.4193,35.792322 172.100579,31.7413186 175.860972,28.8870626 C180.822481,25.121122 185.722576,23.7275806 190.786385,25.0485741 C198.842781,27.1502427 203.34645,30.4874039 207.234435,36.0584319 L207.476659,36.4095389 C207.662553,36.682083 207.848538,36.960553 208.04694,37.2629036 L208.742018,38.3384445 C209.002538,38.7455315 209.330339,39.2588011 209.390285,39.3522265 L209.797139,39.9768099 C213.979013,46.2952199 217.539609,48.4321544 226.94792,48.4984017 L227.407752,48.5 C233.679181,48.5 240.935852,48.8419712 248.203107,49.4588297 L249.068,49.534 L249.210291,49.4340338 C252.417692,47.1954064 255.748246,45.1936023 259.106882,43.4768901 L259.736932,43.1583592 C262.306858,41.8733961 263.77174,40.7948091 264.180415,40.0614326 L264.248238,39.9373499 C264.200742,39.8246374 264.006563,39.6278974 263.62837,39.39031 C261.968387,38.3474808 258.555267,37.4710356 252.258063,36.3767633 L249.329273,35.8859506 C247.523079,35.5937857 242.711403,34.820073 241.109654,34.5510494 L239.257368,34.2340068 C231.435007,32.8681131 226.232927,31.5920376 222.306524,29.874236 C210.788781,24.8352237 209.383833,15.3879304 217.903654,2.55027059 L218.164869,2.16021388 L220.650635,3.83978612 L220.175874,4.55381302 C212.838,15.7743552 214.009715,22.9698353 223.50898,27.125764 C227.158581,28.7224645 232.194941,29.9556871 239.804334,31.2840466 L242.600956,31.7570599 C245.066881,32.1616283 249.746242,32.9128447 250.430128,33.0254796 L252.379958,33.3528781 C259.390805,34.5555319 263.068849,35.4959426 265.224239,36.8499947 C267.084933,38.018914 267.807056,39.7163631 266.800998,41.5217564 C266.04523,42.8779983 264.300675,44.1944981 261.441751,45.6579327 L261.078572,45.8416408 C258.817793,46.9720305 256.566388,48.2387541 254.356381,49.6249645 L253.782,49.987 L254.59334,50.0727472 C260.090939,50.6636764 265.427093,51.4038149 270.165953,52.2631638 L271.248735,52.4635776 L272.523642,52.7103356 C279.227746,54.0397655 284.397773,55.5830652 287.66755,57.3244965 C292.094363,59.6821479 293.478466,62.884177 290.496681,66.031617 L290.179593,66.3572951 C287.828541,68.705771 284.868379,70.2052331 278.475232,72.6541256 L275.00175,73.9663006 C268.012319,76.6304645 265.039592,78.1908171 263.048823,80.5925792 C260.457921,83.7183726 260.960599,87.8553709 265.611102,94.1044838 C275.799868,107.795638 289.156033,112.298665 305.98814,107.698865 L306.499268,107.556691 L307.451798,107.287107 L347.978214,157.411885 L344.951086,157.499374 C286.829579,159.179186 248.864091,147.367701 231.175056,121.854669 C219.028048,104.334947 218.700831,87.2705834 227.864536,71.6775056 C232.04679,64.5609273 238.146006,57.986548 245.079256,52.5041784 L245.411,52.243 L244.149213,52.1507825 C238.684582,51.7595857 233.326041,51.5337633 228.509453,51.5034989 L227.407752,51.5 C216.401749,51.5 211.945295,48.7682469 207.08028,41.3046852 L205.941992,39.5294847 C205.587698,38.979534 205.291317,38.5296238 204.998266,38.0999736 C201.443421,32.8881182 197.512033,29.9034905 190.029119,27.9514259 C182.600327,26.0134801 175.818496,30.9889057 166.077617,43.8414938 L165.393174,44.7509788 C164.657194,45.7356784 163.895016,46.7728073 163.0276,47.967765 L158.897538,53.7038457 C152.533469,62.5303985 148.773858,67.2275348 144.370556,71.3962526 C138.418454,77.0312596 132.597476,80 126.407752,80 C114.072581,80 103.802914,71.8676745 97.5068914,59.427341 C92.0747273,48.6939085 90.930544,36.9608291 95.4707094,33.3286968 C97.4600329,31.737238 100.280916,31.3426316 104.312047,31.7718875 L105.006472,31.8522435 C106.304453,32.0139655 107.748764,32.2559354 109.496996,32.5951961 L110.857739,32.8678388 C112.851262,33.2771532 116.622958,34.0716101 116.394762,34.0242953 L117.118422,34.1731481 C128.37406,36.4693501 135.819395,37.0789774 143.642158,35.611292 C146.483649,35.0781791 149.202506,34.2579414 151.809663,33.1243949 C166.321344,26.8149683 172.038701,14.5239022 169.022905,-4.18057188 L168.928844,-4.74933765 L171.88666,-5.25066235 C175.328865,15.0583458 169.014244,28.91543 153.005841,35.8756051 C150.18783,37.1008275 147.253365,37.9861109 144.195357,38.5598459 C135.893941,40.1173348 128.127798,39.4812798 116.516443,37.1121396 L109.65263,35.6838257 L108.479707,35.4546461 C106.848687,35.1447947 105.509369,34.929109 104.316264,34.7908285 L103.994387,34.7550222 C100.678995,34.4019818 98.561115,34.6982468 97.3447945,35.6713032 C94.3175257,38.0931183 95.3308221,48.4840128 100.183613,58.072659 C106.016051,69.5969949 115.364718,77 126.407752,77 C131.711659,77 136.862756,74.3729041 142.308061,69.2176953 C146.274313,65.4627432 149.758067,61.1832962 155.34752,53.4920762 L160.601046,46.2037238 Z M249.905,52.621 L249.612554,52.8325423 C241.856719,58.4729021 234.956254,65.5312413 230.450968,73.1974944 C221.86915,87.8004264 222.172203,103.604591 233.640448,120.145331 C250.112146,143.902587 285.463146,155.455931 339.803432,154.613356 L341.827,154.576 L306.357,110.705 L306.224764,110.741333 C288.646323,115.364515 274.320257,110.53654 263.536782,96.337645 L263.204402,95.8955162 C257.81109,88.6482529 257.128874,83.0336704 260.739107,78.6781054 C263.233773,75.6684155 266.516659,73.9702272 274.36358,70.9994117 L276.923049,70.0352782 C283.475676,67.5412319 286.282658,66.1176683 288.318823,63.968383 C289.630894,62.5834193 289.173621,61.5255496 286.257329,59.9723785 C283.114683,58.2986546 277.742385,56.7435664 270.691769,55.4114224 C264.708505,54.2809439 257.645299,53.3459165 250.47684,52.6738372 L249.905,52.621 Z" fill="#F7AD01" fill-rule="nonzero" mask="url(#mask-10)"></path>
                    <path d="M172.495139,112.495495 C174.39786,107.167876 177.55005,104.763664 181.689942,105.931325 C185.26914,106.940843 189.405628,110.685632 194.27809,117.159329 L194.611445,117.604946 L192.204058,119.395054 C187.5549,113.142737 183.715018,109.619547 180.875562,108.818675 C178.574456,108.169645 176.839573,109.432758 175.428291,113.209053 L175.320365,113.504505 C173.810803,117.731279 170.80236,119.480116 166.506352,119.137417 L165.754866,119.062085 C163.427384,118.797207 161.893139,118.340124 156.537839,116.314327 L153.448348,115.136741 C149.259577,113.53292 146.548898,112.628132 143.766234,112.002533 C139.162145,110.967442 135.321477,111.029104 131.972318,112.3897 C115.554801,119.059316 113.695078,130.280936 127.360422,161.442211 L127.779276,162.392611 C132.84471,173.830686 133.76895,181.977603 130.875505,188.22299 C128.513192,193.32195 124.05622,196.828446 115.761806,200.927064 L114.747945,201.42188 C112.719343,202.4002 104.488726,206.148529 102.546118,207.070363 C97.4276565,209.499249 93.238564,211.730939 89.2069719,214.269349 C72.5449429,224.760256 70.6571313,234.394483 83.1188537,244.378946 L83.649,244.797 L190.667122,203.290533 L191.340575,203.825334 C203.10738,213.169561 207.655257,225.064009 204.879988,239.287266 C202.222159,252.908639 193.487531,266.919749 178.724731,281.346377 L178.437,281.625 L178.78393,282.050529 C198.285149,305.908051 217.694649,319.005023 236.982275,321.437935 L237.578761,321.50978 C256.410212,323.670766 283.725356,279.400927 318.374553,189.057273 L319.529,186.035 L319.484114,186.045852 C290.750401,192.336753 272.290197,203.256066 263.994509,218.707691 L263.738577,219.192029 C260.451668,225.513008 258.951459,233.509005 258.263827,245.495718 L258.06395,249.555031 L257.767527,257.410385 C257.268641,269.998862 256.622113,275.473534 254.603089,280.686862 C251.675578,288.246001 246.071228,291.515834 237.152892,289.97819 C223.29759,287.589345 215.028845,280.401268 211.418493,269.275488 C208.716754,260.949722 208.702356,251.519036 210.421263,238.799123 C210.784377,236.112081 212.193545,233.468681 214.576092,230.723477 C216.73243,228.238914 219.642244,225.695889 223.709496,222.626058 L224.811659,221.804804 C227.944622,219.505354 236.227645,213.638301 236.426253,213.495111 L237.62092,212.628749 C247.025844,205.766775 252.797516,200.52789 256.70777,194.67043 C261.775587,187.078971 262.760204,179.296941 259.029034,170.590879 C253.244482,157.09359 242.606084,153.581086 227.294825,157.343349 C222.287783,158.573673 217.064263,160.494121 210.840001,163.243708 L209.68283,163.759895 C207.098379,164.928499 200.550372,167.992999 198.71016,168.827185 L197.668252,169.288577 C194.202104,170.79821 192.02305,171.5 190.407752,171.5 C188.020545,171.5 185.472646,169.853706 182.15687,166.620389 L181.644724,166.114568 C180.780396,165.250353 179.856333,164.274377 178.782827,163.098609 L177.398831,161.564668 C176.275824,160.30549 173.785843,157.495368 173.117537,156.750099 L172.272495,155.812894 C167.844239,150.930204 164.648981,147.87992 161.47943,145.736378 C156.272111,142.214711 152.1517,142.004703 148.449644,145.579102 C139.532225,154.189023 142.300226,173.481689 157.288568,203.413157 L157.746501,204.323428 L155.069003,205.676572 C139.124833,174.12747 136.04002,153.390674 146.36586,143.420898 C151.231477,138.723061 156.890843,139.011506 163.160053,143.251322 C166.683025,145.633879 170.113589,148.937334 174.911103,154.257961 L180.005454,159.979063 L180.990042,161.066755 C182.245458,162.44194 183.283635,163.528915 184.251314,164.47253 C187.027091,167.179276 189.071119,168.5 190.407752,168.5 C191.47903,168.5 193.425975,167.864257 196.530671,166.511561 L197.239776,166.199127 C198.664768,165.564678 206.430628,161.926055 208.832879,160.852709 C215.554407,157.849473 221.158032,155.762034 226.578964,154.43001 C243.176137,150.351774 255.340292,154.368041 261.78647,169.409121 C265.933279,179.08501 264.814091,187.930642 259.202882,196.336088 C254.960328,202.691325 248.815817,208.218076 238.787112,215.49016 L228.492473,222.839972 C227.444358,223.595429 226.562607,224.236703 226.020724,224.641975 L225.041267,225.381179 C221.377749,228.172563 218.75214,230.488716 216.841782,232.689856 C214.810256,235.030609 213.668314,237.172731 213.394241,239.200877 C211.731128,251.507911 211.744951,260.56204 214.272011,268.349512 C217.539193,278.417767 224.906877,284.822545 237.662612,287.02181 C245.030004,288.29205 249.243838,285.927891 251.681072,279.917562 L251.805559,279.603431 C253.721957,274.655093 254.325136,269.147786 254.817811,256.048186 L255.08658,248.962789 C255.119476,248.209077 255.152676,247.514225 255.191922,246.743983 L255.270163,245.298619 C255.980602,232.928707 257.546244,224.597746 261.076927,217.807971 C269.900364,200.839822 289.804185,189.180431 320.668854,182.724402 L321.607502,182.530357 L324.275298,181.985324 L323.310417,184.531536 C286.971711,280.425344 258.687643,326.951799 237.236743,324.49022 C216.659484,322.128895 196.209501,308.332582 175.854734,283.203863 L175.237952,282.438918 L174.37722,281.366531 L175.370918,280.416037 C190.498721,265.945964 199.33595,252.035513 201.935516,238.712734 C204.428819,225.934558 200.579057,215.377366 190.28973,206.83614 L190.139,206.713 L83.1738637,248.199584 L82.507752,247.7 C66.9270704,236.014489 68.7823405,223.584179 87.6085321,211.730651 C91.5098944,209.274237 95.5385103,207.105803 100.348741,204.795076 L101.856754,204.079775 C104.526274,202.834423 111.614871,199.6022 113.444785,198.719701 L114.429279,198.239201 C122.149479,194.424016 126.155239,191.274933 128.153447,186.961879 C130.574729,181.735638 129.812713,174.575868 125.270451,164.140814 L125.036228,163.607389 C110.318471,130.373744 112.331412,117.130708 130.843186,109.6103 C134.834769,107.98872 139.272923,107.917465 144.42427,109.075592 L145.162312,109.247964 C147.619191,109.843421 150.074875,110.656049 153.472556,111.936623 L158.164406,113.721206 C163.044637,115.556752 164.349222,115.908574 166.511404,116.125848 C169.566482,116.432848 171.337068,115.505215 172.402909,112.743914 L172.495139,112.495495 Z" id="Path-10" fill="#F7AD01" fill-rule="nonzero" mask="url(#mask-10)"></path>
                    <path d="M59.5396603,143.515732 C73.092503,159.101501 79.907752,174.26543 79.907752,189 C79.907752,196.165851 77.1230181,200.738559 71.7177734,203.306928 C67.9371455,205.10334 64.1011845,205.764711 55.6019779,206.439232 L50.4355224,206.83694 C49.2090689,206.936337 48.3493444,207.015613 47.2901272,207.123851 C41.810626,207.683785 37.6276806,208.507057 33.9385901,209.902929 C22.1758527,214.353695 12.0438961,225.502324 3.5924907,243.438468 L3.26826543,244.131667 L0.776471799,249.498607 L-3.30239406,183.654058 L-0.640138887,185.840911 C8.28566063,193.172817 17.5516105,194.900367 27.3662608,191.101148 C36.8460124,187.431567 40.7581222,177.949981 38.9805113,162.211596 L38.9184367,161.678718 L41.8970672,161.321282 C43.970172,178.597156 39.5296442,189.609665 28.4492431,193.898852 C18.6824284,197.679555 9.28116635,196.48694 0.397489927,190.37757 L0.107,190.175 L3.054,237.759 L3.18339413,237.511005 C11.3706697,221.827436 21.101119,211.72746 32.4112256,207.276794 L32.8769138,207.097071 C36.6936026,205.652918 40.9166068,204.794043 46.305425,204.210875 L48.5222174,203.989935 C49.0941949,203.937607 49.6914117,203.886839 50.4158368,203.828778 L55.3394496,203.450551 C63.4603507,202.805837 67.0938136,202.182612 70.4302438,200.597266 C74.771556,198.534438 76.907752,195.02667 76.907752,189 C76.907752,175.256175 70.5646418,160.957027 57.803872,146.095339 L57.2758437,145.484268 L59.5396603,143.515732 Z" id="Path-12" fill="#F7AD01" fill-rule="nonzero" mask="url(#mask-10)"></path>
                </g>
                <path d="M707.533706,245.922975 C708.313402,245.922975 708.954155,246.517863 709.02684,247.278515 L709.033706,247.422975 L709.033,259.702 L710.327156,258.444844 C718.210943,250.841503 722.862722,247.516728 725.349982,248.134492 L725.460284,248.1649 C726.577744,248.504282 726.924802,249.476684 726.807682,250.576412 C726.740125,251.21076 726.508419,251.995444 726.117432,252.978403 C725.397568,254.78817 724.092058,257.366835 722.193193,260.739861 L721.774054,261.480346 C718.203427,267.755543 712.687609,276.643047 705.222264,288.151347 L703.941,290.121 L689.464004,327.652215 C689.183374,328.379658 688.397733,328.763355 687.661897,328.557393 L687.524647,328.511805 C686.797205,328.231175 686.413507,327.445534 686.61947,326.709698 L686.665058,326.572448 L701.257649,288.745885 L702.703077,286.522323 C710.436744,274.600443 716.063669,265.512543 719.578976,259.268172 L720.045283,258.434208 C721.555328,255.714255 722.622078,253.594108 723.240465,252.090514 L723.415419,251.650286 L723.527,251.345 L723.422772,251.400921 L723.156895,251.551987 C720.845603,252.914787 716.151951,256.872698 709.746248,263.214719 L708.59574,264.361065 L706.033706,266.92975 L706.033706,247.422975 C706.033706,246.594547 706.705279,245.922975 707.533706,245.922975 Z" id="Path" fill="#131313" fill-rule="nonzero"></path>
                <polygon id="Path-14" fill="#131313" fill-rule="nonzero" points="768.709632 267.405852 813.0947 271.438738 812.823235 274.426431 768.438166 270.393545"></polygon>
                <polygon id="Path-14-Copy" fill="#131313" fill-rule="nonzero" points="765.709632 275.405852 810.0947 279.438738 809.823235 282.426431 765.438166 278.393545"></polygon>
                <polygon id="Path-14-Copy-2" fill="#131313" fill-rule="nonzero" points="765.709632 283.405852 810.0947 287.438738 809.823235 290.426431 765.438166 286.393545"></polygon>
                <polygon id="Path-14-Copy-3" fill="#131313" fill-rule="nonzero" points="709.775895 316.442876 807.441759 327.942876 807.090937 330.922293 709.425073 319.422293"></polygon>
                <polygon id="Path-14-Copy-4" fill="#131313" fill-rule="nonzero" points="705.775895 324.442876 803.441759 335.942876 803.090937 338.922293 705.425073 327.422293"></polygon>
                <polygon id="Path-14-Copy-5" fill="#131313" fill-rule="nonzero" points="702.775895 332.442876 800.441759 343.942876 800.090937 346.922293 702.425073 335.422293"></polygon>
            </g>
        </g>
    </g>
</svg>