<?xml version="1.0" encoding="UTF-8"?>
<svg width="834px" height="713px" viewBox="0 0 834 713" version="1.1" xmlns="http://www.w3.org/2000/svg" xmlns:xlink="http://www.w3.org/1999/xlink">
    <title>illustration-8</title>
    <defs>
        <polygon id="path-1" points="96.7158071 21.1937106 172.715807 173.193711 20.7158071 173.193711"></polygon>
        <circle id="path-3" cx="79.5" cy="79.5" r="79.5"></circle>
        <rect id="path-5" x="23.1473975" y="27.2407325" width="137" height="123"></rect>
        <rect id="path-7" x="0" y="0.828554027" width="141" height="88" rx="6"></rect>
        <rect id="path-9" x="0.139217112" y="0.378571206" width="141" height="88" rx="6"></rect>
        <rect id="path-11" x="0.631098829" y="0.434775721" width="141" height="88" rx="6"></rect>
        <rect id="path-13" x="0" y="0.828554027" width="141" height="88" rx="6"></rect>
        <rect id="path-15" x="0" y="0.828554027" width="141" height="88" rx="6"></rect>
        <path d="M0,216.21484 L176.445704,23.8302705 C191.498385,8.52376677 208.219997,0.870514909 226.61054,0.870514909 C245.001084,0.870514909 263.72519,9.51363718 282.782858,26.7998817 L456.11054,216.799882 L402.583587,259.575436 L228.05527,76.065835 L53.3919744,261.127271 L0,216.21484 Z" id="path-17"></path>
    </defs>
    <g id="Desktop" stroke="none" stroke-width="1" fill="none" fill-rule="evenodd">
        <g id="Artboard" transform="translate(-1784.000000, -5772.000000)">
            <g id="illustration-8" transform="translate(1784.000000, 5772.000000)">
                <g id="Combined-Shape" transform="translate(0.000000, 519.000000)">
                    <mask id="mask-2" fill="white">
                        <use xlink:href="#path-1"></use>
                    </mask>
                    <use id="Mask" fill="#7C00D9" transform="translate(96.715807, 97.193711) rotate(71.000000) translate(-96.715807, -97.193711) " xlink:href="#path-1"></use>
                    <path d="M259.766131,167.895234 L260.680026,170.752645 L-160.423553,305.435545 L-161.337448,302.578134 L259.766131,167.895234 Z M259.766131,143.895234 L260.680026,146.752645 L-160.423553,281.435545 L-161.337448,278.578134 L259.766131,143.895234 Z M259.766131,119.895234 L260.680026,122.752645 L-160.423553,257.435545 L-161.337448,254.578134 L259.766131,119.895234 Z M259.766131,95.8952337 L260.680026,98.7526445 L-160.423553,233.435545 L-161.337448,230.578134 L259.766131,95.8952337 Z M259.766131,71.8952337 L260.680026,74.7526445 L-160.423553,209.435545 L-161.337448,206.578134 L259.766131,71.8952337 Z M259.766131,47.8952337 L260.680026,50.7526445 L-160.423553,185.435545 L-161.337448,182.578134 L259.766131,47.8952337 Z M259.766131,23.8952337 L260.680026,26.7526445 L-160.423553,161.435545 L-161.337448,158.578134 L259.766131,23.8952337 Z M259.766131,-0.104766253 L260.680026,2.75264452 L-160.423553,137.435545 L-161.337448,134.578134 L259.766131,-0.104766253 Z M259.766131,-24.1047663 L260.680026,-21.2473555 L-160.423553,113.435545 L-161.337448,110.578134 L259.766131,-24.1047663 Z" fill="#F7AD01" fill-rule="nonzero" mask="url(#mask-2)" transform="translate(49.671289, 140.665389) rotate(-53.000000) translate(-49.671289, -140.665389) "></path>
                </g>
                <g id="Path-17" transform="translate(619.000000, 0.000000)">
                    <mask id="mask-4" fill="white">
                        <use xlink:href="#path-3"></use>
                    </mask>
                    <use id="Mask" fill="#7C00D9" xlink:href="#path-3"></use>
                    <path d="M144.237846,-21 L145.464054,-18.2620418 L75.7377624,12.9643796 L90.8917624,20.2853796 L182.491498,-0.208229912 L120.652762,34.6613796 L168.924762,57.9803796 L199.611112,50.8622632 L200.565985,53.6911887 L179.592762,63.1343796 L232.263362,88.5780629 L230.958428,91.2793863 L176.022762,64.7413796 L36.2837624,127.66538 L36.2837624,130.28138 L174.919641,91.795552 L45.6427624,158.52538 L126.095266,158.526079 L33.2846042,196.534382 L33.2837624,134.22738 L2.99668981,142.635721 L1.97957808,139.822646 L33.2837624,125.72638 L33.2837624,92.5293796 L-3,100.947651 L33.2837624,80.4863796 L33.2837624,36.2483796 L-0.43601165,43.7928773 L33.2837624,28.6903796 L33.2846042,-7.54299994 L72.2067624,11.2583796 L144.237846,-21 Z M110.853762,161.52538 L36.2837624,161.52538 L36.2837624,192.06338 L110.853762,161.52538 Z M147.719762,102.45938 L36.2837624,133.39438 L36.2837624,159.98038 L147.719762,102.45938 Z M33.2837624,129.01538 L21.1347624,134.48638 L33.2837624,131.11338 L33.2837624,129.01538 Z M168.572762,61.1423796 L36.2837624,91.8333796 L36.2837624,124.37538 L172.498762,63.0393796 L168.572762,61.1423796 Z M33.2837624,83.9293796 L16.6527624,93.3083796 L33.2837624,89.4493796 L33.2837624,83.9293796 Z M117.470762,36.4563796 L36.2837624,82.2383796 L36.2837624,88.7533796 L164.264762,59.0613796 L117.470762,36.4563796 Z M90.5277624,23.4403796 L36.2837624,35.5773796 L36.2837624,78.7943796 L114.181762,34.8673796 L90.5277624,23.4403796 Z M185.358762,57.2483796 L173.231762,60.0613796 L176.068762,61.4313796 L185.358762,57.2483796 Z M33.2837624,31.9773796 L27.9467624,34.3683796 L33.2837624,33.1743796 L33.2837624,31.9773796 Z M163.330762,7.15237963 L95.2407624,22.3863796 L117.363762,33.0733796 L163.330762,7.15237963 Z M72.1587624,14.5673796 L36.2837624,30.6343796 L36.2837624,32.5023796 L86.1777624,21.3393796 L72.1587624,14.5673796 Z M36.2837624,-2.76262037 L36.2837624,27.3473796 L68.6277624,12.8613796 L36.2837624,-2.76262037 Z" fill="#F7AD01" fill-rule="nonzero" mask="url(#mask-4)"></path>
                </g>
                <circle id="Oval" fill="#FFFFFF" cx="554" cy="94" r="32"></circle>
                <g id="Path-15" transform="translate(554.000000, 485.000000)">
                    <mask id="mask-6" fill="white">
                        <use xlink:href="#path-5"></use>
                    </mask>
                    <use id="Mask" fill="#FFFFFF" transform="translate(91.647397, 88.740732) rotate(-32.000000) translate(-91.647397, -88.740732) " xlink:href="#path-5"></use>
                    <path d="M80.5572318,-12 C84.2006453,49.7437103 99.4737345,75.8193856 126.051017,67.6362066 C134.447145,65.0510283 138.926694,61.2857872 140.449772,56.3277319 C141.674438,52.3410946 141.085298,47.6449113 138.914402,41.1733196 L138.534144,40.0661797 C138.127747,38.9072238 137.684539,37.7148363 137.064722,36.0975059 L136.008272,33.3450505 C132.830569,25.0027667 132.007164,21.9582641 132.230953,18.0578722 C132.568367,12.1771106 136.517665,8.42457676 144.683117,6.82457895 C161.802707,3.47004227 174.09505,22.4310094 174.926583,48.7022604 C175.789345,75.9601312 164.27466,101.21731 142.889443,111.714751 L142.238388,112.028325 C120.93879,122.091743 107.611672,142.571153 105.203143,165.884626 C102.921588,187.969045 111.009847,208.411393 126.56512,218.09629 L127.038775,218.386469 C135.650544,223.57719 137.834898,230.366314 133.94794,237.397573 C130.71325,243.248922 123.343557,248.950276 114.097411,253.156202 C105.062763,257.265921 95.3135121,259.441358 87.8183389,258.842734 C79.007339,258.139017 73.669376,253.666752 73.669376,245.661325 L73.6752951,244.591592 C73.7959305,233.780971 75.7888784,222.949288 82.2431252,194.809022 L84.9340314,183.126394 L85.3454406,181.321533 C91.9800461,152.103963 94.448046,135.65433 93.0749116,122.925725 C91.167648,105.245877 84.0002847,86.3978532 72.8339539,72.8026031 C59.1270164,56.1141092 40.4091308,48.0233805 16.9552683,51.0079504 C-15.4034789,55.1256919 -32.2677361,61.9468247 -33.8732649,70.7854402 L-33.9006952,70.9523503 L-33.3052984,71.0561735 C29.8141271,82.1938172 60.6757176,105.622055 58.609724,141.443005 L58.536193,142.543436 C57.6222524,154.584602 54.1770674,163.306933 48.4097064,169.375668 C43.7971309,174.229273 38.0013879,177.202069 30.3629752,179.246369 L28.367751,179.757746 C26.9707796,180.101933 25.8154824,180.344241 23.0753432,180.868537 L18.3971648,181.756446 C12.1665814,182.961754 9.11299955,183.883426 6.71136505,185.498839 C3.73924315,187.497979 2.51807299,190.439366 3.07964162,195.241312 C4.52103585,207.566605 13.2066705,210.450372 30.0949597,207.553038 L30.6092378,207.463474 C32.6832404,207.096963 34.7712804,206.672936 37.4961661,206.076638 L43.8847462,204.673991 C52.3050876,202.859933 54.399814,202.658493 57.3126124,203.195824 C70.2491501,205.582258 69.9084306,228.398544 58.5631771,243.157923 L58.2160155,243.602681 L55.8649748,241.739188 C66.3863288,228.465124 66.8084519,207.998162 56.7683779,206.146045 L56.3118179,206.069968 C53.991841,205.727401 51.5605303,206.074749 43.3174043,207.8673 L37.5884493,209.126979 C35.0900412,209.669429 33.1093706,210.068141 31.1313,210.4177 C22.7459204,211.89954 16.4049647,212.053796 11.3233309,210.43604 C4.91105226,208.394668 1.03088659,203.550186 0.099948135,195.589775 C-0.587376348,189.712497 1.09450961,185.661401 5.03700056,183.009561 L5.44693322,182.742201 C8.13549103,181.043168 11.3313458,180.084431 17.3384515,178.906182 L24.3330196,177.568503 C26.3925302,177.160735 27.2853418,176.944686 28.9907424,176.505073 C36.4408277,174.584613 41.9421178,171.826319 46.2350773,167.309031 C51.4928287,161.776536 54.6802499,153.706797 55.5447973,142.316385 C58.1629344,107.822428 28.5948005,85.0173231 -33.8500659,74.0063452 L-35.7523986,73.6762893 L-37,73.4633242 L-37,72.1976768 C-37,60.3540366 -19.0494851,52.5654641 16.5765638,48.0319492 C41.0890434,44.9126673 60.8105632,53.4372128 75.1522327,70.8985067 C86.7143304,84.9756114 94.0910041,104.374059 96.0576061,122.603958 L96.1397619,123.415286 C97.3758979,136.468104 94.8489321,153.017779 88.2746336,181.969751 L84.5592033,198.13791 C78.4493075,224.922945 76.669376,235.138076 76.669376,245.661325 C76.669376,251.912548 80.6672253,255.262035 88.0571823,255.852256 C94.9901947,256.405982 104.250335,254.339685 112.855236,250.425451 C121.568609,246.461874 128.453755,241.135376 131.322415,235.946153 C134.347363,230.474216 132.822815,225.503417 125.827356,221.162082 L125.4901,220.955828 C108.539037,210.73862 99.8032735,188.959723 102.219026,165.576335 C104.706052,141.503051 118.387568,120.27653 140.290578,109.635059 L140.956819,109.315838 C161.534571,99.5934699 172.765161,75.2435445 171.928085,48.7971683 C171.1466,24.1071342 159.980932,6.88406474 145.259989,9.76859309 C138.341658,11.1242209 135.477569,13.8456136 135.226027,18.2297173 L135.208982,18.5966871 C135.099452,21.7057254 135.904901,24.6143649 138.668298,31.8990664 L140.168713,35.8168996 C140.694686,37.2013273 141.091729,38.2840269 141.469551,39.3727681 L141.572199,39.6700785 C144.078082,46.9652175 144.807827,52.3572788 143.317512,57.2086804 C141.46983,63.2234144 136.204902,67.6487981 126.933822,70.5033752 C97.9467919,79.4285185 81.6336266,52.1612718 77.6785109,-9.93103805 L77.5624412,-11.8232814 L80.5572318,-12 Z" fill="#F7AD01" fill-rule="nonzero" mask="url(#mask-6)"></path>
                </g>
                <polygon id="Triangle-Copy" fill="#DD63B1" transform="translate(737.000000, 298.000000) rotate(22.000000) translate(-737.000000, -298.000000) " points="737 251 784 345 690 345"></polygon>
                <g id="Group-3" transform="translate(73.000000, 47.171446)">
                    <g id="Group-2" transform="translate(1.000000, 0.000000)">
                        <path d="M0,12.828554 L0,-9.9475983e-14 L38.187725,-9.9475983e-14 L48.6192072,12.828554 L135,12.828554 C138.313708,12.828554 141,15.5148455 141,18.828554 L141,94.828554 C141,98.1422625 138.313708,100.828554 135,100.828554 L6,100.828554 C2.6862915,100.828554 4.05812251e-16,98.1422625 0,94.828554 L0,12.828554 L0,12.828554 Z" id="Rectangle" fill="#7C00D9"></path>
                        <rect id="Rectangle-Copy-3" fill="#DD63B1" x="0" y="23.828554" width="141" height="88" rx="6"></rect>
                    </g>
                    <g id="Group-2-Copy" transform="translate(1.000000, 151.828554)">
                        <path d="M0,12.828554 L0,0 L38.187725,0 L48.6192072,12.828554 L135,12.828554 C138.313708,12.828554 141,15.5148455 141,18.828554 L141,94.828554 C141,98.1422625 138.313708,100.828554 135,100.828554 L6,100.828554 C2.6862915,100.828554 4.05812251e-16,98.1422625 0,94.828554 L0,12.828554 L0,12.828554 Z" id="Rectangle" fill="#131313"></path>
                        <g id="Combined-Shape" transform="translate(0.000000, 23.000000)">
                            <mask id="mask-8" fill="white">
                                <use xlink:href="#path-7"></use>
                            </mask>
                            <use id="Mask" fill="#DD63B1" xlink:href="#path-7"></use>
                            <path d="M316.733521,40.5901291 L317.647416,43.4475398 L-103.456163,178.13044 L-104.370058,175.273029 L316.733521,40.5901291 Z M316.733521,16.5901291 L317.647416,19.4475398 L-103.456163,154.13044 L-104.370058,151.273029 L316.733521,16.5901291 Z M316.733521,-7.40987095 L317.647416,-4.55246018 L-103.456163,130.13044 L-104.370058,127.273029 L316.733521,-7.40987095 Z M316.733521,-31.4098709 L317.647416,-28.5524602 L-103.456163,106.13044 L-104.370058,103.273029 L316.733521,-31.4098709 Z M316.733521,-55.4098709 L317.647416,-52.5524602 L-103.456163,82.1304401 L-104.370058,79.2730293 L316.733521,-55.4098709 Z M316.733521,-79.4098709 L317.647416,-76.5524602 L-103.456163,58.1304401 L-104.370058,55.2730293 L316.733521,-79.4098709 Z M316.733521,-103.409871 L317.647416,-100.55246 L-103.456163,34.1304401 L-104.370058,31.2730293 L316.733521,-103.409871 Z M316.733521,-127.409871 L317.647416,-124.55246 L-103.456163,10.1304401 L-104.370058,7.27302932 L316.733521,-127.409871 Z M316.733521,-151.409871 L317.647416,-148.55246 L-103.456163,-13.8695599 L-104.370058,-16.7269707 L316.733521,-151.409871 Z" fill="#F7AD01" fill-rule="nonzero" mask="url(#mask-8)" transform="translate(106.638679, 13.360285) rotate(-22.000000) translate(-106.638679, -13.360285) "></path>
                        </g>
                    </g>
                    <g id="Group-2-Copy-2" transform="translate(1.000000, 303.828554)">
                        <path d="M0,12.828554 L0,-9.9475983e-14 L38.187725,-9.9475983e-14 L48.6192072,12.828554 L135,12.828554 C138.313708,12.828554 141,15.5148455 141,18.828554 L141,94.828554 C141,98.1422625 138.313708,100.828554 135,100.828554 L6,100.828554 C2.6862915,100.828554 4.05812251e-16,98.1422625 0,94.828554 L0,12.828554 L0,12.828554 Z" id="Rectangle" fill="#7C00D9"></path>
                        <rect id="Rectangle-Copy-3" fill="#FFFFFF" x="0" y="23.828554" width="141" height="88" rx="6"></rect>
                    </g>
                    <g id="Group-2-Copy-3" transform="translate(0.000000, 455.828554)">
                        <path d="M1,12.828554 L1,0 L39.187725,0 L49.6192072,12.828554 L136,12.828554 C139.313708,12.828554 142,15.5148455 142,18.828554 L142,94.828554 C142,98.1422625 139.313708,100.828554 136,100.828554 L7,100.828554 C3.6862915,100.828554 1,98.1422625 1,94.828554 L1,12.828554 L1,12.828554 Z" id="Rectangle" fill="#131313"></path>
                        <g id="Path-17" transform="translate(0.860783, 23.449983)">
                            <mask id="mask-10" fill="white">
                                <use xlink:href="#path-9"></use>
                            </mask>
                            <use id="Mask" fill="#E73D11" xlink:href="#path-9"></use>
                            <path d="M61.2378463,-77 L62.4640539,-74.2620418 L-7.26223762,-43.0356204 L7.89176238,-35.7146204 L99.4914983,-56.2082299 L37.6527624,-21.3386204 L85.9247624,1.98037963 L116.611112,-5.13773676 L117.565985,-2.30881135 L96.5927624,7.13437963 L149.263362,32.5780629 L147.958428,35.2793863 L93.0227624,8.74137963 L-46.7162376,71.6653796 L-46.7162376,74.2813796 L91.9196406,35.795552 L-37.3572376,102.52538 L43.0952663,102.526079 L-49.7153958,140.534382 L-49.7162376,78.2273796 L-80.0033102,86.6357208 L-81.0204219,83.8226461 L-49.7162376,69.7263796 L-49.7162376,36.5293796 L-86,44.9476511 L-49.7162376,24.4863796 L-49.7162376,-19.7516204 L-83.4360116,-12.2071227 L-49.7162376,-27.3096204 L-49.7153958,-63.5429999 L-10.7932376,-44.7416204 L61.2378463,-77 Z M27.8537624,105.52538 L-46.7162376,105.52538 L-46.7162376,136.06338 L27.8537624,105.52538 Z M64.7197624,46.4593796 L-46.7162376,77.3943796 L-46.7162376,103.98038 L64.7197624,46.4593796 Z M-49.7162376,73.0153796 L-61.8652376,78.4863796 L-49.7162376,75.1133796 L-49.7162376,73.0153796 Z M85.5727624,5.14237963 L-46.7162376,35.8333796 L-46.7162376,68.3753796 L89.4987624,7.03937963 L85.5727624,5.14237963 Z M-49.7162376,27.9293796 L-66.3472376,37.3083796 L-49.7162376,33.4493796 L-49.7162376,27.9293796 Z M34.4707624,-19.5436204 L-46.7162376,26.2383796 L-46.7162376,32.7533796 L81.2647624,3.06137963 L34.4707624,-19.5436204 Z M7.52776238,-32.5596204 L-46.7162376,-20.4226204 L-46.7162376,22.7943796 L31.1817624,-21.1326204 L7.52776238,-32.5596204 Z M102.358762,1.24837963 L90.2317624,4.06137963 L93.0687624,5.43137963 L102.358762,1.24837963 Z M-49.7162376,-24.0226204 L-55.0532376,-21.6316204 L-49.7162376,-22.8256204 L-49.7162376,-24.0226204 Z M80.3307624,-48.8476204 L12.2407624,-33.6136204 L34.3637624,-22.9266204 L80.3307624,-48.8476204 Z M-10.8412376,-41.4326204 L-46.7162376,-25.3656204 L-46.7162376,-23.4976204 L3.17776238,-34.6606204 L-10.8412376,-41.4326204 Z M-46.7162376,-58.7626204 L-46.7162376,-28.6526204 L-14.3722376,-43.1386204 L-46.7162376,-58.7626204 Z" fill="#F7AD01" fill-rule="nonzero" mask="url(#mask-10)" transform="translate(31.631681, 31.767191) scale(-1, -1) rotate(47.000000) translate(-31.631681, -31.767191) "></path>
                        </g>
                    </g>
                    <g id="Group-2-Copy-7" transform="translate(197.000000, 0.000000)">
                        <path d="M1,12.828554 L1,0 L39.187725,0 L49.6192072,12.828554 L136,12.828554 C139.313708,12.828554 142,15.5148455 142,18.828554 L142,94.828554 C142,98.1422625 139.313708,100.828554 136,100.828554 L7,100.828554 C3.6862915,100.828554 1,98.1422625 1,94.828554 L1,12.828554 L1,12.828554 Z" id="Rectangle" fill="#DD63B1"></path>
                        <g id="Path-9" transform="translate(0.368901, 23.393778)">
                            <mask id="mask-12" fill="white">
                                <use xlink:href="#path-11"></use>
                            </mask>
                            <use id="Mask" fill="#FFFFFF" xlink:href="#path-11"></use>
                            <path d="M38.5101633,105.871944 C50.5673479,77.7325371 30.1773683,64.9576171 -4.31585045,76.6135104 L-5.20490117,76.9192217 L-5.05207603,77.1969398 C-2.26048965,82.2316683 1.15689603,87.531462 4.80581483,92.4015772 L5.35483986,93.128785 C12.1068918,102.003929 18.9650563,108.565353 24.7398336,111.340956 C31.0107634,114.35503 35.5274202,112.833156 38.5101633,105.871944 Z M72.7740988,74.8892217 L73.1095878,74.3753427 C78.8349545,65.547908 81.4547429,59.2472927 81.0863844,53.0026119 C80.9254965,50.2751224 80.1381943,47.6860626 78.6566705,45.203448 C72.2585882,34.4820723 60.6798322,29.4790225 46.5429184,29.6513799 C35.2695986,29.7888243 23.4441608,33.5339108 19.3753893,37.585574 L18.5210157,38.448761 C18.0064779,38.9756966 17.4533954,39.5539858 16.8078168,40.2381587 L13.2929679,43.9842859 L12.9095845,44.3881684 C3.88584694,53.8688527 -2.70615692,58.2172052 -11.2805101,58.2172052 C-11.7605456,58.2172052 -11.963538,58.5787145 -11.8516972,60.1065958 C-11.7079595,62.0702271 -10.8311824,65.00618 -9.31590676,68.5707632 C-8.65136477,70.1340532 -7.88118381,71.7808773 -7.02226803,73.4814484 L-6.62290117,74.2642217 L-6.11922007,74.0883229 C30.6958773,61.4608329 54.2179847,75.2859836 41.7032162,106.011414 L41.2676892,107.053489 C37.5934527,115.628529 31.2101064,117.779379 23.440229,114.044847 C17.1461538,111.019648 9.98148554,104.164982 2.96725328,94.9452184 C-0.97972861,89.7571609 -4.68573662,84.0479304 -7.69258741,78.6210648 L-8.05890117,77.9542217 L-9.05041956,78.3339614 C-11.4587705,79.2690334 -13.9274719,80.3169925 -16.4509034,81.4806165 L-17.7171539,82.0720801 L-19,79.3601978 C-15.8920667,77.8900012 -12.8505565,76.5900825 -9.8865353,75.4557941 L-9.46490117,75.2962217 L-9.71524937,74.8035992 C-10.471805,73.304498 -11.1623811,71.8440648 -11.7762913,70.4410411 L-12.0768081,69.7444001 C-13.7098551,65.9027678 -14.6710474,62.6841444 -14.843692,60.3256097 C-15.0661914,57.2859986 -13.9045351,55.2172052 -11.2805101,55.2172052 C-3.9048544,55.2172052 2.03987367,51.37691 10.3138087,42.7620266 L11.1151551,41.9210032 L14.905897,37.8829897 C15.8084782,36.9298513 16.5388415,36.1764643 17.2585429,35.4597891 C21.9630011,30.7751122 34.5219758,26.7977163 46.5063451,26.6516028 C61.6209812,26.4673251 74.2172869,31.9100465 81.232825,43.6661035 C82.9627996,46.5650514 83.8921379,49.6212001 84.0811787,52.8259562 C84.498132,59.8944512 81.68268,66.6705458 75.6315333,76.0001542 L75.1542493,76.7255212 C74.3920634,77.8609608 70.5072542,83.6774435 69.5748085,85.2090646 L69.1745724,85.877957 C67.7691349,88.2708941 67.0449426,90.0133794 66.9426467,91.3002336 C66.7291731,93.9856736 70.0949751,95.3224791 79.8729733,94.8540691 C116.765339,93.0867592 134.428251,49.1838764 106.56525,33.921791 C86.8854449,23.1420885 82.9809429,3.90362197 94.7005685,-23.176976 L95.0604909,-24 L97.804572,-22.7875566 C86.3349521,3.17123642 89.6041161,20.8905548 107.460889,30.9870312 L108.006468,31.2906524 C122.230225,39.0817799 126.62778,54.8040343 120.424294,70.2234004 C114.16621,85.7784765 98.8432212,96.9487494 80.0165222,97.8506328 L79.1189613,97.8887739 C68.3614819,98.285768 63.5413634,96.2292182 63.9520807,91.0625047 C64.1047692,89.1417244 65.0321497,86.9572333 66.7797276,84.0344884 L67.0123277,83.6490351 C67.4585666,82.9160499 68.5341997,81.2705329 69.6370576,79.600993 L72.7740988,74.8892217 Z" fill="#F7AD01" fill-rule="nonzero" mask="url(#mask-12)"></path>
                        </g>
                    </g>
                    <g id="Group-2-Copy-6" transform="translate(198.000000, 151.828554)">
                        <path d="M0,12.828554 L0,-9.9475983e-14 L38.187725,-9.9475983e-14 L48.6192072,12.828554 L135,12.828554 C138.313708,12.828554 141,15.5148455 141,18.828554 L141,94.828554 C141,98.1422625 138.313708,100.828554 135,100.828554 L6,100.828554 C2.6862915,100.828554 4.05812251e-16,98.1422625 0,94.828554 L0,12.828554 L0,12.828554 Z" id="Rectangle" fill="#7C00D9"></path>
                        <rect id="Rectangle-Copy-3" fill="#E73D11" x="0" y="23.828554" width="141" height="88" rx="6"></rect>
                    </g>
                    <g id="Group-2-Copy-5" transform="translate(198.000000, 303.828554)">
                        <path d="M0,12.828554 L0,0 L38.187725,0 L48.6192072,12.828554 L135,12.828554 C138.313708,12.828554 141,15.5148455 141,18.828554 L141,94.828554 C141,98.1422625 138.313708,100.828554 135,100.828554 L6,100.828554 C2.6862915,100.828554 4.05812251e-16,98.1422625 0,94.828554 L0,12.828554 L0,12.828554 Z" id="Rectangle" fill="#E73D11"></path>
                        <g id="Path-17" transform="translate(0.000000, 23.000000)">
                            <mask id="mask-14" fill="white">
                                <use xlink:href="#path-13"></use>
                            </mask>
                            <use id="Mask" fill="#FFFFFF" xlink:href="#path-13"></use>
                            <path d="M123.237846,-27 L124.464054,-24.2620418 L54.7377624,6.96437963 L69.8917624,14.2853796 L161.491498,-6.20822991 L99.6527624,28.6613796 L147.924762,51.9803796 L178.611112,44.8622632 L179.565985,47.6911887 L158.592762,57.1343796 L211.263362,82.5780629 L209.958428,85.2793863 L155.022762,58.7413796 L15.2837624,121.66538 L15.2837624,124.28138 L153.919641,85.795552 L24.6427624,152.52538 L105.095266,152.526079 L12.2846042,190.534382 L12.2837624,128.22738 L-18.0033102,136.635721 L-19.0204219,133.822646 L12.2837624,119.72638 L12.2837624,86.5293796 L-24,94.9476511 L12.2837624,74.4863796 L12.2837624,30.2483796 L-21.4360116,37.7928773 L12.2837624,22.6903796 L12.2846042,-13.5429999 L51.2067624,5.25837963 L123.237846,-27 Z M89.8537624,155.52538 L15.2837624,155.52538 L15.2837624,186.06338 L89.8537624,155.52538 Z M126.719762,96.4593796 L15.2837624,127.39438 L15.2837624,153.98038 L126.719762,96.4593796 Z M12.2837624,123.01538 L0.134762381,128.48638 L12.2837624,125.11338 L12.2837624,123.01538 Z M147.572762,55.1423796 L15.2837624,85.8333796 L15.2837624,118.37538 L151.498762,57.0393796 L147.572762,55.1423796 Z M12.2837624,77.9293796 L-4.34723762,87.3083796 L12.2837624,83.4493796 L12.2837624,77.9293796 Z M96.4707624,30.4563796 L15.2837624,76.2383796 L15.2837624,82.7533796 L143.264762,53.0613796 L96.4707624,30.4563796 Z M69.5277624,17.4403796 L15.2837624,29.5773796 L15.2837624,72.7943796 L93.1817624,28.8673796 L69.5277624,17.4403796 Z M164.358762,51.2483796 L152.231762,54.0613796 L155.068762,55.4313796 L164.358762,51.2483796 Z M12.2837624,25.9773796 L6.94676238,28.3683796 L12.2837624,27.1743796 L12.2837624,25.9773796 Z M142.330762,1.15237963 L74.2407624,16.3863796 L96.3637624,27.0733796 L142.330762,1.15237963 Z M51.1587624,8.56737963 L15.2837624,24.6343796 L15.2837624,26.5023796 L65.1777624,15.3393796 L51.1587624,8.56737963 Z M15.2837624,-8.76262037 L15.2837624,21.3473796 L47.6277624,6.86137963 L15.2837624,-8.76262037 Z" fill="#F7AD01" fill-rule="nonzero" mask="url(#mask-14)"></path>
                        </g>
                    </g>
                    <g id="Group-2-Copy-4" transform="translate(198.000000, 455.828554)">
                        <path d="M0,12.828554 L0,-9.9475983e-14 L38.187725,-9.9475983e-14 L48.6192072,12.828554 L135,12.828554 C138.313708,12.828554 141,15.5148455 141,18.828554 L141,94.828554 C141,98.1422625 138.313708,100.828554 135,100.828554 L6,100.828554 C2.6862915,100.828554 4.05812251e-16,98.1422625 0,94.828554 L0,12.828554 L0,12.828554 Z" id="Rectangle" fill="#FFFFFF"></path>
                        <rect id="Rectangle-Copy-3" fill="#DD63B1" x="0" y="23.828554" width="141" height="88" rx="6"></rect>
                    </g>
                    <g id="Group-2-Copy-8" transform="translate(395.000000, 455.828554)">
                        <path d="M0,12.828554 L0,0 L38.187725,0 L48.6192072,12.828554 L135,12.828554 C138.313708,12.828554 141,15.5148455 141,18.828554 L141,94.828554 C141,98.1422625 138.313708,100.828554 135,100.828554 L6,100.828554 C2.6862915,100.828554 4.05812251e-16,98.1422625 0,94.828554 L0,12.828554 L0,12.828554 Z" id="Rectangle" fill="#FFFFFF"></path>
                        <g id="Combined-Shape" transform="translate(0.000000, 23.000000)">
                            <mask id="mask-16" fill="white">
                                <use xlink:href="#path-15"></use>
                            </mask>
                            <use id="Mask" fill="#E73D11" xlink:href="#path-15"></use>
                            <path d="M274.103579,38 L275.017474,40.8574108 L-146.086105,175.540311 L-147,172.6829 L274.103579,38 Z M274.103579,14 L275.017474,16.8574108 L-146.086105,151.540311 L-147,148.6829 L274.103579,14 Z M274.103579,-10 L275.017474,-7.14258923 L-146.086105,127.540311 L-147,124.6829 L274.103579,-10 Z M274.103579,-34 L275.017474,-31.1425892 L-146.086105,103.540311 L-147,100.6829 L274.103579,-34 Z M274.103579,-58 L275.017474,-55.1425892 L-146.086105,79.540311 L-147,76.6829003 L274.103579,-58 Z M274.103579,-82 L275.017474,-79.1425892 L-146.086105,55.540311 L-147,52.6829003 L274.103579,-82 Z M274.103579,-106 L275.017474,-103.142589 L-146.086105,31.540311 L-147,28.6829003 L274.103579,-106 Z M274.103579,-130 L275.017474,-127.142589 L-146.086105,7.54031104 L-147,4.68290027 L274.103579,-130 Z M274.103579,-154 L275.017474,-151.142589 L-146.086105,-16.459689 L-147,-19.3170997 L274.103579,-154 Z" fill="#F7AD01" fill-rule="nonzero" mask="url(#mask-16)" transform="translate(64.008737, 10.770156) scale(-1, 1) rotate(-22.000000) translate(-64.008737, -10.770156) "></path>
                        </g>
                    </g>
                    <g id="Path-10" transform="translate(233.889460, 250.028672)">
                        <mask id="mask-18" fill="white">
                            <use xlink:href="#path-17"></use>
                        </mask>
                        <use id="Mask" fill="#E73D11" xlink:href="#path-17"></use>
                        <path d="M209.456587,13.2278151 C206.849678,12.7704915 203.214895,12.5880178 198.793351,12.6891815 C193.827499,12.8027988 188.030751,13.2690846 181.856522,14.0393172 L180.81754,14.1708817 L180.81625,14.1825425 C178.752193,27.9931016 182.245772,35.8669569 191.105971,38.2610832 L191.428556,38.3452324 C198.878621,40.2199967 205.310158,37.3428272 209.693732,31.159942 C213.502588,25.7876776 214.954515,18.761132 213.311211,14.7154389 C213.126984,14.2618875 211.814557,13.6414681 209.456587,13.2278151 Z M134.850496,175.9404 L133.291423,174.384206 C130.707355,171.779926 128.854675,169.76961 127.320161,167.863489 L127.103064,167.591841 C122.20769,161.421 121.035436,156.443449 124.427579,151.902217 C133.383066,139.913058 152.476245,136.984917 161.535931,148.414982 L161.807375,148.765748 L159.413706,150.574158 C151.820342,140.523339 134.792139,143.039672 126.831075,153.697546 C124.452964,156.881242 125.304702,160.497837 129.453324,165.727363 L129.870829,166.245815 C131.506716,168.247767 133.565321,170.434739 136.564356,173.414957 L143.116717,179.849216 C144.336338,181.054641 145.378312,182.099353 146.406251,183.149952 C149.77112,186.588999 152.570668,189.683357 155.073705,192.799339 C162.845315,202.474066 147.373006,223.523663 122.887111,240.571069 C96.6974542,258.804497 71.2724132,264.867852 59.2971143,251.811469 C47.6528107,239.115962 45.5436794,222.066736 51.2381751,205.187285 C56.0371987,190.962166 65.8623494,179.455027 73.3711659,179.455027 C77.7761698,179.455027 81.0594547,183.80606 85.6471485,193.527637 L86.4897102,195.338801 L89.560379,202.119988 C93.7595918,211.303024 96.35079,215.756364 99.4165017,218.306199 C103.172942,221.430531 106.971491,220.22018 111.976226,212.949389 C117.769647,204.532807 116.9289,193.592174 110.667839,179.289642 L110.424359,178.737885 C108.242907,173.833293 105.593044,168.820458 101.836985,162.295814 L95.2519848,150.995947 C94.8751976,150.344901 94.5605269,149.798235 94.3417824,149.413238 C91.8343027,145 90.0920987,141.632694 88.8354627,138.658379 C85.6135123,131.032386 85.6761679,125.86925 90.133444,123.034209 C95.3886773,119.691628 100.777608,119.227134 113.885997,119.835567 L115.843471,119.928417 C125.828947,120.394454 130.928276,120.102958 135.582222,118.260379 C141.450868,115.936879 145.011289,111.142938 146.287573,102.686831 C147.288017,96.0583211 145.836572,89.9118133 142.185444,83.7766097 C139.4185,79.1271523 135.739911,74.8737374 129.946365,69.2462297 L128.947892,68.2838604 C128.731253,68.0849207 124.006823,63.6114535 121.464297,61.148892 L120.27738,59.9862522 C117.209111,56.9139973 115.014715,54.3749926 113.396694,51.9023433 C109.923424,46.5945137 109.25279,41.6353392 111.883078,36.6142059 C116.868734,27.0967569 138.324437,18.6999149 166.196303,13.4595596 C169.795331,12.7828848 173.32107,12.1910932 176.729587,11.6886703 L178.23454,11.4708817 L178.258918,11.3359312 C178.605092,9.43971575 179.041511,7.45871745 179.56784,5.39373554 L179.728436,4.77172226 L179.940443,3.9608774 L180.742096,3.71639977 C199.410736,-1.97692007 214.808089,-3.4277093 226.951844,-0.590139657 C236.332095,1.60169591 241.331611,10.2146994 240.333878,21.1672489 C239.323357,32.2601789 232.425277,43.9064723 221.1252,52.3269992 C211.412309,59.5647963 218.65435,87.8878572 236.8677,119.782259 C254.543195,150.734796 275.740949,172.928722 285.648204,169.71879 C316.684933,159.662945 342.983114,157.287728 351.376014,167.575326 C354.180091,171.012424 355.535897,175.239922 357.226113,184.121339 L358.616455,191.517795 C359.271635,194.90667 359.586131,196.207737 360.260189,198.719494 C363.19061,209.639187 367.842777,217.444323 375.985252,223.115979 C387.062771,230.832046 412.793818,238.015865 437.313227,239.878949 L438.055852,239.933772 C467.077441,242.013357 489.547216,236.646492 498.661309,223.492528 C507.3518,210.949929 489.043518,185.707283 454.266647,157.961303 C423.900978,133.734705 388.449131,113.986488 377.434929,115.049339 L373.932849,115.380168 C358.646353,116.788819 351.173397,116.951599 343.148264,115.590573 C331.469104,113.609842 323.615402,108.127613 319.810484,98.0275017 C317.375881,91.5648755 320.374972,83.8732125 327.861003,73.7224687 L328.209694,73.2522223 C329.86889,71.0265671 331.679812,68.7527575 334.004559,65.9472559 L341.58028,56.8439175 C347.283155,49.9367069 347.741944,49.071893 349.151881,46.0517337 C351.321367,41.404582 349.986427,39.3823039 343.095418,38.805016 C329.516009,37.6674137 313.695921,49.4822178 304.262236,67.132155 C294.227369,85.9068712 293.915434,106.153839 305.278878,120.266515 C312.814588,129.625391 322.255507,134.524556 333.862692,136.165471 C340.654314,137.125608 346.826673,137.00503 357.001436,136.078853 L362.924005,135.528628 C368.153828,135.059188 369.965114,134.989026 372.592467,135.103778 C377.187889,135.304487 380.320067,136.410419 382.20719,138.892269 L382.433017,139.19748 C385.53787,143.511846 386.275027,149.627394 386.494752,165.330286 L386.608075,173.950455 L386.636438,175.234178 C387.042833,191.734254 388.934131,200.916457 394.113932,205.886991 C402.521845,213.955218 420.298163,209.850645 447.383359,192.983427 L448.206972,192.468392 L449.80228,195.00906 C421.162114,212.992469 401.9274,217.542611 392.036788,208.051586 C385.987298,202.246499 384.011976,192.391953 383.622061,174.65393 L383.552526,170.353331 L383.502802,165.960541 C383.299121,150.527455 382.592696,144.47767 379.916711,140.838574 L379.819128,140.708078 C377.637587,137.839023 373.904239,137.549885 360.655264,138.752409 L357.25557,139.068135 C346.871898,140.012991 340.519885,140.136433 333.442755,139.135935 C321.117656,137.393527 310.98329,132.134513 302.942203,122.147992 C290.731396,106.982943 291.062943,85.4630725 301.616447,65.7180117 C311.557382,47.1190379 328.372516,34.5611099 343.345863,35.815488 C352.115236,36.5501341 354.889834,40.5881961 351.989296,47.0605895 L351.364586,48.3929571 C350.136174,50.9464857 349.192718,52.3421153 343.831795,58.8301101 L336.318421,67.8567319 C334.165645,70.4546301 332.464326,72.5841683 330.921445,74.6358525 L330.614895,75.045267 C323.451699,84.6540202 320.633628,91.7027223 322.617881,96.9698983 C325.957486,105.834842 332.731297,110.66535 343.150956,112.545503 L343.649887,112.632808 C351.905987,114.033005 359.733338,113.743575 377.146773,112.06321 C389.259036,110.894398 425.124334,130.872925 456.137626,155.616215 C492.26666,184.440989 511.241845,210.603132 501.127227,225.201108 C491.231138,239.483692 467.823677,245.074522 437.841432,242.9261 C412.609559,241.118072 385.974199,233.729843 374.270566,225.577656 C365.628265,219.557845 360.641327,211.342473 357.530539,200.112598 L356.976205,198.034205 C356.492311,196.160609 356.169661,194.691479 355.576351,191.596063 L354.283871,184.708105 C352.688136,176.323425 351.430161,172.38745 349.051462,169.471759 C341.843259,160.636303 316.290838,162.944165 286.572876,172.572731 C274.558652,176.465318 252.732177,153.613125 234.262547,121.269936 C215.235583,87.9507687 207.723646,58.572162 219.332639,49.9214387 C240.852473,33.8854106 243.363078,6.3254006 226.269237,2.33116948 C215.073903,-0.284787209 200.75022,0.950124324 183.314271,6.07756882 L182.42254,6.34188173 L182.335992,6.68515556 C182.003336,8.01990409 181.710438,9.31187785 181.457186,10.561351 L181.35854,11.0518817 L181.748956,11.0026235 C200.024991,8.70757089 213.980568,9.25622213 216.018195,13.4243607 L216.090672,13.5864601 C218.162368,18.6868212 216.495591,26.7531248 212.141053,32.8950561 C207.082455,40.0300397 199.431593,43.4526781 190.696448,41.254531 C180.133375,38.5963966 175.853243,29.7444412 177.6712,15.1408996 L177.74154,14.5888817 L176.91197,14.7096545 C173.908101,15.1486795 170.846305,15.6530262 167.774776,16.2175164 L166.750638,16.4079002 C139.848719,21.4658901 118.913117,29.6591867 114.540536,38.0062981 C112.466828,41.9649358 112.984592,45.7936676 115.907004,50.2596788 C117.321075,52.4206536 119.268396,54.6987752 121.986544,57.4500284 L122.739842,58.2030434 C123.253234,58.7080234 123.99648,59.4260741 124.829941,60.2259841 L130.98554,66.0798817 L131.520459,66.5946369 C137.608247,72.4677115 141.519813,76.9150018 144.502653,81.8093386 L144.763466,82.2423997 C148.750915,88.9427428 150.364576,95.7761944 149.253976,103.134551 C147.823526,112.612094 143.585592,118.318274 136.68657,121.049718 C131.891171,122.948301 126.926881,123.354679 117.977135,123.021204 L114.334354,122.860074 L113.18682,122.806857 C101.168719,122.270044 96.1949633,122.734212 91.7435016,125.565555 C88.9267255,127.357159 88.8817952,131.059645 91.5989404,137.490821 L91.9098069,138.211268 C92.9813043,140.645087 94.4106972,143.414013 96.3521956,146.872606 L97.4609498,148.822387 C99.2814582,151.981108 103.472786,159.129985 104.027431,160.089281 L104.842323,161.504879 C108.300401,167.539986 110.82126,172.315585 112.924587,176.980834 L113.165455,177.518708 C120.027843,192.947526 121.049672,205.058693 114.447389,214.650375 C108.549918,223.218118 102.824216,225.042528 97.498136,220.612684 C93.8940323,217.615054 91.1546276,212.866036 86.6172478,202.896909 L84.0932049,197.31111 C83.7544544,196.56853 83.4495131,195.9075 83.15295,195.27375 L82.7378164,194.394659 C78.8313108,186.199725 75.9773955,182.455027 73.3711659,182.455027 C67.523406,182.455027 58.5132493,193.007651 54.0807702,206.146271 C48.7098647,222.066545 50.6779927,237.975967 61.5079906,249.783656 C72.0661536,261.294969 96.1035202,255.562697 121.172987,238.109001 C144.238453,222.050517 158.80441,202.233983 152.734857,194.678112 C150.46253,191.849337 147.92711,189.025778 144.914802,185.918348 L144.261931,185.24802 C143.043083,184.002303 141.801306,182.762021 140.256315,181.241873 L134.850496,175.9404 Z" fill="#F7AD01" fill-rule="nonzero" mask="url(#mask-18)"></path>
                    </g>
                    <ellipse id="Oval" fill="#7C00D9" transform="translate(261.633740, 488.454396) rotate(-50.000000) translate(-261.633740, -488.454396) " cx="261.63374" cy="488.454396" rx="8.5" ry="35.5"></ellipse>
                    <ellipse id="Oval-Copy-2" fill="#7C00D9" transform="translate(662.500000, 488.328554) scale(-1, 1) rotate(-50.000000) translate(-662.500000, -488.328554) " cx="662.5" cy="488.328554" rx="8.5" ry="35.5"></ellipse>
                    <path d="M755.214712,444.597325 L754.637661,504.35317 L651.842977,504.35317 L695.929786,487.2874 L705.112219,492.553287 L701.820054,484.951484 L705.112219,483.293118 L718.229094,490.797991 L711.522071,483.293118 L716.060504,481.075246 L727.432017,487.2874 L721.350752,478.040358 L730.621108,475.163479 L730.623374,447.123193 C733.897869,446.003372 737.681167,445.223033 741.97327,444.782175 C746.265373,444.341318 750.679187,444.279701 755.214712,444.597325 Z" id="Path-21-Copy" fill="#131313" transform="translate(703.528844, 474.375490) scale(-1, 1) rotate(47.000000) translate(-703.528844, -474.375490) "></path>
                    <path d="M267.371735,440.028068 L266.794684,499.783913 L164,499.783913 L208.086809,482.718143 L217.269242,487.98403 L213.977076,480.382227 L217.269242,478.723861 L230.386116,486.228734 L223.679094,478.723861 L228.217527,476.505989 L239.58904,482.718143 L233.507775,473.471101 L242.778131,470.594222 L242.780397,442.553936 C246.054891,441.434116 249.83819,440.653776 254.130293,440.212919 C258.422396,439.772061 262.83621,439.710444 267.371735,440.028068 Z" id="Path-21-Copy-2" fill="#131313" transform="translate(215.685867, 469.806233) rotate(47.000000) translate(-215.685867, -469.806233) "></path>
                    <path d="M508.924723,188.369543 C509.51382,187.787086 510.463552,187.792467 511.04601,188.381564 L513.59043,190.961166 C554.725546,232.76711 575.099252,258.529181 575.099252,269.214711 C575.099252,279.944974 561.362804,305.621284 533.752132,346.861713 C533.291252,347.550103 532.359584,347.734536 531.671194,347.273656 C530.982804,346.812775 530.798371,345.881108 531.259252,345.192718 L533.669007,341.579569 C559.247256,303.076643 572.099252,278.766991 572.099252,269.214711 C572.099252,259.540339 550.89976,232.956454 508.912703,190.490829 C508.330245,189.901733 508.335627,188.952001 508.924723,188.369543 Z" id="Path-8" fill="#131313" fill-rule="nonzero"></path>
                    <path d="M507.789151,241.157313 C508.449947,240.743461 509.308747,240.907528 509.774092,241.513605 L509.856589,241.632391 L531.894167,276.819693 L507.59399,316.5002 C507.161346,317.206677 506.237906,317.428663 505.531428,316.996019 C504.866508,316.588825 504.630757,315.746877 504.96602,315.060238 L505.035608,314.933457 L528.365,276.836554 L507.314074,243.224752 C506.900221,242.563955 507.064289,241.705155 507.670365,241.23981 L507.789151,241.157313 Z" id="Path-7" fill="#131313" fill-rule="nonzero"></path>
                    <path d="M398,298.544758 L435.611341,298.544758 L448.126,310.827758 L536,310.828554 C537.104569,310.828554 538,311.723985 538,312.828554 L538,409.828554 C538,410.933124 537.104569,411.828554 536,411.828554 L400,411.828554 C398.895431,411.828554 398,410.933124 398,409.828554 L398,298.544758 Z" id="Combined-Shape" fill="#7C00D9"></path>
                    <path d="M404.987955,229.70085 C405.730034,229.332598 406.630136,229.635644 406.998388,230.377723 C407.344979,231.07615 407.096925,231.914556 406.447866,232.31779 L406.321516,232.388157 L367.298,251.752554 L383.827195,278.527375 C384.236751,279.190842 384.067115,280.04856 383.458032,280.509963 L383.338714,280.591687 C382.675246,281.001244 381.817528,280.831607 381.356126,280.222524 L381.274401,280.103206 L363.017888,250.528268 L404.987955,229.70085 Z" id="Path-3" fill="#131313" fill-rule="nonzero"></path>
                    <circle id="Oval" fill="#FFFFFF" cx="394.5" cy="304.328554" r="27.5"></circle>
                    <path d="M413.569111,183.91072 C414.397538,183.91072 415.069111,184.582293 415.069111,185.41072 C415.069111,186.239147 414.397538,186.91072 413.569111,186.91072 C409.001984,186.91072 393.728272,193.780322 372.947987,204.791112 L371.004271,205.824535 C353.834175,214.983961 334.480655,226.172286 329.107636,229.908909 C320.670415,235.776507 320.146378,247.15893 326.949314,261.634127 C332.342498,273.109674 355.977228,305.366056 362.362362,311.626219 C364.054867,313.285598 371.64451,316.077809 380.411074,318.349437 L380.873533,318.468507 C385.059321,319.539314 389.027584,320.363519 391.980055,320.769158 L392.704199,320.862663 C393.402692,320.946687 394.023108,321.002206 394.555362,321.028628 L394.945,321.041554 L394.800779,320.909797 C394.062793,320.248359 392.979149,319.436903 391.559154,318.48804 L391.225496,318.266638 C387.509353,315.81748 381.729751,312.545144 373.901055,308.460675 C372.350596,307.651754 373.203154,305.294674 374.912338,305.664768 L377.75866,306.274114 C385.616378,307.936041 391.715369,309.049247 396.045152,309.613071 L396.4226,309.661394 C398.500144,309.922707 400.135808,310.048977 401.311914,310.043364 L401.496,310.040554 L401.306057,309.899031 C400.304743,309.163702 398.832168,308.246176 396.898318,307.155962 L396.100201,306.710689 C391.0888,303.942427 383.405699,300.186854 373.06246,295.451177 C371.585679,294.775029 372.087028,292.561399 373.711028,292.587526 L375.869944,292.617929 C383.856335,292.713715 389.921168,292.5934 394.050662,292.259022 L394.845506,292.189754 C396.3819,292.045761 397.597847,291.869319 398.481178,291.665793 L398.738,291.602554 L398.574659,291.501289 C397.619325,290.924769 396.166814,290.234662 394.231849,289.443092 L393.838427,289.283429 C389.487209,287.53129 382.92347,285.327544 374.160872,282.678792 C373.367882,282.439088 372.919355,281.601923 373.159059,280.808933 C373.398764,280.015943 374.235928,279.567417 375.028918,279.807121 L378.392892,280.833061 C395.33296,286.050024 402.5,289.102429 402.5,291.875706 C402.5,294.751647 396.595395,295.660499 382.123081,295.663856 L380.655,295.660554 L383.672724,297.086703 C389.304278,299.767234 393.812167,302.034825 397.199567,303.891455 L398.235373,304.464991 C403.915251,307.639321 406.056251,309.352969 405.41892,311.296049 C404.642568,313.662974 399.129998,313.510624 386.583902,311.128992 L384.479,310.721554 L385.455412,311.266297 C395.393199,316.843671 399.414201,320.125428 398.629368,322.481638 L398.596242,322.573278 C397.640036,325.024322 391.152049,324.170916 380.604982,321.4959 L379.129259,321.115644 C370.010554,318.723317 362.448444,315.911943 360.262109,313.768399 C353.632051,307.268106 329.786195,274.723582 324.234213,262.910148 C316.884095,247.270664 317.479339,234.341573 327.394791,227.445951 L327.944241,227.070332 C334.025332,222.974904 352.460597,212.333875 369.057532,203.463135 L372.915956,201.414188 C393.652694,190.474197 408.374594,183.91072 413.569111,183.91072 Z" id="Path-6" fill="#131313" fill-rule="nonzero"></path>
                    <path d="M435.867746,336.828554 L559.692254,336.828554 C563.005962,336.828554 565.692254,339.514846 565.692254,342.828554 C565.692254,343.683026 565.509746,344.527643 565.156945,345.305881 L536.596945,408.305881 C535.624576,410.450813 533.487299,411.828554 531.132254,411.828554 L407.307746,411.828554 C403.994038,411.828554 401.307746,409.142263 401.307746,405.828554 C401.307746,404.974082 401.490254,404.129465 401.843055,403.351227 L430.403055,340.351227 C431.375424,338.206295 433.512701,336.828554 435.867746,336.828554 Z" id="Rectangle" fill="#DD63B1"></path>
                    <rect id="Rectangle" fill="#131313" x="401" y="178.828554" width="119" height="59" rx="29.5"></rect>
                    <g id="Group" transform="translate(464.925558, 158.236881) scale(-1, 1) rotate(-13.000000) translate(-464.925558, -158.236881) translate(432.425558, 126.236881)">
                        <circle id="Oval" fill="#DD63B1" cx="27.6692658" cy="38" r="26"></circle>
                        <path d="M56.6692658,23 L47.1692658,31.5 L37.6692658,36 L33.1692658,20.5 C27.1692658,24.1666667 20.0025991,25.5 11.6692658,24.5 C-0.830734231,23 -2.33073423,8 2.66926577,3.5 C7.66926577,-1 15.1692658,3.5 16.6692658,3.5 C18.1692658,3.5 19.1692658,0 23.6692658,0 C26.6692658,0 28.8359324,1.66666667 30.1692658,5 C40.8359324,3 47.5025991,3.5 50.1692658,6.5 C52.8359324,9.5 55.0025991,15 56.6692658,23 Z" id="Path-4" fill="#131313"></path>
                        <circle id="Oval" fill="#DD63B1" cx="55.1692658" cy="32.5" r="9.5"></circle>
                        <ellipse id="Oval" fill="#131313" cx="29.6692658" cy="40.5" rx="3" ry="4.5"></ellipse>
                        <ellipse id="Oval-Copy" fill="#131313" cx="17.6692658" cy="40.5" rx="3" ry="4.5"></ellipse>
                        <path d="M21.8336648,44.0136061 C22.3784351,44.1044011 22.7464547,44.6196287 22.6556597,45.164399 C21.9270201,49.5362363 19.824549,52.2121087 16.3861962,52.9761871 C15.847063,53.0959944 15.3128861,52.7560637 15.1930787,52.2169305 C15.0732713,51.6777972 15.4132021,51.1436203 15.9523353,51.0238129 C18.5139825,50.454558 20.0781781,48.4637637 20.6828718,44.835601 C20.7671815,44.3297429 21.217456,43.9762871 21.7175244,44.0010699 L21.8336648,44.0136061 Z" id="Path-5" fill="#131313" fill-rule="nonzero"></path>
                    </g>
                </g>
            </g>
        </g>
    </g>
</svg>