<?xml version="1.0" encoding="UTF-8"?>
<svg width="839px" height="747px" viewBox="0 0 839 747" version="1.1" xmlns="http://www.w3.org/2000/svg" xmlns:xlink="http://www.w3.org/1999/xlink">
    <title>illustration-9</title>
    <defs>
        <rect id="path-1" x="23.1473975" y="27.2407325" width="137" height="123"></rect>
        <polygon id="path-3" points="118.5 31 206 206 31 206"></polygon>
        <circle id="path-5" cx="79.5" cy="79.5" r="79.5"></circle>
        <circle id="path-7" cx="33" cy="33" r="33"></circle>
        <path d="M0,236.293669 L193.424278,25.6186293 C209.925411,8.85689895 228.256068,0.476033788 248.41625,0.476033788 C268.576433,0.476033788 289.102275,9.94087875 309.993777,28.8705687 L500,236.934332 L441.322389,283.776662 L250,82.8203561 L58.5296433,285.476034 L0,236.293669 Z" id="path-9"></path>
        <circle id="path-11" cx="111" cy="111" r="111"></circle>
        <circle id="path-13" cx="111" cy="111" r="111"></circle>
        <circle id="path-15" cx="81" cy="81" r="81"></circle>
    </defs>
    <g id="Desktop" stroke="none" stroke-width="1" fill="none" fill-rule="evenodd">
        <g id="Artboard" transform="translate(-689.000000, -6734.000000)">
            <g id="illustration-9" transform="translate(689.000000, 6734.000000)">
                <g id="Path-15" transform="translate(423.000000, 477.000000)">
                    <mask id="mask-2" fill="white">
                        <use xlink:href="#path-1"></use>
                    </mask>
                    <use id="Mask" fill="#FFFFFF" transform="translate(91.647397, 88.740732) rotate(-32.000000) translate(-91.647397, -88.740732) " xlink:href="#path-1"></use>
                    <path d="M80.5572318,-12 C84.2006453,49.7437103 99.4737345,75.8193856 126.051017,67.6362066 C134.447145,65.0510283 138.926694,61.2857872 140.449772,56.3277319 C141.674438,52.3410946 141.085298,47.6449113 138.914402,41.1733196 L138.534144,40.0661797 C138.127747,38.9072238 137.684539,37.7148363 137.064722,36.0975059 L136.008272,33.3450505 C132.830569,25.0027667 132.007164,21.9582641 132.230953,18.0578722 C132.568367,12.1771106 136.517665,8.42457676 144.683117,6.82457895 C161.802707,3.47004227 174.09505,22.4310094 174.926583,48.7022604 C175.789345,75.9601312 164.27466,101.21731 142.889443,111.714751 L142.238388,112.028325 C120.93879,122.091743 107.611672,142.571153 105.203143,165.884626 C102.921588,187.969045 111.009847,208.411393 126.56512,218.09629 L127.038775,218.386469 C135.650544,223.57719 137.834898,230.366314 133.94794,237.397573 C130.71325,243.248922 123.343557,248.950276 114.097411,253.156202 C105.062763,257.265921 95.3135121,259.441358 87.8183389,258.842734 C79.007339,258.139017 73.669376,253.666752 73.669376,245.661325 L73.6752951,244.591592 C73.7959305,233.780971 75.7888784,222.949288 82.2431252,194.809022 L84.9340314,183.126394 L85.3454406,181.321533 C91.9800461,152.103963 94.448046,135.65433 93.0749116,122.925725 C91.167648,105.245877 84.0002847,86.3978532 72.8339539,72.8026031 C59.1270164,56.1141092 40.4091308,48.0233805 16.9552683,51.0079504 C-15.4034789,55.1256919 -32.2677361,61.9468247 -33.8732649,70.7854402 L-33.9006952,70.9523503 L-33.3052984,71.0561735 C29.8141271,82.1938172 60.6757176,105.622055 58.609724,141.443005 L58.536193,142.543436 C57.6222524,154.584602 54.1770674,163.306933 48.4097064,169.375668 C43.7971309,174.229273 38.0013879,177.202069 30.3629752,179.246369 L28.367751,179.757746 C26.9707796,180.101933 25.8154824,180.344241 23.0753432,180.868537 L18.3971648,181.756446 C12.1665814,182.961754 9.11299955,183.883426 6.71136505,185.498839 C3.73924315,187.497979 2.51807299,190.439366 3.07964162,195.241312 C4.52103585,207.566605 13.2066705,210.450372 30.0949597,207.553038 L30.6092378,207.463474 C32.6832404,207.096963 34.7712804,206.672936 37.4961661,206.076638 L43.8847462,204.673991 C52.3050876,202.859933 54.399814,202.658493 57.3126124,203.195824 C70.2491501,205.582258 69.9084306,228.398544 58.5631771,243.157923 L58.2160155,243.602681 L55.8649748,241.739188 C66.3863288,228.465124 66.8084519,207.998162 56.7683779,206.146045 L56.3118179,206.069968 C53.991841,205.727401 51.5605303,206.074749 43.3174043,207.8673 L37.5884493,209.126979 C35.0900412,209.669429 33.1093706,210.068141 31.1313,210.4177 C22.7459204,211.89954 16.4049647,212.053796 11.3233309,210.43604 C4.91105226,208.394668 1.03088659,203.550186 0.099948135,195.589775 C-0.587376348,189.712497 1.09450961,185.661401 5.03700056,183.009561 L5.44693322,182.742201 C8.13549103,181.043168 11.3313458,180.084431 17.3384515,178.906182 L24.3330196,177.568503 C26.3925302,177.160735 27.2853418,176.944686 28.9907424,176.505073 C36.4408277,174.584613 41.9421178,171.826319 46.2350773,167.309031 C51.4928287,161.776536 54.6802499,153.706797 55.5447973,142.316385 C58.1629344,107.822428 28.5948005,85.0173231 -33.8500659,74.0063452 L-35.7523986,73.6762893 L-37,73.4633242 L-37,72.1976768 C-37,60.3540366 -19.0494851,52.5654641 16.5765638,48.0319492 C41.0890434,44.9126673 60.8105632,53.4372128 75.1522327,70.8985067 C86.7143304,84.9756114 94.0910041,104.374059 96.0576061,122.603958 L96.1397619,123.415286 C97.3758979,136.468104 94.8489321,153.017779 88.2746336,181.969751 L84.5592033,198.13791 C78.4493075,224.922945 76.669376,235.138076 76.669376,245.661325 C76.669376,251.912548 80.6672253,255.262035 88.0571823,255.852256 C94.9901947,256.405982 104.250335,254.339685 112.855236,250.425451 C121.568609,246.461874 128.453755,241.135376 131.322415,235.946153 C134.347363,230.474216 132.822815,225.503417 125.827356,221.162082 L125.4901,220.955828 C108.539037,210.73862 99.8032735,188.959723 102.219026,165.576335 C104.706052,141.503051 118.387568,120.27653 140.290578,109.635059 L140.956819,109.315838 C161.534571,99.5934699 172.765161,75.2435445 171.928085,48.7971683 C171.1466,24.1071342 159.980932,6.88406474 145.259989,9.76859309 C138.341658,11.1242209 135.477569,13.8456136 135.226027,18.2297173 L135.208982,18.5966871 C135.099452,21.7057254 135.904901,24.6143649 138.668298,31.8990664 L140.168713,35.8168996 C140.694686,37.2013273 141.091729,38.2840269 141.469551,39.3727681 L141.572199,39.6700785 C144.078082,46.9652175 144.807827,52.3572788 143.317512,57.2086804 C141.46983,63.2234144 136.204902,67.6487981 126.933822,70.5033752 C97.9467919,79.4285185 81.6336266,52.1612718 77.6785109,-9.93103805 L77.5624412,-11.8232814 L80.5572318,-12 Z" fill="#F7AD01" fill-rule="nonzero" mask="url(#mask-2)"></path>
                </g>
                <circle id="Oval" fill="#DD63B1" cx="227" cy="207" r="39"></circle>
                <circle id="Oval-Copy" fill="#E73D11" cx="386" cy="682" r="24"></circle>
                <circle id="Oval" fill="#FFFFFF" cx="586" cy="168" r="20"></circle>
                <rect id="Rectangle" fill="#7C00D9" transform="translate(217.500000, 70.500000) rotate(68.000000) translate(-217.500000, -70.500000) " x="164" y="17" width="107" height="107"></rect>
                <polygon id="Triangle" fill="#DD63B1" transform="translate(562.000000, 71.000000) rotate(-24.000000) translate(-562.000000, -71.000000) " points="562 24 609 118 515 118"></polygon>
                <polygon id="Triangle-Copy" fill="#E73D11" transform="translate(637.000000, 257.000000) rotate(22.000000) translate(-637.000000, -257.000000) " points="637 210 684 304 590 304"></polygon>
                <g id="Path-17" transform="translate(0.000000, 510.000000)">
                    <mask id="mask-4" fill="white">
                        <use xlink:href="#path-3"></use>
                    </mask>
                    <use id="Mask" fill="#131313" transform="translate(118.500000, 118.500000) rotate(-28.000000) translate(-118.500000, -118.500000) " xlink:href="#path-3"></use>
                    <path d="M125.458516,210.361416 L126.16084,214.274358 C127.713335,223.045577 127.957072,225.398336 128.068009,229.216292 L128.102978,230.611429 C128.318836,240.200129 125.434858,245.178982 118.398981,244.704065 C102.268625,243.615275 87.569921,234.417654 79.6765956,221.964011 C71.8818133,209.665844 73.0030226,197.45043 83.9305237,192.888475 C90.5871987,190.109481 98.5311249,191.600667 108.759404,196.769017 C112.054762,198.434161 115.571971,200.463393 119.696665,203.049508 L121.254516,204.034416 L119.926119,196.791816 C118.121981,186.860907 116.991523,179.554272 116.2339,172.252459 L116.127324,171.200058 L116.074516,170.651416 L115.791433,170.845894 C115.586272,170.988597 115.38823,171.131015 115.197603,171.273012 L114.917258,171.485672 C109.475964,175.690945 91.8287818,178.705027 78.4044548,177.304263 C60.7566983,175.462805 51.9743172,166.860034 57.8758207,151.582531 C61.8402749,141.31956 68.1390786,136.325106 76.9505347,135.499436 C83.3446552,134.90028 88.5060366,135.92384 102.231234,139.77414 L105.803135,140.772131 C107.687118,141.29175 109.144813,141.677837 110.616101,142.044336 L111.206383,142.19016 C112.614664,142.535218 113.964311,142.841133 115.26278,143.10713 L116.134516,143.280416 L116.138325,143.259969 C117.309726,134.528798 119.793622,127.026979 123.811052,120.643728 L124.10775,120.178656 C127.95921,114.222463 133.117274,109.428202 139.673678,105.854508 L140.007516,105.674416 L139.763246,105.566686 L139.474586,105.447897 L139.182715,105.336957 C137.344609,104.666895 135.441459,104.478915 133.418137,104.734177 C129.235839,105.261815 125.503457,107.160356 118.376001,111.902216 L115.265743,113.980985 C110.8529,116.910943 108.869113,118.076803 106.264668,119.200913 L106.063051,119.28733 C101.720237,121.136042 97.9116378,121.44213 94.3608297,119.87184 C87.2336836,116.71997 86.2632842,108.845678 90.2209572,98.5525306 C93.4402113,90.1798694 99.8432805,80.5795344 106.788112,73.3914282 L107.285057,72.8821437 C115.355545,64.6934865 111.328812,52.1936716 94.4208676,35.0452314 L93.904562,34.5241585 L96.0304477,32.4074133 C114.200954,50.6563827 119.021563,64.8635725 109.708286,74.6915153 L109.421738,74.9879909 C102.56362,81.9465266 96.1611442,91.4625406 93.0211061,99.6291764 C89.5629632,108.623142 90.3250147,114.806797 95.57418,117.12816 C98.2640775,118.317726 101.244072,118.07823 104.888005,116.527028 L105.439921,116.286832 C107.85918,115.209476 109.906799,113.956962 114.689935,110.759554 L116.750398,109.380382 C124.25505,104.38844 128.247331,102.362745 133.042634,101.75777 C135.526479,101.444408 137.90982,101.679819 140.210192,102.518396 C141.259475,102.900901 142.254601,103.400727 143.189977,104.00339 L143.291516,104.069416 L143.339725,104.048515 C152.935888,99.7899624 165.14493,97.8050038 180.197087,98.2408005 L181.052134,98.2680545 L184.638955,98.3972755 C222.769446,99.8200446 243.854782,102.217508 248.830574,105.873478 C250.747938,107.282264 250.940418,109.296116 249.269879,110.95972 C248.061092,112.163489 245.794295,113.314864 242.394861,114.519609 L241.694465,114.763021 C235.365314,116.921161 225.26436,119.291361 211.360509,121.886968 L210.080516,122.123416 L208.929474,122.905524 C189.345412,136.263764 175.402016,148.696957 167.028558,160.219143 L166.911516,160.381416 C169.044219,161.259779 171.015019,162.34909 172.811357,163.662836 L173.193609,163.947792 C181.962426,170.610443 191.885906,191.680634 195.105623,209.97398 C196.829903,219.770757 196.480404,227.858174 193.730783,233.100981 C190.459054,239.339312 184.046693,241.247812 174.961327,238.26168 C163.962292,234.646574 153.480753,228.891616 138.125931,218.789727 L125.458516,210.361416 Z M107.89163,199.693646 L107.406422,199.446598 C97.8849386,194.635392 90.744026,193.294943 85.0862756,195.656911 C76.2116711,199.361833 75.2871217,209.434668 82.2104992,220.357981 C89.6047761,232.024253 103.450674,240.688236 118.601019,241.710876 C123.305704,242.028439 125.223288,238.854078 125.110898,231.065707 L125.057725,228.949402 C124.929469,225.093757 124.59727,222.481293 122.644836,211.65782 L121.995516,208.080416 L121.361386,207.667596 C116.060751,204.240936 111.788554,201.692722 107.89163,199.693646 Z M138.292808,215.304912 L139.013837,215.781927 L140.528474,216.778362 C155.264369,226.435728 165.394554,231.959436 175.898053,235.411672 C183.690687,237.972915 188.546,236.527837 191.073995,231.707613 C193.447405,227.182141 193.770863,219.697306 192.151037,210.494001 C189.049872,192.874226 179.433913,172.456983 171.378644,166.336495 C169.581087,164.97069 167.562284,163.859161 165.352534,162.99273 L165.158516,162.918416 L164.787643,163.486418 C155.733257,177.537298 155.206592,190.193763 163.073421,201.482458 L163.536588,202.132212 L161.112218,203.899252 C152.03933,191.451296 152.316455,177.676997 161.801471,162.604568 L162.213516,161.959416 L162.137213,161.938925 C156.104416,160.318425 148.936916,160.243421 141.127342,161.564694 L140.509472,161.671903 C132.823226,163.038683 124.986161,165.752342 119.476546,168.643272 L118.928516,168.935416 L119.034278,170.091002 L119.152896,171.307362 L119.284985,172.580262 C120.01022,179.372082 121.072829,186.257286 122.72245,195.397625 L124.715516,206.276416 L131.073524,210.489405 C134.843349,212.997188 138.367673,215.352671 138.292808,215.304912 Z M99.1681019,142.035179 C87.5137051,138.815559 82.7649911,137.967739 77.2304212,138.486351 C69.5791377,139.203308 64.2377666,143.438594 60.674287,152.663543 C55.6455396,165.681701 62.7655876,172.656135 78.7157999,174.320463 C91.2906181,175.632584 107.95131,172.829185 112.904667,169.245048 L113.082742,169.111951 C113.777787,168.57479 114.565936,168.034023 115.434543,167.495492 L115.782516,167.282416 L115.74538,166.789551 C115.200267,159.426302 115.184314,152.677997 115.767921,146.509351 L115.791516,146.269416 L115.380887,146.191035 C114.044822,145.928287 112.659881,145.624128 111.218103,145.279596 L109.891947,144.95563 C108.296202,144.558164 106.722485,144.139731 104.630436,143.560512 L99.1681019,142.035179 Z M180.947866,101.266242 C166.856136,100.776178 155.412373,102.412195 146.355241,106.028625 L145.913516,106.207416 L146.052383,106.346198 C150.516475,110.889917 152.913886,118.158956 152.262449,125.609656 L152.224628,126.00896 C151.066933,137.357614 143.334059,145.808401 130.644445,147.189653 C127.10438,147.574986 123.404687,147.450313 119.250423,146.85401 L118.760516,146.780416 L118.730724,147.094726 C118.232886,152.548716 118.213412,158.492173 118.625826,164.949573 L118.673516,165.684416 L118.709006,165.666579 C124.332957,162.81228 131.902013,160.220578 139.393048,158.825845 L139.984247,158.718238 C148.735714,157.162039 156.815709,157.250878 163.625104,159.234677 L163.984516,159.342416 L164.106305,159.169772 C172.723498,147.070434 187.11634,134.157232 207.214106,120.444206 L208.918984,119.288077 L211.577528,118.794116 C225.461818,116.18387 235.411186,113.811768 241.392745,111.691931 L242.122523,111.427125 C244.59894,110.506427 246.256807,109.652251 247.046129,108.93545 L247.280355,108.713172 C247.475085,108.535521 247.452348,108.570989 247.145142,108.356191 L247.054255,108.291057 C242.684388,105.080291 220.307215,102.63503 180.947866,101.266242 Z M142.933516,107.543416 L142.760042,107.629292 C135.836711,111.052974 130.507668,115.806213 126.626952,121.80765 C122.762048,127.784635 120.340676,134.899366 119.17247,143.252095 L119.097516,143.796416 L119.218001,143.81598 C123.121985,144.404665 126.566607,144.561193 129.80943,144.258828 L130.319815,144.207269 C141.54846,142.985042 148.221193,135.692819 149.240117,125.704505 C149.968359,118.565697 147.536348,111.644517 143.215273,107.788094 L142.933516,107.543416 Z" fill="#F7AD01" fill-rule="nonzero" mask="url(#mask-4)"></path>
                </g>
                <g id="Path-17" transform="translate(658.000000, 586.000000)">
                    <mask id="mask-6" fill="white">
                        <use xlink:href="#path-5"></use>
                    </mask>
                    <use id="Mask" fill="#7C00D9" xlink:href="#path-5"></use>
                    <path d="M144.237846,-21 L145.464054,-18.2620418 L75.7377624,12.9643796 L90.8917624,20.2853796 L182.491498,-0.208229912 L120.652762,34.6613796 L168.924762,57.9803796 L199.611112,50.8622632 L200.565985,53.6911887 L179.592762,63.1343796 L232.263362,88.5780629 L230.958428,91.2793863 L176.022762,64.7413796 L36.2837624,127.66538 L36.2837624,130.28138 L174.919641,91.795552 L45.6427624,158.52538 L126.095266,158.526079 L33.2846042,196.534382 L33.2837624,134.22738 L2.99668981,142.635721 L1.97957808,139.822646 L33.2837624,125.72638 L33.2837624,92.5293796 L-3,100.947651 L33.2837624,80.4863796 L33.2837624,36.2483796 L-0.43601165,43.7928773 L33.2837624,28.6903796 L33.2846042,-7.54299994 L72.2067624,11.2583796 L144.237846,-21 Z M110.853762,161.52538 L36.2837624,161.52538 L36.2837624,192.06338 L110.853762,161.52538 Z M147.719762,102.45938 L36.2837624,133.39438 L36.2837624,159.98038 L147.719762,102.45938 Z M33.2837624,129.01538 L21.1347624,134.48638 L33.2837624,131.11338 L33.2837624,129.01538 Z M168.572762,61.1423796 L36.2837624,91.8333796 L36.2837624,124.37538 L172.498762,63.0393796 L168.572762,61.1423796 Z M33.2837624,83.9293796 L16.6527624,93.3083796 L33.2837624,89.4493796 L33.2837624,83.9293796 Z M117.470762,36.4563796 L36.2837624,82.2383796 L36.2837624,88.7533796 L164.264762,59.0613796 L117.470762,36.4563796 Z M90.5277624,23.4403796 L36.2837624,35.5773796 L36.2837624,78.7943796 L114.181762,34.8673796 L90.5277624,23.4403796 Z M185.358762,57.2483796 L173.231762,60.0613796 L176.068762,61.4313796 L185.358762,57.2483796 Z M33.2837624,31.9773796 L27.9467624,34.3683796 L33.2837624,33.1743796 L33.2837624,31.9773796 Z M163.330762,7.15237963 L95.2407624,22.3863796 L117.363762,33.0733796 L163.330762,7.15237963 Z M72.1587624,14.5673796 L36.2837624,30.6343796 L36.2837624,32.5023796 L86.1777624,21.3393796 L72.1587624,14.5673796 Z M36.2837624,-2.76262037 L36.2837624,27.3473796 L68.6277624,12.8613796 L36.2837624,-2.76262037 Z" fill="#F7AD01" fill-rule="nonzero" mask="url(#mask-6)"></path>
                </g>
                <g id="Group-3" transform="translate(23.000000, 81.000000)">
                    <g id="Group-2" transform="translate(370.000000, 0.000000)">
                        <circle id="Oval" fill="#131313" cx="56" cy="85" r="13"></circle>
                        <g id="Group" transform="translate(45.408897, 128.514172) scale(-1, 1) rotate(-16.000000) translate(-45.408897, -128.514172) translate(12.408897, 95.514172)">
                            <g id="Oval-Copy-4">
                                <mask id="mask-8" fill="white">
                                    <use xlink:href="#path-7"></use>
                                </mask>
                                <use id="Mask" fill="#DD63B1" xlink:href="#path-7"></use>
                                <circle fill="#131313" mask="url(#mask-8)" cx="40.4716981" cy="5.60377358" r="33"></circle>
                            </g>
                            <ellipse id="Oval" fill="#131313" cx="25" cy="45.5" rx="4" ry="5.5"></ellipse>
                            <ellipse id="Oval-Copy" fill="#131313" cx="13" cy="44" rx="3" ry="5"></ellipse>
                            <path d="M17.9157557,47.006677 C18.5801393,47.0775262 19.0626134,47.6862131 18.9933917,48.3662174 C18.6566222,51.6744994 16.4957303,54.200612 12.6929435,55.8966249 C12.0805753,56.1697363 11.3678381,55.8830427 11.1010004,55.2562767 C10.8341628,54.6295107 11.1142707,53.900016 11.7266389,53.6269045 C14.7909926,52.2602269 16.3505191,50.4371189 16.5874459,48.10965 C16.6517231,47.4782174 17.1690953,47.0073232 17.7746204,47 L17.9157557,47.006677 Z" id="Path-2" fill="#131313" fill-rule="nonzero"></path>
                        </g>
                        <circle id="Oval-Copy-2" fill="#131313" cx="39.5" cy="39.5" r="39.5"></circle>
                    </g>
                    <path d="M416,232 C449.137085,232 476,205.137085 476,172 L356,172 C356,205.137085 382.862915,232 416,232 Z" id="Oval" fill="#E73D11" transform="translate(416.000000, 202.000000) rotate(-2.000000) translate(-416.000000, -202.000000) "></path>
                    <g id="Group-4" transform="translate(83.000000, 264.000000)">
                        <g id="Path-4" transform="translate(83.000000, 0.523966)">
                            <mask id="mask-10" fill="white">
                                <use xlink:href="#path-9"></use>
                            </mask>
                            <use id="Mask" fill="#DD63B1" xlink:href="#path-9"></use>
                            <path d="M186.677696,-6.13229687 C207.832859,-9.4724076 221.185077,-3.16831442 226.165487,12.7589987 C228.44433,20.0467206 225.160749,28.57365 217.347018,38.6825256 C213.804379,43.2657514 209.4762,48.0150102 203.83553,53.6682282 L202.358135,55.1301034 C199.265412,58.1533719 189.442474,67.6985879 186.776528,70.4818323 L186.649259,70.6152981 C182.140047,75.3675673 180.114393,78.4540685 180.452428,79.6696322 C181.119743,82.0692786 184.919535,82.9014517 195.365099,83.3491902 L197.430174,83.4352084 C203.575639,83.6988224 207.024959,84.0518135 210.097195,84.9408163 C214.369106,86.1769655 216.929838,88.4223058 217.323819,91.9987772 C218.077178,98.8375926 212.790275,105.039525 204.100078,107.921797 C195.000072,110.93999 183.429396,110.057238 171.766,104.859534 L171.16265,104.586837 C155.068266,97.2105831 135.266462,99.4746843 111.601068,111.546786 C43.4296239,141.561083 19.0967724,171.273569 37.4134392,200.790735 C44.3960497,212.043157 46.3803141,222.21647 44.1944081,231.937 C42.5833793,239.101101 39.1984514,245.148959 32.9450015,253.38036 L31.390173,255.396875 C30.3093233,256.782993 28.6164,258.942576 28.379787,259.246728 L27.4644317,260.430792 C26.5062525,261.679386 25.7320873,262.721643 25.0193335,263.728597 C22.738298,266.951166 21.2650415,269.596674 20.453167,272.083898 C18.8091852,277.120329 19.9218308,281.590369 24.5688501,286.438018 C34.724738,297.032374 62.8921643,294.687184 95.5935152,282.281334 C112.430895,275.893769 127.771498,267.808308 138.718633,259.876561 L139.102,259.596034 L138.768563,258.868666 C130.596394,241.093677 123.720371,227.742819 118.151145,218.829801 L117.873773,218.387849 C112.009231,209.085216 107.741954,205.116239 105.829553,205.99 C103.847944,206.895381 102.553759,212.385699 101.12978,225.170026 L100.261021,233.287572 L100.056116,235.154302 C99.9007347,236.549189 99.7533316,237.821472 99.6046097,239.044143 L99.4765939,240.0817 C96.779818,261.627275 92.5703668,273.294007 83.4844856,276.257017 C77.405302,278.239508 73.7961623,276.598804 72.844498,271.732261 L72.7825538,271.399825 C72.2646392,268.471316 72.5250721,265.685969 73.80072,257.546768 L74.2734247,254.545349 C74.4781233,253.225925 74.6301055,252.191094 74.7723031,251.137966 C75.9463594,242.442802 75.6595811,236.834238 73.3199796,233.179371 L73.1741687,232.958035 C68.3166504,225.791729 64.4420838,213.043058 63.6397599,201.253678 C62.7015215,187.467164 65.8914238,176.777086 73.6709952,172.326798 C82.3119983,167.383731 87.577892,168.633984 93.7610779,174.376735 L95.1484892,175.680023 C95.6641359,176.161795 96.0587996,176.517206 96.4353475,176.834249 C97.892005,178.060714 98.9843879,178.602723 100.080406,178.602723 C101.064899,178.602723 102.570373,174.895692 104.316517,167.238284 L104.655004,165.713109 C105.206297,163.183448 106.312032,158.014418 106.712523,156.210048 L107.002875,154.924956 C110.441284,139.90937 113.752946,132.513579 119.679878,131.255927 C126.814351,129.742044 137.597774,148.806103 147.146439,176.254186 C156.750866,203.86256 161.534742,230.26247 158.06619,242.545819 C156.56485,247.862584 151.263643,253.963106 143.361192,260.13405 L142.834,260.542034 L143.794,262.658034 L164.461051,253.114342 C259.654403,209.125097 312.313335,184.379181 322.265747,178.960226 L322.574762,178.790583 C329.170521,175.136985 333.3446,162.519059 332.463447,148.811929 C331.490795,133.68143 324.843874,121.118675 313.656742,115.974372 C309.158139,113.90573 305.892404,113.806362 303.200236,115.250837 C301.288682,116.276476 299.952361,117.673336 297.526343,120.983993 L296.224793,122.781874 C291.89671,128.710308 289.290787,130.853289 284.435212,131.034162 C278.102817,131.270048 269.782888,126.583294 257.997641,115.714207 C238.37583,97.6177533 238.803998,69.2137914 254.648209,40.1708803 C268.409892,14.9453053 291.054642,-4.70281774 305.84638,-3.60254614 C314.719337,-2.94253833 329.024394,6.29355123 346.3731,21.4425858 L347.563,22.4870338 L347.931195,22.6062777 C350.175417,23.3491635 352.437347,24.438982 354.71435,25.8773451 L355.11633,26.1347923 C362.388063,30.8555956 369.812619,39.1386764 377.414183,50.9901722 L378.229,52.2730338 L378.542381,52.6022355 C387.926806,62.4723232 396.819205,72.4895149 403.809064,81.0284569 L405.153754,82.6813616 C413.719354,93.2707759 417.70583,99.3625592 416.587057,101.546408 C413.626691,107.325054 408.555835,115.545886 403.316206,122.04038 L402.697784,122.798325 C394.673995,132.520096 387.265466,137.092152 380.833422,134.081826 C371.186464,129.566855 375.126698,114.195256 391.538763,87.9416838 L392.66,86.1610338 L392.577962,85.9791259 C387.057071,73.8346266 381.644408,63.4835479 376.348663,54.9280949 L375.846,54.1210338 L375.490374,53.7480364 C374.319881,52.5221558 373.142401,51.2993205 371.960688,50.0827063 L371.073652,49.1714618 C362.501093,40.3841808 354.266984,32.4696003 346.614166,25.6707342 L346.051,25.1720338 L346.027018,25.165377 C336.913839,22.6111311 328.21524,26.6129817 319.676799,37.3266242 L319.348476,37.7419972 C308.729279,51.2869923 306.266113,61.8825196 310.356446,70.2292651 C313.58185,76.8110333 320.692794,81.914428 331.382592,86.3504544 L331.98015,86.5962189 C336.598082,88.4786762 350.680797,93.1210446 352.831158,93.9968941 L352.923135,94.0351659 C356.795924,95.6884123 359.376935,99.7521292 361.208932,106.144454 L361.335538,106.594208 C362.505766,110.826404 363.194619,114.855252 364.213216,122.898374 L365.220828,131.033935 C366.115036,138.060795 366.763015,141.966397 367.739795,145.780349 L367.881634,146.324903 C369.430428,152.174072 371.488827,155.895991 374.24044,157.56029 C382.646149,162.644441 399.70509,155.960149 425.055112,137.098535 L426.617511,135.928524 L427.480738,135.277992 L497.521843,183.508462 L496.582244,184.758376 C483.845861,201.701133 467.415298,210.215477 447.412668,210.215477 C440.47248,210.215477 435.511457,208.573938 431.8566,205.357753 C429.261782,203.074376 427.832485,200.837472 425.462624,195.933343 L424.599441,194.132219 C422.241399,189.252761 420.863054,187.156536 418.391489,185.181827 C414.94686,182.429668 410.034941,181.170833 402.722955,181.600144 C382.72533,182.774273 361.657344,197.772727 339.598637,226.729438 L338.879,227.678034 L346.915102,226.903905 C373.971105,224.343517 393.012576,223.03478 404.06621,222.977967 L404.806295,222.976034 C413.575747,222.976034 418.456907,225.913069 423.127205,232.192172 L423.698426,232.978602 C424.282066,233.796592 425.232577,235.148348 425.316641,235.265966 C427.766673,238.693908 429.403264,240.147288 431.875343,240.670727 C434.670525,241.26258 437.037236,240.814381 440.11792,239.325417 L440.506807,239.133875 C440.88838,238.942529 441.282151,238.73645 441.734151,238.49239 L444.199047,237.132431 C449.462292,234.239009 453.145295,232.976034 458.250441,232.976034 C467.65631,232.976034 471.729467,243.398115 471.046385,263.477122 L470.998626,264.718509 L468.001374,264.590119 L468.045964,263.441386 C468.690476,244.876099 465.233144,235.976034 458.250441,235.976034 C453.906685,235.976034 450.729885,237.014057 446.141421,239.490509 L443.752775,240.808682 C443.014075,241.214811 442.424989,241.528042 441.851597,241.81558 C438.023453,243.735273 434.92665,244.383326 431.2539,243.605656 C427.953897,242.906911 425.856222,241.111695 423.133125,237.367174 L420.952889,234.298848 C416.803884,228.606708 412.814735,226.070612 405.238968,225.978635 L404.806295,225.976034 C393.291488,225.976034 372.262959,227.45458 341.755128,230.412028 L335.797349,230.996423 L332.445396,231.32892 L334.440807,228.615163 C357.97284,196.611618 380.644966,179.891252 402.547117,178.605302 C410.548787,178.135496 416.186836,179.580425 420.264104,182.838045 C423.269482,185.239255 424.828959,187.668556 427.503384,193.248291 L428.142287,194.583482 C430.351242,199.157758 431.62777,201.160238 433.838453,203.105585 C436.909265,205.807824 441.163441,207.215477 447.412668,207.215477 C465.834078,207.215477 480.987011,199.674485 492.982019,184.514706 L493.231,184.196034 L427.558,138.973034 L426.801864,139.538298 C400.762484,158.909546 382.943271,165.964379 372.993048,160.306311 L372.687817,160.127265 C369.202686,158.019301 366.834925,153.845537 365.115947,147.590914 L364.981578,147.092805 C363.732668,142.376174 363.023025,137.832067 361.843848,128.19336 L361.242353,123.318212 C360.23982,115.399388 359.566355,111.452646 358.444038,107.393725 C356.824816,101.537719 354.657434,98.0374336 351.745303,96.7942802 L351.557409,96.7179904 C349.217314,95.8005154 335.525617,91.2811778 330.847703,89.3742694 C319.203182,84.627488 311.352781,79.0797597 307.66253,71.5494222 C302.991202,62.0170981 305.725257,50.256321 316.987549,35.8910446 C324.675289,26.0851807 332.806992,21.2303276 341.235746,21.4163889 L341.751,21.4340338 L341.355222,21.0968485 C326.127345,8.14924698 313.62424,0.209172189 305.989459,-0.578299078 L305.623843,-0.61081137 C292.329279,-1.59971686 270.538752,17.3072235 257.281796,41.60762 C242.022991,69.5774624 241.616768,96.5256809 260.031511,113.508902 L260.960831,114.359571 C271.708218,124.12208 279.151795,128.228892 284.323537,128.036242 C287.867922,127.904211 289.922622,126.277342 293.564577,121.336402 L295.138493,119.166752 C297.818769,115.510565 299.36081,113.906323 301.781861,112.607315 C305.369066,110.68261 309.610275,110.811659 314.910102,113.248737 C327.239972,118.918517 334.420367,132.489547 335.457268,148.619473 C336.404757,163.358529 331.868212,177.072162 324.028432,181.414863 C315.118127,186.350562 265.59188,209.657628 175.289201,251.41405 L142.303545,266.650512 L141.259088,264.333872 L140.374,262.380034 L140.356167,262.393561 C129.343704,270.379124 114.228744,278.336998 97.600443,284.7263 L96.6576196,285.086273 C62.8685085,297.904784 33.7308368,300.330756 22.4031881,288.51405 C17.0053351,282.883151 15.6065963,277.263735 17.6012558,271.152982 C18.5227542,268.32992 20.1308767,265.442235 22.5706805,261.995364 L23.0205162,261.366187 C23.7086668,260.41302 24.4639012,259.408038 25.3779883,258.222874 L29.7001393,252.682819 L30.5388335,251.588327 C36.5607325,243.663799 39.7716703,237.930635 41.2675007,231.278811 C43.2744611,222.354036 41.4458018,212.978509 34.8643511,202.372553 C15.1978115,170.680078 40.7701244,139.454105 110.314907,108.837826 C134.406893,96.5453223 154.960882,94.0998389 171.900356,101.628428 L172.412567,101.859621 C183.613952,106.993353 194.648192,107.895995 203.155661,105.074329 C210.63001,102.595316 214.918764,97.564287 214.341858,92.3272676 C213.905724,88.3681397 209.28698,86.979123 197.784851,86.4538435 L193.894264,86.2883823 C189.176071,86.0748653 186.889656,85.866211 184.514116,85.3670386 C180.684677,84.5623585 178.287501,83.0818966 177.562106,80.4733988 C176.810732,77.7714772 178.99726,74.3644226 184.159699,68.8818181 L184.743921,68.2674911 C188.032365,64.8601313 199.949827,53.3075722 201.085269,52.1755779 L201.708514,51.5526109 C207.269017,45.9798435 211.520821,41.3145892 214.973428,36.8478409 C222.242857,27.4431463 225.206982,19.745791 223.302207,13.6543355 C218.993219,-0.125774496 207.882751,-5.83775508 189.467037,-3.50018893 L188.682,-3.39596621 L188.837193,-2.58240195 C195.945081,35.2468624 191.936717,58.8414971 176.409897,68.0119883 L175.926013,68.2910125 C160.529138,76.9572387 142.847198,82.4973282 122.890765,84.9159866 L121.779734,85.0471452 L121.437232,82.0667607 C141.46483,79.7652113 159.133536,74.3001951 174.454522,65.6766839 C189.058083,57.4569789 192.937015,34.5613769 185.663718,-3.21160196 L185.138852,-5.88933439 L186.677696,-6.13229687 Z M144.312997,177.239887 C135.509627,151.934189 124.919022,133.211014 120.302592,134.190587 C116.070615,135.088581 112.971241,142.1697 109.806466,156.125053 L109.540992,157.314765 C109.027583,159.654912 107.85259,165.150855 107.421216,167.104944 L107.13204,168.385595 C104.960078,177.848688 103.352948,181.602723 100.080406,181.602723 C98.1317762,181.602723 96.4497719,180.76816 94.503119,179.129133 L94.1362508,178.814068 C94.0116586,178.705046 93.883876,178.591273 93.7502409,178.470497 L92.6538602,177.45218 C92.3163638,177.134495 91.8910657,176.734252 91.7194915,176.574899 L91.2102048,176.110485 C86.1581445,171.592087 82.2811854,170.857533 75.1606277,174.930833 C68.6364732,178.662962 65.7643326,188.288149 66.6328368,201.049985 C67.3873249,212.136465 70.9873885,224.13836 75.4108709,230.904335 L75.6574542,231.274796 C78.6244249,235.651974 79.0234427,241.726107 77.8180716,250.990726 L77.6650422,252.124757 C77.5152112,253.200473 77.3481853,254.308847 77.1204972,255.757104 L76.5719295,259.252608 C75.4941276,266.26263 75.3145831,268.731849 75.7887313,271.156509 C76.3635419,274.095928 78.064326,274.8691 82.5543606,273.404848 C89.8439097,271.027643 93.7937711,260.451757 96.3392335,240.96505 L96.4998212,239.709109 C96.6699513,238.349875 96.8351395,236.951656 97.0091392,235.406334 L98.090775,225.353827 C99.7360255,210.310005 101.018885,204.889659 104.582841,203.261317 C111.436382,200.12999 122.760808,217.127177 140.39205,255.220361 L141.556,257.746034 L141.59311,257.718559 C148.772218,252.124897 153.60984,246.693161 155.073194,242.083519 L155.179087,241.730564 C158.423973,230.239298 153.720158,204.281212 144.312997,177.239887 Z M413.893028,100.218515 C413.78287,100.368851 413.694353,100.021172 413.435073,99.4690891 C413.037524,98.6225917 412.376724,97.4917486 411.471971,96.1135682 L411.258861,95.7911528 C409.211042,92.7134281 406.08088,88.5728148 402.131489,83.7177144 L400.830041,82.1278517 C396.638761,77.0389217 391.792558,71.4454688 386.586683,65.6878494 L385.063,64.0090338 L385.255447,64.3633033 C388.570685,70.4943663 391.920041,77.2830082 395.305428,84.7297142 L396.06301,86.4039098 L395.62626,87.0883432 C378.96009,113.205983 374.860397,127.974021 382.105098,131.364688 C386.926496,133.6212 393.539344,129.380977 400.981342,120.156658 C405.915168,114.041205 410.732177,106.290758 413.641502,100.711585 L413.916,100.180034 L413.893028,100.218515 Z M358.728819,32.7358674 C359.463762,33.43523 360.202596,34.1428587 360.945175,34.8585896 L362.547,36.4100338 L362.164146,36.009118 C360.887568,34.6810974 359.618888,33.4668034 358.358245,32.366271 L358.143,32.1800338 L358.728819,32.7358674 Z" fill="#F7AD01" fill-rule="nonzero" mask="url(#mask-10)"></path>
                        </g>
                        <path d="M143.396666,286.995599 C146.714006,283.056439 136.018047,268.672208 119.506574,254.867519 C102.995102,241.062831 86.9206732,233.06524 83.6033337,237.004401 C80.2859942,240.943561 90.9819527,255.327792 107.493426,269.132481 C124.004898,282.937169 140.079327,290.93476 143.396666,286.995599 Z" id="Oval" fill="#7C00D9"></path>
                        <path d="M522.603334,285.995599 C519.285994,282.056439 529.981953,267.672208 546.493426,253.867519 C563.004898,240.062831 579.079327,232.06524 582.396666,236.004401 C585.714006,239.943561 575.018047,254.327792 558.506574,268.132481 C541.995102,281.937169 525.920673,289.93476 522.603334,285.995599 Z" id="Oval-Copy-2" fill="#7C00D9"></path>
                        <path d="M535,265.473061 L583.265575,310 L660,227 L613.428748,249.747634 L610.789589,261.126773 L607.161856,252.744824 L603.376784,254.154375 L599.592951,270.396152 L598.591941,259.329912 L593.428665,261.324464 L589.912886,275.18363 L587.050146,263.31089 L577.827034,268.629967 L555.37897,247.519 C552.038196,249.319778 548.589365,251.786992 545.032477,254.920643 C541.475589,258.054294 538.13143,261.571767 535,265.473061 Z" id="Path-21-Copy" fill="#E73D11"></path>
                        <path d="M125,260.473061 L76.7344252,305 L0,222 L46.5712521,244.747634 L49.2104109,256.126773 L52.838144,247.744824 L56.6232165,249.154375 L60.4070494,265.396152 L61.4080586,254.329912 L66.5713353,256.324464 L70.0871142,270.18363 L72.9498536,258.31089 L82.1729663,263.629967 L104.62103,242.519 C107.961804,244.319778 111.410635,246.786992 114.967523,249.920643 C118.524411,253.054294 121.86857,256.571767 125,260.473061 Z" id="Path-21-Copy-2" fill="#E73D11"></path>
                    </g>
                    <g id="Combined-Shape" transform="translate(0.000000, 197.000000)">
                        <mask id="mask-12" fill="white">
                            <use xlink:href="#path-11"></use>
                        </mask>
                        <use id="Mask" fill="#FFFFFF" xlink:href="#path-11"></use>
                        <path d="M168.9125,-18 C203.147251,-18 230.9,9.77029907 230.9,44.026699 C230.9,46.082083 230.80009,48.1141171 230.604865,50.1182037 L230.577661,50.382868 C230.913578,50.810816 231.246743,51.2410293 231.577129,51.673481 C247.301316,67.6951021 257,89.6583851 257,113.88835 C257,115.906995 256.932683,117.909908 256.800171,119.894964 C256.93374,122.227738 257,124.579427 257,126.946602 C257,128.844423 256.95741,130.732291 256.873135,132.6093 C256.956841,134.410198 257,136.223114 257,138.046117 L256.989287,139.492843 C256.996418,139.880293 257,140.268612 257,140.657767 C257,143.190675 256.848274,145.688123 256.553419,148.141507 C251.452275,205.794507 203.060705,251 144.1175,251 C142.295676,251 140.483932,250.956815 138.683234,250.871411 C136.808143,250.957387 134.921545,251 133.025,251 C76.8454095,251 29.393562,213.60846 14.1688668,162.339649 C2.66142405,144.171123 -4,122.626119 -4,99.5242718 C-4,34.6174088 48.5841561,-18 113.45,-18 C115.124663,-18 116.79114,-17.9649287 118.448737,-17.89548 C120.034982,-17.9648414 121.632138,-18 123.2375,-18 C127.076392,-18 130.868357,-17.798953 134.603452,-17.4068072 C137.936574,-17.7981725 141.329732,-18 144.77,-18 C149.211215,-18 153.573919,-17.6636438 157.834058,-17.0150006 C161.428313,-17.6611508 165.130861,-18 168.9125,-18 Z M237.937147,185.404941 L237.477807,185.843497 C226.384408,196.286189 211.44518,202.684466 195.0125,202.684466 C190.848805,202.684466 186.78099,202.273691 182.847323,201.490431 C178.586415,202.195653 174.222738,202.597061 169.779568,202.67171 C153.057798,211.838182 133.861987,217.048544 113.45,217.048544 C92.5064253,217.048544 72.843197,211.563262 55.8168655,201.950107 C74.6237997,227.925794 104.599305,245.277263 138.692891,246.949769 C181.402227,244.964826 218.281306,220.649358 237.937147,185.404941 Z M22.446644,173.825787 L23.1419487,175.426766 C37.8515311,208.760359 67.2653487,234.140484 103.156919,243.335456 C80.0368922,234.321732 60.6166382,217.904031 47.8070161,196.993327 C38.2620698,190.544801 29.7149261,182.728462 22.446644,173.825787 Z M241.295059,187.428271 L240.395167,189.006475 C229.212154,208.337 212.965125,224.367812 193.469615,235.28223 C214.033445,224.813259 230.831605,208.004064 241.295059,187.428271 Z M36.1869409,153.134948 L36.3082512,154.000944 C38.438424,168.538555 43.43562,182.143917 50.706866,194.223681 C68.6825779,206.170424 90.25393,213.131068 113.45,213.131068 C130.663074,213.131068 146.981472,209.29808 161.599249,202.438558 C152.682338,201.775758 144.134397,199.795768 136.146951,196.691956 C131.915247,197.200728 127.606768,197.461165 123.2375,197.461165 C87.4635852,197.461165 55.7648561,180.002187 36.1869409,153.134948 Z M251.958661,143.470511 L251.555407,144.582559 C242.04281,170.421196 220.865492,190.6135 194.413813,198.76507 C194.61183,198.765974 194.812047,198.76699 195.0125,198.76699 C216.383016,198.76699 235.057417,187.21625 245.140572,170.013628 C248.376694,161.581926 250.690759,152.693175 251.958661,143.470511 Z M159.210148,191.29872 L158.865925,191.422343 C154.194658,193.060938 149.376238,194.386374 144.435814,195.373488 C151.992971,197.582246 159.988217,198.76699 168.26,198.76699 L168.7589,198.762438 C169.383283,198.41326 170.004032,198.058353 170.621075,197.697788 C166.576386,195.963793 162.755498,193.812962 159.210148,191.29872 Z M230.80826,94.8973167 L230.837221,95.64493 C230.878966,96.9329131 230.9,98.2261346 230.9,99.5242718 C230.9,139.904129 210.548181,175.527559 179.548617,196.684349 C180.656107,196.989549 181.778272,197.263266 182.912668,197.503844 C218.017694,191.388228 245.71129,163.676936 251.824087,128.550408 C248.947808,114.978584 241.339564,103.157361 230.80826,94.8973167 Z M222.241168,132.124925 L221.773932,133.204643 C210.504039,158.743507 189.608825,179.07607 163.689164,189.598548 C167.152936,191.822118 170.868786,193.688562 174.784087,195.144545 C197.320682,180.639096 214.39603,158.375751 222.241168,132.124925 Z M58.6673829,70.3791896 L58.1974901,70.9759005 C43.755923,89.4733266 35.15,112.754076 35.15,138.046117 C35.15,140.362237 35.2221692,142.661492 35.3643803,144.941751 C53.7245284,174.140731 86.2165443,193.543689 123.2375,193.543689 C125.073477,193.543689 126.898314,193.495969 128.710842,193.401699 C102.780422,180.460716 84.0696212,155.195233 80.242526,125.27275 C67.2508803,110.579188 59.1928489,91.414991 58.6673829,70.3791896 Z M85.0081075,130.247143 L85.0253282,130.330374 C90.6045152,158.771937 110.380269,182.120701 136.664112,192.683326 C143.141721,191.844713 149.431424,190.409501 155.47682,188.433671 C144.965131,179.712672 137.379409,167.587912 134.408064,153.748487 C115.322873,151.461906 98.156033,142.926601 85.0081075,130.247143 Z M16.0397614,99.8072704 L16.0126108,99.9317192 C14.0185528,108.615041 12.965,117.657709 12.965,126.946602 C12.965,138.671825 14.6436902,150.00472 17.7737009,160.717776 C24.6490035,171.454609 33.2782032,180.958799 43.257925,188.823925 C36.7189648,175.846344 32.6090355,161.43535 31.5237211,146.18753 C23.07081,132.465254 17.6059475,116.701984 16.0397614,99.8072704 Z M226.868205,94.3247753 L226.509035,95.4254231 C215.115051,129.673828 182.824628,154.368932 144.77,154.368932 C142.665783,154.368932 140.57919,154.293427 138.512779,154.144976 C141.659673,167.397899 149.345155,178.893789 159.835323,186.896729 C197.654907,172.629311 224.948955,136.889089 226.876006,94.5319431 C226.874319,94.4619477 226.871292,94.3933536 226.868205,94.3247753 Z M214.606109,85.9391528 L214.069674,86.51886 C202.763908,98.5443092 186.71457,106.053398 168.9125,106.053398 C162.51761,106.053398 156.348893,105.084424 150.544987,103.285199 C142.054089,113.386352 136.94,126.424452 136.94,140.657767 C136.94,143.890474 137.203808,147.061526 137.711059,150.150543 C140.037532,150.350431 142.391975,150.451456 144.77,150.451456 C182.52435,150.451456 214.334932,124.987066 223.98408,90.2862082 C221.013617,88.5708746 217.877771,87.1122902 214.606109,85.9391528 Z M107.783531,54.3732278 L107.365705,54.7986903 C92.5533848,70.0797739 83.435,90.9185319 83.435,113.88835 C83.435,117.163241 83.6203518,120.394815 83.9811308,123.573138 C96.6696718,137.508846 114.078791,147.064447 133.678602,149.709211 C133.248487,146.753694 133.025,143.731846 133.025,140.657767 C133.025,125.999513 138.106443,112.528844 146.602833,101.91331 C126.49243,94.1494945 111.445183,76.1935099 107.783531,54.3732278 Z M80.8672504,-9.33669234 L79.2619101,-8.84139687 C33.2654493,5.67446487 -0.085,48.7021981 -0.085,99.5242718 C-0.085,116.981673 3.85010288,133.5194 10.8811481,148.297762 C9.67678559,141.361183 9.05,134.227136 9.05,126.946602 C9.05,112.981217 11.3562074,99.5548173 15.6083289,87.0279225 C16.6731457,43.7433819 43.2526251,6.79216338 80.8672504,-9.33669234 Z M70.6337252,24.2874744 L69.7825159,24.8098015 C46.5361638,39.2526163 28.5839298,61.4201888 19.5080219,87.7280459 C19.4963159,88.3949266 19.49,89.0620165 19.49,89.7305825 C19.49,107.058714 23.7327997,123.39526 31.2355977,137.756798 L31.235,138.046117 C31.235,109.795049 41.6000119,83.9663901 58.7323999,64.1600513 C59.3988704,49.6433885 63.6552258,36.0627511 70.6337252,24.2874744 Z M107.532435,35.3090215 L106.450636,35.6995763 C89.4297102,41.9738256 74.4053826,52.3780515 62.5914178,65.6977214 C62.5673321,66.5240859 62.555,67.3528349 62.555,68.184466 C62.555,87.0831702 68.9235371,104.493482 79.6303133,118.38382 C79.5575211,116.893726 79.52,115.395422 79.52,113.88835 C79.52,88.5380205 90.1363314,65.6688365 107.162912,49.4895399 C107.005213,47.6912824 106.925,45.868364 106.925,44.026699 C106.925,41.0678457 107.132047,38.1573815 107.532435,35.3090215 Z M230.816649,71.985932 L230.796681,72.4431874 C230.699868,74.4340081 230.535548,76.4070908 230.305963,78.3601922 C230.699116,82.0955771 230.9,85.8896055 230.9,89.7305825 L230.896916,90.0751119 C238.657941,95.5978776 245.093383,102.8643 249.632559,111.303335 L249.918114,111.843405 C246.298533,97.1608629 239.706213,83.6497311 230.816649,71.985932 Z M195.0125,82.5485437 C178.729626,82.5485437 164.011955,89.2542097 153.46709,100.056289 C158.385891,101.412625 163.564781,102.135922 168.9125,102.135922 C185.195374,102.135922 199.913045,95.4302563 210.45791,84.628177 C205.539109,83.2718411 200.360219,82.5485437 195.0125,82.5485437 Z M156.946877,29.7574623 L155.847923,29.9119116 C138.813702,32.4110665 123.424754,39.97647 111.258302,51.0299027 C113.914381,73.1574635 128.996902,91.4587712 149.319891,98.745672 C160.651108,86.3808723 176.927344,78.631068 195.0125,78.631068 C201.40739,78.631068 207.576107,79.6000425 213.380013,81.3992665 C217.002346,77.0920192 220.00942,72.2485859 222.267427,67.0062151 C221.514768,64.4861174 220.678788,62.0030227 219.761111,59.5599409 C203.056715,43.4388341 181.221499,32.6062847 156.946877,29.7574623 Z M230.073089,56.2048113 L230.174747,56.9490354 C230.551491,59.844641 230.784599,62.7853964 230.866685,65.7639093 C238.601558,75.0513257 244.877231,85.6002507 249.337938,97.0572663 C245.51777,82.1212464 238.898333,68.3064215 230.073089,56.2048113 Z M223.830806,72.820178 L223.532559,73.3811306 C221.744917,76.704636 219.663167,79.8462711 217.322167,82.7711555 C219.965045,83.7901662 222.52057,84.9867216 224.974292,86.3449288 C225.255072,85.1017189 225.507195,83.8462165 225.73041,82.5807345 C225.23729,79.2781344 224.601839,76.0227215 223.830806,72.820178 Z M118.442224,-13.9746682 L118.110918,-13.9579936 C68.2539939,-11.5303998 27.6386465,26.1129239 20.5776082,74.6438708 C32.0578692,49.9668954 51.4135082,29.6997274 75.4114841,17.0740778 C86.0749821,2.61131968 101.148215,-8.39768379 118.645664,-13.9642303 C118.578748,-13.9686965 118.510494,-13.9717126 118.442224,-13.9746682 Z M118.691133,7.66064315 L117.373388,7.8222772 C103.358275,9.64807162 90.1024416,13.8924122 78.0378204,20.1230926 C69.8903755,31.4287355 64.5427433,44.8875944 63.0093821,59.4834704 C75.465207,46.6127469 90.9518733,36.6972008 108.318491,30.8905474 C110.155258,22.3634944 113.74498,14.4880303 118.691133,7.66064315 Z M222.936008,48.9926464 L223.081383,49.3497383 C224.020335,51.6720302 224.880717,54.0345456 225.65923,56.4339843 C225.758088,55.9750471 225.852773,55.512337 225.941927,55.047659 C225.721873,53.6722957 225.467359,52.3090362 225.179702,50.9580513 C224.444343,50.2891295 223.695888,49.6343278 222.936008,48.9926464 Z M174.534385,29.2383891 L174.698856,29.2863279 C190.114156,33.6174634 204.19436,41.1418163 216.181703,51.1011415 C214.402377,47.3213696 212.417773,43.6558554 210.244936,40.1185353 C199.574973,34.0258603 187.456593,30.1837864 174.534385,29.2383891 Z M142.051221,29.0285879 L140.520607,29.0679901 C130.520489,29.3925147 120.860951,31.0653059 111.717642,33.910605 C111.140492,37.1966174 110.84,40.5765442 110.84,44.026699 C110.84,44.738864 110.852803,45.4480367 110.878192,46.1539993 C119.898544,38.4931309 130.468525,32.6063005 142.051221,29.0285879 Z M170.596864,-14.058551 L170.705792,-14.0239723 C197.450217,-5.58379305 218.558959,15.5626754 226.960044,42.3389876 C226.084596,11.5867065 201.330253,-13.1826429 170.596864,-14.058551 Z M157.899068,-13.0392422 L157.663151,-12.9930726 C157.277492,-12.9173249 156.893202,-12.8377572 156.510322,-12.7544105 C181.48242,-4.64459559 202.451884,12.3507333 215.695722,34.5029825 C218.002931,36.5669727 220.230124,38.7172762 222.3747,40.9476908 C212.538682,12.8922216 187.938111,-8.21524552 157.899068,-13.0392422 Z M133.025,6.81067961 C130.00026,6.81067961 127.001644,6.9226049 124.033065,7.14254227 C118.734477,13.5946172 114.796641,21.2055191 112.659423,29.5387725 C122.645111,26.6429932 133.20032,25.092233 144.1175,25.092233 C148.446571,25.092233 152.718725,25.3360776 156.920993,25.8107892 C160.633204,25.336534 164.41809,25.092233 168.26,25.092233 C181.668172,25.092233 194.381802,28.0678021 205.777356,33.3950133 C204.669292,31.8466707 203.521834,30.3274212 202.337804,28.8385932 C182.756551,14.9648127 158.842424,6.81067961 133.025,6.81067961 Z M184.621036,6.02936178 L185.695565,6.85731523 C192.86381,12.4608872 199.365169,18.8790874 205.060603,25.9727879 C205.105652,26.0038923 205.150424,26.0359757 205.195174,26.0680882 C199.296696,18.4782396 192.368935,11.7281758 184.621036,6.02936178 Z M145.946826,-9.36056045 L145.477675,-9.15686557 C138.831516,-6.22031135 132.839445,-2.07296089 127.78069,3.00578108 C129.519845,2.92977037 131.268155,2.89320388 133.025,2.89320388 C154.669987,2.89320388 175.019409,8.44368833 192.729283,18.199826 C179.758656,5.53918924 163.770994,-4.04199487 145.946826,-9.36056045 Z M130.380917,-12.82787 L130.135618,-12.7830895 C111.843437,-9.49460663 95.6516606,-0.151650895 83.7060371,13.0986719 C95.645292,7.91182175 108.559005,4.55169109 122.096258,3.36858609 C127.145144,-2.44554027 133.259361,-7.31224169 140.134782,-10.9248313 C136.93561,-11.6981076 133.681483,-12.3340668 130.380917,-12.82787 Z" fill="#F7AD01" fill-rule="nonzero" mask="url(#mask-12)"></path>
                    </g>
                    <g id="Combined-Shape-Copy" transform="translate(594.000000, 197.000000)">
                        <mask id="mask-14" fill="white">
                            <use xlink:href="#path-13"></use>
                        </mask>
                        <use id="Mask" fill="#DD63B1" xlink:href="#path-13"></use>
                        <path d="M50.567,51.185 L45.1276915,-118.361272 L114.492,11.175 L117.028,9.587 L120.458,-0.801 L101.165764,-60.1910103 L104.018991,-61.1178831 L122.048,-5.616 L155.957962,-108.328144 L155.957,-14.777 L166.332654,-21.2714935 L167.924262,-18.7285065 L155.957,-11.238 L155.957,3.761 L249.999888,-50.3350157 L197.543,25.98 L267.435534,-0.206689978 L177.365,128.587 L255.991704,275.41887 L155.957,246.76 L155.957962,293.940486 L116.92,235.577 L104.944,232.146 L58.5031822,298.554454 L56.348,231.392 L32.2049228,266.517264 L48.857,216.078 L-126.034128,165.975122 L-48.485,121.366 L-81.0760786,133.577033 L10.399,76.325 L-43.8857436,-4.83023343 L30.17,63.95 L50.567,51.185 Z M63.91,220.39 L59.216,227.219 L61.212,289.444 L101.894,231.272 L63.91,220.39 Z M121.383,236.855 L152.957,284.059 L152.957,245.901 L121.383,236.855 Z M175.438,131.344 L169.362,140.032 L196.015356,222.077985 L155.957,184.873 L155.957,243.639 L249.997,270.58 L175.438,131.344 Z M51.743,216.905 L41.649,247.481 L56.186,226.333 L55.922,218.102 L51.743,216.905 Z M145.073,174.764 L111.736,222.433 L118.801,232.995 L152.957,242.78 L152.957,182.086 L145.073,174.764 Z M109.892,225.07 L106.762,229.546 L114.338,231.717 L109.892,225.07 Z M85.628,188.795 L65.702,217.783 L103.712,228.672 L108.102,222.395 L85.628,188.795 Z M58.951,218.97 L59.054,222.16 L60.869,219.519 L58.951,218.97 Z M114.678,146.533 L87.457,186.134 L109.947,219.757 L142.854,172.703 L114.678,146.533 Z M69.155,164.166 L58.252,197.189 L58.85,215.82 L62.661,216.912 L83.833,186.111 L69.155,164.166 Z M55.516,205.476 L52.685,214.054 L55.821,214.953 L55.516,205.476 Z M22.689,94.698 L-31.229,114.9 L-118.396,165.042 L49.798,213.227 L55.237,196.753 L53.437,140.669 L22.689,94.698 Z M167.208,143.111 L155.957,159.2 L155.957,180.778 L189.593,212.018 L167.208,143.111 Z M56.59,145.382 L57.973,188.466 L67.039,161.004 L56.59,145.382 Z M84.293,118.313 L70.347,160.555 L85.662,183.451 L112.456,144.47 L84.293,118.313 Z M152.957,163.49 L146.809,172.281 L152.957,177.992 L152.957,163.49 Z M151.105,93.539 L116.395,144.034 L144.59,170.22 L152.957,158.255 L152.957,99.242 L151.105,93.539 Z M54.844,90.962 L56.409,139.717 L68.231,157.392 L81.875,116.067 L54.844,90.962 Z M155.957,108.477 L155.957,153.965 L166.047,139.537 L155.957,108.477 Z M133.568,53.154 L101.886,65.025 L85.328,115.179 L114.174,141.971 L149.936,89.943 L144.798,74.125 L133.568,53.154 Z M155.957,94.964 L155.957,98.768 L168.201,136.458 L173.85,128.379 L155.957,94.964 Z M48.468,85.039 L25.574,93.617 L53.256,135.003 L51.751,88.088 L48.468,85.039 Z M259.439,5.992 L194.577,30.295 L155.957,86.48 L155.957,88.609 L175.778,125.623 L259.439,5.992 Z M12.067,78.819 L-54.23,120.314 L-32.507,112.175 L15.793,84.39 L12.067,78.819 Z M98.28,66.375 L54.581,82.749 L54.709,86.741 L82.909,112.933 L98.28,66.375 Z M20.975,92.136 L17.465,86.889 L-15.254,105.71 L20.975,92.136 Z M46.01,82.756 L37.84,75.168 L20.07,85.39 L23.86,91.055 L46.01,82.756 Z M152.957,45.889 L140.318,50.625 L147.567,72.94 L152.957,83.006 L152.957,45.889 Z M29.813,67.713 L14.611,77.228 L18.399,82.891 L35.539,73.031 L29.813,67.713 Z M51.513,80.694 L51.091,67.545 L40.562,73.602 L49.151,81.579 L51.513,80.694 Z M189.674,32.132 L155.957,44.765 L155.957,81.184 L189.674,32.132 Z M99.487,62.719 L108.866,34.311 L54.039,65.85 L54.479,79.583 L99.487,62.719 Z M-27.127,14.829 L12.942,74.733 L27.536,65.599 L-27.127,14.829 Z M50.678,54.654 L32.447,66.065 L38.261,71.465 L50.982,64.147 L50.678,54.654 Z M113.363,15.421 L53.62,52.812 L53.93,62.452 L110.277,30.039 L114.439,17.431 L113.363,15.421 Z M132.139,50.485 L120.037,27.885 L112.766,32.068 L103.093,61.368 L132.139,50.485 Z M137.506,51.678 L136.403,52.092 L139.549,57.968 L137.506,51.678 Z M136.578,48.822 L128.243,23.164 L122.639,26.389 L134.974,49.423 L136.578,48.822 Z M48.537,-105.639 L53.509,49.343 L111.943,12.77 L48.537,-105.639 Z M152.957,42.685 L152.957,8.948 L130.9,21.636 L139.39,47.769 L152.957,42.685 Z M192.64,27.817 L240.043,-41.146 L155.957,7.222 L155.957,41.561 L192.64,27.817 Z M116.393,21.081 L114.177,27.795 L118.62,25.239 L116.393,21.081 Z M123.638,8.989 L119.538,11.556 L117.691,17.15 L121.222,23.743 L127.296,20.248 L123.638,8.989 Z M152.957,-9.36 L126.259,7.349 L129.953,18.719 L152.957,5.488 L152.957,-9.36 Z M122.025,4.023 L121.011,7.095 L122.683,6.048 L122.025,4.023 Z M152.957,-89.669 L123.615,-0.792 L125.304,4.408 L152.957,-12.9 L152.957,-89.669 Z" id="Path-5" fill="#F7AD01" fill-rule="nonzero" mask="url(#mask-14)"></path>
                    </g>
                    <g id="Combined-Shape-Copy-2" transform="translate(333.000000, 218.000000)">
                        <mask id="mask-16" fill="white">
                            <use xlink:href="#path-15"></use>
                        </mask>
                        <use id="Mask" fill="#7C00D9" xlink:href="#path-15"></use>
                        <path d="M81.5,-14 C88.4035594,-14 94,-8.40355937 94,-1.5 C94,5.40355937 88.4035594,11 81.5,11 C74.5964406,11 69,5.40355937 69,-1.5 C69,-8.40355937 74.5964406,-14 81.5,-14 Z M81.5,-11 C76.2532949,-11 72,-6.74670512 72,-1.5 C72,3.74670512 76.2532949,8 81.5,8 C86.7467051,8 91,3.74670512 91,-1.5 C91,-6.74670512 86.7467051,-11 81.5,-11 Z" id="Oval" fill="#F7AD01" fill-rule="nonzero" mask="url(#mask-16)"></path>
                        <path d="M81.5,27 C88.4035594,27 94,32.5964406 94,39.5 C94,46.4035594 88.4035594,52 81.5,52 C74.5964406,52 69,46.4035594 69,39.5 C69,32.5964406 74.5964406,27 81.5,27 Z M81.5,30 C76.2532949,30 72,34.2532949 72,39.5 C72,44.7467051 76.2532949,49 81.5,49 C86.7467051,49 91,44.7467051 91,39.5 C91,34.2532949 86.7467051,30 81.5,30 Z" id="Oval-Copy-11" fill="#F7AD01" fill-rule="nonzero" mask="url(#mask-16)"></path>
                        <path d="M81.5,68 C88.4035594,68 94,73.5964406 94,80.5 C94,87.4035594 88.4035594,93 81.5,93 C74.5964406,93 69,87.4035594 69,80.5 C69,73.5964406 74.5964406,68 81.5,68 Z M81.5,71 C76.2532949,71 72,75.2532949 72,80.5 C72,85.7467051 76.2532949,90 81.5,90 C86.7467051,90 91,85.7467051 91,80.5 C91,75.2532949 86.7467051,71 81.5,71 Z" id="Oval-Copy-12" fill="#F7AD01" fill-rule="nonzero" mask="url(#mask-16)"></path>
                        <path d="M81.5,109 C88.4035594,109 94,114.596441 94,121.5 C94,128.403559 88.4035594,134 81.5,134 C74.5964406,134 69,128.403559 69,121.5 C69,114.596441 74.5964406,109 81.5,109 Z M81.5,112 C76.2532949,112 72,116.253295 72,121.5 C72,126.746705 76.2532949,131 81.5,131 C86.7467051,131 91,126.746705 91,121.5 C91,116.253295 86.7467051,112 81.5,112 Z" id="Oval-Copy-13" fill="#F7AD01" fill-rule="nonzero" mask="url(#mask-16)"></path>
                        <path d="M81.5,150 C88.4035594,150 94,155.596441 94,162.5 C94,169.403559 88.4035594,175 81.5,175 C74.5964406,175 69,169.403559 69,162.5 C69,155.596441 74.5964406,150 81.5,150 Z M81.5,153 C76.2532949,153 72,157.253295 72,162.5 C72,167.746705 76.2532949,172 81.5,172 C86.7467051,172 91,167.746705 91,162.5 C91,157.253295 86.7467051,153 81.5,153 Z" id="Oval-Copy-14" fill="#F7AD01" fill-rule="nonzero" mask="url(#mask-16)"></path>
                        <path d="M49.5,10 C56.4035594,10 62,15.5964406 62,22.5 C62,29.4035594 56.4035594,35 49.5,35 C42.5964406,35 37,29.4035594 37,22.5 C37,15.5964406 42.5964406,10 49.5,10 Z M49.5,13 C44.2532949,13 40,17.2532949 40,22.5 C40,27.7467051 44.2532949,32 49.5,32 C54.7467051,32 59,27.7467051 59,22.5 C59,17.2532949 54.7467051,13 49.5,13 Z" id="Oval-Copy-19" fill="#F7AD01" fill-rule="nonzero" mask="url(#mask-16)"></path>
                        <path d="M49.5,51 C56.4035594,51 62,56.5964406 62,63.5 C62,70.4035594 56.4035594,76 49.5,76 C42.5964406,76 37,70.4035594 37,63.5 C37,56.5964406 42.5964406,51 49.5,51 Z M49.5,54 C44.2532949,54 40,58.2532949 40,63.5 C40,68.7467051 44.2532949,73 49.5,73 C54.7467051,73 59,68.7467051 59,63.5 C59,58.2532949 54.7467051,54 49.5,54 Z" id="Oval-Copy-18" fill="#F7AD01" fill-rule="nonzero" mask="url(#mask-16)"></path>
                        <path d="M49.5,92 C56.4035594,92 62,97.5964406 62,104.5 C62,111.403559 56.4035594,117 49.5,117 C42.5964406,117 37,111.403559 37,104.5 C37,97.5964406 42.5964406,92 49.5,92 Z M49.5,95 C44.2532949,95 40,99.2532949 40,104.5 C40,109.746705 44.2532949,114 49.5,114 C54.7467051,114 59,109.746705 59,104.5 C59,99.2532949 54.7467051,95 49.5,95 Z" id="Oval-Copy-17" fill="#F7AD01" fill-rule="nonzero" mask="url(#mask-16)"></path>
                        <path d="M49.5,133 C56.4035594,133 62,138.596441 62,145.5 C62,152.403559 56.4035594,158 49.5,158 C42.5964406,158 37,152.403559 37,145.5 C37,138.596441 42.5964406,133 49.5,133 Z M49.5,136 C44.2532949,136 40,140.253295 40,145.5 C40,150.746705 44.2532949,155 49.5,155 C54.7467051,155 59,150.746705 59,145.5 C59,140.253295 54.7467051,136 49.5,136 Z" id="Oval-Copy-16" fill="#F7AD01" fill-rule="nonzero" mask="url(#mask-16)"></path>
                        <path d="M113.5,10 C120.403559,10 126,15.5964406 126,22.5 C126,29.4035594 120.403559,35 113.5,35 C106.596441,35 101,29.4035594 101,22.5 C101,15.5964406 106.596441,10 113.5,10 Z M113.5,13 C108.253295,13 104,17.2532949 104,22.5 C104,27.7467051 108.253295,32 113.5,32 C118.746705,32 123,27.7467051 123,22.5 C123,17.2532949 118.746705,13 113.5,13 Z" id="Oval-Copy-28" fill="#F7AD01" fill-rule="nonzero" mask="url(#mask-16)"></path>
                        <path d="M113.5,51 C120.403559,51 126,56.5964406 126,63.5 C126,70.4035594 120.403559,76 113.5,76 C106.596441,76 101,70.4035594 101,63.5 C101,56.5964406 106.596441,51 113.5,51 Z M113.5,54 C108.253295,54 104,58.2532949 104,63.5 C104,68.7467051 108.253295,73 113.5,73 C118.746705,73 123,68.7467051 123,63.5 C123,58.2532949 118.746705,54 113.5,54 Z" id="Oval-Copy-27" fill="#F7AD01" fill-rule="nonzero" mask="url(#mask-16)"></path>
                        <path d="M113.5,92 C120.403559,92 126,97.5964406 126,104.5 C126,111.403559 120.403559,117 113.5,117 C106.596441,117 101,111.403559 101,104.5 C101,97.5964406 106.596441,92 113.5,92 Z M113.5,95 C108.253295,95 104,99.2532949 104,104.5 C104,109.746705 108.253295,114 113.5,114 C118.746705,114 123,109.746705 123,104.5 C123,99.2532949 118.746705,95 113.5,95 Z" id="Oval-Copy-26" fill="#F7AD01" fill-rule="nonzero" mask="url(#mask-16)"></path>
                        <path d="M113.5,133 C120.403559,133 126,138.596441 126,145.5 C126,152.403559 120.403559,158 113.5,158 C106.596441,158 101,152.403559 101,145.5 C101,138.596441 106.596441,133 113.5,133 Z M113.5,136 C108.253295,136 104,140.253295 104,145.5 C104,150.746705 108.253295,155 113.5,155 C118.746705,155 123,150.746705 123,145.5 C123,140.253295 118.746705,136 113.5,136 Z" id="Oval-Copy-25" fill="#F7AD01" fill-rule="nonzero" mask="url(#mask-16)"></path>
                        <path d="M49.5,174 C56.4035594,174 62,179.596441 62,186.5 C62,193.403559 56.4035594,199 49.5,199 C42.5964406,199 37,193.403559 37,186.5 C37,179.596441 42.5964406,174 49.5,174 Z M49.5,177 C44.2532949,177 40,181.253295 40,186.5 C40,191.746705 44.2532949,196 49.5,196 C54.7467051,196 59,191.746705 59,186.5 C59,181.253295 54.7467051,177 49.5,177 Z" id="Oval-Copy-15" fill="#F7AD01" fill-rule="nonzero" mask="url(#mask-16)"></path>
                        <path d="M17.5,-14 C24.4035594,-14 30,-8.40355937 30,-1.5 C30,5.40355937 24.4035594,11 17.5,11 C10.5964406,11 5,5.40355937 5,-1.5 C5,-8.40355937 10.5964406,-14 17.5,-14 Z M17.5,-11 C12.2532949,-11 8,-6.74670512 8,-1.5 C8,3.74670512 12.2532949,8 17.5,8 C22.7467051,8 27,3.74670512 27,-1.5 C27,-6.74670512 22.7467051,-11 17.5,-11 Z" id="Oval-Copy-24" fill="#F7AD01" fill-rule="nonzero" mask="url(#mask-16)"></path>
                        <path d="M17.5,27 C24.4035594,27 30,32.5964406 30,39.5 C30,46.4035594 24.4035594,52 17.5,52 C10.5964406,52 5,46.4035594 5,39.5 C5,32.5964406 10.5964406,27 17.5,27 Z M17.5,30 C12.2532949,30 8,34.2532949 8,39.5 C8,44.7467051 12.2532949,49 17.5,49 C22.7467051,49 27,44.7467051 27,39.5 C27,34.2532949 22.7467051,30 17.5,30 Z" id="Oval-Copy-23" fill="#F7AD01" fill-rule="nonzero" mask="url(#mask-16)"></path>
                        <path d="M17.5,68 C24.4035594,68 30,73.5964406 30,80.5 C30,87.4035594 24.4035594,93 17.5,93 C10.5964406,93 5,87.4035594 5,80.5 C5,73.5964406 10.5964406,68 17.5,68 Z M17.5,71 C12.2532949,71 8,75.2532949 8,80.5 C8,85.7467051 12.2532949,90 17.5,90 C22.7467051,90 27,85.7467051 27,80.5 C27,75.2532949 22.7467051,71 17.5,71 Z" id="Oval-Copy-22" fill="#F7AD01" fill-rule="nonzero" mask="url(#mask-16)"></path>
                        <path d="M17.5,109 C24.4035594,109 30,114.596441 30,121.5 C30,128.403559 24.4035594,134 17.5,134 C10.5964406,134 5,128.403559 5,121.5 C5,114.596441 10.5964406,109 17.5,109 Z M17.5,112 C12.2532949,112 8,116.253295 8,121.5 C8,126.746705 12.2532949,131 17.5,131 C22.7467051,131 27,126.746705 27,121.5 C27,116.253295 22.7467051,112 17.5,112 Z" id="Oval-Copy-21" fill="#F7AD01" fill-rule="nonzero" mask="url(#mask-16)"></path>
                        <path d="M145.5,27 C152.403559,27 158,32.5964406 158,39.5 C158,46.4035594 152.403559,52 145.5,52 C138.596441,52 133,46.4035594 133,39.5 C133,32.5964406 138.596441,27 145.5,27 Z M145.5,30 C140.253295,30 136,34.2532949 136,39.5 C136,44.7467051 140.253295,49 145.5,49 C150.746705,49 155,44.7467051 155,39.5 C155,34.2532949 150.746705,30 145.5,30 Z" id="Oval-Copy-31" fill="#F7AD01" fill-rule="nonzero" mask="url(#mask-16)"></path>
                        <path d="M145.5,68 C152.403559,68 158,73.5964406 158,80.5 C158,87.4035594 152.403559,93 145.5,93 C138.596441,93 133,87.4035594 133,80.5 C133,73.5964406 138.596441,68 145.5,68 Z M145.5,71 C140.253295,71 136,75.2532949 136,80.5 C136,85.7467051 140.253295,90 145.5,90 C150.746705,90 155,85.7467051 155,80.5 C155,75.2532949 150.746705,71 145.5,71 Z" id="Oval-Copy-30" fill="#F7AD01" fill-rule="nonzero" mask="url(#mask-16)"></path>
                        <path d="M145.5,109 C152.403559,109 158,114.596441 158,121.5 C158,128.403559 152.403559,134 145.5,134 C138.596441,134 133,128.403559 133,121.5 C133,114.596441 138.596441,109 145.5,109 Z M145.5,112 C140.253295,112 136,116.253295 136,121.5 C136,126.746705 140.253295,131 145.5,131 C150.746705,131 155,126.746705 155,121.5 C155,116.253295 150.746705,112 145.5,112 Z" id="Oval-Copy-29" fill="#F7AD01" fill-rule="nonzero" mask="url(#mask-16)"></path>
                        <path d="M17.5,150 C24.4035594,150 30,155.596441 30,162.5 C30,169.403559 24.4035594,175 17.5,175 C10.5964406,175 5,169.403559 5,162.5 C5,155.596441 10.5964406,150 17.5,150 Z M17.5,153 C12.2532949,153 8,157.253295 8,162.5 C8,167.746705 12.2532949,172 17.5,172 C22.7467051,172 27,167.746705 27,162.5 C27,157.253295 22.7467051,153 17.5,153 Z" id="Oval-Copy-20" fill="#F7AD01" fill-rule="nonzero" mask="url(#mask-16)"></path>
                    </g>
                    <path d="M349.302714,180.644577 C349.907202,180.078108 350.856449,180.108929 351.422917,180.713417 C351.989386,181.317904 351.958565,182.267151 351.354078,182.83362 C297.840605,232.981367 274.468911,265.889807 281.05817,280.588495 C285.531149,290.566387 304.81765,304.708796 332.19334,319.61612 L334.068194,320.630595 C354.35818,331.54086 377.11425,341.595482 380.500848,341.595482 C382.825424,341.595482 387.201456,337.115032 390.946093,330.927671 L391.157361,330.575639 C394.597737,324.794487 396.284751,319.287857 395.504465,318.727626 C393.789183,317.496086 389.353189,319.675478 382.590392,325.886858 C381.315228,327.05805 379.398683,325.495008 380.289497,324.010358 L381.409235,322.135597 C386.034303,314.354921 389.35816,308.284346 391.375573,303.938079 L391.532128,303.598535 C392.582511,301.304685 393.242232,299.533727 393.509839,298.319967 C393.538256,298.191078 393.561673,298.070821 393.580395,297.959633 L393.611,297.746 L393.483968,297.819941 L393.353132,297.901477 C392.568503,298.40703 391.53395,299.357416 390.284046,300.741601 C387.68155,303.62369 384.228622,308.286483 379.944477,314.712817 C379.02527,316.091652 376.878567,315.181405 377.230638,313.562092 L377.669407,311.523541 C379.323536,303.756258 380.368739,297.860961 380.804346,293.853908 L380.882228,293.088993 C381.010246,291.734042 381.057259,290.640512 381.026626,289.821023 L381.017,289.627 L380.985394,289.667197 C380.393312,290.426215 379.684226,291.588487 378.872682,293.14153 L378.697217,293.480301 C376.878679,297.021817 374.604762,302.376816 371.884982,309.530254 C371.532005,310.458639 370.390483,310.793825 369.591612,310.203658 L365.182393,306.93704 C353.503534,298.258629 344.470637,291.328119 338.079836,286.142107 L336.535824,284.881287 C329.191573,278.847777 326.018182,275.700897 326.018182,273.905213 C326.018182,270.926161 331.176464,265.93531 342.017423,257.80583 C342.680201,257.308822 343.620393,257.443205 344.117401,258.105983 C344.614408,258.768761 344.480025,259.708953 343.817247,260.205961 L342.279631,261.367856 C337.956561,264.66083 334.66452,267.402155 332.410991,269.582538 L331.942549,270.043116 C330.21384,271.77139 329.255169,273.064415 329.056953,273.693461 L329.034,273.775 L329.060521,273.820354 C329.112843,273.908047 329.184725,274.014513 329.275786,274.137287 L329.373226,274.265405 C329.771684,274.777354 330.399524,275.453412 331.249405,276.280162 L331.706548,276.719108 C333.451632,278.374487 335.95435,280.534669 339.208231,283.192316 L340.763996,284.454767 C347.333002,289.75279 356.551552,296.802683 368.415779,305.60104 L369.787,306.618 L370.260603,305.395709 C375.444448,292.078313 378.709625,286.040694 381.474726,285.897059 L381.575727,285.894432 C384.007948,285.894432 384.372123,288.331191 383.857195,293.503015 L383.786775,294.178128 C383.457834,297.203984 382.799689,301.229008 381.812074,306.259616 L381.695,306.849 L381.755318,306.764418 C388.495197,297.269051 392.60895,293.415259 395.318034,294.842559 L395.424244,294.901642 C398.32229,296.600146 395.690087,303.472235 387.375176,317.897955 L387.117,318.343 L387.408266,318.148344 C391.589088,315.368325 394.779682,314.652424 397.094088,316.180444 L397.254138,316.290693 C400.042969,318.293022 398.185512,324.532272 393.942551,331.759375 L393.735394,332.109831 C389.397721,339.398787 384.372065,344.595482 380.500848,344.595482 C376.348414,344.595482 353.047797,334.290944 332.041669,322.946585 L330.758629,322.250812 C302.747795,306.997624 283.175656,292.645762 278.320656,281.815693 C270.907874,265.279971 294.628835,231.879747 349.302714,180.644577 Z" id="Path-3" fill="#131313" fill-rule="nonzero"></path>
                    <path d="M500.816703,180.644577 C501.42119,180.078108 502.370438,180.108929 502.936906,180.713417 C503.503374,181.317904 503.472554,182.267151 502.868066,182.83362 C449.354594,232.981367 425.982899,265.889807 432.572159,280.588495 C437.045137,290.566387 456.331638,304.708796 483.707329,319.61612 L485.582182,320.630595 C505.872168,331.54086 528.628238,341.595482 532.014837,341.595482 C534.339412,341.595482 538.715444,337.115032 542.460081,330.927671 L542.671349,330.575639 C546.111725,324.794487 547.79874,319.287857 547.018454,318.727626 C545.303172,317.496086 540.867178,319.675478 534.104381,325.886858 C532.829216,327.05805 530.912672,325.495008 531.803485,324.010358 L532.923224,322.135597 C537.548291,314.354921 540.872148,308.284346 542.889561,303.938079 L543.046116,303.598535 C544.096499,301.304685 544.75622,299.533727 545.023828,298.319967 C545.052245,298.191078 545.075661,298.070821 545.094384,297.959633 L545.125,297.746 L544.997956,297.819941 L544.86712,297.901477 C544.082491,298.40703 543.047939,299.357416 541.798034,300.741601 C539.195538,303.62369 535.742611,308.286483 531.458465,314.712817 C530.539259,316.091652 528.392556,315.181405 528.744627,313.562092 L529.183395,311.523541 C530.837524,303.756258 531.882728,297.860961 532.318335,293.853908 L532.396217,293.088993 C532.524235,291.734042 532.571247,290.640512 532.540614,289.821023 L532.531,289.627 L532.499382,289.667197 C531.9073,290.426215 531.198215,291.588487 530.386671,293.14153 L530.211206,293.480301 C528.392667,297.021817 526.11875,302.376816 523.39897,309.530254 C523.045993,310.458639 521.904471,310.793825 521.1056,310.203658 L516.696381,306.93704 C505.017523,298.258629 495.984626,291.328119 489.593824,286.142107 L488.049813,284.881287 C480.705561,278.847777 477.53217,275.700897 477.53217,273.905213 C477.53217,270.926161 482.690452,265.93531 493.531411,257.80583 C494.194189,257.308822 495.134381,257.443205 495.631389,258.105983 C496.128397,258.768761 495.994014,259.708953 495.331235,260.205961 L493.79362,261.367856 C489.47055,264.66083 486.178509,267.402155 483.924979,269.582538 L483.456537,270.043116 C481.727829,271.77139 480.769158,273.064415 480.570941,273.693461 L480.548,273.775 L480.57451,273.820354 C480.626832,273.908047 480.698713,274.014513 480.789774,274.137287 L480.887214,274.265405 C481.285672,274.777354 481.913513,275.453412 482.763393,276.280162 L483.220536,276.719108 C484.965621,278.374487 487.468338,280.534669 490.722219,283.192316 L492.277984,284.454767 C498.84699,289.75279 508.06554,296.802683 519.929767,305.60104 L521.301,306.617 L522.159804,304.410533 C527.121383,291.780116 530.292741,286.037103 532.988714,285.897059 L533.089716,285.894432 C535.625436,285.894432 535.91336,288.542987 535.300764,294.178128 L535.207485,294.990151 C534.854871,297.911592 534.227798,301.666452 533.326062,306.259616 L533.209,306.849 L533.269306,306.764418 C540.009186,297.269051 544.122939,293.415259 546.832022,294.842559 L546.938233,294.901642 C549.804778,296.581684 547.260644,303.323453 539.158289,317.430226 L538.631,318.343 L538.922255,318.148344 C543.103077,315.368325 546.29367,314.652424 548.608077,316.180444 L548.768127,316.290693 C551.556957,318.293022 549.699501,324.532272 545.456539,331.759375 L545.249382,332.109831 C540.911709,339.398787 535.886054,344.595482 532.014837,344.595482 C527.862402,344.595482 504.561786,334.290944 483.555658,322.946585 L482.272618,322.250812 C454.261783,306.997624 434.689644,292.645762 429.834644,281.815693 C422.421862,265.279971 446.142823,231.879747 500.816703,180.644577 Z" id="Path-3-Copy" fill="#131313" fill-rule="nonzero" transform="translate(489.301597, 262.417287) scale(-1, 1) translate(-489.301597, -262.417287) "></path>
                </g>
            </g>
        </g>
    </g>
</svg>