<?xml version="1.0" encoding="UTF-8"?>
<svg width="783px" height="600px" viewBox="0 0 783 600" version="1.1" xmlns="http://www.w3.org/2000/svg" xmlns:xlink="http://www.w3.org/1999/xlink">
    <title>illustration-3 hover</title>
    <defs>
        <polygon id="path-1" points="23.1769575 28.4689634 163.459049 28.6679873 163.638171 154.747143 23.356079 154.548119"></polygon>
        <polygon id="path-3" points="92.3214432 24.1418936 160.503508 160.473168 24.1624425 160.461636"></polygon>
        <polygon id="path-5" points="98.5130668 21.3416926 175.608211 175.571313 21.3985469 175.581"></polygon>
        <path d="M20.7385644,42.8326016 L19.9589333,0 L121.310974,10.9028441 L106.887799,120.320672 L0.468156195,105.913342 L16.8404089,63.4701279 C29.8342603,44.0007635 35.811432,33.6171025 34.7719239,32.3191449 C33.7324157,31.0211872 29.0546292,34.5256728 20.7385644,42.8326016 Z" id="path-7"></path>
        <path d="M147.071489,70.1663202 C142.919297,116.424116 136.171985,142.411642 126.829553,148.128898 C117.487121,153.846154 85.3076318,170.348233 30.2910864,197.635135 C25.8793823,201.273389 20.8188981,201.273389 15.109634,197.635135 C6.54573776,192.177755 -10.1927867,153.976091 8.49207781,144.620582 C20.9486541,138.383576 44.6940027,124.480249 79.7281237,102.910603 C81.0256837,34.3035343 103.473472,0 147.071489,0 C189.89097,0 259.959212,125.519751 244.388492,144.620582 C234.008012,157.35447 212.209003,183.991684 178.991466,224.532225 C170.168058,233.367983 159.528066,232.588358 147.071489,222.193347 C128.386625,206.600832 135.393449,189.449064 147.071489,175.805613 C154.85685,166.709979 167.572938,150.987526 185.219754,128.638254 L147.071489,70.1663202 Z" id="path-9"></path>
    </defs>
    <g id="Desktop" stroke="none" stroke-width="1" fill="none" fill-rule="evenodd" opacity="0.2">
        <g id="Artboard" transform="translate(-268.000000, -1180.000000)">
            <g id="illustration-3-hover" transform="translate(268.000000, 1180.000000)">
                <path d="M551.421615,191.819643 C552.010659,191.55364 552.703055,191.817198 552.968125,192.408315 C553.233195,192.999432 552.970562,193.694265 552.381518,193.960268 C547.603391,196.117991 541.151089,206.095205 533.325766,223.73546 L532.919566,224.654518 L481.08694,251.05608 C480.510951,251.349467 479.807018,251.118729 479.51466,250.540714 C479.2395,249.9967 479.426988,249.338952 479.930202,249.018854 L480.028219,248.962903 L531.117867,222.939069 L531.672126,221.696762 C539.447084,204.350966 545.882787,194.465483 551.254174,191.89748 L551.421615,191.819643 Z" id="Path-2" fill="#FFFFFF" fill-rule="nonzero"></path>
                <path d="M449.371557,99.942376 L531.177426,99.9411477 C539.998006,99.9410153 547.148606,107.0914 547.148738,115.91198 C547.148738,115.91206 547.148738,115.91214 547.148738,115.91222 C547.148738,124.73297 539.998177,131.883639 531.177426,131.883771 L449.371557,131.884999 C440.550978,131.885132 433.400378,124.734747 433.400245,115.914167 C433.400245,115.914087 433.400245,115.914007 433.400245,115.913928 C433.400245,107.093177 440.550807,99.9425085 449.371557,99.942376 Z" id="Rectangle" fill="#DD63B1" transform="translate(490.274492, 115.913074) rotate(36.000000) translate(-490.274492, -115.913074) "></path>
                <ellipse id="Oval" fill="#E73D11" cx="156.244898" cy="498.816568" rx="52.377551" ry="52.3668639"></ellipse>
                <g id="Path-15" transform="translate(66.581633, 0.000000)">
                    <mask id="mask-2" fill="white">
                        <use xlink:href="#path-1"></use>
                    </mask>
                    <use id="Mask" fill="#FFFFFF" transform="translate(93.407530, 91.608032) rotate(-32.000000) translate(-93.407530, -91.608032) " xlink:href="#path-1"></use>
                    <path d="M90.918821,-8.44333182 C93.7608141,39.5670635 105.674372,59.8428693 126.405605,53.4798299 C132.954886,51.4696586 136.449095,48.5418995 137.637151,44.6866372 C138.592434,41.5867258 138.132883,37.9350889 136.439507,32.9029378 L136.142892,32.042053 C135.825887,31.1408772 135.480169,30.213706 134.99669,28.9561095 L134.172621,26.8158676 C131.693899,20.3291123 131.051613,17.9617817 131.226176,14.9289326 C131.489372,10.3561966 134.569966,7.43831829 140.939311,6.19419923 C154.293206,3.58579375 163.881674,18.3293769 164.5303,38.7572575 C165.203285,59.9523096 156.221417,79.5916725 139.540181,87.7542255 L139.032335,87.9980524 C122.417885,95.8231201 112.022255,111.747407 110.143516,129.875392 C108.363821,147.047695 114.672953,162.943163 126.806624,170.473901 L127.176092,170.699538 C133.89358,174.735715 135.597455,180.014772 132.565488,185.482106 C130.042314,190.031971 124.293689,194.465204 117.081364,197.73563 C110.034014,200.931247 102.429249,202.622813 96.5827449,202.157337 C89.709849,201.610144 85.5460465,198.13262 85.5460465,191.907797 L85.5506636,191.075999 C85.6447635,182.669925 87.1993343,174.247474 92.2338783,152.366293 L94.3328816,143.282168 L94.6537955,141.878752 C99.8290258,119.159886 101.754154,106.369055 100.68306,96.4716035 C99.1953261,82.7241873 93.6045257,68.0684262 84.8943873,57.4970932 C74.2024844,44.5205295 59.6018623,38.2293772 41.3070084,40.5501056 C16.0660251,43.7519604 2.91129972,49.0559061 1.65892964,55.9285967 L1.63753303,56.0583819 L2.10196387,56.1391123 C51.3373795,64.799471 75.4105269,83.0166942 73.7989777,110.870187 L73.7416209,111.725855 C73.0287145,121.088771 70.3413467,127.871041 65.8425982,132.58994 C62.2446239,136.363985 57.7237366,138.675558 51.7655006,140.265156 L50.2091543,140.66279 C49.1194664,140.930421 48.2182932,141.118834 46.0808863,141.526514 L42.4317394,142.21693 C37.5716609,143.154148 35.1897576,143.870817 33.3163965,145.126923 C30.9980349,146.681405 30.0454783,148.968555 30.483522,152.702431 C31.6078612,162.286277 38.3829677,164.528624 51.556439,162.275728 L51.9575943,162.206085 C53.5753908,161.921094 55.2041368,161.591382 57.3296454,161.127715 L62.312967,160.037051 C68.8811353,158.626484 70.515097,158.469849 72.7871842,158.887664 C82.8781476,160.743297 82.6123742,178.484682 73.7626695,189.961213 L73.491871,190.307046 L71.657975,188.858039 C79.8650084,178.536453 80.1942796,162.621845 72.3626618,161.181685 L72.0065286,161.122529 C70.1968634,160.856157 68.3003539,161.126246 61.87042,162.52009 L57.4016296,163.499585 C55.4527817,163.921381 53.9077876,164.23141 52.3648216,164.503219 C45.8239248,165.655461 40.8777519,165.775407 36.9138953,164.517479 C31.912088,162.930158 28.8854196,159.163208 28.1592542,152.973388 C27.6231165,148.40336 28.9350478,145.253327 32.0103322,143.191321 L32.3300943,142.983429 C34.4272659,141.662303 36.9201472,140.916812 41.6059051,140.000635 L47.0619191,138.960488 C48.6684111,138.643417 49.3648362,138.475424 50.6951099,138.133591 C56.5064436,136.640288 60.7976472,134.495507 64.1463096,130.982974 C68.2475442,126.681042 70.7338471,120.406211 71.408225,111.549305 C73.4504659,84.7276507 50.386261,66.9949599 1.67702568,58.4330934 L0.193137971,58.1764501 L-0.780035864,58.0108537 L-0.780035864,57.0267173 C-0.780035864,47.817393 13.2220095,41.76119 41.0116053,38.23604 C60.1322185,35.8105629 75.5157113,42.4390404 86.7027279,56.0165144 C95.7215787,66.962526 101.475649,82.0462832 103.009669,96.2214057 L103.073753,96.8522748 C104.037984,107.001825 102.06686,119.870447 96.9386712,142.38279 L94.0405022,154.954755 C89.2745644,175.782141 87.886154,183.725176 87.886154,191.907797 C87.886154,196.768594 91.0046199,199.373074 96.7690514,199.832016 C102.17705,200.262579 109.400291,198.655877 116.112422,195.612265 C122.909166,192.530285 128.279827,188.38853 130.517485,184.353518 C132.877052,180.098674 131.687851,176.233502 126.231142,172.857787 L125.96807,172.697409 C112.745632,164.752758 105.931424,147.818021 107.815797,129.635673 C109.755766,110.916877 120.42784,94.4116551 137.512974,86.1371077 L138.032666,85.8888894 C154.08405,78.3290143 162.844313,59.3951093 162.191363,38.8310556 C161.581777,19.6326905 152.872155,6.24045392 141.389292,8.48339244 C135.992746,9.5374954 133.758653,11.6535836 133.562442,15.0625552 L133.549146,15.3479019 C133.463709,17.7654139 134.091988,20.0271006 136.247536,25.6915059 L137.417914,28.7379169 C137.828192,29.814414 138.1379,30.6562947 138.432614,31.5028731 L138.512684,31.7340544 C140.467362,37.4065756 141.036589,41.5993102 139.87409,45.3716412 C138.432832,50.0485509 134.325999,53.4896207 127.094225,55.7092699 C104.483301,62.6492425 91.7584475,41.4469 88.6733154,-6.83455773 L88.5827769,-8.30591979 L90.918821,-8.44333182 Z" fill="#F7AD01" fill-rule="nonzero" mask="url(#mask-2)"></path>
                </g>
                <polygon id="Rectangle-Copy-6" fill="#E73D11" transform="translate(502.211124, 541.516487) rotate(37.000000) translate(-502.211124, -541.516487) " points="457.803267 502.562721 546.620162 502.561374 546.61898 580.470252 457.802085 580.4716"></polygon>
                <g id="Path-17" transform="translate(67.469388, 214.792899)">
                    <mask id="mask-4" fill="white">
                        <use xlink:href="#path-3"></use>
                    </mask>
                    <use id="Mask" fill="#DD63B1" transform="translate(92.332975, 92.307531) rotate(-28.000000) translate(-92.332975, -92.307531) " xlink:href="#path-3"></use>
                    <path d="M97.748097,163.864783 L98.2952968,166.91284 C99.5048874,173.745338 99.6947895,175.578061 99.7812231,178.552126 L99.8084683,179.638893 C99.9766496,187.108182 97.7296643,190.986549 92.2478238,190.616604 C79.6802308,189.768472 68.2280759,182.60382 62.0781742,172.902833 C56.0050501,163.322956 56.8786143,153.80754 65.3925238,150.253924 C70.5789179,148.089177 76.7682441,149.250763 84.7373708,153.276741 C87.3048724,154.573835 90.0452247,156.154542 93.2588846,158.169042 L94.4726478,158.936254 L93.4376581,153.294501 C92.0320059,145.558642 91.1512354,139.867008 90.560951,134.179131 L90.4779153,133.359344 L90.4367707,132.931969 L90.2162133,133.083462 C90.0563666,133.194623 89.9020674,133.305562 89.7535443,133.416173 L89.5351203,133.581828 C85.2956616,136.857601 71.5462686,139.205474 61.0870151,138.114324 C47.3371744,136.679887 40.4945856,129.978605 45.0926053,118.077921 C48.181418,110.083396 53.088985,106.192877 59.954227,105.549706 C64.9360579,105.082983 68.9574287,105.880304 79.6510985,108.879563 L82.4340619,109.656966 C83.9019239,110.061733 85.0376534,110.362483 86.1839731,110.647973 L86.6438781,110.761566 C87.7411071,111.030355 88.7926538,111.268652 89.8043256,111.475856 L90.4835183,111.61084 L90.486486,111.594913 C91.3991563,104.793611 93.3344266,98.949935 96.4645139,93.9775878 L96.6956795,93.6153113 C99.6964548,88.9756283 103.715241,85.2410531 108.823511,82.4572607 L109.083613,82.3169743 L108.893296,82.2330561 L108.668394,82.1405233 L108.440989,82.0541051 C107.008871,81.5321483 105.526076,81.3857173 103.949652,81.5845582 C100.691111,81.9955716 97.7831119,83.4744742 92.2299199,87.1682308 L89.8066341,88.7875245 C86.3684698,91.0698681 84.8228484,91.9780358 82.7936552,92.853681 L82.6365695,92.9209968 C79.2529671,94.3610839 76.2855851,94.5995172 73.5190551,93.3763117 C67.9661043,90.9211059 67.21004,84.7872855 70.2935694,76.7692546 C72.8017766,70.2472205 77.7905797,62.7688681 83.2014841,57.1695644 L83.5886674,56.772848 C89.8766011,50.3941473 86.7392654,40.657193 73.5658323,27.2991092 L73.1635647,26.8932101 L74.8198993,25.2443336 C88.9770282,39.4596944 92.7328945,50.5266387 85.4766701,58.1822904 L85.2534132,58.4132354 C79.9100693,63.8337111 74.9217285,71.2463802 72.4752405,77.6079271 C69.7809085,84.6139371 70.3746433,89.4308062 74.4644089,91.2390729 C76.5601803,92.1657064 78.8819736,91.9791471 81.7210601,90.7708101 L82.1510724,90.5837053 C84.0359823,89.74448 85.6313371,88.7688114 89.3580069,86.2781336 L90.9633691,85.2038031 C96.8104447,81.3152401 99.9209376,79.7372891 103.657087,79.266033 C105.592317,79.0219344 107.449242,79.205312 109.241524,79.858536 C110.059048,80.1564952 110.834378,80.5458438 111.563154,81.015299 L111.642266,81.0667309 L111.679827,81.05045 C119.156455,77.7331742 128.668848,76.1869553 140.396387,76.5264269 L141.062577,76.5476569 L143.857165,76.6483159 C173.565655,77.7566073 189.993806,79.624154 193.870579,82.4720371 C195.364449,83.5694361 195.514415,85.1381622 194.212853,86.4340568 C193.271055,87.3717542 191.504933,88.2686382 188.856342,89.2070952 L188.310645,89.3967058 C183.379433,91.0778278 175.509509,92.924137 164.676646,94.9460318 L163.679369,95.1302167 L162.782561,95.7394537 C147.524093,106.145094 136.660418,115.830152 130.136433,124.805564 L130.045242,124.931969 C131.706888,125.616186 133.242392,126.464724 134.641967,127.48809 L134.939789,127.710062 C141.77181,132.900053 149.50346,149.313055 152.012028,163.562983 C153.35546,171.194358 153.083156,177.494196 150.940853,181.578174 C148.391761,186.437633 143.395718,187.924293 136.317066,185.598193 C127.747423,182.782141 119.580975,178.299214 107.61762,170.430167 L97.748097,163.864783 Z M84.0612651,155.554934 L83.6832265,155.362491 C76.264783,151.614716 70.7011063,150.57055 66.2930011,152.410446 C59.3785585,155.296462 58.6582172,163.142876 64.0524065,171.651787 C69.8134861,180.739438 80.6011965,187.488402 92.4052374,188.285006 C96.0707836,188.532377 97.5648245,186.059652 97.4772589,179.992761 L97.43583,178.344228 C97.3359023,175.340804 97.0770772,173.305778 95.5558835,164.874641 L95.0499807,162.087958 L94.5559134,161.766385 C90.4260466,159.097126 87.0974626,157.11215 84.0612651,155.554934 Z M107.747638,167.715608 L108.309411,168.087187 L109.489506,168.863378 C120.970637,176.386156 128.863336,180.688947 137.046894,183.378128 C143.118344,185.373254 146.901249,184.247585 148.870878,180.492785 C150.720065,176.967588 150.97208,171.137142 149.71003,163.968063 C147.293829,150.242824 139.801777,134.338448 133.525701,129.570785 C132.125176,128.506867 130.552273,127.641021 128.830598,126.9661 L128.679433,126.908211 L128.390476,127.350667 C121.33596,138.295851 120.925621,148.15483 127.05488,156.948361 L127.415745,157.454498 L125.526854,158.830965 C118.457923,149.134408 118.673838,138.404671 126.063869,126.663734 L126.384904,126.161181 L126.325454,126.145219 C121.62514,124.882901 116.040748,124.824476 109.9561,125.853705 L109.474701,125.937218 C103.48614,127.001895 97.380073,129.115748 93.0873836,131.36769 L92.6603987,131.595261 L92.7428011,132.495425 L92.8352192,133.44293 L92.9381332,134.434478 C93.5031833,139.725088 94.3310909,145.088441 95.6163544,152.208471 L97.1692058,160.6827 L102.122901,163.964483 C105.060073,165.917965 107.805968,167.752811 107.747638,167.715608 Z M77.2645299,110.640841 C68.1842765,108.13286 64.484426,107.472435 60.172294,107.876418 C54.2109738,108.434904 50.0493681,111.734056 47.2729656,118.919995 C43.3549335,129.060721 48.9023539,134.493581 61.3295925,135.790039 C71.1269709,136.81214 84.1077634,134.628382 87.9670565,131.836454 L88.1057994,131.732776 C88.647328,131.314344 89.2613961,130.893104 89.9381507,130.473606 L90.2092657,130.307627 L90.1803319,129.923701 C89.7556204,124.187967 89.7431903,118.931254 90.1978945,114.126076 L90.2162778,113.939175 L89.8963461,113.878118 C88.8553816,113.673446 87.7763374,113.436517 86.6530089,113.168137 L85.6197657,112.915778 C84.3764775,112.606165 83.1503523,112.280219 81.5203813,111.829026 L77.2645299,110.640841 Z M140.98134,78.8831486 C130.002094,78.5014046 121.085951,79.7758093 114.029296,82.5928915 L113.685137,82.7321642 L113.793331,82.8402711 C117.271426,86.3796826 119.139313,92.0420298 118.631761,97.845886 L118.602294,98.1569309 C117.700302,106.997168 111.675412,113.580059 101.788593,114.65601 C99.0304337,114.956172 96.1479036,114.859056 92.911205,114.394555 L92.5295054,114.337227 L92.5062935,114.582065 C92.118415,118.830548 92.1032424,123.46031 92.4245649,128.490417 L92.4617214,129.062836 L92.4893725,129.048942 C96.8711438,126.825534 102.768399,124.806682 108.604865,123.72023 L109.065484,123.636408 C115.883987,122.424179 122.179328,122.493381 127.484711,124.038697 L127.764738,124.122622 L127.859627,123.988138 C134.573513,114.563143 145.787363,104.504173 161.446072,93.8221665 L162.774388,92.9215792 L164.845731,92.5367996 C175.663354,90.5035013 183.415174,88.6557104 188.075567,87.004425 L188.644156,86.7981501 C190.573599,86.0809561 191.865288,85.4155804 192.48027,84.8572155 L192.662762,84.6840674 C192.814481,84.5456836 192.796766,84.5733116 192.557413,84.405991 L192.486601,84.3552535 C189.081921,81.8541706 171.647264,79.9493907 140.98134,78.8831486 Z M111.363339,83.7728652 L111.228181,83.8397602 C105.834028,86.5066982 101.682027,90.2093185 98.6584573,94.8842454 C95.6472069,99.5401245 93.760651,105.082271 92.8504702,111.588779 L92.7920712,112.012787 L92.8859445,112.028027 C95.9276432,112.486594 98.6114408,112.608524 101.138011,112.372992 L101.535666,112.332829 C110.284204,111.380753 115.483109,105.700346 116.276981,97.9197703 C116.844374,92.3588679 114.949528,86.9674917 111.582863,83.9634616 L111.363339,83.7728652 Z" fill="#F7AD01" fill-rule="nonzero" mask="url(#mask-4)"></path>
                </g>
                <polygon id="Triangle-Copy-2" fill="#E73D11" transform="translate(280.555697, 44.852836) rotate(75.000000) translate(-280.555697, -44.852836) " points="280.556244 10.1826231 315.224825 79.5225013 245.886569 79.5230486"></polygon>
                <g id="Combined-Shape" transform="translate(551.295918, 345.266272)">
                    <mask id="mask-6" fill="white">
                        <use xlink:href="#path-5"></use>
                    </mask>
                    <use id="Mask" fill="#7C00D9" transform="translate(98.503363, 98.461393) rotate(71.000000) translate(-98.503363, -98.461393) " xlink:href="#path-5"></use>
                    <path d="M236.627372,130.760139 L237.339277,132.985548 L-90.6914778,237.879263 L-91.4033825,235.653855 L236.627372,130.760139 Z M236.627372,112.068463 L237.339277,114.293871 L-90.6914778,219.187587 L-91.4033825,216.962178 L236.627372,112.068463 Z M236.627372,93.376787 L237.339277,95.6021953 L-90.6914778,200.49591 L-91.4033825,198.270502 L236.627372,93.376787 Z M236.627372,74.6851108 L237.339277,76.910519 L-90.6914778,181.804234 L-91.4033825,179.578826 L236.627372,74.6851108 Z M236.627372,55.9934346 L237.339277,58.2188428 L-90.6914778,163.112558 L-91.4033825,160.88715 L236.627372,55.9934346 Z M236.627372,37.3017584 L237.339277,39.5271666 L-90.6914778,144.420882 L-91.4033825,142.195474 L236.627372,37.3017584 Z M236.627372,18.6100822 L237.339277,20.8354904 L-90.6914778,125.729206 L-91.4033825,123.503797 L236.627372,18.6100822 Z M236.627372,-0.0815940363 L237.339277,2.14381417 L-90.6914778,107.037529 L-91.4033825,104.812121 L236.627372,-0.0815940363 Z M236.627372,-18.7732703 L237.339277,-16.547862 L-90.6914778,88.3458531 L-91.4033825,86.1204449 L236.627372,-18.7732703 Z" fill="#F7AD01" fill-rule="nonzero" mask="url(#mask-6)" transform="translate(72.967947, 109.552996) rotate(-53.000000) translate(-72.967947, -109.552996) "></path>
                </g>
                <ellipse id="Oval" fill="#E73D11" cx="333.352041" cy="86.5384615" rx="17.3112245" ry="17.3076923"></ellipse>
                <ellipse id="Oval-Copy-3" fill="#FFFFFF" cx="276.091837" cy="536.982249" rx="14.2040816" ry="14.2011834"></ellipse>
                <ellipse id="Oval-Copy-4" fill="#FFFFFF" cx="305.831633" cy="170.857988" rx="11.0969388" ry="11.0946746"></ellipse>
                <ellipse id="Oval-Copy-2" fill="#FFFFFF" cx="585.918367" cy="338.16568" rx="24.8571429" ry="24.852071"></ellipse>
                <path d="M394.793385,462.426036 L373.744898,491.694163 L421.683673,541.420118 L407.331573,506.501002 L401.26289,505.336332 L406.018312,504.457958 L404.596147,499.931559 L395.643053,498.756396 L403.469306,497.700399 L401.26289,492.87871 L390.708774,491.84122 L400.588676,490.56998 C398.537674,486.334498 397.871023,483.857014 398.588722,483.137526 C399.306422,482.418039 401.952104,480.104063 406.525768,476.195598 L394.793385,462.426036 Z" id="Path-13" fill="#FFFFFF"></path>
                <path d="M244.19991,419.200695 L223.292049,448.536351 L270.909133,498.376029 L256.653585,463.376821 L250.625563,462.209546 L255.349144,461.329096 L253.93656,456.792309 L245.043447,455.614553 L252.817293,454.556034 L250.625714,449.723289 L240.142301,448.683541 L249.956044,447.40926 C247.91883,443.164068 247.256674,440.680897 247.969575,439.959747 C248.682477,439.238597 251.310466,436.919271 255.853544,433.001767 L244.19991,419.200695 Z" id="Path-13-Copy" fill="#FFFFFF" transform="translate(247.100591, 458.788362) rotate(25.000000) translate(-247.100591, -458.788362) "></path>
                <path d="M652.056122,104.733728 C684.170354,104.733728 710.204082,130.762144 710.204082,162.869822 C710.204082,194.977501 684.170354,221.005917 652.056122,221.005917 C619.941891,221.005917 593.908163,194.977501 593.908163,162.869822 C593.908163,130.762144 619.941891,104.733728 652.056122,104.733728 Z M652.056122,143.751241 C641.495067,143.751241 632.933639,152.310922 632.933639,162.869822 C632.933639,173.428723 641.495067,181.988404 652.056122,181.988404 C662.617178,181.988404 671.178606,173.428723 671.178606,162.869822 C671.178606,152.310922 662.617178,143.751241 652.056122,143.751241 Z" id="Oval" fill="#E73D11" fill-rule="nonzero"></path>
                <path d="M373.177316,233.431953 L374.632653,235.25 L372.730869,236.748489 C341.903817,260.982976 322.60928,273.417561 314.386535,274.20793 C310.10679,274.619298 303.979157,272.594051 296.37771,268.685398 C293.817817,267.369104 291.138753,265.860809 288.376985,264.196965 C284.761712,262.018923 281.187058,259.686949 277.809854,257.354997 L276.943954,256.753988 C276.521511,256.459229 276.11506,256.173314 275.725642,255.897261 L274.415561,254.959713 L273.428571,254.238442 L274.831656,252.380313 L275.791985,253.082015 L276.705829,253.737834 C277.452316,254.269855 278.268065,254.842602 279.144686,255.447907 C282.48454,257.754068 286.01959,260.060206 289.589746,262.211068 C292.308914,263.849247 294.942892,265.332159 297.452808,266.622755 L298.279585,267.043151 C305.116044,270.479532 310.610784,272.237342 314.161283,271.896069 C321.725834,271.168965 340.926832,258.787823 371.303557,234.908328 L373.177316,233.431953 Z" id="Path-9" fill="#131313" fill-rule="nonzero"></path>
                <path d="M440.684108,236.982249 C453.986871,266.758131 466.689438,281.290271 478.473559,280.801814 C490.272504,280.312743 509.769751,271.137699 536.809443,253.267491 L539.339919,251.584478 L540.642857,253.511226 C511.939591,272.720485 491.305808,282.594087 478.570736,283.121962 C465.587072,283.66014 452.486765,268.826892 438.961022,238.838738 L438.55102,237.925367 L440.684108,236.982249 Z" id="Path-6" fill="#FFFFFF" fill-rule="nonzero"></path>
                <path d="M247.540398,145.699027 C253.564405,145.699027 258.447849,150.582407 258.447928,156.606414 L258.44875,219.43964 L258.44875,219.43964 L255.036745,218.481574 L258.448871,228.674172 L258.449661,289.050815 C258.44974,295.074719 253.566464,299.958123 247.54256,299.958202 C247.542512,299.958202 247.542465,299.958202 247.542417,299.958202 C241.518411,299.958202 236.634966,295.074821 236.634888,289.050815 L236.634257,240.846185 L236.634257,240.846185 C239.924217,241.860362 241.569193,242.018657 241.569184,241.321071 C241.569175,240.623485 239.924176,238.723648 236.634188,235.621561 L236.634154,233.009249 L247.795498,236.249217 L236.634067,226.387029 L236.634026,223.247892 L246.271942,227.497865 L236.633981,219.764809 L236.633154,156.606414 C236.633075,150.582509 241.516351,145.699106 247.540255,145.699027 C247.540303,145.699027 247.54035,145.699027 247.540398,145.699027 Z" id="Rectangle" fill="#7C00D9" transform="translate(247.541408, 222.828614) rotate(-28.000000) translate(-247.541408, -222.828614) "></path>
                <g id="Group" transform="translate(385.285714, 131.360947)">
                    <ellipse id="Oval" fill="#DD63B1" cx="21.5403279" cy="29.5118343" rx="20.2408163" ry="20.1923077"></ellipse>
                    <path d="M44.1166231,17.862426 L36.7209402,24.4637574 L29.3252573,27.9585799 L25.8220391,15.920858 C21.1510815,18.7684911 15.5718821,19.8039941 9.08444097,19.0273669 C-0.64672073,17.862426 -1.81446013,6.21301775 2.07800454,2.71819527 C5.97046922,-0.776627219 11.8091662,2.71819527 12.9769056,2.71819527 C14.144645,2.71819527 14.923138,0 18.4263562,0 C20.761835,0 22.4485697,1.2943787 23.4865603,3.88313609 C31.7904849,2.32988166 36.9804378,2.71819527 39.056419,5.04807692 C41.1324001,7.37795858 42.8191348,11.6494083 44.1166231,17.862426 Z" id="Path-4" fill="#FFFFFF"></path>
                    <ellipse id="Oval" fill="#DD63B1" cx="42.9488837" cy="25.2403846" rx="7.39568289" ry="7.37795858"></ellipse>
                    <ellipse id="Oval" fill="#131313" cx="23.0973138" cy="31.4534024" rx="2.33547881" ry="3.49482249"></ellipse>
                    <ellipse id="Oval-Copy" fill="#131313" cx="13.7553986" cy="31.4534024" rx="2.33547881" ry="3.49482249"></ellipse>
                    <path d="M16.9973538,34.1821645 C17.4214536,34.2526784 17.7079543,34.6528181 17.637271,35.0759016 C17.0700303,38.4711894 15.4332713,40.5493447 12.756538,41.1427488 C12.3368266,41.2357945 11.9209736,40.971795 11.8277044,40.5530895 C11.7344352,40.1343839 11.9990689,39.7195276 12.4187803,39.6264819 C14.4130046,39.1843831 15.6307198,37.638278 16.1014696,34.8205481 C16.1671041,34.4276849 16.5176396,34.1531815 16.9069393,34.1724285 L16.9973538,34.1821645 Z" id="Path-5" fill="#131313" fill-rule="nonzero"></path>
                </g>
                <rect id="Rectangle" fill="#FFFFFF" x="360.428571" y="189.940828" width="97.6530612" height="56.8047337" rx="28.4023669"></rect>
                <path d="M463.940074,206.104353 C464.44637,205.77331 465.110773,205.894158 465.475496,206.365675 L465.540259,206.458169 L489.856771,244.930816 C490.202589,245.477956 490.046844,246.206636 489.508905,246.558369 C489.002609,246.889412 488.338207,246.768564 487.973483,246.297047 L487.908721,246.204553 L463.592208,207.731906 C463.24639,207.184766 463.402135,206.456086 463.940074,206.104353 Z" id="Path-3" fill="#FFFFFF" fill-rule="nonzero"></path>
                <g id="Rectangle-+-Rectangle-Copy-4-+-Rectangle-Copy-3-Mask" transform="translate(530.877551, 163.313609)">
                    <mask id="mask-8" fill="white">
                        <use xlink:href="#path-7"></use>
                    </mask>
                    <use id="Mask" fill="#FFFFFF" xlink:href="#path-7"></use>
                    <polygon id="Rectangle" fill="#F7AD01" mask="url(#mask-8)" transform="translate(70.362274, 24.927608) rotate(6.000000) translate(-70.362274, -24.927608) " points="33.3313104 15.5864298 107.395374 15.5779711 107.393237 34.2687855 33.3291735 34.2772443"></polygon>
                    <polygon id="Rectangle-Copy-4" fill="#F7AD01" mask="url(#mask-8)" transform="translate(62.448827, 75.151747) rotate(6.000000) translate(-62.448827, -75.151747) " points="25.4178638 65.8105687 99.4819277 65.80211 99.4797908 84.4929244 25.4157269 84.5013831"></polygon>
                    <polygon id="Rectangle-Copy-3" fill="#E73D11" mask="url(#mask-8)" transform="translate(45.281185, 48.328421) rotate(6.000000) translate(-45.281185, -48.328421) " points="29.3000971 38.206055 61.2645878 38.2024044 61.2622728 58.4507867 29.2977821 58.4544373"></polygon>
                </g>
                <path d="M358.470462,200.900016 C358.947727,200.460746 359.687588,200.494986 360.122988,200.976493 C360.531175,201.427906 360.526858,202.112167 360.131469,202.557883 L360.047184,202.643706 L315.023684,244.08284 L301.942888,238.013392 C287.909732,231.522398 276.637877,226.382079 268.128275,222.592839 L264.32649,220.908885 C259.654545,218.851746 256.01758,217.300719 253.419078,216.257082 L252.048599,215.715903 L252.167903,215.833068 C252.618553,216.272204 253.134406,216.759724 253.714987,217.295015 L254.278231,217.810827 C257.57423,220.810111 262.661903,225.125663 269.535866,230.752221 C270.037549,231.162863 270.114283,231.906064 269.707258,232.412205 C269.300233,232.918346 268.56358,232.995763 268.061898,232.58512 L264.903027,229.987944 C259.576512,225.587349 255.513676,222.113576 252.71132,219.563495 L251.824426,218.752298 C248.116128,215.338825 247.149829,214.114415 247.940008,212.918611 L247.994568,212.842481 C248.830118,211.768954 251.273023,212.604847 262.187236,217.391697 L267.833497,219.882511 C276.353522,223.664063 287.817537,228.885799 302.22659,235.548164 L314.59307,241.283182 L358.470462,200.900016 Z" id="Path-7" fill="#FFFFFF" fill-rule="nonzero"></path>
                <path d="M234.502731,220.29774 C235.05299,219.952579 235.77786,220.120464 236.121772,220.672721 C236.445454,221.192492 236.316327,221.867497 235.84125,222.232873 L235.748147,222.297639 L235.400775,222.514939 L237.044009,222.738915 C247.457271,224.1913 251.861813,225.450659 251.964175,227.512587 L251.966005,227.586695 C251.966005,229.086271 250.741443,229.437416 247.951346,229.670768 L247.530287,229.703229 C246.30933,229.789714 244.84075,229.830266 242.869753,229.842577 L241.475128,229.846347 L245.370629,230.408361 C255.308022,231.867613 257.44898,232.38176 257.44898,234.268764 L257.443946,234.422233 C257.318886,236.274998 254.83031,236.661483 246.284772,237.217963 L241.844837,237.485917 L244.968275,238.08243 C246.143079,238.31166 247.142807,238.515321 248.040626,238.710304 L248.624877,238.839192 C252.972978,239.814103 254.315851,240.278646 254.315851,241.736958 C254.315851,243.323465 251.935698,244.12867 246.00443,244.680872 L245.52078,244.723776 L248.28764,245.298979 C248.885696,245.423164 249.28277,245.983177 249.217808,246.58032 L249.20015,246.692622 C249.076414,247.292849 248.518427,247.691365 247.923444,247.626167 L247.811548,247.608445 L236.453957,245.250068 C235.101675,244.969269 235.256759,242.983403 236.636118,242.917481 L237.673694,242.866271 C242.43589,242.623535 246.080286,242.328286 248.597185,241.982574 L248.862537,241.945341 C249.310633,241.881095 249.718701,241.815348 250.085916,241.74852 L250.366163,241.69562 L250.238908,241.660729 C249.802875,241.541758 249.307421,241.417455 248.753662,241.287692 L248.112541,241.140832 L247.540701,241.014696 C246.758604,240.844877 245.893798,240.667554 244.896644,240.471302 L243.273582,240.157108 L239.496931,239.441843 C238.975128,239.341972 238.528798,239.255218 238.126914,239.175308 L237.373216,239.022757 C236.422552,238.826521 235.714122,238.663219 235.205131,238.518818 C234.897162,238.431447 234.653673,238.348914 234.458688,238.260921 C234.310493,238.194044 234.181406,238.121185 234.05906,238.024352 C233.769654,237.795296 233.558875,237.484588 233.558875,237.020204 C233.558875,236.408048 233.878513,236.086984 234.295073,235.881045 C234.44022,235.809287 234.59316,235.759587 234.773752,235.716114 L235.011191,235.665688 C235.140023,235.641382 235.284336,235.618322 235.445529,235.595992 L235.790839,235.552156 C236.366829,235.484714 237.120864,235.420533 238.126757,235.351107 L239.966866,235.235188 C241.598619,235.1383 244.457584,234.971933 245.42931,234.909871 L246.248019,234.856332 C248.912692,234.677747 250.939838,234.496887 252.510523,234.282284 L252.987046,234.213981 L253.213394,234.178686 L253.045403,234.13928 L252.519241,234.021077 L252.238922,233.961153 C250.426377,233.579723 248.137371,233.200571 244.762715,232.702997 L237.822342,231.693924 C236.950263,231.562108 236.244557,231.450555 235.593177,231.341598 L235.040806,231.247301 C234.067678,231.077507 233.310579,230.924168 232.744539,230.778872 L232.422948,230.694381 C231.206536,230.365027 230.817387,230.117044 230.817387,229.158947 C230.817387,228.145252 231.380486,227.885367 232.41241,227.701507 C232.809037,227.630839 233.328741,227.581879 233.991726,227.548112 L234.620768,227.521527 C235.165406,227.502373 235.744188,227.491536 236.525023,227.486385 L241.769793,227.488182 C244.252763,227.484865 245.988453,227.44774 247.356453,227.351281 L247.984213,227.300407 L248.130676,227.285936 L248.106406,227.278297 C247.63691,227.129109 247.083648,226.975857 246.448422,226.819709 L245.828939,226.672508 L245.267832,226.54683 C242.1879,225.874456 237.710428,225.168729 231.846579,224.433087 C230.785892,224.300019 230.453913,222.946082 231.279997,222.324647 L231.369602,222.263054 L234.502731,220.29774 Z" id="Path-8" fill="#FFFFFF" fill-rule="nonzero"></path>
                <g id="Path-11" transform="translate(259.224490, 260.946746)">
                    <mask id="mask-10" fill="white">
                        <use xlink:href="#path-9"></use>
                    </mask>
                    <use id="Mask" fill="#7C00D9" xlink:href="#path-9"></use>
                    <path d="M125.033699,36.0216142 C125.714586,35.0823152 126.313865,34.2657145 126.893739,33.4887903 L127.550715,32.6150972 C131.120491,27.904617 133.986499,24.7463502 136.914101,22.5210987 C140.776815,19.5850743 144.591715,18.4986335 148.534073,19.5285141 C154.806267,21.1670291 158.312536,23.7687661 161.339472,28.1120831 L161.528052,28.3858151 C161.672777,28.5982975 161.817574,28.8153999 161.972037,29.0511203 L162.51318,29.8896397 C162.716004,30.2070152 162.971209,30.6071734 163.017879,30.6800103 L163.33463,31.1669516 C166.590369,36.0929469 169.362422,37.7589561 176.687131,37.8106042 L177.045126,37.8118503 C181.927659,37.8118503 187.577239,38.0784599 193.235059,38.5593786 L193.908409,38.6179834 L194.019188,38.5400471 C196.516265,36.7947555 199.109222,35.2340974 201.72404,33.8957043 L202.214557,33.6473694 C204.215337,32.6455791 205.355801,31.8046848 205.673969,31.2329256 L205.726771,31.1361876 C205.689794,31.048314 205.538619,30.8949304 205.244182,30.7097012 C203.951825,29.8966846 201.294589,29.2133853 196.391988,28.3602624 L194.11182,27.9776122 C192.705633,27.7498329 188.959569,27.1466266 187.712551,26.9368888 L186.270479,26.6897143 C180.180489,25.6248283 176.130483,24.6299669 173.073636,23.2907245 C164.106659,19.3621806 163.012856,11.9968272 169.645844,1.9882567 L169.849208,1.68415843 L171.784468,2.99359624 L171.414849,3.55027003 C165.702049,12.298094 166.614272,17.9078758 174.009792,21.1479449 C176.851138,22.3927738 180.772125,23.3542259 186.696312,24.3898492 L188.873583,24.7586226 C190.793394,25.0740346 194.436445,25.6597022 194.968875,25.7475153 L196.486888,26.0027636 C201.945085,26.9403835 204.808575,27.6735519 206.486623,28.7292058 C207.93524,29.6405255 208.49744,30.9639006 207.714187,32.3714317 C207.125795,33.4287928 205.767596,34.45517 203.54182,35.5961014 L203.259073,35.7393249 C201.498974,36.6206059 199.746175,37.6081762 198.025604,38.6889017 L197.578428,38.9711538 L198.210085,39.0380046 C202.490164,39.4987082 206.644552,40.0757393 210.333926,40.7457098 L211.176911,40.9019576 L212.169472,41.0943365 C217.388858,42.1307943 221.413911,43.3339905 223.959549,44.6916553 C227.405983,46.5297411 228.483557,49.0261255 226.16213,51.4799509 L225.915266,51.7338579 C224.084887,53.5647903 221.780294,54.7338096 216.802999,56.6430293 L214.098768,57.6660348 C208.657244,59.7430856 206.342869,60.9595768 204.792984,62.8320524 C202.775873,65.2690015 203.167226,68.494312 206.78781,73.3662816 C214.720131,84.0402585 225.118387,87.5509341 238.222789,83.9648116 L238.62072,83.853969 L239.362299,83.6437945 L270.913574,122.722363 L268.556846,122.790572 C223.307159,124.100197 193.749659,114.891659 179.978108,95.0010417 C170.521225,81.3422144 170.266475,68.0383966 177.400749,55.8816312 C180.656784,50.3333633 185.405244,45.2078077 190.803028,40.933611 L191.061303,40.7299896 L190.078957,40.6580945 C185.824544,40.3531073 181.652727,40.1770504 177.90284,40.1534555 L177.045126,40.1507277 C168.476557,40.1507277 165.007047,38.0209825 161.219457,32.2021974 L160.333259,30.8182054 C160.057428,30.3894496 159.826685,30.038688 159.598534,29.7037216 C156.83096,25.6404248 153.770232,23.3135321 147.944514,21.7916522 C142.160932,20.2807797 136.881032,24.1597498 129.297407,34.1799588 L128.764543,34.8890168 C128.191556,35.6567139 127.598174,36.4652863 126.922859,37.3969062 L123.707457,41.8689026 C118.7528,48.7503106 115.825807,52.4123193 112.397678,55.6623591 C107.763752,60.0555558 103.231911,62.3700624 98.4129881,62.3700624 C88.8096134,62.3700624 80.8143074,56.0298918 75.9126271,46.3310871 C71.6834918,37.9630263 70.7927039,28.8156152 74.3273861,25.9839112 C75.8761461,24.7431689 78.0723055,24.4355236 81.2106861,24.7701826 L81.7513207,24.8328302 C82.7618456,24.9589128 83.8862936,25.1475588 85.2473555,25.4120552 L86.3067431,25.6246145 C87.858772,25.9437265 90.7951733,26.5631056 90.617515,26.5262177 L91.1809104,26.6422672 C99.94383,28.4324455 105.740291,28.9077266 111.830594,27.7634813 C114.042797,27.3478527 116.159525,26.7083742 118.189291,25.8246322 C129.487157,20.9056406 133.938326,11.3232086 131.59042,-3.25928161 L131.51719,-3.70270607 L133.819956,-4.09355172 C136.499836,11.7398746 131.583677,22.5432146 119.120559,27.9695466 C116.926635,28.9247615 114.642049,29.6149513 112.261279,30.06225 C105.798328,31.2765084 99.7521062,30.7806235 90.7122477,28.9335807 L85.3685225,27.8200304 L84.4553592,27.6413561 C83.1855514,27.3997879 82.1428443,27.2316338 81.2139689,27.1238268 L80.9633765,27.0959113 C78.3822242,26.8206719 76.7333782,27.0516478 75.7864289,27.8102676 C73.4295911,29.698377 74.2184789,37.7993863 77.996551,45.274942 C82.5373143,54.2596114 89.8155881,60.031185 98.4129881,60.031185 C102.542271,60.031185 106.552585,57.9830334 110.791951,53.9638996 C113.879822,51.0364422 116.592049,47.700075 120.94364,41.7038016 L125.033699,36.0216142 Z M194.560044,41.0246881 L194.332364,41.189612 C188.294168,45.5869819 182.921907,51.0898451 179.41438,57.0666537 C172.733125,68.4514759 172.969062,80.7728104 181.897505,93.668397 C194.721315,112.190167 222.243342,121.197452 264.549211,120.540558 L266.124632,120.511435 L238.50996,86.3084719 L238.407009,86.3367985 C224.72156,89.9411496 213.568201,86.1771361 205.172877,75.1073116 L204.914108,74.7626165 C200.71522,69.1124633 200.18409,64.73519 202.994786,61.3394793 C204.936974,58.9930474 207.492819,57.669096 213.60193,55.3529717 L215.594568,54.6013084 C220.696024,52.6568856 222.881361,51.5470387 224.466589,49.8714005 C225.488083,48.7916471 225.13208,47.9669046 222.861642,46.7560123 C220.414979,45.451134 216.232451,44.2387472 210.743292,43.2001734 C206.085106,42.3188232 200.586145,41.5898517 195.005242,41.0658814 L194.560044,41.0246881 Z" fill="#F7AD01" fill-rule="nonzero" mask="url(#mask-10)"></path>
                    <path d="M134.293679,87.7043883 C135.775016,83.5508392 138.22911,81.676453 141.452165,82.5867922 C144.238699,83.3738381 147.459103,86.2933724 151.252491,91.3404331 L151.51202,91.6878476 L149.637783,93.0834622 C146.018245,88.2089947 143.028759,85.4622246 140.81814,84.837844 C139.026647,84.3318437 137.675978,85.3165993 136.577243,88.2606964 L136.493219,88.4910379 C135.317971,91.7863399 132.975789,93.1497782 129.631193,92.8826018 L129.046134,92.8238708 C127.234105,92.6173649 126.03964,92.2610113 121.870346,90.6816479 L119.465066,89.7635718 C116.203957,88.5131912 114.093596,87.8077955 111.927192,87.3200625 C108.342743,86.5130782 105.352644,86.5611515 102.745203,87.6219074 C89.963575,92.821712 88.5157132,101.570376 99.1546758,125.864509 L99.480769,126.605466 C103.424391,135.522884 104.143946,141.874431 101.891295,146.743495 C100.052149,150.718776 96.5822358,153.452531 90.1247359,156.647919 L89.3354087,157.033691 C87.7560687,157.796414 81.3482372,160.718708 79.8358468,161.437393 C75.8509399,163.331015 72.5895805,165.070899 69.4508409,167.049908 C56.4788511,175.22889 55.0091218,182.739981 64.7110215,190.524126 L65.1237595,190.850052 L148.441223,158.49054 L148.96553,158.907485 C158.126411,166.192485 161.667098,175.465704 159.50645,186.554521 C157.437235,197.174095 150.637013,208.097518 139.14364,219.344888 L138.919632,219.56211 L139.189729,219.893864 C154.372131,238.493803 169.483126,248.704539 184.499237,250.601301 L184.963623,250.657313 C199.624586,252.342073 220.890409,217.828165 247.866058,147.393924 L248.764836,145.037682 L248.729891,145.046142 C226.35966,149.950691 211.987726,158.463669 205.529234,170.510154 L205.329982,170.887757 C202.771005,175.815755 201.603038,182.04964 201.067692,191.39479 L200.912081,194.559535 L200.681305,200.683772 C200.292904,210.498073 199.789558,214.766269 198.217676,218.830714 C195.938503,224.724013 191.575315,227.27326 184.632068,226.074473 C173.845217,224.212067 167.407701,218.608057 164.596912,209.934112 C162.493511,203.443131 162.482302,196.090725 163.820533,186.173953 C164.10323,184.079065 165.200318,182.018202 167.055217,179.877971 C168.734004,177.940941 170.999398,175.958334 174.165901,173.565014 L175.023974,172.924743 C177.463099,171.132033 183.91173,166.557927 184.066354,166.446292 L184.996445,165.770854 C192.318518,160.421083 196.811972,156.336713 199.856245,151.770086 C203.801723,145.851589 204.568283,139.784517 201.663434,132.997047 C197.159951,122.474213 188.877575,119.735774 176.957209,122.668931 C173.059046,123.628123 168.992347,125.125354 164.146535,127.269003 L163.245636,127.671436 C161.233548,128.58251 156.135689,130.971673 154.703017,131.622025 L153.891854,131.981739 C151.193333,133.158688 149.496861,133.705821 148.239293,133.705821 C146.380767,133.705821 144.397135,132.422328 141.815684,129.901551 L141.41696,129.507199 C140.74405,128.833435 140.024633,128.072539 139.188871,127.15588 L138.11138,125.95998 C137.237078,124.978293 135.298538,122.787449 134.778238,122.206418 L134.120342,121.475749 C130.672786,117.669078 128.185163,115.290998 125.717553,113.619838 C121.663467,110.874255 118.455579,110.710527 115.573395,113.497221 C108.630863,120.209738 110.785852,135.250797 122.454816,158.586141 L122.811333,159.295812 L120.726804,160.350758 C108.313694,135.754265 105.912056,119.587324 113.951094,111.814629 C117.739152,108.152075 122.145172,108.376954 127.025979,111.682424 C129.768739,113.539926 132.439556,116.115385 136.174594,120.263483 L140.14073,124.723801 L140.907267,125.571794 C141.884653,126.643924 142.692912,127.491358 143.446285,128.227024 C145.607327,130.337273 147.198677,131.366944 148.239293,131.366944 C149.073322,131.366944 150.589089,130.871302 153.006206,129.816705 L153.55827,129.573124 C154.667678,129.078491 160.71368,126.241727 162.583918,125.404919 C167.81687,123.063519 172.179494,121.436097 176.399884,120.397617 C189.321382,117.218119 198.791615,120.349305 203.810196,132.075718 C207.038637,139.619291 206.167308,146.515573 201.79878,153.068676 C198.495799,158.023382 193.712076,162.33218 185.904368,168.001684 L177.88962,173.731787 C177.073625,174.32076 176.387151,174.820714 175.965275,175.136675 L175.202733,175.712978 C172.350552,177.889212 170.306421,179.694945 168.819138,181.411011 C167.237522,183.235922 166.348479,184.905975 166.135103,186.48717 C164.84031,196.082052 164.851071,203.140884 166.818479,209.212197 C169.362098,217.061669 175.098105,222.054999 185.028904,223.769602 C190.764684,224.759914 194.045306,222.916755 195.94278,218.230948 L196.039697,217.986043 C197.531683,214.128191 198.001279,209.834553 198.384845,199.621767 L198.594091,194.097808 C198.619701,193.510195 198.645549,192.968471 198.676103,192.36797 L198.737017,191.241127 C199.290119,181.597224 200.509028,175.102193 203.257792,169.808709 C210.127155,156.579903 225.622997,147.489941 249.652254,142.456654 L250.383025,142.305372 L252.46,141.88045 L251.708805,143.865543 C223.417814,218.626827 201.397648,254.900051 184.69735,252.980941 C168.677212,251.139991 152.756164,240.384029 136.909245,220.793033 L136.429058,220.196662 L135.758947,219.360601 L136.532577,218.619572 C148.310116,207.33833 155.190217,196.493383 157.214073,186.106602 C159.155199,176.144406 156.158021,167.913747 148.147409,161.254787 L148.03006,161.158784 L64.7538488,193.502794 L64.2352569,193.113306 C52.105135,184.00298 53.5495297,174.31199 68.2063979,165.070674 C71.243749,163.155591 74.3801716,161.465023 78.1251091,159.66352 L79.2991517,159.105854 C81.3774692,158.134945 86.8961978,155.615021 88.3208515,154.927002 L89.0873158,154.552392 C95.0977689,151.577975 98.2163976,149.122869 99.7720746,145.760301 C101.65713,141.685788 101.063873,136.103847 97.5275585,127.96841 L97.3452072,127.552538 C85.8869033,101.642732 87.4540507,91.3181198 101.866134,85.4550157 C104.973724,84.1907899 108.428987,84.1352378 112.439496,85.0381431 L113.014089,85.1725292 C114.926858,85.6367625 116.838696,86.2703084 119.483913,87.2686769 L123.136687,88.6599837 C126.936123,90.0910226 127.951789,90.3653125 129.635126,90.5347048 C132.013614,90.7740495 133.392079,90.0508436 134.221874,87.8980615 L134.293679,87.7043883 Z" id="Path-10" fill="#F7AD01" fill-rule="nonzero" mask="url(#mask-10)"></path>
                    <path d="M46.3537701,111.888564 C56.9051464,124.039632 62.2110632,135.861822 62.2110632,147.349272 C62.2110632,152.935954 60.0430476,156.500955 55.8348699,158.503322 C52.8915149,159.903852 49.9050811,160.419473 43.2881426,160.945347 L39.2658709,161.255411 C38.3110327,161.332903 37.6417061,161.394709 36.8170674,161.479094 C32.5510784,161.915633 29.2945047,162.557477 26.4224149,163.645735 C17.2647001,167.115667 9.37660693,175.807425 2.79688341,189.790906 L2.54446236,190.331341 L0.604511264,194.515546 L-2.57103273,143.181438 L-0.498371182,144.886365 C6.45068525,150.602508 13.664561,151.949351 21.3056198,148.987381 C28.6859478,146.126481 31.7316663,138.734393 30.3477321,126.464342 L30.2994048,126.048896 L32.618376,125.77023 C34.2323627,139.238947 30.7752519,147.824583 22.1487605,151.168544 C14.5449435,154.116077 7.22572231,153.186284 0.309460226,148.423262 L0.0833033541,148.265333 L2.37764901,185.363046 L2.478387,185.169702 C8.8524759,172.942388 16.4279812,165.068186 25.2333066,161.598332 L25.5958616,161.458215 C28.5672913,160.332317 31.8550522,159.662716 36.0504413,159.208063 L37.776294,159.035812 C38.2215991,158.995016 38.6865539,158.955436 39.2505449,158.91017 L43.0837548,158.615294 C49.4061689,158.112659 52.2349506,157.626777 54.8324817,156.3908 C58.2123496,154.782566 59.8754551,152.047819 59.8754551,147.349272 C59.8754551,136.634232 54.9371154,125.486248 45.0023964,113.899693 L44.5913074,113.423286 L46.3537701,111.888564 Z" id="Path-12" fill="#F7AD01" fill-rule="nonzero" mask="url(#mask-10)"></path>
                </g>
                <path d="M551.497937,192.60355 C552.099605,192.60355 552.594055,193.069684 552.650144,193.665706 L552.655443,193.7789 L552.654898,203.400328 L553.65356,202.415264 C559.737248,196.457543 563.326889,193.852361 565.246235,194.33642 L565.331352,194.360247 C566.193663,194.626176 566.461477,195.388117 566.371099,196.249827 C566.318967,196.74688 566.140167,197.361732 565.838453,198.131945 C565.282955,199.550018 564.275532,201.570572 562.810233,204.213561 L562.486796,204.79378 C559.731448,209.710813 555.475052,216.67476 549.714265,225.692275 L548.72555,227.235628 L537.554077,256.643819 C537.337523,257.213818 536.731267,257.51447 536.163444,257.353085 L536.057532,257.317364 C535.496186,257.097472 535.200098,256.48187 535.359033,255.905294 L535.394212,255.797749 L546.654887,226.158135 L547.770281,224.415826 C553.738126,215.074245 558.080259,207.953274 560.792918,203.060395 L561.152754,202.40693 C562.318011,200.275666 563.141191,198.614391 563.618382,197.436226 L563.75339,197.091278 L563.839493,196.852066 L563.759063,196.895884 L563.553894,197.014254 C561.770337,198.082098 558.148384,201.183383 553.20529,206.152776 L552.317477,207.051014 L550.340431,209.063749 L550.340431,193.7789 C550.340431,193.129772 550.858664,192.60355 551.497937,192.60355 Z" id="Path" fill="#FFFFFF" fill-rule="nonzero"></path>
                <polygon id="Path-14" fill="#131313" fill-rule="nonzero" points="598.557408 209.467456 632.969388 212.526592 632.758919 214.792899 598.346939 211.733763"></polygon>
                <polygon id="Path-14-Copy" fill="#131313" fill-rule="nonzero" points="596.781897 215.680473 631.193878 218.73961 630.983409 221.005917 596.571429 217.946781"></polygon>
                <polygon id="Path-14-Copy-2" fill="#131313" fill-rule="nonzero" points="596.781897 221.893491 631.193878 224.952628 630.983409 227.218935 596.571429 224.159798"></polygon>
                <polygon id="Path-14-Copy-3" fill="#131313" fill-rule="nonzero" points="553.34469 247.633136 629.418367 256.797339 629.145106 259.171598 553.071429 250.007395"></polygon>
                <polygon id="Path-14-Copy-4" fill="#131313" fill-rule="nonzero" points="549.793669 253.846154 625.867347 263.010356 625.594086 265.384615 549.520408 256.220413"></polygon>
                <polygon id="Path-14-Copy-5" fill="#131313" fill-rule="nonzero" points="547.130404 260.059172 623.204082 269.223374 622.93082 271.597633 546.857143 262.433431"></polygon>
            </g>
        </g>
    </g>
</svg>