<?xml version="1.0" encoding="UTF-8"?>
<svg width="617px" height="531px" viewBox="0 0 617 531" version="1.1" xmlns="http://www.w3.org/2000/svg" xmlns:xlink="http://www.w3.org/1999/xlink">
    <title>illustration-6 hover</title>
    <defs>
        <circle id="path-1" cx="25.8964143" cy="25.8964143" r="25.8964143"></circle>
        <polygon id="path-3" points="94.4223108 24.7011952 164.143426 164.143426 24.7011952 164.143426"></polygon>
        <circle id="path-5" cx="63.3466135" cy="63.3466135" r="63.3466135"></circle>
    </defs>
    <g id="Desktop" stroke="none" stroke-width="1" fill="none" fill-rule="evenodd" opacity="0.2">
        <g id="Artboard" transform="translate(-1311.000000, -1927.000000)">
            <g id="illustration-6-hover" transform="translate(1311.000000, 1927.000000)">
                <g id="Group-2" transform="translate(351.394422, 248.131474)">
                    <g id="Group-3" transform="translate(36.538383, 36.455196) rotate(36.000000) translate(-36.538383, -36.455196) translate(10.641969, 10.558782)">
                        <g id="Oval-Copy-4">
                            <mask id="mask-2" fill="white">
                                <use xlink:href="#path-1"></use>
                            </mask>
                            <use id="Mask" fill="#DD63B1" xlink:href="#path-1"></use>
                            <circle fill="#FFFFFF" mask="url(#mask-2)" cx="31.7597534" cy="4.39750432" r="25.8964143"></circle>
                        </g>
                        <ellipse id="Oval" fill="#131313" cx="19.5219124" cy="35.4581673" rx="2.78884462" ry="4.38247012"></ellipse>
                        <ellipse id="Oval-Copy" fill="#131313" cx="10.3585657" cy="34.2629482" rx="2.39043825" ry="3.98406375"></ellipse>
                        <path d="M14.2755025,37.4555195 C14.8048919,37.5119731 15.1893334,37.9969826 15.1341767,38.5388187 C14.8658344,41.1748999 13.1440082,43.1877386 10.1138992,44.5391433 C9.6259564,44.756762 9.0580383,44.5283208 8.84541866,44.0289057 C8.63279902,43.5294906 8.85599256,42.9482199 9.34393539,42.7306012 C11.7856515,41.6416151 13.0283021,40.1889393 13.2170883,38.3343824 C13.2683053,37.8312489 13.680554,37.4560344 14.1630441,37.4501992 L14.2755025,37.4555195 Z" id="Path-2" fill="#131313" fill-rule="nonzero"></path>
                    </g>
                    <circle id="Oval-Copy-2" fill="#FFFFFF" cx="72.1115538" cy="74.501992" r="25.0996016"></circle>
                </g>
                <circle id="Oval-Copy" fill="#E73D11" cx="578.486056" cy="175.621514" r="19.123506"></circle>
                <circle id="Oval" fill="#FFFFFF" cx="129.083665" cy="402.713147" r="15.936255"></circle>
                <polygon id="Rectangle" fill="#7C00D9" transform="translate(504.780876, 254.904382) rotate(68.000000) translate(-504.780876, -254.904382) " points="462.151394 212.2749 547.410359 212.2749 547.410359 297.533865 462.151394 297.533865"></polygon>
                <polygon id="Rectangle-Copy-3" fill="#E73D11" transform="translate(73.705179, 458.888446) rotate(68.000000) translate(-73.705179, -458.888446) " points="31.0756972 416.258964 116.334661 416.258964 116.334661 501.517928 31.0756972 501.517928"></polygon>
                <polygon id="Triangle-Copy" fill="#E73D11" transform="translate(567.330677, 324.625498) rotate(22.000000) translate(-567.330677, -324.625498) " points="567.330677 287.175299 604.780876 362.075697 529.880478 362.075697"></polygon>
                <g id="Path-17" transform="translate(0.000000, 181.996016)">
                    <mask id="mask-4" fill="white">
                        <use xlink:href="#path-3"></use>
                    </mask>
                    <use id="Mask" fill="#DD63B1" transform="translate(94.422311, 94.422311) rotate(-28.000000) translate(-94.422311, -94.422311) " xlink:href="#path-3"></use>
                    <path d="M99.9669448,167.618658 L100.526566,170.73654 C101.763614,177.72556 101.957827,179.600268 102.046222,182.642464 L102.074086,183.754127 C102.246085,191.394525 99.9480937,195.361739 94.3418173,194.983319 C81.4889444,194.115757 69.7768295,186.786975 63.4873272,176.863754 C57.2763453,167.064418 58.1697391,157.33102 66.8769113,153.695996 C72.1810348,151.481659 78.5108565,152.669854 86.6608797,156.788061 C89.2866626,158.114869 92.0892199,159.731787 95.3758289,161.792437 L96.617144,162.577224 L95.5586605,156.806228 C94.1211005,148.893153 93.2203367,143.071133 92.6166531,137.252956 L92.5317325,136.414389 L92.489654,135.977224 L92.26409,136.132187 C92.1006149,136.245894 91.9428131,136.359375 91.7909185,136.472519 L91.5675364,136.64197 C87.2318435,139.992785 73.170344,142.394444 62.4736691,141.278297 C48.4117118,139.811 41.4137986,132.956203 46.1161918,120.782893 C49.2751195,112.605227 54.2940865,108.625582 61.3151671,107.967678 C66.4100838,107.490263 70.5227383,108.305849 81.4591508,111.373816 L84.3052865,112.169028 C85.8064684,112.583068 86.9679785,112.890707 88.1403193,113.182738 L88.6106641,113.298933 C89.7327997,113.573879 90.8082162,113.817636 91.8428525,114.029586 L92.5374627,114.167662 L92.5404978,114.15137 C93.4738854,107.194261 95.4530856,101.216716 98.6542248,96.1304608 L98.8906378,95.7598852 C101.95953,91.0139146 106.069541,87.1937864 111.293767,84.3462219 L111.559773,84.2027217 L111.365136,84.1168811 L111.135128,84.0222285 L110.902561,83.9338306 C109.437935,83.3999166 107.921481,83.2501311 106.309273,83.4535272 C102.976764,83.8739562 100.002755,85.386738 94.3235071,89.1651126 L91.8452134,90.8215017 C88.329004,93.1561301 86.7482976,94.0851024 84.6730424,94.9808072 L84.5123909,95.0496651 C81.0519819,96.5227422 78.0172413,96.7666376 75.1879121,95.5154104 C69.5089112,93.0039599 68.7356846,86.7296238 71.889209,78.5279128 C74.4543516,71.8564696 79.5563988,64.2068003 85.0901289,58.4792257 L85.4861011,58.0734212 C91.9167687,51.5485949 88.7082166,41.5885829 75.2357511,27.9244872 L74.8243522,27.5092896 L76.518285,25.8226401 C90.9967758,40.3636516 94.837899,51.6841215 87.4169608,59.5151516 L87.188636,59.7513872 C81.7240001,65.2960371 76.6224257,72.8785184 74.1204033,79.3857979 C71.3649109,86.5523042 71.9721233,91.4795199 76.1547251,93.3292111 C78.2980697,94.2770722 80.672567,94.0862391 83.5760997,92.8502211 L84.0158731,92.6588301 C85.9435699,91.8003794 87.5751386,90.8023598 91.3864026,88.2546247 L93.028206,87.155683 C99.0080081,83.1780395 102.189108,81.5639402 106.010067,81.0818883 C107.989226,80.8321978 109.888302,81.0197763 111.721268,81.6879646 C112.55735,81.9927495 113.35028,82.3910175 114.095599,82.8712272 L114.176507,82.9238372 L114.21492,82.9071834 C121.861265,79.5139143 131.589586,77.932274 143.583336,78.2795223 L144.264648,78.3012387 L147.122673,78.4042036 C177.505535,79.5378842 194.306599,81.4482133 198.271374,84.3613367 C199.799154,85.4838753 199.952524,87.0885384 198.621417,88.4141198 C197.65824,89.3732984 195.852028,90.2907285 193.143316,91.2506841 L192.585231,91.4446383 C187.542083,93.164272 179.493514,95.0528772 168.414749,97.1210903 L167.394833,97.3094946 L166.477668,97.9326882 C150.872838,108.576705 139.762562,118.483631 133.090484,127.664655 L132.997224,127.793957 C134.696589,128.493848 136.266948,129.361824 137.698293,130.408634 L138.002875,130.635691 C144.989981,135.944576 152.897136,152.733573 155.462648,167.309944 C156.836576,175.116141 156.558091,181.560298 154.367158,185.737833 C151.760203,190.708615 146.650751,192.229332 139.411416,189.849944 C130.647245,186.969381 122.295421,182.383758 110.060503,174.334444 L99.9669448,167.618658 Z M85.9694266,159.118443 L85.5828066,158.921592 C77.995967,155.087962 72.3059968,154.019875 67.7978292,155.901921 C60.7264311,158.85405 59.9897384,166.880213 65.5063739,175.584049 C71.398228,184.879883 82.4308156,191.783455 94.5028042,192.598307 C98.251557,192.851346 99.7795121,190.321975 99.6899588,184.116101 L99.6475895,182.429803 C99.5453934,179.357576 99.2806931,177.27593 97.7249688,168.65165 L97.2075823,165.801128 L96.7022997,165.472188 C92.4786864,162.741782 89.0745447,160.711332 85.9694266,159.118443 Z M110.193472,171.557699 L110.767997,171.93779 L111.974879,172.731763 C123.716628,180.426875 131.788489,184.828236 140.157811,187.579022 C146.367081,189.619853 150.235857,188.468396 152.250195,184.62758 C154.141358,181.021627 154.399094,175.057614 153.108396,167.724304 C150.637348,153.684642 142.975229,137.415923 136.556688,132.53904 C135.124372,131.450749 133.515764,130.565069 131.755007,129.874686 L131.600411,129.815471 L131.304895,130.268062 C124.090244,141.463983 123.670591,151.548815 129.938981,160.543792 L130.308038,161.061523 L128.37627,162.469523 C121.146877,152.550833 121.367693,141.575296 128.925475,129.565393 L129.253797,129.051327 L129.192998,129.035 C124.385989,127.743765 118.674833,127.684001 112.452065,128.736808 L111.959739,128.822234 C105.83524,129.911301 99.5905668,132.073579 95.2004349,134.377109 L94.7637576,134.609893 L94.8480305,135.530679 L94.9425464,136.49989 L95.0477965,137.514153 C95.625673,142.925962 96.4723738,148.41218 97.7868124,155.695318 L99.3749129,164.363678 L104.441055,167.720642 C107.4449,169.718875 110.253126,171.595754 110.193472,171.557699 Z M79.0184079,113.175442 C69.7320359,110.610007 65.9482001,109.934453 61.5381842,110.34769 C55.441544,110.918971 51.1854714,114.2937 48.3460455,121.644257 C44.3390754,132.017291 50.0124204,137.57461 62.7217529,138.900767 C72.7415284,139.946282 86.0169804,137.712498 89.9638781,134.856612 L90.1057704,134.750559 C90.6595915,134.322541 91.2875988,133.891652 91.9797154,133.462543 L92.2569847,133.292762 L92.2273941,132.900041 C91.7930418,127.03291 91.7803295,121.655775 92.2453554,116.740518 L92.264156,116.549335 L91.9369619,116.48688 C90.8723679,116.277519 89.7688298,116.035162 88.6200021,115.760634 L87.5633046,115.502494 C86.2917942,115.185788 85.0378364,114.852376 83.3708656,114.390846 L79.0184079,113.175442 Z M144.181567,80.6902327 C132.953097,80.2997436 123.83456,81.6033428 116.617722,84.4849598 L116.26575,84.6274229 L116.376401,84.7380064 C119.933446,88.3585 121.843734,94.1505623 121.324661,100.087375 L121.294525,100.405546 C120.372058,109.448298 114.210405,116.181993 104.099159,117.282592 C101.27839,117.58963 98.3304276,117.490289 95.020257,117.015148 L94.629893,116.956507 L94.6061542,117.206953 C94.209471,121.552762 94.193954,126.288584 94.5225704,131.433923 L94.5605703,132.019455 L94.5888491,132.005242 C99.0700851,129.7309 105.101206,127.665799 111.070158,126.554458 L111.541232,126.468716 C118.514513,125.228717 124.952756,125.299505 130.378569,126.880221 L130.664953,126.966068 L130.761996,126.828504 C137.628285,117.187597 149.096686,106.898193 165.110842,95.9714791 L166.46931,95.0502607 L168.587671,94.6566665 C179.650851,92.5767887 187.578634,90.686668 192.344816,88.9975542 L192.926313,88.7865539 C194.899554,88.0529302 196.220563,87.3723118 196.849505,86.8011557 L197.03614,86.6240411 C197.191303,86.4824871 197.173186,86.510748 196.9284,86.3395944 L196.85598,86.2876946 C193.374015,83.7293159 175.543597,81.7809007 144.181567,80.6902327 Z M113.891248,85.6919647 L113.753022,85.7603922 C108.236423,88.4884253 103.990174,92.2758666 100.89797,97.0578885 C97.8183652,101.820426 95.8889852,107.489535 94.9581436,114.145095 L94.8984189,114.578817 L94.9944231,114.594406 C98.1051674,115.063478 100.849886,115.188202 103.433809,114.947274 L103.84049,114.906191 C112.787617,113.932305 118.104536,108.121768 118.916428,100.162952 C119.4967,94.4746587 117.558843,88.9597749 114.115755,85.8869273 L113.891248,85.6919647 Z" fill="#F7AD01" fill-rule="nonzero" mask="url(#mask-4)"></path>
                </g>
                <g id="Path-17" transform="translate(488.446215, 403.509960)">
                    <mask id="mask-6" fill="white">
                        <use xlink:href="#path-5"></use>
                    </mask>
                    <use id="Mask" fill="#7C00D9" xlink:href="#path-5"></use>
                    <path d="M114.930555,-16.7330677 L115.907613,-14.5514278 L60.3488146,10.330183 L72.423715,16.1636491 L145.411552,-0.165920249 L96.1376593,27.6186292 L134.601404,46.1995057 L159.052679,40.5276998 L159.813534,42.7818236 L143.101803,50.3062786 L185.070408,70.5801298 L184.03062,72.7325787 L140.257181,51.5867567 L28.9113644,101.725402 L28.9113644,103.809864 L139.3782,73.1438662 L36.368735,126.315044 L100.474316,126.315601 L26.521597,156.601102 L26.5209262,106.954087 L2.38780064,113.653961 L1.57735305,111.412467 L26.5209262,100.180382 L26.5209262,73.7285893 L-2.39043825,80.4363754 L26.5209262,64.1325734 L26.5209262,28.883171 L-0.347419641,34.894723 L26.5209262,22.8608603 L26.521597,-6.01035852 L57.5352688,8.97082042 L114.930555,-16.7330677 Z M88.3296911,128.705482 L28.9113644,128.705482 L28.9113644,153.03855 L88.3296911,128.705482 Z M117.70499,81.6409399 L28.9113644,106.290342 L28.9113644,127.474406 L117.70499,81.6409399 Z M26.5209262,102.801099 L16.8404481,107.160462 L26.5209262,104.472812 L26.5209262,102.801099 Z M134.320926,48.7190276 L28.9113644,73.1740077 L28.9113644,99.1038882 L137.449213,50.2305814 L134.320926,48.7190276 Z M26.5209262,66.8759997 L13.2691334,74.3493065 L26.5209262,71.2744061 L26.5209262,66.8759997 Z M93.6022011,29.0489081 L28.9113644,65.5285893 L28.9113644,70.7198244 L130.888257,47.0608603 L93.6022011,29.0489081 Z M72.1336752,18.6775933 L28.9113644,28.3485097 L28.9113644,62.7843662 L90.981484,27.7827726 L72.1336752,18.6775933 Z M147.696225,45.6162388 L138.033277,47.857673 L140.293835,48.9493065 L147.696225,45.6162388 Z M26.5209262,25.4799838 L22.2683366,27.3851631 L26.5209262,26.4337686 L26.5209262,25.4799838 Z M130.144034,5.69910728 L75.8890537,17.8377527 L93.5169421,26.3532905 L130.144034,5.69910728 Z M57.4970218,11.6074738 L28.9113644,24.4098642 L28.9113644,25.8983105 L68.6675397,17.0034897 L57.4970218,11.6074738 Z M28.9113644,-2.20129113 L28.9113644,21.7907407 L54.683476,10.2481113 L28.9113644,-2.20129113 Z" fill="#F7AD01" fill-rule="nonzero" mask="url(#mask-6)"></path>
                </g>
                <g id="Group" transform="translate(72.836849, 0.851772)">
                    <polygon id="Path-21" fill="#E73D11" points="224.195476 457.139763 224.195476 499.07253 142.287361 499.07253 177.416293 485.474307 184.732972 489.670233 182.109733 483.61302 184.732972 482.291613 195.184665 488.271591 189.840424 482.291613 193.456705 480.524384 202.517672 485.474307 197.672042 478.106147 205.058781 475.813813 205.058781 454.437302"></polygon>
                    <path d="M317.999805,371.980897 C343.303688,371.980897 363.816538,351.468047 363.816538,326.164164 L272.183072,326.164164 C272.183072,351.468047 292.695922,371.980897 317.999805,371.980897 Z" id="Oval" fill="#E73D11" transform="translate(317.999805, 349.072530) rotate(-11.000000) translate(-317.999805, -349.072530) "></path>
                    <path d="M250.454268,341.168279 L238.226657,318.209664 C230.8699,306.061774 220.504175,301.105279 207.129482,303.340177 C193.754789,305.575075 185.430993,317.326472 182.158092,338.594368 L174.014018,457.231343 L227.191522,457.231343 L229.104809,433.454461 C236.288217,479.676894 259.3353,500.404541 298.24606,495.637403 C356.612199,488.486695 352.987795,449.340926 346.938249,429.835494 C342.905218,416.831873 332.67435,382.116847 316.245645,325.690416 C306.996877,309.022119 294.817683,301.572039 279.708061,303.340177 C264.59844,305.108315 254.847176,317.717682 250.454268,341.168279 Z" id="Path-13" fill="#7C00D9"></path>
                    <polygon id="Path-21-Copy" fill="#E73D11" points="296.720668 457.139763 296.720668 499.07253 214.812554 499.07253 249.941485 485.474307 257.258164 489.670233 254.634925 483.61302 257.258164 482.291613 267.709858 488.271591 262.365617 482.291613 265.981898 480.524384 275.042865 485.474307 270.197235 478.106147 277.583973 475.813813 277.583973 457.139763"></polygon>
                    <path d="M246.613546,114.741036 C306.985043,114.741036 356.867268,159.650949 364.67453,217.885084 C325.430101,233.459913 286.200135,241.244262 246.979029,241.244262 L244.626772,241.234929 C205.958704,240.928079 167.281978,233.054891 128.594271,217.610153 C136.518839,159.507922 186.338259,114.741036 246.613546,114.741036 Z" id="Combined-Shape" fill="#7C00D9"></path>
                    <path d="M246.613546,152.988048 C290.096695,152.988048 325.564935,187.303952 327.414267,230.331761 C300.595998,237.607959 273.785444,241.244262 246.979029,241.244262 L244.626772,241.234929 C218.363236,241.026515 192.095705,237.327605 165.823452,230.136564 C167.770433,187.199292 203.196757,152.988048 246.613546,152.988048 Z" id="Combined-Shape" fill="#FFFFFF"></path>
                    <path d="M246.979029,50.0092026 C167.981379,50.0092026 89.0234328,82.6506513 10.1244136,147.884827 C9.53863159,148.369155 9.54777496,149.270042 10.1432664,149.742381 C89.0402032,212.322779 167.991913,243.634701 246.979029,243.634701 C325.966146,243.634701 404.917856,212.322779 483.814792,149.742381 C484.410284,149.270042 484.419427,148.369155 483.833645,147.884827 C404.934626,82.6506513 325.976679,50.0092026 246.979029,50.0092026 Z M249.330972,52.4093687 C326.161488,53.044928 403.030319,84.823126 479.95556,147.789819 L481.167135,148.786475 L482.329285,147.869559 C403.830882,210.133843 325.387252,241.244262 246.979029,241.244262 L244.626772,241.234929 C167.786018,240.625161 90.9110724,210.136528 13.9837093,149.728141 L12.7902429,148.786475 L11.6476265,149.727113 C90.1439468,84.8258911 168.58134,52.3996408 246.979029,52.3996408 L249.330972,52.4093687 Z" id="Path-20" fill="#FFFFFF" fill-rule="nonzero"></path>
                    <polygon id="Path" fill="#F7AD01" fill-rule="nonzero" points="117.627061 298.159362 246.719928 189.143436 376.537349 298.157231 375.000109 299.987829 246.724107 192.268546 119.169361 299.985699"></polygon>
                    <path d="M246.72209,185.92512 L375.768729,294.291654 L375.768729,501.462969 L118.398211,501.462969 L118.398211,294.291654 L246.72209,185.92512 Z M246.726498,189.05022 L120.788649,295.401614 L120.788649,499.07253 L373.378291,499.07253 L373.378291,295.405598 L246.726498,189.05022 Z" id="Rectangle" fill="#FFFFFF" fill-rule="nonzero"></path>
                    <path d="M250.350367,335.857341 C250.971405,335.875295 251.468758,336.363149 251.510011,336.970607 L251.51232,337.085822 L249.00857,456.772929 L299.275502,456.772929 L302.334446,355.502441 C302.3532,354.881453 302.842411,354.385435 303.44998,354.345842 L303.565201,354.343847 C304.186189,354.362602 304.682207,354.851813 304.721801,355.459382 L304.723795,355.574602 L301.595295,459.16364 L246.551962,459.16364 L249.122783,337.020189 C249.140907,336.360337 249.690515,335.840113 250.350367,335.857341 Z" id="Path-11" fill="#F7AD01" fill-rule="nonzero"></path>
                    <path d="M0.237821233,92.2164473 C0.609685385,91.7187569 1.29500749,91.5934788 1.81520757,91.9098645 L1.91069322,91.9743795 L43.7974179,123.27129 C44.3262139,123.666396 44.4345914,124.415366 44.0394857,124.944162 C43.6676216,125.441853 42.9822995,125.567131 42.4620994,125.250745 L42.3666137,125.18623 L0.479889047,93.8893193 C-0.048906977,93.4942136 -0.157284429,92.7452433 0.237821233,92.2164473 Z" id="Path-2" fill="#FFFFFF" fill-rule="nonzero"></path>
                    <path d="M66.2036933,42.1117229 C66.6973424,41.7345104 67.3908256,41.8011595 67.8048435,42.2475867 L67.8790798,42.3357266 L102.166285,87.2065825 C102.567074,87.7310847 102.466784,88.4811808 101.942282,88.881969 C101.448633,89.2591815 100.755149,89.1925324 100.341132,88.7461052 L100.266895,88.6579652 L65.9796896,43.7871093 C65.5789013,43.2626072 65.6791912,42.5125111 66.2036933,42.1117229 Z" id="Path-3" fill="#FFFFFF" fill-rule="nonzero"></path>
                    <path d="M156.362588,13.3697203 C156.952265,13.1741174 157.586099,13.4632793 157.831895,14.0203182 L157.873329,14.1278493 L173.35794,60.8087015 C173.565768,61.4352326 173.226342,62.1116143 172.599811,62.3194423 C172.010135,62.5150452 171.3763,62.2258833 171.130504,61.6688444 L171.08907,61.5613134 L155.604459,14.8804612 C155.396631,14.2539301 155.736057,13.5775484 156.362588,13.3697203 Z" id="Path-4" fill="#FFFFFF" fill-rule="nonzero"></path>
                    <path d="M259.144098,0.00102336724 C259.764848,0.0264878016 260.25555,0.521030492 260.288575,1.12899214 L260.289324,1.24422725 L258.237844,51.2534108 C258.210788,51.9129574 257.654187,52.4256924 256.99464,52.3986364 C256.373891,52.373172 255.883188,51.8786293 255.850163,51.2706676 L255.849415,51.1554325 L257.900895,1.14624894 C257.927951,0.486702361 258.484552,-0.0260325942 259.144098,0.00102336724 Z" id="Path-5" fill="#FFFFFF" fill-rule="nonzero"></path>
                    <path d="M349.413608,18.9760756 C349.648291,18.359101 350.338696,18.0491925 350.95567,18.2838755 C351.536352,18.5047536 351.845031,19.1293161 351.68368,19.7164055 L351.647871,19.8259379 L334.634727,64.5529802 C334.400044,65.1699548 333.709639,65.4798633 333.092665,65.2451803 C332.511983,65.0243022 332.203304,64.3997397 332.364655,63.8126503 L332.400465,63.7031179 L349.413608,18.9760756 Z" id="Path-6" fill="#FFFFFF" fill-rule="nonzero"></path>
                    <path d="M424.481065,47.2740906 C424.816944,46.7058311 425.549894,46.5174497 426.118153,46.8533289 C426.652986,47.1694505 426.851317,47.837302 426.592775,48.3885406 L426.538915,48.4904169 L400.439836,92.646314 C400.103957,93.2145735 399.371008,93.4029549 398.802748,93.0670757 C398.267916,92.750954 398.069585,92.0831026 398.328127,91.531864 L398.381987,91.4299877 L424.481065,47.2740906 Z" id="Path-7" fill="#FFFFFF" fill-rule="nonzero"></path>
                    <path d="M488.292784,89.2519112 C488.735503,88.7622847 489.491318,88.7242581 489.980944,89.1669765 C490.439969,89.582025 490.50208,90.272256 490.143262,90.7603534 L490.065879,90.8551364 L456.3755,128.115174 C455.932781,128.6048 455.176966,128.642827 454.68734,128.200108 C454.228315,127.78506 454.166204,127.094829 454.525022,126.606731 L454.602405,126.511948 L488.292784,89.2519112 Z" id="Path-8" fill="#FFFFFF" fill-rule="nonzero"></path>
                    <path d="M328.161675,332.538343 C328.269056,331.887034 328.884096,331.446094 329.535404,331.553476 C330.148401,331.65454 330.57505,332.205296 330.533598,332.812741 L330.520272,332.927205 L323.73626,374.074827 C323.557357,375.159944 322.131592,375.447908 321.545566,374.517286 C309.654422,355.633872 299.910184,346.239679 292.646544,346.239679 C287.546026,346.239679 280.446199,348.105395 273.322365,351.0381 C270.375463,352.251266 267.651411,353.564077 265.650445,354.7179 C265.13981,355.012349 264.68732,355.290343 264.302199,355.545254 L264.143231,355.651016 L264.212545,355.653262 C264.8111,355.662579 265.549384,355.640477 266.423087,355.585982 L267.068458,355.541659 L267.645287,355.495964 C271.100273,355.207061 276.132685,354.52713 282.731278,353.456379 C284.031553,353.245384 284.666886,354.984982 283.536681,355.661643 L280.903307,357.246979 C274.260241,361.269552 269.206356,364.51737 265.747646,366.985553 L265.484738,367.173875 C263.566627,368.553114 262.174776,369.672988 261.321319,370.517881 C261.224693,370.613537 261.135987,370.704718 261.05528,370.791074 L260.928092,370.929901 L261.039627,370.928505 C261.881794,370.907347 263.117184,370.715391 264.72475,370.349497 L265.05122,370.273997 C268.68127,369.42163 274.014686,367.754417 281.035924,365.274775 C282.285777,364.833374 283.218046,366.451566 282.209263,367.311405 L281.413749,367.99354 C277.508685,371.362788 274.691419,374.110272 272.971985,376.219233 C272.097273,377.292105 271.524014,378.180034 271.252374,378.856087 C271.112471,379.204276 271.071575,379.425352 271.078183,379.548375 L271.08347,379.592849 L271.105077,379.596803 C271.262885,379.633936 271.508002,379.641561 271.832195,379.608649 L271.975952,379.592029 C272.912213,379.471237 274.258024,379.066564 275.98516,378.374722 C279.548425,376.94738 284.646109,374.337506 291.25939,370.55051 C291.873457,370.198873 292.656886,370.454764 292.944994,371.101077 C310.312692,410.062083 323.319643,428.894204 330.951236,427.363964 C338.728548,425.804504 347.992153,401.467254 357.888482,355.063639 C358.026163,354.418056 358.661124,354.00632 359.306707,354.144001 C359.95229,354.281682 360.364026,354.916644 360.226345,355.562227 L359.615691,358.402489 C349.658657,404.336427 340.528284,427.881652 331.421197,429.707749 C322.076919,431.581407 309.03148,412.847588 291.300401,373.279747 L289.209132,374.456137 C277.098588,381.208929 270.90748,383.463241 269.157571,381.03572 L269.101608,380.954178 C267.703433,378.81362 269.914063,375.335075 275.692766,369.907076 L276.132076,369.496435 L274.984565,369.879001 C264.247237,373.425556 259.239712,374.234201 258.270461,372.106664 L258.237192,372.028508 C257.593053,370.405046 259.441813,368.574838 264.089194,365.233089 L264.683579,364.809205 C267.52752,362.797047 271.353576,360.30834 276.164674,357.3407 L277.137653,356.741853 L275.793242,356.935723 C272.434397,357.410763 269.683386,357.733199 267.537484,357.903081 L266.701166,357.964461 C262.445914,358.254519 260.707003,358.007088 260.707003,356.2038 C260.707003,352.661648 282.113219,343.849241 292.646544,343.849241 C300.631995,343.849241 310.233194,352.720603 321.73624,370.381854 L321.884267,370.610379 L328.161675,332.538343 Z" id="Path-9" fill="#FFFFFF" fill-rule="nonzero"></path>
                    <path d="M177.147474,349.193355 C172.238406,353.718501 168.040666,359.709361 166.963036,365.942815 C166.079562,371.053194 167.03439,376.715711 169.79506,382.918672 C169.944201,383.253777 170.238951,383.501846 170.594598,383.591585 L172.619103,384.095839 C181.725669,386.331303 186.094421,386.915131 187.317386,385.697426 L187.376754,385.635783 C188.693117,384.208978 186.977172,381.797486 181.775975,377.045625 L181.245223,376.564164 L182.500667,376.865042 C191.520449,378.987073 196.200997,379.202125 197.40315,377.216051 L197.449114,377.135529 C198.747122,374.717978 193.80431,370.399685 181.602706,362.41812 L179.749605,361.213566 L180.912192,360.940583 C191.450979,358.439893 196.604746,356.676059 197.443064,355.049531 C198.188409,353.603391 197.0623,352.628929 194.81849,351.559643 C193.285826,350.829254 191.142283,350.079812 188.863363,349.47115 L188.206975,349.300018 C183.103746,348.002617 178.926959,347.727722 177.251037,349.103304 L177.147474,349.193355 Z M188.246537,351.780635 C190.393902,352.354161 192.403449,353.056754 193.790129,353.717575 L193.983958,353.811714 C194.298092,353.967286 194.56723,354.115884 194.785002,354.252363 L194.871518,354.308387 L194.825139,354.334555 C193.030548,355.310985 186.581139,357.221676 176.450727,359.520756 C175.415469,359.755707 175.177456,361.123016 176.072427,361.693968 L177.545846,362.638209 C183.805833,366.668755 188.442791,369.903936 191.447255,372.334776 C193.02584,373.611971 194.13827,374.655551 194.771792,375.442079 L194.868555,375.565111 C194.990904,375.724662 195.08662,375.865981 195.156192,375.985905 L195.184665,376.039064 L195.173686,376.042464 C195.030143,376.082291 194.799927,376.132287 194.472886,376.167411 C193.693007,376.25117 192.590755,376.215586 191.182465,376.054331 L190.87601,376.017851 C187.663522,375.62127 183.040147,374.620139 177.023402,373.014638 C175.797104,372.687414 174.973488,374.24485 175.934246,375.074203 L177.026684,376.02319 C179.970826,378.597774 182.161289,380.659585 183.591106,382.199657 L183.929243,382.569956 C184.371392,383.062932 184.719487,383.488877 184.97127,383.841088 L185.052394,383.956992 L185.044582,383.957461 C184.3655,383.957461 183.396948,383.862248 182.153452,383.669364 L181.885276,383.626943 C179.621187,383.262049 176.53687,382.59892 172.639602,381.638106 L171.746418,381.415957 L171.575472,381.011803 C169.308801,375.589 168.565647,370.705042 169.318534,366.35003 C170.286261,360.752302 174.210593,355.151638 178.767642,350.950981 C179.53783,350.241028 183.652051,350.553524 188.246537,351.780635 Z" id="Path-10" fill="#FFFFFF" fill-rule="nonzero"></path>
                    <path d="M231.904173,353.297852 C232.525101,353.319183 233.019617,353.809912 233.057349,354.4176 L233.05899,354.532826 L229.580638,459.086498 C229.55869,459.746234 229.006075,460.263264 228.346339,460.241989 C227.725411,460.220658 227.230894,459.729929 227.193163,459.122242 L227.191522,459.007016 L230.669873,354.453343 C230.691822,353.793607 231.244436,353.276578 231.904173,353.297852 Z" id="Path-12" fill="#F7AD01" fill-rule="nonzero"></path>
                    <circle id="Oval" fill="#FFFFFF" cx="349.473908" cy="288.713965" r="10.3585657"></circle>
                </g>
            </g>
        </g>
    </g>
</svg>