<?xml version="1.0" encoding="UTF-8"?>
<svg width="658px" height="568px" viewBox="0 0 658 568" version="1.1" xmlns="http://www.w3.org/2000/svg" xmlns:xlink="http://www.w3.org/1999/xlink">
    <title>illustration-9 hover</title>
    <defs>
        <polygon id="path-1" points="18.5922871 21.8801064 128.632448 21.8801064 128.632448 120.675287 18.5922871 120.675287"></polygon>
        <circle id="path-3" cx="26.5060241" cy="26.5060241" r="26.5060241"></circle>
        <path d="M0,189.794111 L155.360866,20.5772123 C168.614788,7.11397506 183.338207,0.382356456 199.531125,0.382356456 C215.724042,0.382356456 232.210663,7.98464157 248.990985,23.1892118 L401.606426,190.3087 L354.475815,227.933062 L200.803213,66.5223744 L47.0117617,229.298019 L0,189.794111 Z" id="path-5"></path>
        <circle id="path-7" cx="89.1566265" cy="89.1566265" r="89.1566265"></circle>
        <circle id="path-9" cx="89.1566265" cy="89.1566265" r="89.1566265"></circle>
        <circle id="path-11" cx="65.060241" cy="65.060241" r="65.060241"></circle>
    </defs>
    <g id="Desktop" stroke="none" stroke-width="1" fill="none" fill-rule="evenodd" opacity="0.2">
        <g id="Artboard" transform="translate(-1272.000000, -1212.000000)">
            <g id="illustration-9-hover" transform="translate(1272.000000, 1212.000000)">
                <g id="Path-15" transform="translate(321.759036, 383.132530)">
                    <mask id="mask-2" fill="white">
                        <use xlink:href="#path-1"></use>
                    </mask>
                    <use id="Mask" fill="#FFFFFF" transform="translate(73.612367, 71.277697) rotate(-32.000000) translate(-73.612367, -71.277697) " xlink:href="#path-1"></use>
                    <path d="M64.7046039,-9.63855422 C67.6310404,39.9547874 79.898582,60.8991049 101.245797,54.3262704 C107.989675,52.2498219 111.587706,49.2255319 112.811062,45.2431582 C113.794729,42.0410399 113.321524,38.2690051 111.577833,33.0709394 L111.272405,32.1816705 C110.945981,31.2507822 110.589991,30.2930412 110.092146,28.9939806 L109.243592,26.7831731 C106.69122,20.0825435 106.029851,17.6371599 106.209601,14.504315 C106.480616,9.78081174 109.652743,6.76672832 116.211339,5.48158952 C129.962014,2.78718255 139.835382,18.016875 140.50328,39.1182814 C141.196261,61.0121536 131.947518,81.2990442 114.770637,89.7307239 L114.247701,89.98259 C97.1395903,98.0656573 86.4350782,114.514983 84.5005166,133.240664 C82.6679423,150.979153 89.164536,167.398709 101.658731,175.177743 L102.039177,175.410819 C108.95626,179.580072 110.710761,185.033184 107.588707,190.680781 C104.990562,195.38066 99.07113,199.960061 91.6445069,203.338315 C84.3877614,206.639294 76.5570379,208.386633 70.5368184,207.90581 C63.4597101,207.340576 59.1721896,203.748395 59.1721896,197.318333 L59.1769439,196.45911 C59.2738398,187.77588 60.8746011,179.075734 66.0587351,156.47311 L68.2201055,147.089473 L68.5505547,145.639786 C73.8795551,122.171858 75.8618844,108.959301 74.7589652,98.7355218 C73.2270265,84.5348408 67.4701082,69.395866 58.5011678,58.4759865 C47.4915794,45.0715737 32.4571331,38.5729964 13.6186894,40.9702413 C-12.3722722,44.2776642 -25.9178603,49.7564857 -27.2074417,56.8557753 L-27.2294741,56.9898396 L-26.7512437,57.0732317 C23.9470901,66.0191303 48.7355161,84.8369919 47.0760835,113.608839 L47.0170225,114.492719 C46.2829337,124.164339 43.5157168,131.170228 38.8832983,136.044713 C35.1784184,139.943191 30.5232032,142.330979 24.3879319,143.972987 L22.7853422,144.383732 C21.6632768,144.660187 20.7353272,144.854812 18.5344122,145.275934 L14.7768392,145.989113 C9.77235451,146.957232 7.31967835,147.697531 5.39065466,148.995051 C3.00340815,150.600786 2.02254859,152.963346 2.47360773,156.820331 C3.63135409,166.720165 10.6077675,169.036444 24.1726584,166.709268 L24.5857331,166.637329 C26.2515987,166.342942 27.9287393,166.002358 30.1174025,165.523404 L35.2487921,164.39678 C42.0121186,162.939705 43.6946297,162.777906 46.0342268,163.209497 C56.4250202,165.126311 56.1513499,183.452646 47.0386964,195.307569 L46.7598518,195.664804 L44.8714657,194.168022 C53.3223524,183.506124 53.6614072,167.066797 45.5970907,165.579153 L45.2303758,165.518047 C43.3669406,165.242893 41.4140806,165.521887 34.7930958,166.961687 L30.1915255,167.973477 C28.1847721,168.40918 26.593872,168.729431 25.0050602,169.010201 C18.2698156,170.200434 13.1766785,170.324334 9.09504492,169.024931 C3.94462029,167.385275 0.828021359,163.494125 0.0802796265,157.100221 C-0.471788232,152.379515 0.879124181,149.125623 4.04578358,146.995631 L4.37504676,146.780884 C6.53453095,145.416199 9.1014826,144.646129 13.9264671,143.699745 L19.5445941,142.625304 C21.1988194,142.297779 21.9159372,142.124246 23.2857369,141.771143 C29.2697411,140.228604 33.688448,138.013107 37.1366083,134.384764 C41.3597018,129.940992 43.9198794,123.459275 44.614295,114.310349 C46.7172164,86.6043602 22.9677112,68.2870065 -27.188808,59.4428475 L-28.716786,59.1777424 L-29.7188755,59.0066861 L-29.7188755,57.9901019 C-29.7188755,48.4771378 -15.3007913,42.2212563 13.314509,38.5798789 C33.0032477,36.0744316 48.8438259,42.9214561 60.3632391,56.9465917 C69.6500646,68.2535032 75.5751037,83.8345855 77.1547037,98.4770747 L77.2206923,99.1287441 C78.2135726,109.612935 76.1838812,122.905847 70.9033202,146.160442 L67.9190388,159.146916 C63.011492,180.661 61.5818281,188.865924 61.5818281,197.318333 C61.5818281,202.339396 64.792952,205.029747 70.7286605,205.50382 C76.2973451,205.94858 83.735209,204.288904 90.6467755,201.144941 C97.6454692,197.961345 103.175707,193.683033 105.479852,189.514983 C107.909528,185.119853 106.684992,181.127242 101.06615,177.640227 L100.795261,177.474561 C87.179949,169.267968 80.1632719,151.774878 82.1036351,132.99304 C84.1012462,113.657069 95.0904162,96.607655 112.683196,88.0602883 L113.218329,87.803886 C129.746643,79.9947549 138.767198,60.4365819 138.094847,39.1945127 C137.467149,19.36316 128.49874,5.52936927 116.67469,7.84625951 C111.117798,8.9351172 108.817324,11.1209748 108.615283,14.6423432 L108.601592,14.9370981 C108.513616,17.4343176 109.160563,19.7705742 111.380159,25.62174 L112.585311,28.768594 C113.00778,29.8805842 113.32669,30.7502224 113.630161,31.6247133 L113.71261,31.8635169 C115.725367,37.7230663 116.311507,42.0540392 115.114467,45.9507473 C113.630385,50.781859 109.401527,54.336384 101.954877,56.629217 C78.672122,63.7980068 65.569178,41.8966039 62.3923782,-7.97673739 L62.2991496,-9.49661159 L64.7046039,-9.63855422 Z" fill="#F7AD01" fill-rule="nonzero" mask="url(#mask-2)"></path>
                </g>
                <circle id="Oval" fill="#DD63B1" cx="164.329317" cy="166.26506" r="31.3253012"></circle>
                <circle id="Oval-Copy" fill="#E73D11" cx="292.040161" cy="547.791165" r="19.2771084"></circle>
                <circle id="Oval" fill="#FFFFFF" cx="452.682731" cy="134.939759" r="16.064257"></circle>
                <polygon id="Rectangle" fill="#7C00D9" transform="translate(156.698795, 56.626506) rotate(68.000000) translate(-156.698795, -56.626506) " points="113.726908 13.6546185 199.670683 13.6546185 199.670683 99.5983936 113.726908 99.5983936"></polygon>
                <polygon id="Triangle" fill="#DD63B1" transform="translate(433.405622, 57.028112) rotate(-24.000000) translate(-433.405622, -57.028112) " points="433.405622 19.2771084 471.156627 94.7791165 395.654618 94.7791165"></polygon>
                <g id="Group-3" transform="translate(0.473896, 65.060241)">
                    <g id="Group-2" transform="translate(297.188755, 0.000000)">
                        <circle id="Oval" fill="#FFFFFF" cx="44.9799197" cy="68.2730924" r="10.4417671"></circle>
                        <g id="Group" transform="translate(36.473010, 103.224235) scale(-1, 1) rotate(-16.000000) translate(-36.473010, -103.224235) translate(9.966986, 76.718210)">
                            <g id="Oval-Copy-4">
                                <mask id="mask-4" fill="white">
                                    <use xlink:href="#path-3"></use>
                                </mask>
                                <use id="Mask" fill="#DD63B1" xlink:href="#path-3"></use>
                                <circle fill="#FFFFFF" mask="url(#mask-4)" cx="32.507388" cy="4.50102296" r="26.5060241"></circle>
                            </g>
                            <ellipse id="Oval" fill="#131313" cx="20.0803213" cy="36.5461847" rx="3.21285141" ry="4.41767068"></ellipse>
                            <ellipse id="Oval-Copy" fill="#131313" cx="10.4417671" cy="35.3413655" rx="2.40963855" ry="4.01606426"></ellipse>
                            <path d="M14.3901652,37.7563671 C14.9238066,37.813274 15.311336,38.3021792 15.2557363,38.8483674 C14.9852387,41.505622 13.2495826,43.5346281 10.1951354,44.8968875 C9.70327331,45.1162541 9.13079363,44.885978 8.9164662,44.3825516 C8.70213877,43.8791251 8.92712503,43.2931855 9.41898708,43.0738189 C11.8803154,41.9760859 13.1329471,40.5117421 13.3232497,38.6422891 C13.374878,38.1351144 13.790438,37.7568861 14.2768035,37.751004 L14.3901652,37.7563671 Z" id="Path-2" fill="#131313" fill-rule="nonzero"></path>
                        </g>
                        <circle id="Oval-Copy-2" fill="#FFFFFF" cx="31.7269076" cy="31.7269076" r="31.7269076"></circle>
                    </g>
                    <path d="M334.136546,186.345382 C360.752679,186.345382 382.329317,164.768743 382.329317,138.15261 L285.943775,138.15261 C285.943775,164.768743 307.520414,186.345382 334.136546,186.345382 Z" id="Oval" fill="#E73D11" transform="translate(334.136546, 162.248996) rotate(-2.000000) translate(-334.136546, -162.248996) "></path>
                    <g id="Group-4" transform="translate(66.666667, 212.048193)">
                        <g id="Path-4" transform="translate(66.666667, 0.420856)">
                            <mask id="mask-6" fill="white">
                                <use xlink:href="#path-5"></use>
                            </mask>
                            <use id="Mask" fill="#DD63B1" xlink:href="#path-5"></use>
                            <path d="M149.941925,-4.92553965 C166.934024,-7.60835952 177.658696,-2.54483086 181.659026,10.2481918 C183.489422,16.1017836 180.852007,22.9507229 174.575918,31.0703017 C171.730425,34.7516075 168.253976,38.5662732 163.723318,43.1070106 L162.536655,44.2812076 C160.05254,46.7095357 152.16263,54.3763758 150.021308,56.6119135 L149.919084,56.7191149 C146.297226,60.5361987 144.670195,63.0153161 144.941709,63.9916724 C145.477705,65.9190993 148.529747,66.5875114 156.919758,66.9471407 L158.578453,67.0162316 C163.51457,67.2279698 166.285108,67.5114968 168.752767,68.2255553 C172.184021,69.2184462 174.240834,71.0219323 174.557285,73.8946001 C175.162392,79.3876246 170.915884,84.3690967 163.935806,86.6841742 C156.626564,89.1084256 147.332848,88.3993881 137.964659,84.2245251 L137.48004,84.0054914 C124.552824,78.0807897 108.64776,79.8993448 89.639412,89.5958124 C34.8832321,113.703681 15.338773,137.569132 30.0509552,161.277698 C35.6594777,170.315788 37.2532644,178.487124 35.4975166,186.294779 C34.2035175,192.049078 31.4846999,196.906794 26.4618486,203.518362 L25.2129904,205.138052 C24.344838,206.2514 22.9850603,207.986005 22.7950096,208.230304 L22.0597845,209.181359 C21.2901626,210.184246 20.6683432,211.0214 20.0958502,211.830199 C18.2636931,214.418607 17.0803546,216.543513 16.4282466,218.541283 C15.1077793,222.58661 16.0014706,226.177003 19.7340161,230.070697 C27.8913558,238.58022 50.5157946,236.696533 76.7819399,226.731995 C90.3059398,221.601421 102.627709,215.107075 111.420589,208.736193 L111.728514,208.510871 L111.460694,207.926639 C104.896702,193.64954 99.373792,182.925959 94.9005184,175.766909 L94.6777294,175.411927 C89.9672541,167.939932 86.5397219,164.752 85.0036573,165.453815 C83.4120033,166.181029 82.3724969,170.590923 81.2287387,180.859459 L80.5309402,187.379576 L80.3663584,188.878957 C80.2415539,189.999348 80.1231579,191.021262 80.0037025,192.003328 L79.9008786,192.836707 C77.7347936,210.14239 74.3537082,219.513259 67.0558117,221.893186 C62.1729334,223.485549 59.274026,222.167714 58.5096369,218.258844 L58.4598826,217.991827 C58.0438869,215.639612 58.25307,213.402385 59.2776867,206.864874 L59.6573692,204.454095 C59.8217858,203.394317 59.9438598,202.563128 60.0580748,201.717242 C61.0010918,194.733175 60.7707479,190.228304 58.8915499,187.292667 L58.7744327,187.114888 C54.8728116,181.358818 51.7607098,171.118922 51.116273,161.649541 C50.3626679,150.576036 52.9248384,141.989627 59.1734901,138.415099 C66.1140549,134.444763 70.3436883,135.448983 75.3101027,140.061635 L76.4244893,141.108452 C76.8386634,141.495418 77.1556624,141.780888 77.4581105,142.035541 C78.6281165,143.020654 79.5055324,143.456002 80.3858681,143.456002 C81.1766256,143.456002 82.3858421,140.478467 83.7883673,134.327939 L84.060244,133.102899 C84.5030496,131.071042 85.3911902,126.919212 85.7128698,125.469918 L85.946084,124.437715 C88.7078589,112.377004 91.3678278,106.43661 96.1284164,105.426447 C101.858916,104.210477 110.520301,119.522974 118.189911,141.569627 C125.90431,163.745028 129.746781,184.949775 126.960795,194.815919 C125.754899,199.086413 121.496902,203.986431 115.149552,208.943012 L114.726104,209.27071 L115.497189,210.970308 L132.09723,203.304692 C208.557753,167.971966 250.854085,148.095728 258.847989,143.743153 L259.096194,143.606894 C264.393993,140.672277 267.746667,130.537397 267.038913,119.527653 C266.257666,107.374643 260.918774,97.2840764 251.933126,93.1521064 C248.31979,91.4905459 245.69671,91.4107324 243.534326,92.5709538 C241.998941,93.39476 240.925591,94.5167356 238.976982,97.175898 L237.931561,98.6199791 C234.455189,103.381773 232.362078,105.103043 228.462017,105.248323 C223.375757,105.43779 216.693083,101.673329 207.227021,92.9431384 C191.46653,78.407834 191.81044,55.5934068 204.536714,32.2657673 C215.590275,12.0042613 233.778829,-3.77736365 245.659743,-2.89361136 C252.786616,-2.36348461 264.276622,5.05506123 278.211325,17.2229605 L279.167068,18.0618745 L279.462807,18.1576528 C281.265396,18.7543482 283.082206,19.6297044 284.911125,20.7850161 L285.234,20.991801 C291.07475,24.783611 297.038248,31.4366879 303.143922,40.9559616 L303.798394,41.9863725 L304.050105,42.2507916 C311.587796,50.1785728 318.730285,58.22451 324.34463,65.0830979 L325.424702,66.4107322 C332.304702,74.9162858 335.506691,79.8092845 334.608078,81.5633797 C332.230274,86.2048624 328.157297,92.8079406 323.94876,98.0244018 L323.452035,98.6331928 C317.007225,106.441844 311.056599,110.114179 305.890299,107.696246 C298.141738,104.069763 301.306585,91.7230972 314.488966,70.6358906 L315.389558,69.2056496 L315.323664,69.0595389 C310.889213,59.304921 306.541693,50.9908015 302.288082,44.1189518 L301.884337,43.4707099 L301.598694,43.1711135 C300.658539,42.1864705 299.712772,41.2042735 298.763605,40.2270734 L298.051126,39.49515 C291.165537,32.437093 284.551794,26.0800002 278.404952,20.6190636 L277.95261,20.218501 L277.933348,20.2131542 C270.613525,18.1615511 263.626699,21.3758889 256.768513,29.9812242 L256.5048,30.3148572 C247.975325,41.1943713 245.996878,49.704835 249.282286,56.4090483 C251.872972,61.6956091 257.584574,65.7947213 266.170757,69.3577947 L266.650723,69.5551959 C270.359905,71.0672098 281.671323,74.7960197 283.39852,75.4995133 L283.472397,75.5302538 C286.583071,76.8581625 288.656173,80.1221922 290.127656,85.2565898 L290.229347,85.6178374 C291.16929,89.0171919 291.722586,92.2532147 292.540736,98.7135532 L293.350063,105.24814 C294.068302,110.892205 294.588767,114.029234 295.37333,117.09265 L295.487256,117.530043 C296.731267,122.228171 298.3846,125.217663 300.594731,126.55445 C307.346304,130.638106 321.048265,125.269196 341.409729,110.119306 L342.664668,109.179537 L343.358023,108.657021 L399.615938,147.396355 L398.86124,148.400302 C388.631214,162.008942 375.433975,168.847773 359.367605,168.847773 C353.793157,168.847773 349.808399,167.529267 346.872771,164.945986 C344.78858,163.111949 343.640551,161.315239 341.737047,157.376179 L341.043728,155.929493 C339.149718,152.01025 338.042614,150.326535 336.057421,148.740423 C333.290651,146.529853 329.345334,145.518741 323.472253,145.86357 C307.409903,146.806645 290.487827,158.853596 272.769989,182.111998 L272.191968,182.873923 L278.646668,182.252132 C300.378397,180.195596 315.672751,179.144402 324.551172,179.098769 L325.145619,179.097216 C332.189355,179.097216 336.109966,181.45628 339.861209,186.499737 L340.320021,187.131407 C340.788808,187.788428 341.55227,188.874175 341.619792,188.968647 C343.587689,191.722014 344.90222,192.889388 346.887826,193.309821 C349.132952,193.785205 351.033925,193.425206 353.50837,192.22925 L353.820728,192.075402 C354.127213,191.92171 354.443495,191.756184 354.806547,191.560152 L356.786383,190.467816 C361.013889,188.143782 363.972125,187.129344 368.072644,187.129344 C375.627558,187.129344 378.89917,195.500494 378.35051,211.628211 L378.312149,212.625308 L375.904718,212.522184 L375.940534,211.599506 C376.458214,196.68763 373.681241,189.538983 368.072644,189.538983 C364.583683,189.538983 362.032036,190.372737 358.346523,192.361855 L356.427932,193.420628 C355.834598,193.746836 355.361437,193.998428 354.900881,194.229382 C351.826067,195.771304 349.338675,196.291828 346.388674,195.667194 C343.73807,195.105953 342.05319,193.664012 339.865964,190.656365 L338.11477,188.191846 C334.782236,183.619846 331.5781,181.582821 325.493147,181.508943 L325.145619,181.506854 C315.896778,181.506854 299.006393,182.694442 274.502111,185.069902 L269.716746,185.539296 L267.024415,185.806361 L268.627154,183.626637 C287.528385,157.920978 305.738929,144.490965 323.331018,143.458074 C329.758062,143.08072 334.286615,144.241305 337.561529,146.857867 C339.975487,148.78655 341.228079,150.737796 343.376212,155.219511 L343.889387,156.291954 C345.663648,159.966071 346.688972,161.574488 348.464621,163.137016 C350.931136,165.307489 354.348145,166.438134 359.367605,166.438134 C374.163918,166.438134 386.334949,160.381113 395.969493,148.204583 L396.169478,147.948622 L343.42008,111.624927 L342.812742,112.078954 C321.897577,127.638189 307.584957,133.304722 299.592809,128.760089 L299.347644,128.616277 C296.548342,126.923133 294.646526,123.570713 293.265821,118.546919 L293.157894,118.146831 C292.154753,114.358372 291.584759,110.708488 290.637629,102.966554 L290.154501,99.0507728 C289.349253,92.6902715 288.808317,89.5201974 287.906858,86.2600203 C286.606278,81.5564012 284.865409,78.7449265 282.526347,77.7464098 L282.375429,77.6851329 C280.495835,76.9482051 269.498488,73.3182151 265.741127,71.7865618 C256.388098,67.973886 250.082555,63.5178793 247.118498,57.4694154 C243.366427,49.8129302 245.562455,40.3665229 254.608473,28.8281483 C260.783365,20.9519523 267.314853,17.052472 274.084936,17.2019188 L274.498795,17.2160914 L274.180901,16.9452599 C261.949675,6.54557991 251.90702,0.16800979 245.774666,-0.464497252 L245.480998,-0.490611542 C234.802634,-1.28491314 217.300203,13.9013843 206.652045,33.4197751 C194.395977,55.885512 194.069693,77.5306674 208.860652,91.1718086 L209.607093,91.8550767 C218.239533,99.6964494 224.218309,102.995094 228.372319,102.840355 C231.219214,102.734306 232.869576,101.427584 235.794841,97.4589578 L237.059031,95.7162668 C239.211863,92.7795705 240.45045,91.4910223 242.395069,90.4476423 C245.276358,88.9016945 248.682952,89.0053484 252.939841,90.9628407 C262.843351,95.5168815 268.610737,106.417307 269.443589,119.373071 C270.204624,131.21167 266.560813,142.226636 260.263801,145.714749 C253.106929,149.679166 213.326811,168.399701 140.794539,201.938996 L114.300036,214.177118 L113.461115,212.316363 L112.750201,210.747015 L112.735877,210.75788 C103.890525,217.171987 91.7499952,223.563854 78.3939301,228.695823 L77.6366422,228.984958 C50.496794,239.280951 27.0930416,241.229523 17.9945286,231.738193 C13.6589037,227.215382 12.5354187,222.701795 14.1375549,217.79356 C14.8777143,215.52604 16.1693789,213.206615 18.1290607,210.438043 L18.4903745,209.93268 C19.0431058,209.167085 19.6497198,208.35987 20.3839264,207.407931 L23.8555335,202.958088 L24.5291836,202.078977 C29.3660502,195.713894 31.9451167,191.108944 33.1465869,185.766113 C34.7586033,178.597619 33.2898006,171.067076 28.0034948,162.548235 C12.2070775,137.092432 32.7470878,112.011329 88.6063507,87.4199408 C107.957344,77.5464436 124.466572,75.5822 138.072575,81.6292598 L138.483989,81.8149563 C147.481086,85.9384361 156.343929,86.6634499 163.177237,84.3970512 C169.180731,82.4058766 172.625513,78.3648892 172.162135,74.1584479 C171.811826,70.9784254 168.101992,69.8627494 158.863334,69.4408381 L155.738365,69.3079376 C151.948651,69.136438 150.112174,68.9688442 148.204109,68.5679025 C145.128255,67.9215731 143.202812,66.7324471 142.620166,64.6372681 C142.016652,62.46705 143.7729,59.7304599 147.919437,55.3267615 L148.388691,54.8333262 C151.030012,52.096491 160.602271,42.8173271 161.514272,41.9080947 L162.014871,41.4077196 C166.481138,36.9316012 169.896242,33.184409 172.66942,29.5966594 C178.508319,22.0426878 180.889142,15.8600731 179.359202,10.9673377 C175.898168,-0.101023692 166.974097,-4.6889599 152.182359,-2.81139673 L151.551807,-2.7276837 L151.67646,-2.07421844 C157.385607,28.3107328 154.166038,47.2622467 141.694696,54.6281031 L141.306034,54.8522189 C128.939067,61.8130431 114.736705,66.2629142 98.7074417,68.2056117 L97.8150476,68.31096 L97.5399452,65.9170768 C113.62637,64.0684428 127.818102,59.6788715 140.124114,52.7523565 C151.853882,46.1501838 154.96949,27.7601421 149.127484,-2.57959997 L148.705905,-4.73038907 L149.941925,-4.92553965 Z M115.914054,142.361355 C108.843074,122.035493 100.336564,106.996798 96.6285878,107.783604 C93.2294095,108.504885 90.7399522,114.19253 88.1979644,125.401649 L87.9847325,126.357241 C87.5723559,128.236877 86.6285865,132.65129 86.2821008,134.220839 L86.049831,135.249474 C84.3052835,142.850352 83.0144159,145.865641 80.3858681,145.865641 C78.8207037,145.865641 77.4696963,145.195309 75.9061197,143.878821 L75.6114464,143.625757 C75.5113723,143.53819 75.4087358,143.446806 75.3013983,143.349797 L74.4207712,142.531871 C74.1496898,142.276703 73.8080849,141.955223 73.6702743,141.827228 L73.2612087,141.454204 C69.2033289,137.824969 66.0893055,137.234966 60.3699821,140.506693 C55.1296973,143.504387 52.8227571,151.235461 53.5203508,161.485932 C54.1263654,170.390735 57.0179827,180.030812 60.5709807,185.465329 L60.7690396,185.762889 C63.1521485,189.278694 63.4726447,194.157516 62.5044752,201.598977 L62.38156,202.509845 C62.2612138,203.373874 62.1270565,204.264134 61.9441745,205.427393 L61.5035579,208.235027 C60.6378535,213.865566 60.493641,215.848874 60.8744829,217.796393 C61.3361782,220.157372 62.7022699,220.778393 66.3087234,219.602288 C72.1637829,217.692886 75.3363623,209.198199 77.3809104,193.546225 L77.5098965,192.537437 C77.6465472,191.445683 77.7792285,190.322616 77.9189873,189.081392 L78.7877711,181.00709 C80.1092574,168.923699 81.1396664,164.570008 84.0022817,163.262102 C89.5071343,160.74698 98.6030587,174.399339 112.764699,204.996274 L113.699598,207.024927 L113.729406,207.002859 C119.495758,202.509958 123.381398,198.147117 124.556783,194.444594 L124.641837,194.161095 C127.248171,184.931163 123.470007,164.081295 115.914054,142.361355 Z M332.444199,80.4967992 C332.355719,80.6175507 332.284621,80.338291 332.076364,79.8948507 C331.757047,79.2149331 331.226284,78.3066254 330.499575,77.1996531 L330.328402,76.940685 C328.683568,74.468617 326.169382,71.1428231 322.99718,67.2431441 L321.951841,65.9661459 C318.58535,61.8786519 314.692818,57.3859187 310.511392,52.7613248 L309.28755,51.4128785 L309.442126,51.6974324 C312.104968,56.6219809 314.795214,62.0747054 317.5144,68.0559953 L318.122899,69.4007307 L317.772096,69.9504764 C304.385615,90.9285001 301.092689,102.790379 306.911725,105.513805 C310.784334,107.326265 316.095858,103.920464 322.073367,96.511372 C326.036279,91.5993617 329.905363,85.3741027 332.242171,80.8928391 L332.462651,80.4658906 L332.444199,80.4967992 Z M288.135598,26.2938694 C288.725913,26.8556064 289.319354,27.4239829 289.915804,27.9988671 L291.20241,29.2450071 L290.894896,28.9229864 C289.869532,27.8563031 288.850513,26.8809666 287.837948,25.9970048 L287.66506,25.8474167 L288.135598,26.2938694 Z" fill="#F7AD01" fill-rule="nonzero" mask="url(#mask-6)"></path>
                        </g>
                        <path d="M115.178045,230.518554 C117.842575,227.35457 109.251444,215.80097 95.9892165,204.712867 C82.7269893,193.624764 69.8158018,187.200996 67.1512721,190.36498 C64.4867424,193.528965 73.0778736,205.082564 86.3401008,216.170667 C99.602328,227.25877 112.513516,233.682538 115.178045,230.518554 Z" id="Oval" fill="#7C00D9"></path>
                        <path d="M419.761714,229.715341 C417.097184,226.551357 425.688315,214.997757 438.950543,203.909654 C452.21277,192.821551 465.123957,186.397783 467.788487,189.561768 C470.453017,192.725752 461.861885,204.279351 448.599658,215.367454 C435.337431,226.455557 422.426244,232.879325 419.761714,229.715341 Z" id="Oval-Copy-2" fill="#7C00D9"></path>
                        <path d="M429.718876,213.231374 L468.486405,248.995984 L530.120482,182.329317 L492.713854,200.600509 L490.594047,209.74038 L487.680206,203.007891 L484.639987,204.14006 L481.600764,217.185664 L480.79674,208.297118 L476.64953,209.899168 L473.825611,221.031028 L471.526222,211.494691 L464.118099,215.767042 L446.087526,198.810442 C443.404174,200.25685 440.634028,202.238548 437.77709,204.755537 C434.920152,207.272526 432.234081,210.097805 429.718876,213.231374 Z" id="Path-21-Copy" fill="#E73D11"></path>
                        <path d="M100.401606,209.21531 L61.6340764,244.97992 L0,178.313253 L37.4066282,196.584445 L39.5264344,205.724316 L42.4402763,198.991827 L45.4804952,200.123996 L48.5197184,213.1696 L49.3237419,204.281054 L53.4709521,205.883104 L56.2948708,217.014964 L58.5942599,207.478627 L66.0023826,211.750977 L84.0329558,194.794378 C86.7163082,196.240785 89.4864535,198.222484 92.3433916,200.739473 C95.2003298,203.256461 97.8864014,206.081741 100.401606,209.21531 Z" id="Path-21-Copy-2" fill="#E73D11"></path>
                    </g>
                    <g id="Combined-Shape" transform="translate(0.000000, 158.232932)">
                        <mask id="mask-8" fill="white">
                            <use xlink:href="#path-7"></use>
                        </mask>
                        <use id="Mask" fill="#FFFFFF" xlink:href="#path-7"></use>
                        <path d="M135.672691,-14.4578313 C163.170483,-14.4578313 185.461847,7.84762978 185.461847,35.3628105 C185.461847,37.0137213 185.381598,38.6458772 185.224791,40.2555853 L185.203586,40.4689897 C185.473829,40.8132781 185.741854,41.1593918 186.00764,41.5073093 C198.636446,54.3755032 206.425703,72.0158302 206.425703,91.476586 C206.425703,93.0970154 206.371697,94.7048232 206.26539,96.2983055 C206.372423,98.1727924 206.425703,100.062741 206.425703,101.965142 C206.425703,103.491443 206.391407,105.009729 206.323544,106.51927 C206.391122,107.963592 206.425703,109.417962 206.425703,110.880415 L206.417329,112.05512 C206.422904,112.362119 206.425703,112.669795 206.425703,112.978126 C206.425703,115.012665 206.303825,117.018721 206.066977,118.98938 C201.969492,165.296985 163.100843,201.606426 115.757028,201.606426 C114.291798,201.606426 112.834686,201.571648 111.386471,201.502872 C109.88253,201.572278 108.368945,201.606426 106.84739,201.606426 C61.7229667,201.606426 23.6088581,171.572722 11.3804096,130.392598 C2.13765957,115.800001 -3.21285141,98.4948219 -3.21285141,79.9391742 C-3.21285141,27.8051476 39.0234186,-14.4578313 91.124498,-14.4578313 C92.4665975,-14.4578313 93.8021513,-14.4297876 95.1306059,-14.3742537 C96.4077062,-14.4294607 97.6935139,-14.4578313 98.9859438,-14.4578313 C102.069058,-14.4578313 105.114488,-14.2963826 108.11425,-13.9814734 C110.79215,-14.2957043 113.517716,-14.4578313 116.281124,-14.4578313 C119.848776,-14.4578313 123.353353,-14.1876034 126.775527,-13.666487 C129.661417,-14.1856743 132.635291,-14.4578313 135.672691,-14.4578313 Z M191.114341,148.919333 L190.745227,149.271885 C181.834866,157.65959 169.835486,162.798768 156.636546,162.798768 C153.292277,162.798768 150.025019,162.468841 146.865504,161.839741 C143.443266,162.406132 139.937754,162.728603 136.368373,162.788535 C122.937597,170.151257 107.519459,174.33618 91.124498,174.33618 C74.3021771,174.33618 58.508268,169.930241 44.8324029,162.208683 C59.9378665,183.071814 84.0131013,197.008522 111.396015,198.353037 C145.702373,196.760439 175.325933,177.229384 191.114341,148.919333 Z M18.0294926,139.619179 L18.5879106,140.905033 C30.4029229,167.6792 54.0287391,188.064945 82.8575973,195.450328 C64.2871531,188.21054 48.6885305,175.023783 38.3995854,158.228185 C30.732861,153.048278 23.867563,146.770021 18.0294926,139.619179 Z M193.806205,150.554799 L193.088488,151.81243 C184.108387,167.335085 171.062832,180.20869 155.408992,188.975153 C171.917344,180.568329 185.403419,167.073149 193.806205,150.554799 Z M29.0661479,123.000414 L29.163254,123.695537 C30.8741803,135.371953 34.8877865,146.299622 40.7278353,156.002008 C55.1659062,165.598469 72.4926739,171.189613 91.124498,171.189613 C104.950344,171.189613 118.057566,168.11087 129.798807,162.601151 C122.637014,162.068985 115.771209,160.478697 109.355593,157.985744 C105.956049,158.394157 102.49541,158.603345 98.9859438,158.603345 C70.2520779,158.603345 44.7914074,144.580268 29.0661479,123.000414 Z M202.375839,115.241685 L202.052536,116.130569 C194.412134,136.883847 177.403063,153.102201 156.157661,159.650046 C156.315975,159.651391 156.476166,159.652201 156.636546,159.652201 C173.800235,159.652201 188.798719,150.375994 196.898098,136.560474 C199.498171,129.788593 201.357131,122.649246 202.375839,115.241685 Z M127.880168,153.653966 L127.603153,153.752886 C123.851226,155.068993 119.981111,156.13358 116.013004,156.926436 C122.083048,158.700649 128.504768,159.652201 135.148594,159.652201 L135.548588,159.648953 C136.050116,159.368486 136.548724,159.083417 137.044356,158.793804 C133.796317,157.400623 130.727606,155.673217 127.880168,153.653966 Z M185.387747,76.2224202 L185.411423,76.823237 C185.444953,77.8577615 185.461847,78.8964936 185.461847,79.9391742 C185.461847,112.372254 169.115549,140.985038 144.217001,157.978548 C145.105505,158.224578 146.006398,158.444323 146.917107,158.637477 C175.114716,153.725582 197.358834,131.467123 202.26847,103.252608 C199.957683,92.351542 193.846592,82.8568148 185.387747,76.2224202 Z M178.508207,106.120272 L178.131672,106.991681 C169.079675,127.50454 152.296712,143.835746 131.478108,152.287637 C134.259767,154.074163 137.243995,155.573103 140.388386,156.742443 C158.491414,145.091249 172.207387,127.207303 178.508207,106.120272 Z M47.1224117,56.5301034 L46.744972,57.0087554 C35.1453197,71.8661258 28.2329317,90.5655225 28.2329317,110.880415 C28.2329317,112.740805 28.2909022,114.587647 28.4051343,116.41923 C43.152116,139.872004 69.2501705,155.456779 98.9859438,155.456779 C100.460291,155.456779 101.925695,155.418466 103.381216,155.342782 C82.55382,144.947584 67.525392,124.653932 64.4517181,100.619823 C54.0166788,88.8182422 47.5446116,73.4257894 47.1224117,56.5301034 Z M68.2799337,104.616497 L68.2934363,104.683031 C72.7746106,127.527149 88.6581389,146.280847 109.768952,154.765153 C114.972477,154.092322 120.024889,152.939477 124.881038,151.352328 C116.438037,144.347661 110.345197,134.609215 107.958457,123.493566 C92.6286513,121.656008 78.8403506,114.800506 68.2799337,104.616497 Z M12.8834237,80.1673576 L12.8615348,80.2664411 C11.2598818,87.2409971 10.4136546,94.5041837 10.4136546,101.965142 C10.4136546,111.383682 11.7621979,120.487054 14.2766182,129.092476 C19.7991237,137.715219 26.7293649,145.348124 34.744113,151.664851 C29.493059,141.241608 26.1920856,129.667017 25.3203024,117.420327 C18.5310833,106.398511 14.1415359,93.7373347 12.8834237,80.1673576 Z M182.22349,75.7635796 L181.934968,76.6469262 C172.783174,104.155685 146.847091,123.99111 116.281124,123.99111 C114.590827,123.99111 112.914687,123.930452 111.254762,123.811191 C113.782634,134.455791 119.955786,143.689666 128.381784,150.117854 C158.758317,138.658292 180.680914,109.952331 182.22962,75.9315504 C182.228445,75.8747968 182.225992,75.8191817 182.22349,75.7635796 Z M172.373983,69.0272879 L171.943514,69.4930602 C162.862576,79.1520556 149.971543,85.1834523 135.672691,85.1834523 C130.536103,85.1834523 125.58119,84.4051201 120.919315,82.9598901 C114.099656,91.0734107 109.991968,101.545764 109.991968,112.978126 C109.991968,115.574726 110.20387,118.121801 110.611315,120.602983 C112.480355,120.763416 114.371271,120.844543 116.281124,120.844543 C146.605762,120.844543 172.156333,100.39141 179.906783,72.5194347 C177.520876,71.1412037 175.001979,69.9695953 172.373983,69.0272879 Z M86.573139,43.673403 L86.2375142,44.0150123 C74.3400681,56.288975 67.0160643,73.0269332 67.0160643,91.476586 C67.0160643,94.1071115 67.1649514,96.7028407 67.4547534,99.255796 C77.6461939,110.448851 91.6296775,118.124174 107.372794,120.248419 C107.026891,117.874371 106.84739,115.447224 106.84739,112.978126 C106.84739,101.20438 110.928903,90.3845258 117.753362,81.8579767 C101.600352,75.6220598 89.5142579,61.1996526 86.573139,43.673403 Z M64.961725,-7.50282838 L63.6641848,-7.10152359 C26.7192364,4.55780311 -0.0682730924,39.1182314 -0.0682730924,79.9391742 C-0.0682730924,93.9610212 3.09237925,107.244192 8.73968272,119.114258 C7.77250896,113.54301 7.26907631,107.812905 7.26907631,101.965142 C7.26907631,90.7475004 9.12160546,79.9628137 12.5372355,69.9006933 C13.3927382,35.131334 34.7452931,5.45006671 64.961725,-7.50282838 Z M56.7335791,19.5085797 L56.0502136,19.9275514 C37.3781367,31.5283973 22.9585039,49.3340726 15.668733,70.46534 C15.659685,71.0006308 15.6546185,71.5361019 15.6546185,72.072757 C15.6546185,85.9911041 19.0625725,99.1129775 25.089053,110.648451 L25.0883534,110.880415 C25.0883534,88.1889461 33.4135526,67.4431615 47.1743419,51.5344975 C47.7098475,39.8746894 51.1284947,28.9666096 56.7335791,19.5085797 Z M86.3713338,28.3613716 L85.5025188,28.6743585 C71.8317685,33.713667 59.7645527,42.0698978 50.2756386,52.7676674 C50.2549006,53.4319693 50.2449799,54.0981451 50.2449799,54.7666394 C50.2449799,69.9464379 55.3603492,83.9307224 63.9602889,95.0876626 C63.9016374,93.8911039 63.8714859,92.6873683 63.8714859,91.476586 C63.8714859,71.1150597 72.3985058,52.746385 86.0742575,39.7509863 C85.9479761,38.3065693 85.8835341,36.8422202 85.8835341,35.3628105 C85.8835341,32.9864679 86.0498026,30.6489841 86.3713338,28.3613716 Z M185.395171,57.8203831 L185.378861,58.1872991 C185.30106,59.7871601 185.168982,61.3727593 184.984429,62.942292 C185.300589,65.9419991 185.461847,68.9885342 185.461847,72.072757 L185.459996,72.3499325 C191.826591,76.8805658 197.082558,82.8720698 200.739567,89.8358067 C197.831079,78.0428379 192.535849,67.1896067 185.395171,57.8203831 Z M156.636546,66.3040512 C143.558382,66.3040512 131.737323,71.6897581 123.267612,80.3656027 C127.218113,81.4559976 131.377608,82.0368854 135.672691,82.0368854 C148.751359,82.0368854 160.572826,76.6507633 169.042604,67.9743305 C165.091825,66.8850368 160.931991,66.3040512 156.636546,66.3040512 Z M126.061973,23.9016024 L125.179055,24.0256318 C111.49704,26.0329718 99.1365129,32.1095336 89.3642928,40.9876965 C91.496926,58.7598901 103.610934,73.4598961 119.934254,79.3132901 C129.036054,69.3826937 142.109772,63.1574843 156.636546,63.1574843 C161.773134,63.1574843 166.728047,63.9358164 171.389922,65.3810464 C174.299081,61.9212826 176.714383,58.0310049 178.528034,53.8203001 C177.923373,51.795686 177.25201,49.8015663 176.515048,47.8395748 C163.097749,34.8906467 145.559534,26.1898493 126.061973,23.9016024 Z M184.798606,45.1457209 L184.879315,45.7421971 C185.181954,48.0682447 185.369198,50.4305654 185.43511,52.8232195 C191.648367,60.2829791 196.68899,68.7560806 200.271795,77.9585648 C197.203342,65.961744 191.886802,54.8657431 184.798606,45.1457209 Z M179.78393,58.4907248 L179.544224,58.9406671 C178.108346,61.6101888 176.436229,64.1336256 174.555875,66.4829599 C176.6783,67.3011677 178.730448,68.2619915 180.700868,69.3525957 C180.927661,68.355245 181.130013,67.347657 181.309185,66.3320663 C180.913778,63.6787659 180.403324,61.0635055 179.78393,58.4907248 Z M95.1303795,-11.2248035 L94.8682076,-11.2112398 C54.8230281,-9.26139176 22.2006008,20.9734161 16.5284301,59.9533306 C25.750126,40.133267 41.2962893,23.8551846 60.5709768,13.7143799 C69.1358198,2.09808389 81.2427084,-6.74464071 95.2967917,-11.2159533 C95.2422928,-11.2199121 95.1863427,-11.222383 95.1303795,-11.2248035 Z M95.3353758,6.15156406 L94.2758139,6.28295357 C83.0186729,7.74945799 72.3713972,11.1585774 62.6809232,16.1631561 C56.137248,25.2432162 51.8418866,36.0533016 50.610075,47.7766547 C60.6153018,37.4394698 73.0543564,29.4753445 87.003375,24.8114937 C88.478192,17.9621426 91.3619316,11.635834 95.3353758,6.15156406 Z M179.064966,39.3514384 L179.181833,39.638344 C179.935981,41.5035613 180.627024,43.4010838 181.252316,45.3282613 C181.331852,44.9596226 181.40793,44.5878321 181.479561,44.2144597 C181.3025,43.1091083 181.098069,42.014214 180.867021,40.9291774 C180.276332,40.3926561 179.675236,39.8667794 179.064966,39.3514384 Z M140.188038,23.4846336 L140.320366,23.5231549 C152.702729,27.0021461 164.012623,33.0462175 173.641313,41.0462489 C172.210964,38.0095599 170.616948,35.0654145 168.871747,32.224232 C160.301329,27.3300389 150.567515,24.243969 140.188038,23.4846336 Z M114.09855,23.3157694 L112.867958,23.3477832 C104.835184,23.6084634 97.0760065,24.952237 89.7315364,27.2379034 C89.2694016,29.8775902 89.0281124,32.5920045 89.0281124,35.3628105 C89.0281124,35.9349672 89.038401,36.5047194 89.0588032,37.0718919 C96.3038476,30.918201 104.794436,26.1894851 114.09855,23.3157694 Z M137.025821,-11.2920024 L137.113086,-11.2642348 C158.594564,-4.48497046 175.549384,12.5001604 182.297235,34.0072558 C181.594258,9.30687078 161.711295,-10.5883424 137.025821,-11.2920024 Z M126.826953,-10.4732239 L126.637069,-10.4362029 C126.327277,-10.3753563 126.018585,-10.3114409 125.711025,-10.2444897 C145.769493,-3.73018421 162.612036,9.9204786 173.249494,27.7131015 C175.103089,29.3713593 176.892348,31.0988713 178.61522,32.8907548 C170.714919,10.3562428 150.955177,-6.59830159 126.826953,-10.4732239 Z M106.84739,5.47042539 C104.418132,5.47042539 102.009855,5.56030648 99.6256971,5.73692651 C95.3688983,10.9196204 92.2059928,17.0328656 90.4893958,23.7263146 C98.5098892,21.4000298 106.988085,20.154404 115.757028,20.154404 C119.234511,20.154404 122.666268,20.3502989 126.041881,20.7316619 C129.023373,20.3505833 132.063088,20.154404 135.148594,20.154404 C145.918898,20.154404 156.131265,22.5447247 165.284771,26.8241236 C164.3942,25.5812417 163.472083,24.3603031 162.520561,23.1638251 C146.793115,12.02017 127.584656,5.47042539 106.84739,5.47042539 Z M148.269737,4.82796967 L149.153064,5.50788372 C154.911608,10.0094618 160.13433,15.1655683 164.709498,20.8644005 C164.744684,20.8875123 164.780112,20.9128998 164.815522,20.9383099 C160.072906,14.8357128 154.501339,9.4086159 148.269737,4.82796967 Z M117.227919,-7.51805923 L116.849538,-7.3549121 C111.511401,-4.99629736 106.698608,-1.66520775 102.63542,2.41395335 C104.031768,2.35323415 105.43615,2.32385854 106.84739,2.32385854 C124.232263,2.32385854 140.5766,6.7817412 154.801021,14.6174435 C144.383813,4.4489007 131.543324,-3.24619659 117.227919,-7.51805923 Z M104.725907,-10.3031692 L104.5266,-10.2675417 C89.8344109,-7.62624848 76.8292183,-0.122139872 67.2344014,10.5203155 C76.8236309,6.35487577 87.1958,3.65604837 98.0687818,2.70573552 C102.124518,-1.96420948 107.035557,-5.87324082 112.558014,-8.77494199 C109.988943,-9.39593891 107.376063,-9.90660624 104.725907,-10.3031692 Z" fill="#F7AD01" fill-rule="nonzero" mask="url(#mask-8)"></path>
                    </g>
                    <g id="Combined-Shape-Copy" transform="translate(477.108434, 158.232932)">
                        <mask id="mask-10" fill="white">
                            <use xlink:href="#path-9"></use>
                        </mask>
                        <use id="Mask" fill="#DD63B1" xlink:href="#path-9"></use>
                        <path d="M40.6160643,41.1124498 L36.2471418,-95.0692951 L91.9614458,8.97590361 L93.9983936,7.70040161 L96.7534137,-0.643373494 L81.2576415,-48.346193 L83.5493905,-49.0906692 L98.0305221,-4.51084337 L125.267439,-87.0105572 L125.266667,-11.8690763 L133.600525,-17.085537 L134.878925,-15.0429771 L125.266667,-9.02650602 L125.266667,3.02088353 L200.803123,-40.4297315 L158.669076,20.8674699 L214.807658,-0.166016046 L142.461847,103.282731 L205.615826,221.219976 L125.266667,198.200803 L125.267439,236.096776 L93.9116466,189.218474 L84.2923695,186.462651 L46.9905078,239.802774 L45.2594378,185.857028 L25.8674079,214.070091 L39.2425703,173.556627 L-101.232231,133.313351 L-38.9437751,97.4827309 L-65.1213483,107.29079 L8.35261044,61.3052209 L-35.2495933,-3.87970557 L24.2329317,51.3654618 L40.6160643,41.1124498 Z M51.3333333,177.02008 L47.5630522,182.505221 L49.1662651,232.485141 L81.8425703,185.760643 L51.3333333,177.02008 Z M97.4963855,190.24498 L122.857028,228.159839 L122.857028,197.510843 L97.4963855,190.24498 Z M140.914056,105.497189 L136.033735,112.475502 L157.442053,178.375892 L125.266667,148.492369 L125.266667,195.693976 L200.800803,217.333333 L140.914056,105.497189 Z M41.5606426,174.220884 L33.453012,198.77992 L45.1293173,181.793574 L44.9172691,175.182329 L41.5606426,174.220884 Z M116.524498,140.372691 L89.7477912,178.661044 L95.42249,187.144578 L122.857028,195.004016 L122.857028,146.253815 L116.524498,140.372691 Z M88.2666667,180.779116 L85.7526104,184.374297 L91.837751,186.118072 L88.2666667,180.779116 Z M68.77751,151.64257 L52.7726908,174.926104 L83.3028112,183.672289 L86.8289157,178.630522 L68.77751,151.64257 Z M47.3502008,175.879518 L47.4329317,178.441767 L48.8907631,176.320482 L47.3502008,175.879518 Z M92.1108434,117.697189 L70.2465863,149.505221 L88.3108434,176.511647 L114.742169,138.717269 L92.1108434,117.697189 Z M55.5461847,131.860241 L46.788755,158.384739 L47.2690763,173.349398 L50.3301205,174.226506 L67.335743,149.486747 L55.5461847,131.860241 Z M44.5911647,165.040964 L42.3172691,171.930924 L44.8361446,172.653012 L44.5911647,165.040964 Z M18.2240964,76.0626506 L-25.0835341,92.2891566 L-95.0971888,132.563855 L39.9983936,171.266667 L44.3670683,158.034538 L42.9212851,112.987149 L18.2240964,76.0626506 Z M134.303614,114.948594 L125.266667,127.871486 L125.266667,145.203213 L152.283534,170.295582 L134.303614,114.948594 Z M45.4538153,116.772691 L46.5646586,151.378313 L53.8465863,129.320482 L45.4538153,116.772691 Z M67.7052209,95.0305221 L56.5036145,128.959839 L68.8048193,147.350201 L90.3261044,116.040161 L67.7052209,95.0305221 Z M122.857028,131.317269 L117.918876,138.378313 L122.857028,142.965462 L122.857028,131.317269 Z M121.369478,75.1317269 L93.4899598,115.68996 L116.136546,136.722892 L122.857028,127.11245 L122.857028,79.7124498 L121.369478,75.1317269 Z M44.0514056,73.0618474 L45.3084337,112.22249 L54.8040161,126.419277 L65.7630522,93.226506 L44.0514056,73.0618474 Z M125.266667,87.1301205 L125.266667,123.666667 L133.371084,112.077912 L125.266667,87.1301205 Z M107.283534,42.6939759 L81.8361446,52.2289157 L68.5365462,92.513253 L91.7060241,114.032932 L120.430522,72.2433735 L116.303614,59.5381526 L107.283534,42.6939759 Z M125.266667,76.2763052 L125.266667,79.3317269 L135.101205,109.604819 L139.638554,103.115663 L125.266667,76.2763052 Z M38.9301205,68.3044177 L20.5413655,75.1943775 L42.7759036,108.436145 L41.5670683,70.7534137 L38.9301205,68.3044177 Z M208.384739,4.81285141 L156.286747,24.3333333 L125.266667,69.4618474 L125.266667,71.1718876 L141.187149,100.902008 L208.384739,4.81285141 Z M9.69236948,63.3084337 L-43.5582329,96.637751 L-26.1100402,90.1004016 L12.6851406,67.7831325 L9.69236948,63.3084337 Z M78.939759,53.313253 L43.8401606,66.4650602 L43.9429719,69.6714859 L66.5935743,90.7092369 L78.939759,53.313253 Z M16.8473896,74.0048193 L14.0281124,69.7903614 L-12.2522088,84.9076305 L16.8473896,74.0048193 Z M36.9558233,66.4706827 L30.3935743,60.3759036 L16.1204819,68.5863454 L19.1646586,73.1365462 L36.9558233,66.4706827 Z M122.857028,36.8586345 L112.705221,40.6626506 L118.527711,58.5863454 L122.857028,66.6714859 L122.857028,36.8586345 Z M23.9461847,54.3879518 L11.735743,62.0305221 L14.7783133,66.5791165 L28.5453815,58.6594378 L23.9461847,54.3879518 Z M41.3759036,64.8144578 L41.0369478,54.253012 L32.5799197,59.1180723 L39.4787149,65.5253012 L41.3759036,64.8144578 Z M152.348594,25.8088353 L125.266667,35.9558233 L125.266667,65.2080321 L152.348594,25.8088353 Z M79.9092369,50.3767068 L87.4425703,27.5590361 L43.4048193,52.8915663 L43.7582329,63.9220884 L79.9092369,50.3767068 Z M-21.788755,11.9108434 L10.3951807,60.026506 L22.1172691,52.6899598 L-21.788755,11.9108434 Z M40.7052209,43.8987952 L26.0618474,53.064257 L30.7317269,57.4016064 L40.9493976,51.5236948 L40.7052209,43.8987952 Z M91.0546185,12.3863454 L43.0682731,42.4192771 L43.3172691,50.162249 L88.5759036,24.1277108 L91.9188755,14.0008032 L91.0546185,12.3863454 Z M106.135743,40.5502008 L96.415261,22.3975904 L90.5751004,25.7574297 L82.8056225,49.2915663 L106.135743,40.5502008 Z M110.446586,41.5084337 L109.560643,41.8409639 L112.08755,46.5606426 L110.446586,41.5084337 Z M109.701205,39.2144578 L103.006426,18.6056225 L98.5052209,21.1959839 L108.412851,39.6971888 L109.701205,39.2144578 Z M38.9855422,-84.8506024 L42.9791165,39.6329317 L89.9140562,10.2570281 L38.9855422,-84.8506024 Z M122.857028,34.2851406 L122.857028,7.18714859 L105.140562,17.3783133 L111.959839,38.3686747 L122.857028,34.2851406 Z M154.730924,22.3429719 L192.805622,-33.048996 L125.266667,5.80080321 L125.266667,33.3823293 L154.730924,22.3429719 Z M93.4883534,16.9325301 L91.7084337,22.3253012 L95.2771084,20.2722892 L93.4883534,16.9325301 Z M99.3076305,7.22008032 L96.0144578,9.28192771 L94.5309237,13.7751004 L97.3670683,19.0706827 L102.245783,16.2634538 L99.3076305,7.22008032 Z M122.857028,-7.51807229 L101.412851,5.90281124 L104.37992,15.0353414 L122.857028,4.40803213 L122.857028,-7.51807229 Z M98.0120482,3.2313253 L97.1975904,5.69879518 L98.5405622,4.85783133 L98.0120482,3.2313253 Z M122.857028,-72.0232932 L99.2891566,-0.636144578 L100.645783,3.54056225 L122.857028,-10.3614458 L122.857028,-72.0232932 Z" id="Path-5" fill="#F7AD01" fill-rule="nonzero" mask="url(#mask-10)"></path>
                    </g>
                    <g id="Combined-Shape-Copy-2" transform="translate(267.469880, 175.100402)">
                        <mask id="mask-12" fill="white">
                            <use xlink:href="#path-11"></use>
                        </mask>
                        <use id="Mask" fill="#7C00D9" xlink:href="#path-11"></use>
                        <path d="M65.4618474,-11.2449799 C71.006875,-11.2449799 75.502008,-6.74984689 75.502008,-1.20481928 C75.502008,4.34020833 71.006875,8.83534137 65.4618474,8.83534137 C59.9168198,8.83534137 55.4216867,4.34020833 55.4216867,-1.20481928 C55.4216867,-6.74984689 59.9168198,-11.2449799 65.4618474,-11.2449799 Z M65.4618474,-8.83534137 C61.2476264,-8.83534137 57.8313253,-5.41904026 57.8313253,-1.20481928 C57.8313253,3.00940171 61.2476264,6.42570281 65.4618474,6.42570281 C69.6760684,6.42570281 73.0923695,3.00940171 73.0923695,-1.20481928 C73.0923695,-5.41904026 69.6760684,-8.83534137 65.4618474,-8.83534137 Z" id="Oval" fill="#F7AD01" fill-rule="nonzero" mask="url(#mask-12)"></path>
                        <path d="M65.4618474,21.686747 C71.006875,21.686747 75.502008,26.18188 75.502008,31.7269076 C75.502008,37.2719352 71.006875,41.7670683 65.4618474,41.7670683 C59.9168198,41.7670683 55.4216867,37.2719352 55.4216867,31.7269076 C55.4216867,26.18188 59.9168198,21.686747 65.4618474,21.686747 Z M65.4618474,24.0963855 C61.2476264,24.0963855 57.8313253,27.5126866 57.8313253,31.7269076 C57.8313253,35.9411286 61.2476264,39.3574297 65.4618474,39.3574297 C69.6760684,39.3574297 73.0923695,35.9411286 73.0923695,31.7269076 C73.0923695,27.5126866 69.6760684,24.0963855 65.4618474,24.0963855 Z" id="Oval-Copy-11" fill="#F7AD01" fill-rule="nonzero" mask="url(#mask-12)"></path>
                        <path d="M65.4618474,54.6184739 C71.006875,54.6184739 75.502008,59.1136069 75.502008,64.6586345 C75.502008,70.2036621 71.006875,74.6987952 65.4618474,74.6987952 C59.9168198,74.6987952 55.4216867,70.2036621 55.4216867,64.6586345 C55.4216867,59.1136069 59.9168198,54.6184739 65.4618474,54.6184739 Z M65.4618474,57.0281124 C61.2476264,57.0281124 57.8313253,60.4444136 57.8313253,64.6586345 C57.8313253,68.8728555 61.2476264,72.2891566 65.4618474,72.2891566 C69.6760684,72.2891566 73.0923695,68.8728555 73.0923695,64.6586345 C73.0923695,60.4444136 69.6760684,57.0281124 65.4618474,57.0281124 Z" id="Oval-Copy-12" fill="#F7AD01" fill-rule="nonzero" mask="url(#mask-12)"></path>
                        <path d="M65.4618474,87.5502008 C71.006875,87.5502008 75.502008,92.0453338 75.502008,97.5903614 C75.502008,103.135389 71.006875,107.630522 65.4618474,107.630522 C59.9168198,107.630522 55.4216867,103.135389 55.4216867,97.5903614 C55.4216867,92.0453338 59.9168198,87.5502008 65.4618474,87.5502008 Z M65.4618474,89.9598394 C61.2476264,89.9598394 57.8313253,93.3761405 57.8313253,97.5903614 C57.8313253,101.804582 61.2476264,105.220884 65.4618474,105.220884 C69.6760684,105.220884 73.0923695,101.804582 73.0923695,97.5903614 C73.0923695,93.3761405 69.6760684,89.9598394 65.4618474,89.9598394 Z" id="Oval-Copy-13" fill="#F7AD01" fill-rule="nonzero" mask="url(#mask-12)"></path>
                        <path d="M65.4618474,120.481928 C71.006875,120.481928 75.502008,124.977061 75.502008,130.522088 C75.502008,136.067116 71.006875,140.562249 65.4618474,140.562249 C59.9168198,140.562249 55.4216867,136.067116 55.4216867,130.522088 C55.4216867,124.977061 59.9168198,120.481928 65.4618474,120.481928 Z M65.4618474,122.891566 C61.2476264,122.891566 57.8313253,126.307867 57.8313253,130.522088 C57.8313253,134.736309 61.2476264,138.15261 65.4618474,138.15261 C69.6760684,138.15261 73.0923695,134.736309 73.0923695,130.522088 C73.0923695,126.307867 69.6760684,122.891566 65.4618474,122.891566 Z" id="Oval-Copy-14" fill="#F7AD01" fill-rule="nonzero" mask="url(#mask-12)"></path>
                        <path d="M39.7590361,8.03212851 C45.3040638,8.03212851 49.7991968,12.5272615 49.7991968,18.0722892 C49.7991968,23.6173168 45.3040638,28.1124498 39.7590361,28.1124498 C34.2140085,28.1124498 29.7188755,23.6173168 29.7188755,18.0722892 C29.7188755,12.5272615 34.2140085,8.03212851 39.7590361,8.03212851 Z M39.7590361,10.4417671 C35.5448152,10.4417671 32.1285141,13.8580682 32.1285141,18.0722892 C32.1285141,22.2865101 35.5448152,25.7028112 39.7590361,25.7028112 C43.9732571,25.7028112 47.3895582,22.2865101 47.3895582,18.0722892 C47.3895582,13.8580682 43.9732571,10.4417671 39.7590361,10.4417671 Z" id="Oval-Copy-19" fill="#F7AD01" fill-rule="nonzero" mask="url(#mask-12)"></path>
                        <path d="M39.7590361,40.9638554 C45.3040638,40.9638554 49.7991968,45.4589885 49.7991968,51.0040161 C49.7991968,56.5490437 45.3040638,61.0441767 39.7590361,61.0441767 C34.2140085,61.0441767 29.7188755,56.5490437 29.7188755,51.0040161 C29.7188755,45.4589885 34.2140085,40.9638554 39.7590361,40.9638554 Z M39.7590361,43.373494 C35.5448152,43.373494 32.1285141,46.7897951 32.1285141,51.0040161 C32.1285141,55.218237 35.5448152,58.6345382 39.7590361,58.6345382 C43.9732571,58.6345382 47.3895582,55.218237 47.3895582,51.0040161 C47.3895582,46.7897951 43.9732571,43.373494 39.7590361,43.373494 Z" id="Oval-Copy-18" fill="#F7AD01" fill-rule="nonzero" mask="url(#mask-12)"></path>
                        <path d="M39.7590361,73.8955823 C45.3040638,73.8955823 49.7991968,78.3907154 49.7991968,83.935743 C49.7991968,89.4807706 45.3040638,93.9759036 39.7590361,93.9759036 C34.2140085,93.9759036 29.7188755,89.4807706 29.7188755,83.935743 C29.7188755,78.3907154 34.2140085,73.8955823 39.7590361,73.8955823 Z M39.7590361,76.3052209 C35.5448152,76.3052209 32.1285141,79.721522 32.1285141,83.935743 C32.1285141,88.149964 35.5448152,91.5662651 39.7590361,91.5662651 C43.9732571,91.5662651 47.3895582,88.149964 47.3895582,83.935743 C47.3895582,79.721522 43.9732571,76.3052209 39.7590361,76.3052209 Z" id="Oval-Copy-17" fill="#F7AD01" fill-rule="nonzero" mask="url(#mask-12)"></path>
                        <path d="M39.7590361,106.827309 C45.3040638,106.827309 49.7991968,111.322442 49.7991968,116.86747 C49.7991968,122.412497 45.3040638,126.907631 39.7590361,126.907631 C34.2140085,126.907631 29.7188755,122.412497 29.7188755,116.86747 C29.7188755,111.322442 34.2140085,106.827309 39.7590361,106.827309 Z M39.7590361,109.236948 C35.5448152,109.236948 32.1285141,112.653249 32.1285141,116.86747 C32.1285141,121.081691 35.5448152,124.497992 39.7590361,124.497992 C43.9732571,124.497992 47.3895582,121.081691 47.3895582,116.86747 C47.3895582,112.653249 43.9732571,109.236948 39.7590361,109.236948 Z" id="Oval-Copy-16" fill="#F7AD01" fill-rule="nonzero" mask="url(#mask-12)"></path>
                        <path d="M91.1646586,8.03212851 C96.7096862,8.03212851 101.204819,12.5272615 101.204819,18.0722892 C101.204819,23.6173168 96.7096862,28.1124498 91.1646586,28.1124498 C85.619631,28.1124498 81.124498,23.6173168 81.124498,18.0722892 C81.124498,12.5272615 85.619631,8.03212851 91.1646586,8.03212851 Z M91.1646586,10.4417671 C86.9504377,10.4417671 83.5341365,13.8580682 83.5341365,18.0722892 C83.5341365,22.2865101 86.9504377,25.7028112 91.1646586,25.7028112 C95.3788796,25.7028112 98.7951807,22.2865101 98.7951807,18.0722892 C98.7951807,13.8580682 95.3788796,10.4417671 91.1646586,10.4417671 Z" id="Oval-Copy-28" fill="#F7AD01" fill-rule="nonzero" mask="url(#mask-12)"></path>
                        <path d="M91.1646586,40.9638554 C96.7096862,40.9638554 101.204819,45.4589885 101.204819,51.0040161 C101.204819,56.5490437 96.7096862,61.0441767 91.1646586,61.0441767 C85.619631,61.0441767 81.124498,56.5490437 81.124498,51.0040161 C81.124498,45.4589885 85.619631,40.9638554 91.1646586,40.9638554 Z M91.1646586,43.373494 C86.9504377,43.373494 83.5341365,46.7897951 83.5341365,51.0040161 C83.5341365,55.218237 86.9504377,58.6345382 91.1646586,58.6345382 C95.3788796,58.6345382 98.7951807,55.218237 98.7951807,51.0040161 C98.7951807,46.7897951 95.3788796,43.373494 91.1646586,43.373494 Z" id="Oval-Copy-27" fill="#F7AD01" fill-rule="nonzero" mask="url(#mask-12)"></path>
                        <path d="M91.1646586,73.8955823 C96.7096862,73.8955823 101.204819,78.3907154 101.204819,83.935743 C101.204819,89.4807706 96.7096862,93.9759036 91.1646586,93.9759036 C85.619631,93.9759036 81.124498,89.4807706 81.124498,83.935743 C81.124498,78.3907154 85.619631,73.8955823 91.1646586,73.8955823 Z M91.1646586,76.3052209 C86.9504377,76.3052209 83.5341365,79.721522 83.5341365,83.935743 C83.5341365,88.149964 86.9504377,91.5662651 91.1646586,91.5662651 C95.3788796,91.5662651 98.7951807,88.149964 98.7951807,83.935743 C98.7951807,79.721522 95.3788796,76.3052209 91.1646586,76.3052209 Z" id="Oval-Copy-26" fill="#F7AD01" fill-rule="nonzero" mask="url(#mask-12)"></path>
                        <path d="M91.1646586,106.827309 C96.7096862,106.827309 101.204819,111.322442 101.204819,116.86747 C101.204819,122.412497 96.7096862,126.907631 91.1646586,126.907631 C85.619631,126.907631 81.124498,122.412497 81.124498,116.86747 C81.124498,111.322442 85.619631,106.827309 91.1646586,106.827309 Z M91.1646586,109.236948 C86.9504377,109.236948 83.5341365,112.653249 83.5341365,116.86747 C83.5341365,121.081691 86.9504377,124.497992 91.1646586,124.497992 C95.3788796,124.497992 98.7951807,121.081691 98.7951807,116.86747 C98.7951807,112.653249 95.3788796,109.236948 91.1646586,109.236948 Z" id="Oval-Copy-25" fill="#F7AD01" fill-rule="nonzero" mask="url(#mask-12)"></path>
                        <path d="M39.7590361,139.759036 C45.3040638,139.759036 49.7991968,144.254169 49.7991968,149.799197 C49.7991968,155.344224 45.3040638,159.839357 39.7590361,159.839357 C34.2140085,159.839357 29.7188755,155.344224 29.7188755,149.799197 C29.7188755,144.254169 34.2140085,139.759036 39.7590361,139.759036 Z M39.7590361,142.168675 C35.5448152,142.168675 32.1285141,145.584976 32.1285141,149.799197 C32.1285141,154.013418 35.5448152,157.429719 39.7590361,157.429719 C43.9732571,157.429719 47.3895582,154.013418 47.3895582,149.799197 C47.3895582,145.584976 43.9732571,142.168675 39.7590361,142.168675 Z" id="Oval-Copy-15" fill="#F7AD01" fill-rule="nonzero" mask="url(#mask-12)"></path>
                        <path d="M14.0562249,-11.2449799 C19.6012525,-11.2449799 24.0963855,-6.74984689 24.0963855,-1.20481928 C24.0963855,4.34020833 19.6012525,8.83534137 14.0562249,8.83534137 C8.51119729,8.83534137 4.01606426,4.34020833 4.01606426,-1.20481928 C4.01606426,-6.74984689 8.51119729,-11.2449799 14.0562249,-11.2449799 Z M14.0562249,-8.83534137 C9.84200392,-8.83534137 6.42570281,-5.41904026 6.42570281,-1.20481928 C6.42570281,3.00940171 9.84200392,6.42570281 14.0562249,6.42570281 C18.2704459,6.42570281 21.686747,3.00940171 21.686747,-1.20481928 C21.686747,-5.41904026 18.2704459,-8.83534137 14.0562249,-8.83534137 Z" id="Oval-Copy-24" fill="#F7AD01" fill-rule="nonzero" mask="url(#mask-12)"></path>
                        <path d="M14.0562249,21.686747 C19.6012525,21.686747 24.0963855,26.18188 24.0963855,31.7269076 C24.0963855,37.2719352 19.6012525,41.7670683 14.0562249,41.7670683 C8.51119729,41.7670683 4.01606426,37.2719352 4.01606426,31.7269076 C4.01606426,26.18188 8.51119729,21.686747 14.0562249,21.686747 Z M14.0562249,24.0963855 C9.84200392,24.0963855 6.42570281,27.5126866 6.42570281,31.7269076 C6.42570281,35.9411286 9.84200392,39.3574297 14.0562249,39.3574297 C18.2704459,39.3574297 21.686747,35.9411286 21.686747,31.7269076 C21.686747,27.5126866 18.2704459,24.0963855 14.0562249,24.0963855 Z" id="Oval-Copy-23" fill="#F7AD01" fill-rule="nonzero" mask="url(#mask-12)"></path>
                        <path d="M14.0562249,54.6184739 C19.6012525,54.6184739 24.0963855,59.1136069 24.0963855,64.6586345 C24.0963855,70.2036621 19.6012525,74.6987952 14.0562249,74.6987952 C8.51119729,74.6987952 4.01606426,70.2036621 4.01606426,64.6586345 C4.01606426,59.1136069 8.51119729,54.6184739 14.0562249,54.6184739 Z M14.0562249,57.0281124 C9.84200392,57.0281124 6.42570281,60.4444136 6.42570281,64.6586345 C6.42570281,68.8728555 9.84200392,72.2891566 14.0562249,72.2891566 C18.2704459,72.2891566 21.686747,68.8728555 21.686747,64.6586345 C21.686747,60.4444136 18.2704459,57.0281124 14.0562249,57.0281124 Z" id="Oval-Copy-22" fill="#F7AD01" fill-rule="nonzero" mask="url(#mask-12)"></path>
                        <path d="M14.0562249,87.5502008 C19.6012525,87.5502008 24.0963855,92.0453338 24.0963855,97.5903614 C24.0963855,103.135389 19.6012525,107.630522 14.0562249,107.630522 C8.51119729,107.630522 4.01606426,103.135389 4.01606426,97.5903614 C4.01606426,92.0453338 8.51119729,87.5502008 14.0562249,87.5502008 Z M14.0562249,89.9598394 C9.84200392,89.9598394 6.42570281,93.3761405 6.42570281,97.5903614 C6.42570281,101.804582 9.84200392,105.220884 14.0562249,105.220884 C18.2704459,105.220884 21.686747,101.804582 21.686747,97.5903614 C21.686747,93.3761405 18.2704459,89.9598394 14.0562249,89.9598394 Z" id="Oval-Copy-21" fill="#F7AD01" fill-rule="nonzero" mask="url(#mask-12)"></path>
                        <path d="M116.86747,21.686747 C122.412497,21.686747 126.907631,26.18188 126.907631,31.7269076 C126.907631,37.2719352 122.412497,41.7670683 116.86747,41.7670683 C111.322442,41.7670683 106.827309,37.2719352 106.827309,31.7269076 C106.827309,26.18188 111.322442,21.686747 116.86747,21.686747 Z M116.86747,24.0963855 C112.653249,24.0963855 109.236948,27.5126866 109.236948,31.7269076 C109.236948,35.9411286 112.653249,39.3574297 116.86747,39.3574297 C121.081691,39.3574297 124.497992,35.9411286 124.497992,31.7269076 C124.497992,27.5126866 121.081691,24.0963855 116.86747,24.0963855 Z" id="Oval-Copy-31" fill="#F7AD01" fill-rule="nonzero" mask="url(#mask-12)"></path>
                        <path d="M116.86747,54.6184739 C122.412497,54.6184739 126.907631,59.1136069 126.907631,64.6586345 C126.907631,70.2036621 122.412497,74.6987952 116.86747,74.6987952 C111.322442,74.6987952 106.827309,70.2036621 106.827309,64.6586345 C106.827309,59.1136069 111.322442,54.6184739 116.86747,54.6184739 Z M116.86747,57.0281124 C112.653249,57.0281124 109.236948,60.4444136 109.236948,64.6586345 C109.236948,68.8728555 112.653249,72.2891566 116.86747,72.2891566 C121.081691,72.2891566 124.497992,68.8728555 124.497992,64.6586345 C124.497992,60.4444136 121.081691,57.0281124 116.86747,57.0281124 Z" id="Oval-Copy-30" fill="#F7AD01" fill-rule="nonzero" mask="url(#mask-12)"></path>
                        <path d="M116.86747,87.5502008 C122.412497,87.5502008 126.907631,92.0453338 126.907631,97.5903614 C126.907631,103.135389 122.412497,107.630522 116.86747,107.630522 C111.322442,107.630522 106.827309,103.135389 106.827309,97.5903614 C106.827309,92.0453338 111.322442,87.5502008 116.86747,87.5502008 Z M116.86747,89.9598394 C112.653249,89.9598394 109.236948,93.3761405 109.236948,97.5903614 C109.236948,101.804582 112.653249,105.220884 116.86747,105.220884 C121.081691,105.220884 124.497992,101.804582 124.497992,97.5903614 C124.497992,93.3761405 121.081691,89.9598394 116.86747,89.9598394 Z" id="Oval-Copy-29" fill="#F7AD01" fill-rule="nonzero" mask="url(#mask-12)"></path>
                        <path d="M14.0562249,120.481928 C19.6012525,120.481928 24.0963855,124.977061 24.0963855,130.522088 C24.0963855,136.067116 19.6012525,140.562249 14.0562249,140.562249 C8.51119729,140.562249 4.01606426,136.067116 4.01606426,130.522088 C4.01606426,124.977061 8.51119729,120.481928 14.0562249,120.481928 Z M14.0562249,122.891566 C9.84200392,122.891566 6.42570281,126.307867 6.42570281,130.522088 C6.42570281,134.736309 9.84200392,138.15261 14.0562249,138.15261 C18.2704459,138.15261 21.686747,134.736309 21.686747,130.522088 C21.686747,126.307867 18.2704459,122.891566 14.0562249,122.891566 Z" id="Oval-Copy-20" fill="#F7AD01" fill-rule="nonzero" mask="url(#mask-12)"></path>
                    </g>
                    <path d="M280.564429,145.096046 C281.049961,144.641051 281.812409,144.665806 282.267404,145.151339 C282.722398,145.636871 282.697643,146.399318 282.212111,146.854313 C239.229402,187.133628 220.456956,213.56611 225.749534,225.372285 C229.342288,233.386656 244.833454,244.746021 266.82196,256.719775 L268.327867,257.534615 C284.625044,266.297879 302.903012,274.373881 305.623171,274.373881 C307.4903,274.373881 311.005185,270.775126 314.012926,265.805358 L314.182619,265.522601 C316.945973,260.879106 318.301005,256.45611 317.674269,256.006126 C316.296533,255.016936 312.733485,256.767452 307.30152,261.756513 C306.277291,262.697229 304.737898,261.441773 305.453411,260.249283 L306.352799,258.743452 C310.067713,252.493912 312.737478,247.617948 314.35789,244.126971 L314.483637,243.854245 C315.327318,242.011795 315.857214,240.589339 316.07216,239.614431 C316.094985,239.510906 316.113793,239.414314 316.128831,239.325006 L316.153414,239.153414 L316.05138,239.212804 L315.946291,239.278295 C315.316067,239.684362 314.485101,240.447724 313.481161,241.559519 C311.390803,243.87445 308.617367,247.619665 305.176286,252.781379 C304.437968,253.888877 302.713709,253.157755 302.996497,251.857102 L303.348921,250.219712 C304.677539,243.98093 305.51706,239.245752 305.866945,236.027235 L305.929501,235.412846 C306.032326,234.324532 306.070087,233.446194 306.045482,232.787971 L306.037751,232.632129 L306.012364,232.664415 C305.536797,233.274068 304.96725,234.20762 304.315407,235.455044 L304.174472,235.72715 C302.713798,238.57174 300.887359,242.872945 298.702797,248.618678 C298.419281,249.364368 297.502396,249.633594 296.860732,249.159564 L293.319191,246.535775 C283.938582,239.565164 276.683243,233.998489 271.550069,229.833018 L270.309899,228.820311 C264.410902,223.974118 261.861994,221.446504 261.861994,220.004187 C261.861994,217.611374 266.005192,213.602658 274.712789,207.072956 C275.245141,206.673752 276.000316,206.781691 276.399519,207.314043 C276.798722,207.846395 276.690783,208.601569 276.158431,209.000772 L274.923398,209.934021 C271.451053,212.57898 268.806844,214.780848 266.99678,216.532159 L266.620521,216.902101 C265.232,218.290273 264.461983,219.328847 264.302773,219.834105 L264.284337,219.899598 L264.30564,219.936027 C264.347665,220.006464 264.405401,220.091979 264.478543,220.190592 L264.556808,220.293498 C264.876854,220.704702 265.381144,221.247721 266.063779,221.911777 L266.430962,222.264344 C267.832636,223.593965 269.842851,225.329051 272.45641,227.463708 L273.706021,228.477724 C278.982331,232.733165 286.386788,238.395729 295.916288,245.462682 L297.017671,246.279518 L297.398075,245.297758 C301.561806,234.601055 304.184438,229.751562 306.405402,229.636192 L306.486528,229.634082 C308.440119,229.634082 308.732629,231.591318 308.319032,235.745393 L308.26247,236.287653 C307.99826,238.718059 307.469629,241.95101 306.676365,245.991659 L306.582329,246.46506 L306.630777,246.397123 C312.044335,238.770322 315.348554,235.674907 317.524525,236.821333 L317.609835,236.868789 C319.937582,238.233049 317.823363,243.752799 311.144719,255.339723 L310.937349,255.697189 L311.171298,255.540839 C314.529388,253.307892 317.092114,252.732871 318.951075,253.960196 L319.079629,254.048749 C321.319654,255.657045 319.827721,260.668492 316.419719,266.473394 L316.253328,266.754885 C312.769254,272.609468 308.732582,276.783519 305.623171,276.783519 C302.287882,276.783519 283.572528,268.506782 266.700136,259.394847 L265.669582,258.835993 C243.17092,246.584437 227.450326,235.056837 223.550727,226.357986 C217.596686,213.076282 236.649667,186.248793 280.564429,145.096046 Z" id="Path-3" fill="#FFFFFF" fill-rule="nonzero"></path>
                    <path d="M402.262412,145.096046 C402.747944,144.641051 403.510392,144.665806 403.965386,145.151339 C404.420381,145.636871 404.395625,146.399318 403.910093,146.854313 C360.927384,187.133628 342.154939,213.56611 347.447517,225.372285 C351.040271,233.386656 366.531436,244.746021 388.519943,256.719775 L390.025849,257.534615 C406.323027,266.297879 424.600995,274.373881 427.321154,274.373881 C429.188283,274.373881 432.703168,270.775126 435.710909,265.805358 L435.880602,265.522601 C438.643956,260.879106 439.998988,256.45611 439.372252,256.006126 C437.994516,255.016936 434.431468,256.767452 428.999503,261.756513 C427.975274,262.697229 426.435881,261.441773 427.151394,260.249283 L428.050782,258.743452 C431.765696,252.493912 434.43546,247.617948 436.055872,244.126971 L436.181619,243.854245 C437.025301,242.011795 437.555197,240.589339 437.770143,239.614431 C437.792968,239.510906 437.811776,239.414314 437.826814,239.325006 L437.851406,239.153414 L437.749362,239.212804 L437.644273,239.278295 C437.014049,239.684362 436.183083,240.447724 435.179144,241.559519 C433.088786,243.87445 430.31535,247.619665 426.874269,252.781379 C426.135951,253.888877 424.411691,253.157755 424.694479,251.857102 L425.046904,250.219712 C426.375521,243.98093 427.215042,239.245752 427.564928,236.027235 L427.627483,235.412846 C427.730309,234.324532 427.76807,233.446194 427.743465,232.787971 L427.735743,232.632129 L427.710347,232.664415 C427.234779,233.274068 426.665233,234.20762 426.01339,235.455044 L425.872454,235.72715 C424.411781,238.57174 422.585341,242.872945 420.400779,248.618678 C420.117263,249.364368 419.200378,249.633594 418.558715,249.159564 L415.017174,246.535775 C405.636564,239.565164 398.381225,233.998489 393.248052,229.833018 L392.007882,228.820311 C386.108885,223.974118 383.559976,221.446504 383.559976,220.004187 C383.559976,217.611374 387.703175,213.602658 396.410772,207.072956 C396.943124,206.673752 397.698298,206.781691 398.097501,207.314043 C398.496704,207.846395 398.388766,208.601569 397.856414,209.000772 L396.621381,209.934021 C393.149036,212.57898 390.504826,214.780848 388.694762,216.532159 L388.318504,216.902101 C386.929983,218.290273 386.159966,219.328847 386.000756,219.834105 L385.982329,219.899598 L386.003622,219.936027 C386.045648,220.006464 386.103384,220.091979 386.176525,220.190592 L386.254791,220.293498 C386.574837,220.704702 387.079127,221.247721 387.761762,221.911777 L388.128945,222.264344 C389.530619,223.593965 391.540834,225.329051 394.154393,227.463708 L395.404003,228.477724 C400.680313,232.733165 408.084771,238.395729 417.614271,245.462682 L418.715663,246.278715 L419.405465,244.506452 C423.390669,234.361539 425.937944,229.748677 428.103385,229.636192 L428.184511,229.634082 C430.221233,229.634082 430.452498,231.761435 429.960453,236.287653 L429.88553,236.939881 C429.602306,239.286419 429.098633,242.302371 428.374347,245.991659 L428.280321,246.46506 L428.32876,246.397123 C433.742318,238.770322 437.046537,235.674907 439.222508,236.821333 L439.307817,236.868789 C441.610263,238.21822 439.566783,243.633295 433.058866,254.964037 L432.635341,255.697189 L432.869281,255.540839 C436.227371,253.307892 438.790097,252.732871 440.649058,253.960196 L440.777612,254.048749 C443.017637,255.657045 441.525703,260.668492 438.117702,266.473394 L437.951311,266.754885 C434.467236,272.609468 430.430565,276.783519 427.321154,276.783519 C423.985865,276.783519 405.270511,268.506782 388.398119,259.394847 L387.367564,258.835993 C364.868902,246.584437 349.148309,235.056837 345.24871,226.357986 C339.294669,213.076282 358.347649,186.248793 402.262412,145.096046 Z" id="Path-3-Copy" fill="#FFFFFF" fill-rule="nonzero" transform="translate(393.013331, 210.776938) scale(-1, 1) translate(-393.013331, -210.776938) "></path>
                </g>
            </g>
        </g>
    </g>
</svg>