<?xml version="1.0" encoding="UTF-8"?>
<svg width="545px" height="600px" viewBox="0 0 545 600" version="1.1" xmlns="http://www.w3.org/2000/svg" xmlns:xlink="http://www.w3.org/1999/xlink">
    <title>illustration-4 hover</title>
    <defs>
        <path d="M20.9463582,0.167759368 L109.521725,20.6227359 L89.0724905,109.222973 L0.497123383,88.7679968 L7.69512338,57.5817594 L33.5240623,64.3958948 L43.2176451,66.4283924 L36.1840515,59.4101713 L34.1196347,54.6953663 L42.6552211,28.2604333 L38.5369247,33.0019761 L33.5240623,39.633724 L37.3758549,20.3794547 C37.3484874,19.8117491 36.7993812,19.5278962 35.7285363,19.5278962 C34.6576915,19.5278962 30.9515906,25.742868 24.6102337,38.1728115 C26.3471186,25.742868 26.9597408,19.5278962 26.4481003,19.5278962 C25.9364598,19.5278962 22.5150102,24.8350952 16.1837515,35.4494931 L16.1837515,35.4494931 L13.1721234,33.8487594 L20.9463582,0.167759368 Z" id="path-1"></path>
        <path d="M49.7488608,0.336491757 C77.0259139,0.336491757 99.1383345,22.4551211 99.1383345,49.739833 C99.1383345,77.024545 77.0259139,99.1431743 49.7488608,99.1431743 C22.4718077,99.1431743 0.359387108,77.024545 0.359387108,49.739833 C0.359387108,22.4551211 22.4718077,0.336491757 49.7488608,0.336491757 Z M49.7488608,29.6921003 C38.6799117,29.6921003 29.7067555,38.667776 29.7067555,49.739833 C29.7067555,60.8118901 38.6799117,69.7875657 49.7488608,69.7875657 C60.8178099,69.7875657 69.7909661,60.8118901 69.7909661,49.739833 C69.7909661,38.667776 60.8178099,29.6921003 49.7488608,29.6921003 Z" id="path-3"></path>
        <ellipse id="path-5" cx="18.9684211" cy="18.973747" rx="18.9684211" ry="18.973747"></ellipse>
        <path d="M40.8646544,171.778986 C41.5059634,171.778986 54.6617287,165.090927 80.3319505,151.714809 L50.8949318,92.9669677 L95.9203133,51.0722848 L149.880701,109.029433 L132.12792,175.563593 L172.340805,194.508738 L194.995177,119.520861 C199.441467,102.548205 196.777311,87.6637386 187.002708,74.8674622 C177.228106,62.0711858 164.427606,44.429121 148.601209,21.9412678 C134.916676,7.32148293 117.826864,0.0115904812 97.3317736,0.0115904812 C76.8366828,0.0115904812 59.9697214,7.92634096 46.7308896,23.7558419 L11.4289755,63.4868395 C-0.692031664,78.6422409 -2.60479367,93.8231053 5.69068946,109.029433 C18.1339141,131.838924 39.902691,171.778986 40.8646544,171.778986 Z" id="path-7"></path>
        <path d="M78.7450825,22.0117879 L115.432815,85.9106152 C108.040567,83.110738 105.013222,82.8756077 106.350779,85.2052245 C107.688337,87.5348413 113.080428,91.8886374 122.527053,98.266613 L139.578677,127.965334 L17.8874241,127.979155 L78.7450825,22.0117879 Z" id="path-9"></path>
        <path d="M45.4127312,30.6606395 L55.8875836,130.350185 C28.3667186,133.242745 3.71192671,113.272817 0.819453466,85.7443009 C-2.07317448,58.2158012 17.8918662,33.553199 45.4127312,30.6606395 Z M106.20465,32.778456 C108.28316,38.1946795 109.359181,43.7492199 109.523772,49.2374994 C104.619773,43.1227171 101.428021,40.3521015 99.947621,40.9252359 C98.3628851,41.5387637 101.320656,47.6285219 108.820933,59.1945105 C105.954004,75.8643456 94.7185135,90.6604907 77.9000689,97.3284691 L77.3834776,97.5300453 L41.4712368,3.94919105 C67.3056223,-5.97048489 96.2877586,6.93681668 106.20465,32.778456 Z" id="path-11"></path>
    </defs>
    <g id="Desktop" stroke="none" stroke-width="1" fill="none" fill-rule="evenodd" opacity="0.2">
        <g id="Artboard" transform="translate(-1347.000000, -2659.000000)">
            <g id="illustration-4-hover" transform="translate(1347.000000, 2659.000000)">
                <path d="M300.781592,568.866254 C308.41512,553.595666 324.143846,548.705949 344.270608,552.229343 C347.935094,552.870849 351.645501,553.788628 355.264074,554.917922 C353.675589,559.69788 351.555014,564.234236 348.972246,568.457015 C348.439696,568.475295 347.909565,568.497646 347.376198,568.523404 L347.376198,568.523404 L346.332402,568.577894 C336.352298,569.137193 328.473432,570.908417 322.601008,574.410613 C313.025987,580.120965 312.125971,586.975841 318.458941,592.890724 C318.917705,593.319201 319.411524,593.737513 319.935422,594.143958 C311.651423,597.905969 302.449134,600 292.757895,600 C279.030931,600 266.284936,595.798798 255.734881,588.611709 C260.048568,588.367497 264.264474,587.903693 268.281405,587.216172 C284.536454,584.434029 296.225876,578.29948 300.552755,569.332178 L300.552755,569.332178 Z M347.560062,570.665979 C341.205646,580.183389 332.439206,587.95237 322.134884,593.098533 C321.326318,592.531129 320.583745,591.936507 319.924454,591.320741 C314.762224,586.499309 315.307531,581.454342 323.202917,576.558219 L323.202917,576.558219 L323.70068,576.255559 C329.216211,572.966207 336.787408,571.264149 346.452522,570.722503 C346.766577,570.704903 347.078611,570.688503 347.389537,570.673279 Z M277.216451,470.104843 C277.676054,470.576559 277.995955,470.903084 278.116493,471.019555 L278.116493,471.019555 L278.555127,471.440316 C283.813955,476.447742 288.91248,479.957482 295.120223,482.350513 C303.044599,485.405292 312.265175,486.312712 323.301891,484.744015 L323.301891,484.744015 L324.551728,484.572495 C329.00227,483.984297 332.564734,483.762975 335.335088,483.878623 C337.964564,486.107453 340.415601,488.540497 342.665259,491.15204 C342.172253,492.583634 341.349371,494.264786 340.19699,496.227698 C339.328597,497.706878 338.287342,499.329232 336.930164,501.340722 L336.930164,501.340722 L336.380639,502.151377 L332.362257,508.000761 C331.453302,509.335321 330.694946,510.471179 329.987407,511.563163 L329.987407,511.563163 L329.605916,512.15537 C323.125789,522.274353 320.927587,529.191514 324.030478,534.659075 C329.277893,543.905472 340.82156,544.168955 358.589686,535.732955 C358.449165,541.682574 357.518524,547.436091 355.899962,552.893738 C352.194922,551.732015 348.368578,550.766117 344.640795,550.11353 C323.467265,546.406888 306.657592,551.738528 298.618859,568.398516 C293.318108,579.384131 274.60052,585.85575 253.008318,586.651174 C237.148455,574.622048 226.905263,555.572012 226.905263,534.128878 C226.905263,529.171933 227.452641,524.342871 228.490232,519.698871 C235.532926,516.385597 241.556791,515.059006 246.808821,515.463049 C251.088644,515.792299 254.872694,517.254168 258.588462,519.820154 C261.273588,521.674413 263.441436,523.643587 267.171255,527.456402 L267.171255,527.456402 L269.718293,530.075768 C274.804637,535.271944 277.807555,537.789826 281.749441,539.712625 C287.113389,542.329087 292.957762,542.715923 299.90482,540.553582 C317.367499,535.118148 321.846706,521.362418 314.383098,507.470352 C307.457052,494.578855 293.471039,487.844562 283.627179,494.732971 L283.627179,494.732971 L283.362777,494.914318 C274.589576,500.811426 261.099619,498.071005 251.715529,489.480057 C250.365512,488.244143 249.181,486.964906 248.168897,485.656518 C256.177756,478.27962 266.019472,472.864974 276.932745,470.172147 Z M246.608331,487.142069 C247.665467,488.489933 248.8869,489.802279 250.265742,491.064581 C260.41817,500.358928 275.159253,503.279951 284.858107,496.493013 L284.858107,496.493013 L285.116661,496.316559 C293.688716,490.612934 306.162212,496.70628 312.491571,508.487159 C315.573526,514.223623 316.477455,520.290164 314.797154,525.450404 C312.888834,531.310888 307.76547,535.857315 299.266794,538.502613 C292.83514,540.504529 287.55571,540.155086 282.690656,537.781978 C278.881829,535.924084 275.933231,533.395628 270.625197,527.929378 L270.625197,527.929378 L269.277309,526.539871 C265.298448,522.448354 263.00149,520.310681 260.228277,518.346118 L260.228277,518.346118 L259.808453,518.05251 C255.795294,515.281155 251.654657,513.681528 246.973487,513.321402 C241.736814,512.918541 235.86404,514.095835 229.142053,517.047658 C232.172516,505.72205 238.146421,495.599852 246.193052,487.550961 Z M344.238962,493.049183 C353.233323,504.312456 358.610526,518.592534 358.610526,534.128878 L358.604194,533.349996 C341.382267,541.729612 330.504613,541.716048 325.897933,533.598682 C323.343802,529.098083 325.351117,522.781592 331.414113,513.313976 L331.414113,513.313976 L331.60111,513.022838 C332.541076,511.563714 333.561249,510.044462 334.911744,508.077317 L334.911744,508.077317 L337.545586,504.252826 C337.763051,503.935704 337.964383,503.641165 338.156246,503.359364 L338.156246,503.359364 L339.213097,501.79296 C340.190594,500.328623 341.000436,499.064765 341.704928,497.893696 L341.704928,497.893696 L342.048683,497.315396 C342.92388,495.824626 343.628889,494.472382 344.160232,493.234973 Z M292.757895,468.257757 C307.765822,468.257757 321.601157,473.279633 332.676064,481.735105 C330.15291,481.790234 327.236126,482.043227 323.90878,482.491532 L323.90878,482.491532 L322.408094,482.699318 C311.987874,484.10308 303.323658,483.210906 295.892423,480.34623 C289.81379,478.002969 284.832984,474.522931 279.608417,469.474663 L279.692878,469.554085 C283.915686,468.703884 288.284705,468.257757 292.757895,468.257757 Z" id="Combined-Shape" fill="#7C00D9"></path>
                <ellipse id="Oval-Copy-3" fill="#FFFFFF" cx="332.842105" cy="159.665871" rx="9.30526316" ry="9.30787589"></ellipse>
                <ellipse id="Oval-Copy-5" fill="#DD63B1" cx="99.1368421" cy="490.095465" rx="35.4315789" ry="35.4415274"></ellipse>
                <polygon id="Triangle" fill="#FFFFFF" transform="translate(171.110872, 450.274701) rotate(-44.000000) translate(-171.110872, -450.274701) " points="171.1175 426.648559 194.735125 473.894214 147.486619 473.900842"></polygon>
                <polygon id="Triangle-Copy" fill="#DD63B1" transform="translate(355.039009, 64.357978) rotate(29.000000) translate(-355.039009, -64.357978) " points="355.02776 17.1029137 402.284232 111.613043 307.793786 111.601794"></polygon>
                <path d="M183.196569,81.5321662 L223.993733,81.5275328 C232.690727,81.526545 239.741835,88.5760514 239.742823,97.273046 C239.742823,97.2742382 239.742823,97.2754304 239.742823,97.2766226 C239.741835,105.976171 232.689704,113.028302 223.990155,113.02929 L183.192992,113.033923 C174.495998,113.034911 167.44489,105.985405 167.443902,97.2884103 C167.443902,97.2872181 167.443902,97.2860259 167.443902,97.2848337 C167.44489,88.585285 174.497021,81.5331542 183.196569,81.5321662 Z" id="Rectangle" fill="#E73D11" transform="translate(203.593362, 97.280728) rotate(-27.000000) translate(-203.593362, -97.280728) "></path>
                <path d="M419.422889,431.749139 L478.11083,431.754862 C490.567115,431.756077 500.664626,441.853587 500.66584,454.309872 C500.667054,466.763017 490.57277,476.85927 478.119626,476.860484 C478.11816,476.860484 478.116694,476.860484 478.115228,476.860484 L419.427287,476.854761 C406.971002,476.853546 396.873492,466.756035 396.872277,454.29975 C396.871063,441.846606 406.965347,431.750353 419.418492,431.749139 C419.419957,431.749139 419.421423,431.749139 419.422889,431.749139 Z" id="Rectangle-Copy-3" fill="#7C00D9" transform="translate(448.769059, 454.304811) rotate(22.000000) translate(-448.769059, -454.304811) "></path>
                <g id="Group" transform="translate(0.000000, 110.126220)">
                    <g id="Combined-Shape" transform="translate(418.485312, 159.164094)">
                        <mask id="mask-2" fill="white">
                            <use xlink:href="#path-1"></use>
                        </mask>
                        <use id="Mask" fill="#DD63B1" xlink:href="#path-1"></use>
                        <path d="M110.879938,87.3508353 L112.013529,89.1751242 L-3.87693499,161.22852 L-5.01052632,159.404231 L110.879938,87.3508353 Z M110.879938,70.1670644 L112.013529,71.9913533 L-3.87693499,144.044749 L-5.01052632,142.22046 L110.879938,70.1670644 Z M110.879938,52.9832936 L112.013529,54.8075824 L-3.87693499,126.860978 L-5.01052632,125.036689 L110.879938,52.9832936 Z M110.879938,35.7995227 L112.013529,37.6238116 L-3.87693499,109.677207 L-5.01052632,107.852918 L110.879938,35.7995227 Z M110.879938,18.6157518 L112.013529,20.4400407 L-3.87693499,92.4934363 L-5.01052632,90.6691474 L110.879938,18.6157518 Z M110.879938,1.43198091 L112.013529,3.25626979 L-3.87693499,75.3096655 L-5.01052632,73.4853766 L110.879938,1.43198091 Z M110.879938,-15.75179 L112.013529,-13.9275011 L-3.87693499,58.1258946 L-5.01052632,56.3016057 L110.879938,-15.75179 Z M110.879938,-32.9355609 L112.013529,-31.111272 L-3.87693499,40.9421237 L-5.01052632,39.1178348 L110.879938,-32.9355609 Z M110.879938,-50.1193317 L112.013529,-48.2950429 L-3.87693499,23.7583528 L-5.01052632,21.9340639 L110.879938,-50.1193317 Z" fill="#F7AD01" fill-rule="nonzero" mask="url(#mask-2)"></path>
                    </g>
                    <g id="Path-11" transform="translate(444.145876, 35.599341)">
                        <mask id="mask-4" fill="white">
                            <use xlink:href="#path-3"></use>
                        </mask>
                        <use id="Mask" fill="#E73D11" fill-rule="nonzero" xlink:href="#path-3"></use>
                        <path d="M37.9277241,-17.1018397 L40.0735299,-17.1837709 L40.0974001,-16.7383676 L40.1296212,-16.2603373 C40.1419292,-16.0914178 40.1558386,-15.9130319 40.1714507,-15.7255086 L40.1961583,-15.4374119 C40.3204436,-14.0284241 40.5075249,-12.4564153 40.7699634,-10.7626066 C41.5194055,-5.9256216 42.72028,-1.09047016 44.4691602,3.41116876 C47.0207514,9.97899547 50.4731765,15.1914963 54.9397232,18.6849773 L55.0542924,18.7732459 L55.0360606,18.7126419 C54.3315136,16.3592535 54.1158685,13.8931814 54.4173258,11.4674866 L54.4529504,11.1981389 C55.5071117,3.68283319 61.232752,0.544342319 66.9542577,6.01981282 C70.673246,9.57887778 70.3724355,15.816063 67.0210747,23.4569163 L66.9664608,23.5782579 L66.9980426,23.5839558 C74.8024568,24.7440253 86.0337232,24.2077066 103.035724,22.3088334 L107.461083,21.800539 L123.28474,19.9177559 C130.883325,19.0365801 134.36322,18.7150562 138.561949,18.4767678 L139.300353,18.4360727 C147.936978,17.973454 153.142656,18.5494063 155.403732,20.6578601 C157.20541,22.3379248 156.331372,24.1401014 153.793817,25.4503421 C151.943418,26.4057769 148.960517,27.3450685 144.747743,28.3475141 L143.675132,28.5980956 C140.438064,29.3411538 136.58165,30.1126956 131.560361,31.0378163 L127.188885,31.8282323 C122.702011,32.6272366 114.22678,34.1229673 111.784835,34.5641267 L109.31762,35.0137306 C93.9486449,37.8397145 83.4421698,40.2655965 76.9277479,42.77861 L76.5630503,42.921456 L76.5626699,42.9718804 C76.5328684,44.5916443 76.2247324,46.2298615 75.6316129,47.8352472 L75.5405068,48.0758024 C74.3431154,51.1615232 72.3047615,53.5375072 69.758046,54.9621716 L69.5755134,55.0617901 L69.5974481,55.0681931 C70.9256912,55.4004095 72.6127214,55.6700637 74.6883697,55.9010785 L75.5076064,55.9885199 L79.1381087,56.3419032 C79.8771746,56.4165411 80.446872,56.4803009 80.9931425,56.550496 C85.2053254,57.0917561 88.8294028,59.9299278 90.3204908,63.4957938 C91.9024385,67.2789466 90.6328031,70.883474 86.6843293,72.1649637 C83.635627,73.1544297 79.5856605,71.6671778 71.9199557,67.5344741 L68.4325703,65.6326173 C60.2363597,61.1865206 57.235584,60.0372564 56.0405247,61.0842812 C53.7327301,63.1062044 52.8756809,69.4259531 55.290278,74.1462575 C58.6377017,80.6901478 67.2475585,84.3746098 81.9075073,83.6028049 L82.3536009,83.5780512 C91.0229889,83.0725156 95.3674587,86.5005163 94.6954137,92.6880338 C94.1271487,97.9200487 89.8704032,104.7299 83.4574379,110.948926 C76.7734685,117.43076 68.5586454,122.512265 60.6478134,124.741179 C51.4177011,127.341807 43.0399255,126.012579 36.5463544,120.200977 C28.1339383,112.671393 25.0037456,107.038198 26.3389381,102.439569 C27.3407273,98.9892376 29.8828435,97.0420248 36.3320663,93.6870607 L37.8515489,92.8988549 C43.2903817,90.0484331 45.384729,88.4011206 45.9935722,85.9921161 C47.2171757,81.1506953 45.2545679,76.0011223 41.0110512,72.6931601 C36.510841,69.1850966 30.231106,68.2767639 23.6159856,70.6678587 L23.2793415,70.7922867 C15.6839211,73.6616186 7.20092936,71.2206573 2.24115435,65.3334475 C-2.9510967,59.1702907 -2.7850296,51.0909851 3.68076597,44.6810728 C7.55428425,40.841033 11.4992863,39.7664126 15.6350007,41.0513574 C18.6281585,41.9813158 21.1171216,43.7184776 25.398897,47.4425797 L26.5248345,48.4232044 C32.304936,53.4313973 34.4032828,54.6967245 37.1037144,54.2932974 C39.3540553,53.9571111 42.9861255,51.3994549 46.9761911,47.5731442 L47.6394292,46.9281385 L47.4496198,46.719136 L46.9068181,46.109805 C38.0985273,36.1055087 27.6893136,18.6588585 15.5961066,-6.27638895 L14.69219,-8.14762063 L16.6271107,-9.07915719 L17.3791619,-7.52134 C29.6271475,17.7648182 40.1341466,35.2993653 48.810822,45.0325693 L49.1447345,45.4037949 L49.2418098,45.3035545 C52.3366049,42.0734331 55.5270293,38.218196 58.3689308,34.1512272 L58.5985827,33.8210172 C59.6821695,32.2555201 60.6746897,30.7205657 61.5715371,29.2256834 L62.0103345,28.4827925 C59.737013,26.8151781 57.9431157,24.7660934 56.658157,22.5043743 L56.5989661,22.3983056 L56.3053037,22.2262169 C50.272319,18.6413953 45.7803257,12.5388953 42.6218722,4.58201778 L42.4676127,4.1892038 C40.6568521,-0.471716085 39.4195366,-5.45359194 38.6479293,-10.4336342 C38.3780006,-12.1757851 38.1853834,-13.7943101 38.0571002,-15.248622 L38.0083372,-15.8340723 C37.9938138,-16.0199803 37.9809869,-16.1965379 37.9697535,-16.3634196 L37.9277241,-17.1018397 Z M14.9980309,43.1026552 C11.6419632,42.0599425 8.51647792,42.9113261 5.19236618,46.2067079 C-0.462189995,51.8123922 -0.602222865,58.6251102 3.88321703,63.9492883 C8.20797009,69.0827325 15.5868062,71.2607504 22.2361441,68.887353 L22.5206581,68.7828447 C29.9488376,65.9766917 37.1545225,66.9636577 42.331029,70.9989165 C47.2251594,74.8140539 49.51507,80.8224176 48.0754431,86.5185762 C47.2549628,89.7649636 44.8969563,91.6318644 38.8785333,94.7856982 L37.0243541,95.7485908 C31.3683081,98.7109981 29.1565276,100.436815 28.4010974,103.038645 C27.3649388,106.60735 30.1213667,111.567906 37.9782691,118.600274 C43.8769606,123.879934 51.4957093,125.088271 60.0656077,122.673662 C67.6084457,120.548432 75.5202733,115.654353 81.962724,109.406734 C88.0499154,103.50363 92.056943,97.0932718 92.5606073,92.4560358 C93.0646425,87.815385 90.0270325,85.352267 82.7710626,85.7067004 L82.4785725,85.722382 C66.7752544,86.6380851 57.2016067,82.5982406 53.3786259,75.1246822 C50.5359305,69.5674869 51.5387259,62.1730287 54.625666,59.4684744 C56.0518041,58.218995 58.2566832,58.4414356 61.439534,59.7194195 L62.0616273,59.97614 C63.9228517,60.7601856 65.4021151,61.5232868 69.5908678,63.8146919 L72.2172471,65.2526849 L73.2607081,65.816318 C80.0642347,69.4601051 83.8343356,70.831731 86.0216015,70.1218469 C88.6813753,69.2586089 89.4683454,67.0243808 88.3394364,64.3246487 C87.1402687,61.4568961 84.1602089,59.1230824 80.7195343,58.6809601 L80.0658539,58.6014888 C79.7802342,58.5685983 79.4733414,58.5354311 79.1275251,58.499906 L75.5458539,58.1515209 C75.2818923,58.1248519 75.0337019,58.0990608 74.7904047,58.0729666 C70.9900688,57.6653728 68.3498313,57.1580116 66.5521989,56.2914994 L66.3995555,56.2159667 L66.3516948,56.2264374 C63.6535998,56.7771891 60.6372803,56.4246996 57.5675391,54.9766309 L57.3250849,54.86003 C54.8351671,53.6396438 52.1706546,51.5914077 49.3284533,48.7135994 L49.1139555,48.4947256 L48.4634674,49.1248386 C44.2375271,53.1605679 40.2905625,55.9014914 37.5853879,56.3905249 L37.4209091,56.417706 C35.3431871,56.7281043 33.2421676,56.0880874 30.9027537,54.6209041 L30.4317314,54.3174441 C29.229615,53.5281151 28.4093152,52.8927373 26.4806341,51.2307981 L23.4453473,48.5924985 C19.7215506,45.3900919 17.4922192,43.8775864 14.9980309,43.1026552 Z M64.0715005,29.8108438 L63.814124,29.6634607 L63.7364284,29.7960762 C62.7279253,31.5038027 61.6009921,33.2567276 60.3640872,35.043729 C57.4154558,39.3037236 54.1059638,43.3393079 50.8533333,46.735246 L50.6199766,46.9768259 L50.6277494,46.9841647 C53.2520436,49.6740893 55.6977896,51.6052726 57.9622794,52.7762072 L58.2699498,52.9311677 C60.2640981,53.9085619 62.216352,54.3493259 64.0375044,54.3223592 L64.1863345,54.318592 L64.1244328,54.2158386 C62.7689462,51.8839665 64.3601797,48.7817712 68.8496875,44.8397816 L69.0886533,44.6315327 C70.3148324,43.5708607 71.9840274,42.5716342 74.1503389,41.6045039 L74.3562713,41.5131027 L74.3509261,41.4518853 C73.893337,37.1554094 71.0840187,33.1676136 66.0329204,30.7921232 L65.7696581,30.6706975 C65.1822991,30.4050413 64.6161434,30.1178635 64.0715005,29.8108438 Z M74.3567598,43.9208477 L74.3605661,43.8701433 L74.2907075,43.9036662 C72.6845635,44.6691009 71.4266054,45.4489 70.4932788,46.256248 L70.0557654,46.6395644 C66.011707,50.2298408 65.1548666,52.3658987 66.2981854,53.5442566 C66.4041461,53.6534646 66.5244083,53.7586164 66.6592502,53.8599349 L66.7366924,53.9162054 L66.8514036,53.8827119 C69.7778905,52.9791662 72.1436496,50.7276696 73.4546516,47.5097887 L73.5386513,47.2985607 C73.9713114,46.1835801 74.2433802,45.0501592 74.3567598,43.9208477 Z M153.939463,22.2290037 C152.347552,20.7445466 147.739389,20.1903528 140.217693,20.5407474 L138.865882,20.6110291 C133.601619,20.9054603 129.549433,21.3230001 117.085432,22.8127417 L107.331556,23.9784104 L103.887935,24.3746794 C86.097931,26.3796755 74.4879543,26.9392472 66.3186403,25.6534608 L66.0166082,25.6045109 L65.8901739,25.8598248 C65.695608,26.2478806 65.4939517,26.6389941 65.285319,27.0330151 L64.874924,27.7940097 L64.9895785,27.861799 C65.4324774,28.1164557 65.8917423,28.3565151 66.3671785,28.58082 L66.6543793,28.7135032 C72.3352564,31.2829031 75.6464955,35.7175933 76.3994521,40.5624853 L76.4155976,40.6732459 L76.4843597,40.6469853 C83.2875609,38.068358 93.8942693,35.6544752 109.38986,32.8165317 L113.687336,32.0419365 C118.246098,31.2307364 126.701315,29.7384058 129.031942,29.316139 L131.678843,28.8316674 C136.762791,27.8906804 140.620603,27.1098849 143.846049,26.3534606 L144.631409,26.166602 C148.35456,25.2675427 151.022935,24.4273022 152.644797,23.6245699 L152.808843,23.5416615 C154.230928,22.8073823 154.333315,22.5962708 153.939463,22.2290037 Z M60.5050292,24.2162054 L60.6601857,24.3898557 C61.3547409,25.1574054 62.1320871,25.8755873 62.9901519,26.5320796 L63.0732818,26.5947256 L63.0815409,26.5802312 C63.2400947,26.286976 63.394585,25.995611 63.5449732,25.7062161 L63.8155555,25.1777805 L63.3470409,25.0686695 L63.0924543,25.0063509 C62.2755679,24.8029233 61.4799144,24.5633347 60.7051806,24.2885873 L60.5050292,24.2162054 Z M65.4697797,7.57186573 C61.1836006,3.47000023 57.4156592,5.53538491 56.579489,11.496593 C56.1549965,14.5228769 56.6526213,17.6376022 58.0072262,20.4534954 L58.1894503,20.8202626 L58.4053975,20.9369798 C59.9268426,21.7419898 61.5459218,22.3775622 63.2658852,22.8332636 L63.6112239,22.9220026 C63.8271446,22.9757728 64.0461549,23.0277804 64.2683299,23.078036 L64.7725661,23.1873271 L64.8335054,23.0532959 C67.9583742,16.1112273 68.4175239,10.570483 65.5982106,7.69866666 L65.4697797,7.57186573 Z" fill="#F7AD01" fill-rule="nonzero" mask="url(#mask-4)"></path>
                    </g>
                    <polygon id="Path-3" fill="#E73D11" points="259.067193 330.324957 274.536578 362.712369 220.339089 385.486772 238.638241 365.52108 245.240049 367.436526 239.709593 364.154989 242.901226 361.324187 249.377035 364.154989 243.694953 360.149285 246.757383 356.905131 253.992392 358.572424 247.437834 355.634457 251.366333 351.007835 244.603289 337.435936"></polygon>
                    <polygon id="Path-3-Copy" fill="#E73D11" transform="translate(357.077692, 377.836550) scale(-1, 1) translate(-357.077692, -377.836550) " points="368.707051 350.255642 384.176437 382.643054 329.978947 405.417457 348.278099 385.451765 354.879908 387.367211 349.349452 384.085674 352.541085 381.254872 359.016894 384.085674 353.334811 380.07997 356.397241 376.835816 363.632251 378.503109 357.077692 375.565142 361.006192 370.93852 354.243147 357.366621"></polygon>
                    <path d="M285.090719,151.835343 C307.821829,151.834148 326.250004,133.401176 326.251199,110.664148 L243.934568,110.668478 C243.933373,133.405505 262.359609,151.836539 285.090719,151.835343 Z" id="Oval" fill="#E73D11" transform="translate(285.092884, 131.249746) rotate(-11.000000) translate(-285.092884, -131.249746) "></path>
                    <g id="Group-2" transform="translate(251.957895, 4.432253)">
                        <ellipse id="Oval" fill="#FFFFFF" cx="31.8526316" cy="49.0453461" rx="7.51578947" ry="7.51789976"></ellipse>
                        <g id="Oval-Copy-4" transform="translate(5.726316, 55.131265)">
                            <mask id="mask-6" fill="white">
                                <use xlink:href="#path-5"></use>
                            </mask>
                            <use id="Mask" fill="#DD63B1" xlink:href="#path-5"></use>
                            <ellipse fill="#FFFFFF" mask="url(#mask-6)" cx="23.2631579" cy="3.22195704" rx="18.9684211" ry="18.973747"></ellipse>
                        </g>
                        <ellipse id="Oval-Copy-2" fill="#FFFFFF" cx="22.5473684" cy="22.5536993" rx="22.5473684" ry="22.5536993"></ellipse>
                        <ellipse id="Oval" fill="#131313" cx="20.0421053" cy="81.2649165" rx="2.14736842" ry="3.22195704"></ellipse>
                        <ellipse id="Oval-Copy" fill="#131313" cx="13.2421053" cy="80.1909308" rx="1.78947368" ry="2.86396181"></ellipse>
                        <path d="M16.2678581,82.342757 C16.6610493,82.3837348 16.946584,82.7357878 16.9056177,83.1290895 C16.706313,85.0425373 15.4274677,86.5035932 13.1769268,87.4845351 C12.814519,87.6424976 12.3927114,87.4766794 12.2347933,87.1141698 C12.0768751,86.7516602 12.2426468,86.3297342 12.6050546,86.1717717 C14.4185808,85.3813111 15.3415298,84.3268598 15.4817463,82.9806957 C15.5197864,82.615487 15.8259743,82.3431307 16.1843323,82.3388951 L16.2678581,82.342757 Z" id="Path-2" fill="#131313" fill-rule="nonzero"></path>
                    </g>
                    <g id="Path-4" transform="translate(197.119860, 171.738316)">
                        <mask id="mask-8" fill="white">
                            <use xlink:href="#path-7"></use>
                        </mask>
                        <use id="Mask" fill="#FFFFFF" xlink:href="#path-7"></use>
                        <path d="M39.5365834,143.273525 C29.9560708,143.273525 20.5129316,146.838188 11.1874962,154.000215 L10.8062737,154.294511 L16.5912842,181.709785 L70.4830737,164.274702 L67.3327379,162.470085 L67.1942588,162.267806 C58.4936364,149.558641 49.275438,143.273525 39.5365834,143.273525 Z M96.785093,77.4794567 L93.4200086,81.3575462 C91.6275766,83.3932477 90.4234993,84.616318 89.1560108,85.6304454 C85.0555968,88.9112186 81.1348245,88.7900562 76.3291823,84.6740509 C67.2285504,76.879411 58.5270303,71.21483 50.3808358,68.3199378 C40.5429235,64.8238642 32.0230951,65.569751 24.992409,71.2715042 C18.495774,76.540152 18.1335055,83.328523 22.1906372,93.5756043 L22.3855596,94.0630569 C23.0418004,95.6879908 23.7720182,97.3353685 24.8457068,99.6509206 L26.3304906,102.85129 C30.0104161,110.847986 30.9696333,113.657302 30.9952226,117.31615 L30.9957534,117.46911 C30.9957534,124.344907 26.6696156,127.74753 19.5317882,127.076152 C12.8949147,126.451895 4.10775002,122.377068 -5.01751196,115.64482 C-13.7469277,109.20461 -15.2538401,92.7464682 -10.9368886,72.3493929 L-10.7089558,71.2945439 C-6.91457513,54.0870239 0.348784784,38.0196297 6.15309736,34.5280892 C11.0868144,31.560249 20.0534872,32.845386 37.2680856,37.6311388 L40.6648742,38.5867355 L48.5452336,40.813695 C53.569246,42.2171059 55.4894165,42.6913887 58.4202013,43.3150003 L59.1207304,43.4607482 C64.0632861,44.4649485 67.3307563,44.6015636 68.9112917,43.8336941 C70.9074658,42.8638954 71.7635551,41.8658621 71.9449802,40.6241126 L71.9681361,40.4475353 C72.0548895,39.6924453 71.9606084,39.0392267 71.5145487,37.3511558 L71.1474385,36.0031902 C69.8293436,31.2512449 69.7688816,28.2335861 71.783147,24.4146277 C73.4351687,21.2824673 76.9370505,20.7932841 82.2179285,22.250496 L83.4123507,22.5950863 C85.9178783,23.3409776 87.6639595,24.0346666 93.592351,26.6791224 L100.0327,29.566869 C101.334928,30.1479599 102.461267,30.6420463 103.540452,31.1038261 L104.183334,31.3774548 C112.058296,34.7111521 117.761639,36.379906 122.409493,36.379906 C132.95612,36.379906 142.895611,30.7056095 152.25075,19.2626803 L152.557642,18.8842482 L126.543705,-3.04868735 L126.556857,-2.92327064 C127.458986,6.83273067 121.547854,13.0630734 109.158405,15.5297766 L108.743024,15.6106057 C108.030405,15.7460998 107.311224,15.8557199 106.585692,15.9399187 C97.4154327,17.0041371 87.7657309,14.097757 77.7484795,8.48117705 C75.0825504,6.98641533 72.7407021,5.5097945 69.9974863,3.65647562 L67.3116778,1.82751296 L66.9051496,1.55751724 C66.5950137,1.35444448 66.3643663,1.21196573 66.2017602,1.12297986 L66.1148527,1.07732628 C66.090975,1.06544192 66.0724299,1.05693487 66.0599414,1.05193652 C66.095073,1.06599743 66.141911,1.07909025 66.2230387,1.08376495 L66.2906666,1.08557616 L66.2906666,-1.0623952 C66.7372379,-1.0623952 67.0848821,-0.886523143 67.9190056,-0.345427996 L68.6259176,0.123135356 L70.6114769,1.47771771 C73.5691257,3.49129593 76.0056218,5.0415716 78.7984514,6.60748529 C88.4578368,12.0234131 97.7040417,14.8082645 106.338218,13.8062592 C107.012629,13.7279931 107.680607,13.6261775 108.342028,13.5004179 C121.036152,11.0868157 126.12287,4.96181396 124.047992,-5.19133982 L123.982926,-5.50024445 L123.31496,-8.58035247 L155.535053,18.5847914 L154.892761,19.4009088 C144.884723,32.1174489 134.048569,38.5278774 122.409493,38.5278774 C117.594827,38.5278774 111.942325,36.9303486 104.310748,33.7600489 L103.34641,33.3555717 C102.054179,32.808533 100.733582,32.2316254 99.1602171,31.5295552 L91.7494884,28.2099841 C86.090472,25.6968375 84.6946427,25.1903702 81.9129259,24.395836 L81.3736022,24.2469294 C77.1342775,23.118371 74.6960759,23.4950367 73.6823968,25.4169277 C72.0233779,28.5623545 72.02975,31.0290676 73.1298651,35.1116433 L73.5525294,36.6572718 C74.1610944,38.9330379 74.2520065,39.6874756 74.0697773,40.9347292 C73.7753827,42.949689 72.4388522,44.5078231 69.8494512,45.7658285 C67.6540945,46.8323959 63.9475197,46.6601871 58.3494228,45.495104 L56.7285541,45.1462911 C53.51693,44.4356965 50.8978312,43.7222704 42.3575438,41.2999489 L37.8816457,40.0328259 L35.7252715,39.4331366 C19.8995881,35.0814776 11.3443016,33.9118223 7.25976738,36.368843 C2.02380262,39.5184981 -5.22941153,55.7531855 -8.83608218,72.794269 C-12.9904584,92.4231955 -11.5499152,108.15647 -3.74289965,113.916169 C5.09606192,120.437197 13.5461222,124.3557 19.732824,124.937615 C25.5893664,125.488476 28.7545028,123.074853 28.8463285,117.711243 L28.8483849,117.46911 C28.8483849,114.119864 27.9134119,111.411781 24.2154233,103.393025 L22.5793812,99.8659597 C21.5582984,97.6483439 20.854568,96.0345563 20.1941422,94.3665215 L19.9303821,93.6890699 C15.8512422,83.02842 16.397113,75.4768928 23.6400499,69.6030082 C31.3112286,63.3818277 40.6089691,62.5678369 51.0997078,66.2959037 C59.21314,69.1791533 67.7584872,74.649818 76.6563986,82.1346605 L77.7258351,83.042473 C81.7577144,86.4957548 84.5296848,86.5814161 87.8146798,83.953066 L88.0916112,83.7266797 C89.2471124,82.7618771 90.4388824,81.5129018 92.267463,79.4136975 L95.172371,76.0612015 C96.2635285,74.8197309 97.2289997,73.7639555 98.209641,72.7525864 C106.431314,64.2732918 115.398278,59.6125035 128.232544,59.1060032 C136.861059,58.7654816 143.105462,60.7201982 147.600278,64.7706311 C151.061563,67.8897145 153.229028,71.7960828 155.42752,77.9125532 L155.758818,78.8492493 L157.132223,82.880952 C158.774393,87.6533547 159.877779,90.0864895 161.531697,92.1590828 C163.672667,94.8420216 166.463317,96.1861785 170.485216,96.1861785 C184.586209,96.1861785 194.448105,90.9736337 200.232398,80.5172472 L200.41183,80.1887781 L202.430422,76.4466544 L202.430422,114.913939 L184.98443,184.053758 L184.27966,184.161221 C171.186083,186.157708 164.363649,180.532553 164.363649,167.697243 C164.363649,162.999927 166.171156,157.724983 169.64299,151.234385 L169.882283,150.789953 C170.946857,148.82545 172.104457,146.841581 173.608171,144.37926 L175.029724,142.07173 C181.675969,131.327731 182.175016,130.466697 183.446109,127.176792 L183.52662,126.967899 C185.26598,122.445345 184.793774,119.842279 181.780723,118.443261 C175.072356,115.328434 164.568723,114.097433 155.434671,115.572469 C144.913945,117.271435 137.448732,122.173308 134.9813,129.992079 C133.697818,134.059164 133.793387,137.240311 135.039367,140.038804 C135.95009,142.084305 137.155673,143.58522 139.873488,146.304997 L141.189282,147.611753 C143.857563,150.278571 145.107766,151.777068 146.216904,153.884067 C147.79186,156.875967 148.283596,160.189278 147.555474,164.164767 C144.580391,180.408491 129.346002,190.437072 116.290923,187.044106 C109.315714,185.231276 95.0429199,178.199653 73.3676563,165.915853 L73.0112421,165.713842 L14.9828984,184.488465 L8.43037528,153.434784 L8.95081159,153.021794 C18.9298705,145.102956 29.1323395,141.125553 39.5365834,141.125553 C49.9804291,141.125553 59.695747,147.674658 68.679553,160.638276 L68.8245895,160.849403 L70.2743041,161.681608 L73.2503158,163.378998 L104.314147,153.329356 L85.7945263,131.043437 L85.6241959,131.13925 C70.2421882,139.642018 59.0200892,138.454192 52.4357328,127.388586 L52.2335721,127.043201 C45.4706491,115.29762 53.7591857,106.509401 76.0896675,100.872286 L76.7706459,100.70243 L77.2843716,102.788027 C55.6152545,108.128575 48.232062,115.789734 54.0943781,125.971177 C60.0385247,136.294739 70.1918647,137.368449 85.0624021,128.993301 L85.5144688,128.736616 L86.2970251,128.288703 L107.993772,154.396758 L75.7870737,164.81599 L78.2152453,166.182187 C97.3766686,176.924587 110.202158,183.174486 116.608621,184.906213 L116.830929,184.965162 C128.664525,188.040669 142.690496,178.807572 145.44326,163.777692 C146.085278,160.272327 145.666112,157.447997 144.316846,154.884832 L144.124369,154.529485 C143.213136,152.895349 142.098613,151.570696 139.892758,149.353057 L138.33233,147.801122 C135.445784,144.911285 134.124237,143.263119 133.077742,140.912673 C131.609567,137.615125 131.497805,133.895009 132.933535,129.345486 C135.684365,120.628684 143.848845,115.267653 155.092426,113.451954 C164.635673,111.910838 175.572652,113.192627 182.68485,116.49496 C186.866626,118.436641 187.604224,122.167606 185.62851,127.480808 L185.203229,128.581521 C184.310964,130.839114 183.623982,132.176034 180.607761,137.113847 L175.925948,144.707262 C174.198243,147.516515 172.925267,149.681957 171.770138,151.813566 C168.297896,158.221039 166.511017,163.332587 166.511017,167.697243 C166.511017,178.851145 171.809462,183.554375 182.909499,182.182489 L183.252842,182.137947 L200.282905,114.645107 L200.282905,84.5133652 L200.107807,84.7663182 C193.822355,93.7024062 184.059907,98.2317786 170.933993,98.3324341 L170.485216,98.3341499 C165.810012,98.3341499 162.40177,96.6925209 159.853426,93.4990854 L159.587147,93.1573754 C157.929515,90.9780339 156.802092,88.4804736 155.234378,83.9639021 L154.00958,80.3624197 C153.879574,79.9828849 153.760125,79.6379969 153.643598,79.306216 L153.556632,79.0595014 C151.41418,73.0039633 149.376461,69.2622778 146.162987,66.3665059 C142.111746,62.7157926 136.415612,60.9327035 128.317199,61.2523048 C116.085477,61.7350258 107.614932,66.1377891 99.751089,74.248041 C98.7975911,75.2314162 97.8548324,76.2623547 96.785093,77.4794567 Z" fill="#F7AD01" fill-rule="nonzero" mask="url(#mask-8)"></path>
                    </g>
                    <path d="M334.023253,133.978534 C334.403872,133.523704 335.081033,133.46363 335.535735,133.844355 L350.672333,146.50236 C368.798384,161.636912 378.690082,169.792192 380.226994,170.8707 C381.891557,172.038786 397.112819,178.399585 425.32186,189.697029 L434.305263,193.286191 L435.182532,191.622711 C440.889812,180.853109 443.77089,176.655725 445.723504,177.386054 L445.786766,177.411577 C447.21892,178.031897 447.212199,181.265122 445.906082,188.226234 L445.745011,189.065427 L445.841314,188.874235 C449.965812,180.652902 452.846165,176.93359 455.090166,177.332026 L455.178416,177.349892 C457.797606,177.945766 457.259301,183.150899 453.881581,194.104315 L453.469095,195.42557 L454.26986,194.236225 C458.914084,187.369425 461.351548,184.412782 462.561026,184.335822 L462.608969,184.334277 C463.133845,184.334277 463.543555,184.66118 463.711982,185.106484 C463.79508,185.326184 463.813616,185.538971 463.799802,185.777169 C463.783103,186.065125 463.711732,186.418204 463.588986,186.867552 L463.498662,187.184107 C463.317778,187.794636 463.052539,188.572401 462.698647,189.538189 L462.254041,190.728544 C461.944293,191.544747 461.583679,192.472133 461.13885,193.599304 L458.392127,200.507547 L457.51807,202.738354 C454.994919,209.239868 453.720807,213.131683 453.720807,214.668622 C453.720807,216.181466 455.072655,217.914656 457.771753,220.157378 L458.219593,220.521402 C458.915789,221.074565 461.031133,222.74397 461.554693,223.208962 L461.822234,223.451998 C463.062787,224.60744 463.531307,225.493306 462.799041,226.512644 L462.748015,226.576949 C461.907995,227.536571 458.745317,226.766021 447.892141,223.592662 L446.17642,223.089317 C438.194361,220.736587 427.623844,217.456978 416.181114,213.793354 L408.966324,211.470231 C387.91272,204.652142 370.409051,198.636387 368.003615,197.297399 L367.928268,197.254041 C364.775894,195.37088 346.2939,182.18902 312.294569,157.578877 C311.814176,157.231148 311.706551,156.559714 312.054182,156.079186 C312.401813,155.598658 313.073059,155.491003 313.553452,155.838732 L330.347406,167.975794 C353.587476,184.739959 366.51594,193.90848 369.029297,195.409906 C371.059571,196.622749 391.582607,203.635126 414.685253,211.057894 L419.733446,212.673117 C430.281114,216.033545 439.935822,219.016904 447.287109,221.177189 L450.369245,222.073443 C453.248123,222.900739 455.644624,223.558525 457.505304,224.030477 L458.022301,224.16025 C458.544901,224.28997 459.018216,224.402745 459.440648,224.498217 L459.867537,224.592157 L459.035645,223.916203 L456.653927,222.019292 C453.298358,219.274125 451.573439,217.117776 451.573439,214.668622 C451.573439,212.712326 452.888575,208.701362 455.650495,201.614826 L456.54049,199.35027 L459.140398,192.813337 C459.582045,191.694248 459.939501,190.775018 460.245515,189.968705 L460.586189,189.059699 L460.15496,189.631609 C460.034555,189.792775 459.910895,189.959615 459.783995,190.132116 L459.251793,190.862445 C457.173918,193.739028 454.352122,197.921772 450.789875,203.406321 C450.100255,204.468083 448.463044,203.670116 448.873998,202.472533 L449.390316,200.957654 C451.800246,193.836802 453.394301,188.391931 454.1708,184.637006 C454.575269,182.681116 454.752775,181.203958 454.710429,180.23405 C454.697073,179.928133 454.662242,179.690994 454.615777,179.528071 L454.597895,179.473303 C454.460081,179.538222 454.213686,179.703344 453.876997,180.023013 L453.773303,180.123603 C453.117313,180.773247 452.328607,181.817778 451.422555,183.248095 L451.251299,183.520798 C449.244682,186.743262 446.723196,191.729345 443.696723,198.466359 C443.165063,199.649849 441.380968,199.050821 441.670841,197.786149 L442.131342,195.752218 C443.273071,190.64274 444.043553,186.65612 444.442296,183.799675 L444.479724,183.526773 C444.67928,182.044569 444.771488,180.894527 444.759071,180.091595 L444.755789,179.974496 L444.747731,179.984288 C444.301967,180.477722 443.746018,181.220583 443.088587,182.206007 L442.777983,182.678016 L442.482971,183.137307 C440.779479,185.817804 438.536221,189.821524 435.759396,195.140188 C435.504511,195.62839 434.921734,195.844597 434.410235,195.640721 L423.43052,191.253621 C395.783367,180.176433 381.170745,174.063224 379.060828,172.674622 L378.993742,172.629113 C376.990556,171.223402 362.123515,158.907654 334.157394,135.49144 C333.702692,135.110715 333.642635,134.433364 334.023253,133.978534 Z" id="Path-5" fill="#FFFFFF" fill-rule="nonzero"></path>
                    <path d="M438.573121,62.0293306 C438.959203,61.579131 439.63704,61.5272407 440.087113,61.9134303 C440.537186,62.2996199 440.589062,62.9776473 440.202981,63.4278469 L434.885147,69.6166666 C417.626482,89.6594833 407.083793,101.455636 403.199512,105.064529 C398.741002,109.206939 376.105806,114.988619 334.561759,122.729086 C333.978807,122.837702 333.418205,122.453043 333.30962,121.869926 C333.201035,121.28681 333.585586,120.72605 334.168538,120.617435 C374.980786,113.013317 397.74803,107.197907 401.738105,103.490721 L401.998661,103.245739 C406.41362,99.0491185 418.629073,85.2855844 438.573121,62.0293306 Z" id="Path-6" fill="#FFFFFF" fill-rule="nonzero"></path>
                    <path d="M418.846089,48.9277297 C419.284451,48.5282886 419.963533,48.5599398 420.362862,48.9984246 C420.762191,49.4369094 420.730549,50.1161825 420.292187,50.5156236 L414.757116,55.5521103 C396.976847,71.7052782 388.00703,79.5807926 386.741995,80.095275 L386.583825,80.1527773 C384.403343,80.8924255 366.831608,85.5111535 333.056132,94.2311578 C332.481969,94.3793927 331.896383,94.033979 331.74819,93.4596546 C331.599996,92.8853303 331.945313,92.2995802 332.519476,92.1513453 L356.680228,85.8942599 C375.251081,81.0650491 385.117514,78.4372196 385.933211,78.1054803 C386.927696,77.7010292 398.387737,67.5696555 418.846089,48.9277297 Z" id="Path-8" fill="#FFFFFF" fill-rule="nonzero"></path>
                    <path d="M383.719098,42.2898426 L420.337002,42.2945386 C421.956262,55.6640171 423.498018,62.3488502 424.962272,62.349038 C426.426525,62.3492258 427.813515,55.6647682 429.123241,42.2956654 L428.913065,55.1408331 L430.048671,61.6156231 L432.59052,61.6358688 L435.707282,42.2965097 C436.43976,55.2270496 437.342373,61.6923883 438.41512,61.6925259 C439.487866,61.6926635 440.800692,55.2276089 442.353598,42.2973621 L494.675707,42.304072 L494.678185,61.6342045 L383.721576,61.6199752 L383.719098,42.2898426 Z" id="Rectangle" fill="#7C00D9" transform="translate(439.198641, 52.319440) rotate(33.000000) translate(-439.198641, -52.319440) "></path>
                    <path d="M429.660488,30.3944221 C429.942911,29.872872 430.594541,29.6790856 431.115945,29.9615879 C431.637348,30.2440903 431.831081,30.8959036 431.548657,31.4174537 L430.797179,32.8119865 C427.44584,39.0626509 425.079456,43.9162024 423.701494,47.3613035 L423.457974,47.9823103 C422.878121,49.4927938 422.515348,50.6873349 422.369273,51.5504165 C422.323862,51.8187233 422.301191,52.0457727 422.298249,52.2277473 L422.299326,52.3434699 L422.341933,52.3260705 C422.457657,52.2732658 422.59363,52.1986127 422.74732,52.1012221 L422.86587,52.0239019 C423.6254,51.5149552 424.638565,50.58816 425.882154,49.2529463 L426.29233,48.8069638 C427.963498,46.967981 430.000157,44.468439 432.399337,41.3110161 L433.425558,39.9489592 L433.608515,39.696661 C434.058217,39.0760506 434.523332,38.4397793 435.003842,37.7876555 L436.300534,36.0392919 C437.1506,34.9001349 438.863965,36.1599309 438.030703,37.311443 L437.22091,38.4267039 C436.821577,38.9747157 436.430552,39.5083145 436.047676,40.0275673 L435.119832,41.2785534 L434.364646,42.3342454 C431.468481,46.4061387 429.311668,49.7355541 427.896816,52.3162143 L427.765567,52.5574029 L427.46558,53.1238785 C426.701379,54.5973972 426.223261,55.7733911 426.030593,56.6312173 C425.93834,57.041961 425.918547,57.3509475 425.953742,57.546057 L425.969771,57.6336165 L425.996412,57.6327654 C426.016973,57.631214 426.05165,57.6271617 426.107744,57.6169097 C426.334321,57.5754997 426.653168,57.4387348 427.047511,57.1967933 C427.951339,56.6422675 429.134562,55.6106051 430.571913,54.1098268 L430.962333,53.6973442 C433.867464,50.5931035 437.697624,45.7429165 442.440901,39.1569589 C443.246862,38.0378958 444.947626,39.1690084 444.227837,40.3453816 L443.142587,42.1282945 C439.800987,47.6481735 437.362247,51.9706562 435.829617,55.0877278 L435.710503,55.3313079 C434.935883,56.9242356 434.414022,58.1774629 434.147032,59.0734734 L434.080227,59.3101676 L434.054737,59.4102957 L434.187156,59.3192659 C434.938589,58.7875702 435.965076,57.8543624 437.247562,56.5291406 L437.628854,56.1315449 C440.217335,53.4088297 443.736394,49.2447023 448.177858,43.6465178 C448.546473,43.1819014 449.221836,43.1041611 449.686322,43.47288 C450.150808,43.841599 450.228526,44.5171508 449.859911,44.9817672 L448.643341,46.5097239 C439.117926,58.4277094 434.530859,63.0279047 432.508723,61.6243116 C431.284128,60.7743029 431.816986,58.2614138 434.207861,53.4769733 L434.385432,53.1238995 L434.225967,53.3086645 C429.656205,58.5626554 426.667295,60.5745969 424.850391,59.466628 L424.763389,59.4105822 C423.417475,58.4963283 423.511653,56.4800639 425.03139,53.1941913 L425.146737,52.9484818 L425.016728,53.0557953 C423.287019,54.4626396 422.012738,54.8640394 421.091384,54.3030494 L421.017451,54.2554556 C418.633558,52.6360449 421.50789,45.4498064 429.660488,30.3944221 Z" id="Path-7" fill="#FFFFFF" fill-rule="nonzero"></path>
                    <path d="M246.272988,160.147141 C246.695356,159.730815 247.375157,159.735809 247.791366,160.158296 C248.207575,160.580782 248.202582,161.260774 247.780214,161.6771 L245.159052,164.256359 C217.274431,191.647043 201.207179,205.850083 196.335467,207.296271 C191.479822,208.73769 169.041011,211.458432 128.707178,215.51129 C128.117169,215.570575 127.590824,215.140204 127.531555,214.550029 C127.472285,213.959853 127.902536,213.43336 128.492546,213.374075 L135.514501,212.663443 C171.194209,209.025572 191.350558,206.535498 195.724527,205.237067 C200.210946,203.905255 217.287542,188.717943 246.272988,160.147141 Z" id="Path-12" fill="#FFFFFF" fill-rule="nonzero"></path>
                    <g id="Path-18" transform="translate(0.000000, 129.203928)">
                        <mask id="mask-10" fill="white">
                            <use xlink:href="#path-9"></use>
                        </mask>
                        <use id="Mask" fill="#FFFFFF" transform="translate(78.733050, 74.995471) rotate(-27.000000) translate(-78.733050, -74.995471) " xlink:href="#path-9"></use>
                        <path d="M70.8073296,18.6157518 C81.1185101,50.4327989 76.0248725,72.441822 55.4211318,84.292451 L54.7920284,84.6484512 C40.2596287,92.7392154 36.5582325,103.874833 44.6495049,112.381657 C53.726771,121.925114 75.0914878,126.313128 103.951984,122.826007 C118.589922,121.057351 128.077101,118.273537 132.429622,114.874378 C135.831236,112.217841 135.734735,109.474743 132.514098,106.590315 C125.410885,100.228622 107.616226,96.8629245 95.2093182,100.32739 L94.835017,100.434469 C82.0722457,104.173948 73.1788994,98.9952323 71.9221769,89.5679826 C70.7240457,80.5802534 77.2580107,72.9183682 87.3277828,73.9209568 C92.3870383,74.4246774 96.8137432,76.0012052 104.244973,79.4852428 L108.473552,81.4722623 C111.512362,82.8891515 112.366358,83.2351792 114.18983,83.8944371 C117.443846,85.0708935 120.120696,85.5666584 122.522602,85.3509546 C128.050884,84.8544858 132.454816,80.4211043 136.227671,70.4116022 L136.367119,70.0383271 C139.489455,61.6058629 138.612567,57.9155422 134.633471,57.2254389 C131.172013,56.6251108 125.922296,57.9309059 117.133819,61.1759188 L114.963585,61.9871329 L108.436957,64.4439031 C105.568576,65.5073585 104.396771,65.8916742 102.585571,66.4207848 L102.461061,66.4570946 C98.4159245,67.6347782 95.7197153,67.8903056 94.0159368,66.9533579 C85.9256841,62.5043384 85.7439334,48.2138797 92.216181,41.9340099 L92.4143452,41.7461811 L93.8729418,43.3225955 C88.1930665,48.5809208 88.283458,61.3497546 95.0504602,65.0710877 C96.0387273,65.6145589 98.2267277,65.425935 101.555231,64.4825453 L102.448564,64.2219513 C104.60997,63.5791308 106.102311,63.0402653 111.912158,60.8446137 L115.397445,59.5298032 L115.95103,59.3235189 C125.399473,55.8129924 130.951403,54.4068316 135.000316,55.1090433 C140.671293,56.0925733 141.902404,61.2736149 138.380805,70.7843648 C134.318587,81.755158 129.278437,86.9008558 122.714621,87.4903211 C120.058985,87.7288112 117.211604,87.2295527 113.864033,86.0582825 L112.561027,85.5849818 C110.807381,84.9294447 109.587281,84.3753674 104.957609,82.1949755 L102.911991,81.2330688 C95.9469273,77.9864577 91.7685294,76.5216817 87.1150929,76.0583661 C78.4929375,75.1999083 73.0275308,81.6087763 74.0507051,89.2840745 C75.115771,97.2736201 82.5350006,101.667631 93.8862031,98.4722666 L94.23138,98.3731102 C107.336988,94.5331798 126.193396,98.0463086 133.946503,104.990051 C138.114789,108.723201 138.266686,113.040943 133.751105,116.567447 C129.010913,120.269364 119.205492,123.146559 104.209499,124.958477 C74.7435187,128.518757 52.7348763,123.99849 43.0937659,113.862231 C33.9841705,104.284784 38.0353625,91.7269736 53.2822489,83.0338442 L53.7477006,82.771606 C73.6512268,71.6905223 78.791736,50.9543601 69.063943,20.2127493 L68.7646102,19.2781224 L70.8073296,18.6157518 Z" fill="#F7AD01" fill-rule="nonzero" mask="url(#mask-10)"></path>
                    </g>
                    <path d="M224.190648,143.460765 C224.583213,143.905319 224.541169,144.584028 224.09674,144.976703 L182.94097,181.339901 L170.853825,184.707678 C166.797117,185.840097 162.766068,186.967425 158.863287,188.061446 L140.739244,193.167959 C133.946009,195.096296 129.322133,196.433787 127.407729,197.031421 L126.668174,197.270283 C125.097977,197.780352 123.186384,197.998409 118.757532,198.291334 L116.861328,198.415652 C110.776529,198.83645 107.989294,199.426385 107.989294,200.110488 L107.998438,200.127463 C108.009153,200.143997 108.03144,200.173885 108.075906,200.2229 C108.221637,200.383544 108.484658,200.56986 108.865069,200.764402 C109.74091,201.212306 111.120554,201.646097 112.984993,202.048694 L113.532761,202.163271 C117.362876,202.939679 122.976911,203.582119 130.359935,204.085664 C130.95154,204.126013 131.398431,204.638449 131.358093,205.230221 C131.317755,205.821993 130.805464,206.269009 130.213858,206.22866 L128.258711,206.08977 C112.959087,204.957084 105.841925,203.292943 105.841925,200.110488 C105.841925,198.464658 107.264429,197.593014 109.768339,197.051943 L109.99207,197.005048 C111.563533,196.685512 113.267023,196.506933 116.367065,196.295396 L119.455577,196.091048 C122.972934,195.846266 124.670704,195.640593 125.903152,195.259493 L126.637371,195.02214 C128.798615,194.342334 134.640787,192.659118 143.372346,190.189355 L153.951683,187.208684 L168.756417,183.063216 L181.889263,179.40242 L222.675136,143.366831 C223.119565,142.974156 223.798083,143.016212 224.190648,143.460765 Z" id="Path-13" fill="#FFFFFF" fill-rule="nonzero"></path>
                    <path d="M134.060671,72.9158049 C134.570123,72.6122676 135.229112,72.7793106 135.532564,73.2889057 L142.277641,84.6373608 C151.032639,99.4003264 156.249709,108.350977 157.941271,111.511317 C159.819766,115.020905 180.944087,124.783289 220.101761,140.001724 C220.654486,140.216538 220.928467,140.838877 220.713713,141.391758 C220.498959,141.944639 219.876794,142.218696 219.324069,142.003882 L214.580636,140.153051 C177.385539,125.580092 158.232286,116.605768 156.048159,112.525168 L155.6979,111.879883 C153.223319,107.371931 145.879899,94.8628396 133.687675,74.3881114 C133.384223,73.8785162 133.551219,73.2193422 134.060671,72.9158049 Z" id="Path-14" fill="#FFFFFF" fill-rule="nonzero"></path>
                    <path d="M141.505462,45.1145466 C141.942931,44.7714258 142.563443,44.8217783 142.940785,45.214015 L143.012885,45.2970055 L177.847916,89.7360713 L227.308609,112.857463 C227.814217,113.093821 228.04944,113.673934 227.866054,114.189365 L227.826727,114.285151 C227.590435,114.790901 227.010484,115.02619 226.495198,114.842752 L226.399439,114.803414 L176.474745,91.4649579 L141.323054,46.6223925 C140.957162,46.1556278 141.038828,45.4805421 141.505462,45.1145466 Z" id="Path-15" fill="#FFFFFF" fill-rule="nonzero"></path>
                    <g id="Path-17" transform="translate(31.333854, 0.000000)">
                        <mask id="mask-12" fill="white">
                            <use xlink:href="#path-11"></use>
                        </mask>
                        <use id="Mask" fill="#7C00D9" xlink:href="#path-11"></use>
                        <path d="M93.9386689,-10.7398568 L94.8163754,-8.7795049 L44.9070299,13.5783148 L55.7541036,18.8200809 L121.32023,4.14685209 L77.0567141,29.1131596 L111.609304,45.809341 L133.57427,40.7128376 L134.257758,42.7383212 L119.245346,49.4995558 L156.946406,67.7169901 L156.012348,69.6511119 L116.689977,50.6501525 L16.666272,95.7031358 L16.666272,97.5761668 L115.900374,70.0206816 L23.3653457,117.798601 L80.9524011,117.799102 L14.5195061,145.012684 L14.5189036,100.401465 L-7.16026414,106.421757 L-7.88830201,104.407623 L14.5189036,94.3148303 L14.5189036,70.5460952 L-11.4526316,76.5734972 L14.5189036,61.9234222 L14.5189036,30.2494365 L-9.61735571,35.6512248 L14.5189036,24.8379806 L14.5195061,-1.10477323 L42.3795773,12.3568351 L93.9386689,-10.7398568 Z M70.0426931,119.946573 L16.666272,119.946573 L16.666272,141.811489 L70.0426931,119.946573 Z M96.4309878,77.6558804 L16.666272,99.8050451 L16.666272,118.840367 L96.4309878,77.6558804 Z M14.5189036,96.6697229 L5.82277728,100.586907 L14.5189036,98.1718709 L14.5189036,96.6697229 Z M111.357346,48.0733028 L16.666272,70.0477658 L16.666272,93.3475272 L114.167535,49.4315367 L111.357346,48.0733028 Z M14.5189036,64.3885773 L2.61460886,71.1038518 L14.5189036,68.3408446 L14.5189036,64.3885773 Z M74.779072,30.3983625 L16.666272,63.1778374 L16.666272,67.8425152 L108.273725,46.5833267 L74.779072,30.3983625 Z M55.4935562,21.0790308 L16.666272,29.7690069 L16.666272,60.7119663 L72.4248404,29.2606537 L55.4935562,21.0790308 Z M123.372588,45.285236 L114.692209,47.2993172 L116.722904,48.2802241 L123.372588,45.285236 Z M14.5189036,27.1914413 L10.6987352,28.9033744 L14.5189036,28.0484818 L14.5189036,27.1914413 Z M107.605177,9.41697826 L58.867072,20.3243768 L74.7024825,27.9761668 L107.605177,9.41697826 Z M42.3452194,14.7260475 L16.666272,26.2298661 L16.666272,27.5673363 L52.379872,19.5747348 L42.3452194,14.7260475 Z M16.666272,2.31793291 L16.666272,23.8764055 L39.8177668,13.5045678 L16.666272,2.31793291 Z" fill="#F7AD01" fill-rule="nonzero" mask="url(#mask-12)"></path>
                    </g>
                    <path d="M130.893931,39.9236518 C133.434958,38.9398978 137.747169,43.1521293 144.99137,52.8340729 C145.34668,53.3089478 145.249861,53.9820263 144.77512,54.3374358 C144.300378,54.6928453 143.627489,54.5959995 143.272179,54.1211247 L142.668309,53.3182407 C139.583955,49.239298 137.052264,46.2345528 135.084711,44.3126176 C133.649266,42.9104536 132.572852,42.1652093 132.01364,41.9670312 L131.954358,41.9480045 L131.964271,42.0192626 C131.979069,42.1154151 132.000883,42.2257066 132.030469,42.349097 L132.062673,42.4768152 C132.313723,43.4277259 132.923018,44.8431663 133.88756,46.6937524 L134.147527,47.18696 C136.15632,50.9575204 139.49344,56.3367193 144.153499,63.3122287 C144.482964,63.8053958 144.35037,64.472346 143.857341,64.8019037 C143.364312,65.1314614 142.697549,64.9988298 142.368084,64.5056627 L141.146734,62.6682594 C136.88289,56.2199 133.830024,51.2296511 131.983436,47.6867563 L131.733621,47.2027997 C129.546466,42.9217827 129.020205,40.6490617 130.893931,39.9236518 Z" id="Path-16" fill="#FFFFFF" fill-rule="nonzero"></path>
                </g>
            </g>
        </g>
    </g>
</svg>