<svg xmlns="http://www.w3.org/2000/svg" width="310" height="554" viewBox="0 0 310 554">
    <path fill="#131313" fill-rule="evenodd" d="M-591.272 20.278c142.387 64.899 230.567 89.14 264.541 72.725 33.975-16.416 33.975-107.083 0-272.003C-261.073-37.75-199.804 34.976-142.926 39.175c56.878 4.2 147.921-61.081 273.13-195.842C23.319-1.291-7.793 88.613 36.87 113.045 81.533 137.478 172.576 128.888 310 87.276 145.091 179.28 62.637 257.35 62.637 321.486c0 64.135 33.02 141.44 99.06 231.917C15.11 481.633-92.347 451.665-160.677 463.5-229.007 475.334-337.992 531.834-487.63 633c90.852-120.636 122.727-196.224 95.624-226.764-27.103-30.541-119.1-21.76-275.993 26.34C-509.2 340.192-429.799 271.667-429.799 227s-53.824-113.573-161.473-206.722z"/>
</svg>
