<?xml version="1.0" encoding="UTF-8"?>
<svg width="978px" height="812px" viewBox="0 0 978 812" version="1.1" xmlns="http://www.w3.org/2000/svg" xmlns:xlink="http://www.w3.org/1999/xlink">
    <title>star-1</title>
    <g id="Desktop" stroke="none" stroke-width="1" fill="none" fill-rule="evenodd">
        <path d="M76.7283372,199.277856 C219.114754,264.176775 307.295082,288.41843 341.269321,272.002821 C375.24356,255.587212 375.24356,164.919605 341.269321,0 C406.9274,141.250588 468.19555,213.975552 525.07377,218.174894 C581.951991,222.374236 672.995316,157.093559 798.203747,22.3328632 C691.318501,177.70851 660.20726,267.6126 704.870023,292.045134 C749.532787,316.477668 840.576112,307.888105 978,266.276446 C813.091335,358.280207 730.637002,436.349788 730.637002,500.48519 C730.637002,564.620592 763.656909,641.926657 829.696721,732.403385 C683.111241,660.632816 575.653396,630.664786 507.323185,642.499295 C438.992974,654.333803 330.008197,710.834039 180.368852,812 C271.221311,691.364363 303.096019,615.776211 275.992974,585.235543 C248.88993,554.694875 156.892272,563.475317 0,611.576869 C158.800937,519.191349 238.201405,450.665726 238.201405,406 C238.201405,361.334274 184.377049,292.426892 76.7283372,199.277856 Z" id="star-1" fill="#131313"></path>
    </g>
</svg>