<?xml version="1.0" encoding="UTF-8"?>
<svg width="1068px" height="740px" viewBox="0 0 1068 740" version="1.1" xmlns="http://www.w3.org/2000/svg" xmlns:xlink="http://www.w3.org/1999/xlink">
    <title>illustration-2</title>
    <defs>
        <circle id="path-1" cx="97.0847587" cy="97" r="97"></circle>
        <circle id="path-3" cx="70.8680774" cy="70.9884098" r="70"></circle>
        <circle id="path-5" cx="84.0409518" cy="84.6656699" r="84"></circle>
        <path d="M0.58450685,232.216164 L151.255193,34.1641759 C166.561334,11.5396512 187.761582,0.227388834 214.855937,0.227388834 C255.497471,0.227388834 281.753162,30.9526984 285.63924,48.2273888 C288.229958,59.7438491 293.988595,82.408645 302.915149,116.221777 L390.340777,98.6873165 C402.800759,106.062672 409.796887,119.496523 411.32916,138.988869 C412.861433,158.481216 409.153906,172.156926 400.206579,180.016001 L300.573709,197.907689 C267.294003,202.964487 245.450951,192.377063 235.044551,166.145418 C224.638151,139.913773 217.066308,106.792834 212.329022,66.7826006 L210.233893,83.3922829 L60.6176618,292.914063 L0.58450685,232.216164 Z" id="path-7"></path>
    </defs>
    <g id="Desktop" stroke="none" stroke-width="1" fill="none" fill-rule="evenodd">
        <g id="Desktop-Intersoft-Screen-6" transform="translate(-564.000000, -193.000000)">
            <g id="illustration-2" transform="translate(564.000000, 193.000000)">
                <g id="Path-12" transform="translate(408.915241, 455.000000)">
                    <mask id="mask-2" fill="white">
                        <use xlink:href="#path-1"></use>
                    </mask>
                    <use id="Mask" fill="#EB370D" xlink:href="#path-1"></use>
                    <path d="M67.4587561,-23.5 C78.8093297,-23.5 86.4150148,-15.6310534 90.1791445,-0.358964307 C95.6072646,21.6643829 67.2587383,59.2031849 44.4746842,62.6949182 C37.5231758,63.7602604 29.9165522,60.9959437 18.8677317,54.4600787 L17.1306251,53.4191473 C16.1248138,52.8095921 15.0901512,52.1718999 13.8393372,51.3921763 L8.14038396,47.8328816 C0.317203141,42.981091 -2.77289914,41.3112462 -6.85128292,39.784867 C-12.8638653,37.5345931 -17.1459403,37.821919 -20.2880227,40.9683576 C-26.6580911,47.3472575 -25.7794652,76.3251381 -17.8901202,109.773012 L-17.6489034,110.787933 C-8.43139024,149.279206 7.59212385,185.163188 27.1070907,206.979509 C45.7510829,227.822143 86.959574,231.599103 128.562741,220.968853 C145.756017,216.575706 160.097258,210.173239 166.940499,203.906857 L167.361018,203.513454 C173.502358,197.639649 172.143153,192.990075 161.941138,189.397424 L161.597794,189.278061 C138.406792,181.318118 122.09481,167.625567 114.202096,151.587032 C107.34379,137.650484 107.994393,123.489238 115.570111,116.765048 C120.619127,112.283554 128.671652,111.507647 142.535869,112.809501 L143.774336,112.929721 C144.838416,113.036265 145.869607,113.145538 147.209267,113.292958 L152.291885,113.853363 C159.924687,114.67351 163.06852,114.851261 166.337218,114.573187 L166.533527,114.555957 C171.05811,114.146763 172.99839,112.779641 172.99839,109.994755 C172.99839,105.646848 167.489418,102.017196 153.526597,96.1076954 L148.178329,93.8605067 C138.809159,89.8945872 134.188699,87.5650231 130.359646,84.5235467 C124.733876,80.0549099 123.155737,75.0016564 126.570489,69.3502568 C131.237032,61.6271462 139.333934,60.491521 150.605635,64.636707 L151.0352,64.796655 C159.166807,67.8615193 166.677875,72.2030564 182.821703,82.6099701 L189.640544,87.0100049 C196.071745,91.1431034 199.586189,93.3180164 203.714615,95.7008669 C216.586402,103.130223 233.902302,89.5098089 235.799,70.570025 C236.822177,60.3529284 233.164549,50.1663017 224.506749,41.4654743 C214.292322,31.2002829 197.591116,23.3677571 174.211171,18.806575 L172.569761,18.4915704 C145.967212,13.4720979 129.491461,14.6016646 119.773985,21.0721592 C112.293947,26.0528299 109.202816,32.6072573 105.450835,48.1351643 L103.619548,55.7858362 C102.921955,58.6328914 102.524497,60.0729132 101.846114,62.3564562 C97.0003242,78.6681397 89.3301118,89.7883535 74.6595113,98.0115394 L74.112947,98.3147815 C61.4322327,105.278715 56.5749201,113.117205 57.7752349,122.132059 C58.7340326,129.333021 63.0901177,136.621715 71.493655,146.772476 L73.452879,149.098622 C75.5477205,151.568645 79.0770102,155.724787 80.2008969,157.10953 L80.8665258,157.937241 C83.3427938,161.046893 84.9593534,163.442457 85.9354212,165.5779 C88.777444,171.795684 85.8615917,175.7631 76.8608244,177.074378 C59.0127034,179.674583 46.0821057,170.547404 39.3136518,153.145134 C33.5130232,138.231224 32.8673551,118.242001 37.2255823,101.433495 C42.3641937,81.6152567 26.0322428,67.6902264 -12.7242361,59.710728 L-13.9055398,59.4707449 L-13.3159318,56.5292551 C27.7492664,64.760583 45.8921503,79.9616748 40.1295534,102.186457 C35.923069,118.409732 36.5480465,137.758399 42.1096168,152.057669 C48.4057366,168.245528 60.0817763,176.487166 76.4283346,174.105716 C83.6236904,173.05746 85.1231214,171.017279 83.2069326,166.825037 C82.3152218,164.87415 80.7137699,162.531895 78.1916311,159.396198 L77.6471805,158.725645 C75.863719,156.556771 70.4361665,150.19104 69.6352874,149.230254 L68.7151592,148.118713 C60.2708434,137.843737 55.8385026,130.31648 54.8014793,122.528011 C53.4385037,112.291507 58.8515199,103.411646 72.1946283,95.9480513 L72.6688562,95.6852185 C86.7450993,87.9548948 94.0830969,77.5853513 98.7883325,62.1077469 L99.3505079,60.2070258 C99.8920718,58.3333001 100.29591,56.7805076 101.040177,53.6949589 L102.528471,47.4529348 C104.337613,39.9157382 105.560828,35.8261567 107.440378,31.671482 C110.003203,26.0064524 113.388309,21.719924 118.111276,18.5750809 C128.730896,11.5038839 146.161373,10.3689517 173.940642,15.6986014 L174.78561,15.8620852 C198.711778,20.5298298 215.952243,28.6152569 226.633321,39.3494187 C235.92162,48.6838789 239.897012,59.7554896 238.784069,70.8689606 C236.695547,91.7242366 217.281318,106.995163 202.214944,98.2991331 L200.569577,97.3412948 C196.77025,95.109589 193.112154,92.8161209 186.701284,88.6860987 L179.516066,84.0503448 C164.719727,74.5477846 157.553424,70.4594386 149.977136,67.603878 C139.674389,63.7206944 132.952125,64.5896315 129.138162,70.9017249 C126.598198,75.1053549 127.677714,78.5620017 132.225578,82.1744407 L132.638688,82.4967583 C136.189119,85.21757 140.779341,87.4832826 149.883495,91.3241704 L154.194539,93.1333057 C161.278278,96.1162088 165.327703,98.0310016 168.691743,100.180911 L168.955944,100.351153 C173.538773,103.328546 175.99839,106.412939 175.99839,109.994755 C175.99839,114.588693 172.808509,116.922963 167.133872,117.511729 L166.803737,117.543763 C162.851683,117.901178 159.387152,117.661936 149.537012,116.570138 L146.186422,116.198935 C145.403076,116.11374 144.719782,116.041398 144.04918,115.972842 L142.259209,115.79687 C129.253189,114.578518 121.746574,115.294127 117.561584,119.008714 C111.155665,124.694592 110.571278,137.414571 116.89382,150.26241 C124.342611,165.398864 139.768048,178.443796 161.841617,186.187199 L162.571724,186.440551 C175.387095,190.839224 177.406131,198.39119 168.966515,206.11938 C161.687908,212.784428 146.934149,219.371059 129.305426,223.875469 C110.407573,228.704161 90.1185628,230.704063 72.3291757,229.073579 C51.7180452,227.184468 35.2556568,220.588778 24.8711173,208.979614 C4.97313047,186.735105 -11.2431721,150.419381 -20.5664157,111.486591 C-28.9441548,76.5021186 -29.9260421,46.3741564 -22.410812,38.8485072 C-18.3676507,34.7997404 -13.0037693,34.3698725 -6.18713339,36.832707 L-5.34958401,37.1456386 C-0.885364363,38.8561775 2.53776714,40.7912378 11.8692605,46.6205431 L16.4867436,49.5053226 C17.5026131,50.1344724 18.3882676,50.6759195 19.2790272,51.2119745 C30.3661897,57.8841772 37.7596009,60.689002 44.0202298,59.7295395 C65.1367711,56.4933581 92.2520817,20.5875665 87.2663145,0.358964307 C83.8409219,-13.5387771 77.3827038,-20.3409314 67.7983264,-20.4972419 L67.4587561,-20.5 L67.4587561,-23.5 Z" fill="#7C00D9" fill-rule="nonzero" mask="url(#mask-2)"></path>
                </g>
                <g id="Path-13" transform="translate(0.131923, 598.011590)">
                    <mask id="mask-4" fill="white">
                        <use xlink:href="#path-3"></use>
                    </mask>
                    <use id="Mask" fill="#7C00D9" xlink:href="#path-3"></use>
                    <path d="M71.2436772,-60.881362 L74.2342792,-61.118638 L74.2496461,-60.8741059 C74.4679204,-56.4618106 73.0828615,-31.5503315 70.0753844,14.4353112 C69.601823,21.6762718 68.3326175,28.0614096 66.3536503,33.6145445 L66.136,34.209 L66.4887966,34.4146301 C73.9648642,38.699613 81.4521046,40.5843198 88.946345,40.0845032 L89.5540013,40.0387525 C96.3610555,39.4677315 98.7820738,37.9357692 98.6754944,35.553587 L98.6613013,35.3199967 C98.5172551,33.4594491 97.6166221,31.7447197 94.1913624,26.5477658 L92.5037785,24.001687 C91.2944574,22.1657053 90.4613069,20.8195647 89.7009405,19.438366 L89.3764053,18.8354147 C84.8077628,10.146015 86.2237765,3.77823627 96.2386886,-0.396132526 C109.708395,-6.01051238 125.300411,4.06499231 134.86778,21.4349464 C144.351757,38.6535001 143.824951,55.7563586 130.913564,60.6699734 C119.24474,65.1107127 111.237593,71.0495611 108.239917,76.7698417 C105.740669,81.5390009 107.197424,85.294725 112.317386,87.0100527 L112.595172,87.0999875 C117.030969,88.4872602 121.28536,86.4314012 131.123615,79.1810067 L133.298316,77.5697712 L134.205683,76.903517 C143.599021,70.052543 148.819732,67.7546879 154.502713,69.5587167 C161.31596,71.7215418 169.632118,82.4330207 174.415345,94.5468427 L174.609915,95.0454421 C179.96039,108.920854 179.377842,120.853942 171.156319,125.977609 C165.435395,129.542899 157.579044,128.326043 147.139284,123.173711 L146.068026,122.638453 C139.413471,119.271439 133.389408,115.417392 120.428701,106.516075 L112.782264,101.255723 C101.849102,93.7744453 95.4989927,89.7683225 88.9987017,86.4580752 C82.1228149,82.9565572 74.1003879,80.7333087 65.7837232,79.6768713 L65.497,79.641 L65.4383582,79.9261916 C65.3103047,80.5180914 65.16381,81.1151192 64.9991607,81.7175231 L64.8722743,82.1703379 L64.6912751,82.790786 C63.4820519,86.8666304 62.1875975,89.8039785 58.769078,95.8650445 L58.121,97.005 L58.1795946,97.0155891 C67.0666848,98.5798681 77.6630151,102.894946 86.2831471,108.594147 L86.8548544,108.976129 C99.3831727,117.435633 105.382651,127.197372 101.140187,135.767625 C96.680734,144.776221 82.3471645,155.825664 69.0158901,160.301194 C52.66454,165.790613 40.6981044,160.91883 38.3671245,144.12449 C37.3959354,137.127227 38.3973789,130.161695 41.1259301,122.752841 L41.4368701,121.923756 C43.3289809,116.96916 45.718252,112.325846 49.7219391,105.451178 L53.252,99.432 L52.9810465,99.4164451 C52.6452555,99.3989653 52.314408,99.3872249 51.9888274,99.3813402 L51.5044472,99.3769194 C47.229241,99.3769194 41.910405,100.704672 34.5589658,103.371969 L33.3488675,103.816247 C31.8907528,104.357624 30.3818074,104.936712 28.4657035,105.68596 L22.8920293,107.853177 C14.1462474,111.2217 11.7237254,111.919911 8.32412797,112.160495 L8.17781145,112.170532 C1.78001144,112.595858 -0.447092039,108.520469 2.12542957,100.306371 C5.86016647,88.381302 19.8160183,80.1461268 38.7915625,77.1750075 C46.6068415,75.9513206 54.7699723,75.7148291 62.633522,76.4151011 L62.967,76.446 L62.9773869,76.355456 C63.5202544,70.9899635 62.1800307,66.1677138 58.6468525,61.4633608 L58.3777475,61.1107487 C57.5233011,60.0086937 56.5462806,58.9134812 55.4420761,57.8235158 C54.2683886,56.6649633 53.0763094,55.5703051 51.8676057,54.5386596 L51.457,54.192 L51.1199152,54.4329032 C44.362797,59.1728731 36.0555795,61.7491685 26.5855848,62.2692156 L25.835545,62.3060019 C16.6283514,62.703909 6.98262504,60.9945692 -0.555910069,57.9802861 L-1.22814194,57.7056986 C-8.41326739,54.7071452 -12.3981937,50.9469967 -9.7567914,47.7627146 C-5.59680296,42.7477357 5.06434016,38.6141443 16.4126159,38.3546921 C28.4850443,38.0786838 40.499633,41.8722363 51.3148031,50.2255438 L51.505,50.374 L51.823696,50.1117545 C56.184657,46.448546 59.7254624,41.6657197 62.3128853,35.7060804 L62.42,35.452 L62.1666402,35.289681 C50.3017142,27.5637897 38.6063291,14.165258 27.0660183,-4.85129765 L26.4479356,-5.87541578 L29.0201505,-7.41934275 C40.2882475,11.3535446 51.5981577,24.5404902 62.9353084,32.1965103 L63.537,32.596 L63.6070424,32.400513 C65.3691488,27.3862782 66.5280004,21.6392362 67.0189745,15.1316441 L67.0817797,14.2395284 L67.9440302,0.937796413 C70.3555466,-36.6318818 71.462736,-57.3455028 71.2513036,-60.7723965 L71.2436772,-60.881362 Z M56.6746678,99.8059229 L56.521,99.783 L53.7016065,104.596719 L52.6564156,106.374892 C48.3008939,113.821805 45.8595138,118.580493 43.941086,123.789613 C41.3724868,130.764148 40.4408862,137.243889 41.3386391,143.712057 C43.3729004,158.368586 53.3035257,162.41155 68.0611088,157.457184 C80.6878285,153.218185 94.3788437,142.664073 98.4515737,134.436701 C101.811535,127.649202 96.6070294,119.180961 85.176042,111.462409 C76.4593255,105.576615 65.4691258,101.155486 56.6746678,99.8059229 Z M132.24002,22.8823161 C123.318831,6.68552774 109.096121,-2.50513589 97.3928855,2.37295208 L96.7709906,2.64022291 C89.075692,6.05201243 88.2784263,10.4810382 92.1728605,17.7049662 L92.3290199,17.9915769 C93.0451501,19.292421 93.8442587,20.5831864 95.0167557,22.3630251 L97.1872859,25.6421681 C100.780253,31.123732 101.554951,32.7922107 101.672496,35.4195004 C101.87274,39.8951969 98.0090932,42.3400201 89.8047805,43.0282524 C81.5711156,43.7189469 73.4206323,41.7783116 65.3488104,37.2234114 L65.003,37.025 L64.9632741,37.1184401 C62.2826432,43.2140073 58.6496385,48.1701509 54.2031953,52.0254054 L53.873,52.306 L53.9494672,52.3718116 C54.9931597,53.267297 56.0243428,54.207286 57.0419301,55.1922449 L57.5495858,55.6884741 C58.7461747,56.8696326 59.8112974,58.0636053 60.7486241,59.2725582 C64.9282638,64.6634085 66.5543656,70.2812515 65.983091,76.4343428 L65.949,76.769 L66.5373344,76.8430673 C75.05761,77.9553055 83.084827,80.190857 89.7572522,83.4825967 L90.3600801,83.7847535 L91.4082148,84.3250526 C98.0436564,87.7873138 104.711632,92.0661503 116.238986,99.9886816 L124.584723,105.727097 C136.389942,113.795475 141.973372,117.278713 148.466981,120.483503 C158.062722,125.219286 164.981445,126.290915 169.569616,123.431559 C176.191609,119.304721 176.703758,108.813705 171.81081,96.1248003 C167.357,84.5747141 159.421884,74.2678072 153.595018,72.4181029 C149.191207,71.020139 144.539258,73.0802053 135.939919,79.3519911 L131.527076,82.6111981 C127.498255,85.5631841 125.410691,86.9295329 122.844346,88.2314847 C118.686404,90.3408822 115.062022,91.014774 111.699709,89.9632277 C104.562896,87.731226 102.173183,81.8834619 105.582678,75.3773327 C108.972111,68.9094864 117.5543,62.5441332 129.846528,57.8661485 C140.505781,53.8096158 140.970196,38.732311 132.24002,22.8823161 Z M61.6048169,79.2453709 C36.4316105,77.2335821 9.88871905,85.5559075 4.98831171,101.202979 L4.7975685,101.828854 C3.050617,107.733152 4.11366084,109.434095 7.97881038,109.177139 L8.38004204,109.147296 C11.6099502,108.880012 14.3585809,107.963297 25.0596883,103.795054 L28.8694052,102.309514 C30.1316437,101.820712 31.2305552,101.40264 32.3046602,101.00384 L33.5630137,100.541897 C41.2101961,97.7679859 46.7945004,96.3769194 51.5044472,96.3769194 C52.5329031,96.3769194 53.6092173,96.4323016 54.7246538,96.5398264 L54.918,96.559 L55.7870956,95.0413858 C59.3751707,88.7211691 60.6624675,85.8392026 61.8441743,81.8391115 L61.9887378,81.3425591 C62.1532213,80.7695872 62.2998034,80.2033237 62.4281744,79.6433433 L62.499,79.322 L61.6048169,79.2453709 Z M48.7239815,52.0241875 C38.660188,44.4979817 27.5945284,41.0998274 16.481186,41.3539083 C6.10226975,41.5911984 -3.58993312,45.2880288 -7.27159862,49.4719121 L-7.44779478,49.6780565 C-7.51474929,49.758772 -7.51900486,49.7855793 -7.46586063,49.9400915 C-7.34708067,50.2854338 -6.9864719,50.7646474 -6.38296145,51.3089501 C-4.97605338,52.5778327 -2.53506825,53.957988 0.557901675,55.194712 C7.7079114,58.0536431 16.9307403,59.6880404 25.7060149,59.3087995 C34.6761923,58.9211355 42.5213772,56.6368594 48.9085513,52.3130041 L49.011,52.242 L48.7239815,52.0241875 Z" fill="#F7AD01" fill-rule="nonzero" mask="url(#mask-4)"></path>
                </g>
                <polygon id="Triangle" fill="#F7AD01" transform="translate(740.148836, 580.241167) rotate(-24.000000) translate(-740.148836, -580.241167) " points="740.148836 479.741167 840.648836 680.741167 639.648836 680.741167"></polygon>
                <g id="Path-8" transform="translate(898.959048, 500.334330)">
                    <mask id="mask-6" fill="white">
                        <use xlink:href="#path-5"></use>
                    </mask>
                    <use id="Mask" fill="#FFFFFF" xlink:href="#path-5"></use>
                    <path d="M165.291519,126.431978 C146.951178,120.634267 124.064924,117.241495 106.693069,117.431123 L106.402,117.435 L106.268,117.495 C109.737152,122.693108 114.099006,127.874772 119.268697,132.885083 L119.947579,133.537617 C142.107536,154.662856 170.036339,164.152675 185.936715,153.997797 C193.688737,149.046918 194.900738,144.446503 190.758589,139.664149 C186.697308,134.975163 177.666922,130.344066 165.291519,126.431978 Z M188.899767,35.7860891 C184.051873,26.0414715 172.338274,24.9915213 155.838126,32.2815494 C139.96324,39.2953274 121.158885,53.5157857 104.321438,71.2291851 C93.8579718,82.2370029 94.6455475,98.0754161 104.136113,114.109007 L104.359,114.481 L105.060801,114.462241 L105.731,114.448 L106.670863,114.033208 L107.370944,113.72934 C128.589566,104.586105 152.103158,100.646608 167.804111,103.735123 L168.348634,103.845716 C181.493639,106.600615 190.13281,97.7301909 193.479313,80.7721259 C196.434042,65.7993279 194.429275,46.9008008 188.899767,35.7860891 Z M18.0319873,28.0215923 L9.60488808,23.9715924 C5.34886189,21.9355644 2.42769334,20.6064062 -0.227330003,19.5302134 L-1.10142566,19.1819651 C-6.97661583,16.8834619 -10.8551427,16.2491035 -13.2395389,17.2590977 C-19.158397,19.7662368 -19.0252255,30.9439116 -12.1603445,41.6428448 C-3.92258088,54.481419 10.9805333,62.904336 30.0349203,63.080238 L30.6444455,63.0830473 C51.0036453,63.0830473 71.4710776,71.2275709 83.6539155,82.4699387 C89.1515382,87.5431654 92.1484033,92.6576935 91.7412152,96.7750252 C91.2734546,101.504843 86.6751936,104.061541 78.830547,104.061541 C70.2786028,104.061541 61.0424255,101.245625 47.4229674,95.2840514 L44.3173738,93.9082839 L37.5641565,90.863809 C23.9174037,84.7353462 18.4814827,82.6767211 11.9423266,81.5045823 L11.6869757,81.4593561 C2.46727368,79.8458968 -3.96910389,81.9794658 -8.36825779,88.8303227 C-11.8333687,94.2265828 -10.556954,98.9115711 -4.81490108,103.260502 C0.67434717,107.417963 9.99554738,110.956259 21.9184666,113.564683 C44.2971247,118.460551 73.0879711,119.437135 90.6059955,115.981906 L91.2657823,115.848563 C93.8935847,115.304465 96.8693206,114.922159 100.11311,114.692004 L100.969,114.635 L100.914662,114.539839 C91.5186633,98.0363307 90.8312475,81.5633006 101.668576,69.6762351 L102.147035,69.1623098 C119.238281,51.1819084 138.352184,36.7273596 154.625737,29.5374445 C172.402635,21.6833275 185.833384,22.8871948 191.585735,34.4498346 C197.424314,46.1858 199.500373,65.7563862 196.422551,81.3529441 C192.828807,99.563881 183.05331,109.746258 168.185371,106.872995 L167.73327,106.781925 C153.938121,103.890771 133.226117,106.883361 113.711667,114.385066 L113.356,114.523 L113.971208,114.545559 C130.207941,115.184237 149.42952,118.362971 165.436009,123.333459 L166.195768,123.5715 C179.058746,127.637719 188.508261,132.48376 193.026256,137.70005 C198.482974,144.000151 196.726745,150.666301 187.551465,156.526153 C170.183613,167.618243 140.91891,157.674505 117.877559,135.709026 C112.409141,130.495946 107.769156,125.066999 104.061316,119.589951 L103.519,118.777 L103.239261,118.911434 C83.5462759,128.419824 69.3714942,141.338446 64.8721505,155.244392 L64.7273311,155.703184 C57.6586828,178.671706 44.8995,191.158007 26.5510955,192.855512 L25.9933725,192.903648 L25.7537162,189.913236 C42.8807865,188.540646 54.8138822,177.165434 61.6543164,155.481025 L61.8600436,154.820766 C66.1777014,140.791179 79.4260817,127.955699 97.9372823,118.223387 L98.73,117.81 L98.7198265,117.81101 C96.4427004,118.016509 94.3234709,118.305386 92.3951822,118.681508 L91.8740442,118.786252 C73.9843373,122.490398 44.3279108,121.53824 21.2773089,116.495369 L19.8412489,116.174004 C8.21335442,113.512619 -0.952276076,109.949317 -6.62618055,105.652001 C-13.53419,100.419995 -15.2743124,94.0330006 -10.8926256,87.2093455 C-5.77338839,79.2370939 1.88507696,76.6984199 12.2041202,78.5042654 L12.7323699,78.5988644 C19.4791173,79.8351996 25.0569318,81.9579604 38.783697,88.1227831 L46.2646391,91.4924296 C46.9727977,91.8080765 47.6354831,92.1012837 48.2957884,92.3910953 L50.0059867,93.1354576 C62.5122974,98.5281439 71.0932981,101.061541 78.830547,101.061541 C85.3247581,101.061541 88.4759364,99.3094412 88.7557792,96.4797771 C89.0473657,93.5313644 86.4930099,89.1720341 81.6194004,84.6746493 C70.1181797,74.0612803 50.6906709,66.26197 31.3126224,66.0860835 L30.6444455,66.0830473 C10.2653371,66.0830473 -5.81401764,57.0888211 -14.6852751,43.2629454 C-22.4085747,31.2261645 -22.566725,17.9519142 -14.409649,14.4966998 C-10.9301507,13.0228368 -6.17291503,13.8831323 0.899634176,16.7499343 L1.93504893,17.1765798 C4.15399705,18.1054319 6.61103104,19.2247255 9.85005455,20.7647464 L19.3196831,25.3120068 C20.353088,25.8041596 21.3017082,26.2520099 22.2481443,26.6942515 L23.9275016,27.4729626 C40.5809924,35.1339457 53.0776783,39.0131349 65.5259638,39.2943349 C71.7221508,39.4343034 77.5755063,38.5846626 83.1171601,36.6511673 C107.825503,28.0303717 111.693284,7.37781201 94.4414832,-26.282789 L93.9122365,-27.3067898 L96.5726573,-28.6932102 C115.173179,6.99958304 111.113295,30.0606104 84.1054407,39.4837106 C78.2119278,41.5399703 72.0018736,42.4413875 65.4582128,42.2935698 C52.2907641,41.9961243 39.2534434,37.8876875 21.8381785,29.8125104 L19.3276027,28.6363887 C18.90688,28.4375254 18.4771866,28.2336135 18.0319873,28.0215923 Z" fill="#7C00D9" fill-rule="nonzero" mask="url(#mask-6)"></path>
                </g>
                <rect id="Rectangle" fill="#DD63B1" transform="translate(275.000000, 585.000000) rotate(31.000000) translate(-275.000000, -585.000000) " x="201" y="511" width="148" height="148"></rect>
                <g id="man" transform="translate(485.215605, 0.138688)">
                    <path d="M208.360039,105.369585 C197.881027,120.707492 191.255522,130.68764 188.483525,135.31003 C185.711528,139.932419 182.170648,145.620759 177.860886,152.375049 C146.81308,132.41188 123.260198,122.430296 107.202243,122.430296 C83.115309,122.430296 60.2944457,146.940928 61.6229936,148.98761 C62.9515416,151.034292 94.0036572,139.998727 94.0036572,139.998727 C94.0036572,139.998727 64.2528005,154.963948 64.2528005,158.353514 C64.2528005,160.613225 76.6068602,157.491257 101.31498,148.98761 C85.5021471,157.585111 78.1283469,163.254779 79.193579,165.996615 C80.2588112,168.738451 92.8544034,165.304334 116.980356,155.694264 C150.373109,185.666306 172.451661,199.881769 183.216012,198.340654 C193.980362,196.799538 209.350824,180.657321 229.327398,149.914003" id="Path-6" stroke="#FFFFFF" stroke-width="3" stroke-linecap="round" stroke-linejoin="round"></path>
                    <path d="M330.812663,87.9304186 C371.469104,100.742887 394.431918,112.177257 399.701107,122.233527 C404.970296,132.289797 410.154027,151.850571 415.252299,180.915849 C436.536835,182.563249 447.179102,184.469895 447.179102,186.635787 C447.179102,188.801679 438.561733,190.9951 421.326995,193.216049 C441.099619,193.674219 450.985931,194.974759 450.985931,197.117671 C450.985931,199.260583 440.622299,200.80912 419.895036,201.76328 C435.111817,203.1488 442.720208,204.754548 442.720208,206.580524 C442.720208,209.319487 405.35749,216.99993 398.128393,212.550372 C390.899297,208.100813 376.750261,179.528358 372.279877,163.38907 C369.299621,152.629545 367.659881,146.471785 367.360659,144.91579 L320.86938,130.448262" id="Path-4" stroke="#FFFFFF" stroke-width="3" stroke-linecap="round" stroke-linejoin="round"></path>
                    <circle id="Oval" fill="#DD63B1" cx="258.784395" cy="40.8613123" r="26"></circle>
                    <rect id="Rectangle" fill="#7C00D9" transform="translate(270.543810, 114.411118) rotate(-11.000000) translate(-270.543810, -114.411118) " x="202.54381" y="79.4111177" width="136" height="70" rx="35"></rect>
                    <ellipse id="Oval" fill="#131313" cx="251.784395" cy="43.3613123" rx="3" ry="4.5"></ellipse>
                    <ellipse id="Oval-Copy" fill="#131313" cx="241.284395" cy="41.8613123" rx="2.5" ry="4"></ellipse>
                    <path d="M240.42022,51.8739261 C244.125968,50.5321836 245.978842,48.527979 245.978842,45.8613123" id="Path-2" stroke="#131313" stroke-width="2" stroke-linecap="round"></path>
                    <path d="M289.489936,36.7209924 C289.489936,36.7209924 282.357123,38.2336076 268.091496,41.258838 L268.091496,26.0719882 C259.16508,27.6696681 251.614956,27.0828863 245.441124,24.3116426 C236.180375,20.1547771 231.987563,6.88831058 241.284395,1.86131232 C247.482283,-1.49001985 253.284309,-0.315743719 258.690474,5.38414072 C261.059773,2.55516284 263.437633,1.91975689 265.824055,3.47792287 C268.210477,5.03608886 269.946565,7.26434524 271.03232,10.162692 C278.855201,8.97266416 284.737508,11.0333156 288.679242,16.3446464 C294.591843,24.3116426 289.489936,36.7209924 289.489936,36.7209924 Z" id="Path-3" fill="#7C00D9"></path>
                    <circle id="Oval" fill="#DD63B1" cx="285.784395" cy="42.8613123" r="10"></circle>
                    <path d="M108.611222,128.376445 C106.14084,138.347018 105.31738,143.80771 106.14084,144.758519 C106.964301,145.709329 112.13319,141.984846 121.647509,133.585072" id="Path-5" stroke="#FFFFFF" stroke-width="3" stroke-linecap="round" stroke-linejoin="round"></path>
                    <g id="Path-11" transform="translate(65.371909, 184.633923)">
                        <mask id="mask-8" fill="white">
                            <use xlink:href="#path-7"></use>
                        </mask>
                        <use id="Mask" fill="#F7AD01" xlink:href="#path-7"></use>
                        <path d="M297.150348,-16.6729595 L298.907982,-9.1251158 C309.709242,37.2589342 307.503787,67.8633081 291.966398,82.67435 L291.491487,83.1183352 C284.21336,89.7910842 276.997912,102.532592 271.824747,116.720412 L271.654,117.19 L271.849604,117.533603 C274.806526,122.800679 277.458727,128.819609 279.7387,135.418779 L280.021753,136.246685 C282.76895,144.366985 282.561589,155.936422 279.418993,170.989789 L279.185,172.087 L279.270696,172.069152 C285.652941,170.673215 291.672751,166.861569 297.781075,160.679878 L298.22819,160.22333 L299.085118,159.327793 C303.533282,154.611675 307.609488,149.219322 313.643055,140.396176 L319.796149,131.315835 C320.281582,130.603469 320.731635,129.946426 321.174719,129.303432 L321.982961,128.136282 C332.407908,113.158284 339.667222,105.758604 348.457868,103.075481 C359.214199,99.7923811 366.638556,100.342058 371.796215,104.356231 C374.786229,106.683339 376.554003,109.319793 378.619773,114.348449 L378.864,114.953 L378.90933,114.935573 C385.463488,112.415056 392.987728,112.861591 400.206202,115.990391 L400.599626,116.163711 C411.599815,121.088035 417.861771,130.697417 412.88197,137.604614 C408.275657,143.993767 401.265597,144.918729 393.990414,141.160763 C387.713889,137.918649 381.940736,131.465772 379.356457,124.872069 L378.876791,123.619788 C378.740816,123.256484 378.597802,122.867689 378.435852,122.421856 L377.449487,119.681849 L377.219,119.053 L377.16897,119.081202 C374.718903,120.476453 372.482202,122.407809 370.554904,124.896228 L369.301562,126.550342 C367.398645,129.040723 365.133186,131.876554 362.219294,135.431641 L358.147065,140.358903 C355.256342,143.835619 349.218886,151.095172 346.888378,153.926872 L346.189,154.777 L346.255619,154.774645 C368.529771,153.999317 393.210605,161.463797 398.230174,175.116516 L398.464666,175.8043 C401.959998,186.919282 386.538688,197.86975 362.526814,205.078034 C340.229238,211.771691 319.181447,212.600795 315.228259,205.384793 C311.151558,197.943334 319.104237,183.851122 337.683623,160.517649 L339.468,158.288 L339.217842,158.317057 C328.79018,159.588262 319.655721,162.921832 314.742392,168.603676 L314.280185,169.160873 L313.490586,170.146126 C303.075705,183.040414 286.806951,199.288377 264.673521,218.909389 L259.162162,223.784457 L261.428874,217.995203 C267.749885,201.851139 272.354631,187.786338 275.252014,175.81683 L275.324,175.513 L275.021185,175.505939 C269.202511,175.289333 265.129748,171.766623 263.036832,165.521197 L262.920481,165.164778 C260.791998,158.469675 260.88331,148.823994 262.955645,137.628749 C264.172258,131.056319 265.990719,124.32298 268.244038,117.828354 L268.356,117.507 L268.057562,117.005379 C259.726003,103.161255 249.255166,95.6514729 238.487616,98.2042159 L238.025974,98.3197907 C226.368554,101.393274 217.495214,113.09298 211.516084,133.634978 L211.328232,134.286612 L210.22105,138.164465 L208.524978,134.505649 C196.873266,109.370242 185.924615,93.4711159 175.793879,86.6340628 L175.427,86.391 L174.966085,87.2739029 C171.480739,93.8830368 167.057817,101.029593 161.675178,108.689634 L160.935231,109.737366 C154.714155,118.502338 146.991074,125.998957 138.025188,132.246491 L137.128,132.864 L137.099886,133.051131 C136.615032,136.317196 136.225534,139.609463 135.938438,142.882401 L135.924,143.05 C145.409723,148.824292 151.845469,156.466187 155.188527,165.154067 L155.377964,165.656445 C158.619083,174.430345 158.37176,183.727138 155.212307,189.837822 C151.868527,196.305014 145.931188,197.522854 141.068726,191.819866 C133.725693,183.207514 131.376537,164.86825 132.717875,145.488983 L132.777,144.683 L132.375504,144.457626 C131.430847,143.934345 130.456322,143.428985 129.451904,142.942329 L128.845666,142.652586 C127.424911,141.98281 125.952001,141.3523 124.426738,140.761846 L123.913,140.565 L123.786395,140.629191 C118.813536,143.088283 113.572495,145.249012 108.093882,147.113654 L107.270312,147.39113 C88.7910246,153.554052 68.3777979,156.024691 50.8651894,154.961265 L49.7093578,154.88567 C37.6719878,154.041212 28.7789291,151.604544 25.881771,148.037615 L25.706,147.809 L24.3992348,149.630706 C19.5598323,156.384681 14.6047471,163.448991 9.53418878,170.823548 L8.09,172.927 L9.17443073,172.490977 C44.9286082,158.20261 74.0865166,156.181022 96.6171517,166.537388 L97.3339644,166.872113 C113.661626,174.616571 128.291125,188.557043 137.797236,203.980999 L138.319578,204.838823 C146.728145,218.818271 149.092254,231.197807 142.996946,234.952978 C137.718805,238.204712 118.301763,234.404499 92.0272322,226.056367 L90.4100811,225.539596 C66.1463216,217.742047 42.4807212,208.037411 33.6015458,202.074303 L33.3370205,201.894754 C25.4795122,196.502907 17.7406903,195.203843 10.9669719,197.518121 C4.94236954,199.57646 0.0421275007,204.452284 -2.41153788,210.585308 C-3.08555374,212.270035 0.681735793,214.724112 9.34194816,217.582301 L10.2242959,217.869453 C13.7463202,218.999994 17.83784,220.157382 23.4746214,221.642348 L42.510845,226.579599 L45.5270096,227.38787 C58.0042408,230.770204 66.9438177,233.682493 74.1396584,236.931938 C83.9201806,241.348554 89.6196112,246.115585 90.7251975,251.766743 C91.6364875,256.424763 91.2328223,259.160544 89.1543176,260.513726 C87.6555578,261.489473 86.5265561,261.512318 82.3415199,261.055225 L81.9856193,261.016033 C77.6137086,260.531038 75.1347931,260.592635 72.4031938,261.611348 C64.9895636,264.376159 59.7121577,274.254412 57.1657077,294.978603 L57.01322,296.261014 L54.0328687,295.918223 L54.192739,294.575824 C56.8676634,272.872334 62.662757,262.042077 71.3549111,258.800458 C74.4220779,257.6566 77.1111524,257.51615 81.348493,257.932756 L83.2449535,258.134231 C86.0342218,258.422912 86.9192511,258.389082 87.5175218,257.999586 C88.2415211,257.528236 88.4796967,255.914036 87.7810122,252.34274 C86.1865146,244.192533 72.060568,237.665039 44.0539443,230.097785 L40.2558066,229.088971 L24.6556309,225.052936 C17.9477786,223.30498 13.2864047,222.00313 9.3073992,220.725902 L7.96869863,220.288322 C-2.34911318,216.851258 -6.90760249,213.746928 -5.19689659,209.470958 C-2.42730632,202.548268 3.11966751,197.028935 9.99705201,194.679239 C17.5661434,192.093217 26.1157011,193.460714 34.5810156,199.114166 L35.034428,199.421132 C43.3877027,205.153175 67.0851441,214.892644 91.3279469,222.683458 L92.8676411,223.175346 C117.902242,231.125429 137.29816,234.940235 141.423374,232.398791 C145.536846,229.864581 143.25005,218.546176 135.243329,205.555026 C126.026503,190.600443 111.820778,177.063786 96.0483086,169.582665 C73.3604936,158.821489 43.2672878,161.30033 5.73247175,177.149063 L4.59277523,177.633421 L-0.121267016,179.64973 L2.76267084,175.410555 C53.6183126,100.656542 93.2425307,56.1306267 121.835694,41.747552 C144.352708,30.4209317 167.161817,28.7410389 178.055617,38.654625 C187.24038,47.0129523 187.213023,62.02486 177.197432,82.8512345 L176.793,83.682 L177.211585,83.9552015 C187.284853,90.6514151 197.734932,105.299705 208.649077,127.767721 L209.579,129.7 L209.614913,129.589042 C215.789737,110.302096 224.843701,98.8880055 236.868008,95.5257051 L237.261158,95.418919 C249.216642,92.2668511 260.41314,99.5414266 269.296088,113.290617 L269.676,113.887 L269.697015,113.831401 C274.883875,100.194092 281.900442,88.025791 289.114893,81.2315855 L289.464127,80.9070442 C303.491509,68.0464285 306.352827,40.9618631 297.769691,-0.358341547 L297.63,-1.019 L297.596888,-0.838284216 C290.18818,37.8168895 274.655491,57.6011715 250.90667,58.0177389 L250.137729,58.0244581 C224.501085,58.0244581 211.748911,33.8902547 211.605472,-13.5585058 L211.604984,-15.0034825 L214.604976,-14.9965175 C214.495944,31.9657115 226.43492,55.0244581 250.137729,55.0244581 C273.771049,55.0244581 289.016491,34.3047541 295.762893,-7.73397329 L295.964727,-9.0144003 L297.150348,-16.6729595 Z M369.953633,106.723696 C365.679653,103.397285 359.24165,102.920634 349.333655,105.944801 C341.40805,108.363892 334.481287,115.431255 324.434275,129.865953 L322.975676,131.97995 L316.499277,141.533392 C309.772767,151.395753 305.419433,157.122294 300.380787,162.312906 C293.420936,169.482667 286.456758,173.836653 278.867661,175.208351 L278.466,175.276 L278.259139,176.151822 C275.758058,186.580538 271.984027,198.522953 266.942569,211.989015 L266.445,213.31 L268.5849,211.387293 C287.591789,194.236556 301.773885,179.870221 311.123115,168.302767 L311.931902,167.293905 C317.661261,160.087483 329.09056,156.138651 341.839416,155.040183 L342.117,155.018 L343.767557,152.999852 L347.488823,148.493805 C351.351916,143.834489 356.797916,137.291459 357.373245,136.596061 L359.89203,133.538489 C363.313183,129.364624 365.829281,126.195549 367.904161,123.425457 C370.144033,120.435091 372.771478,118.129461 375.657083,116.479679 L376.135,116.213 L376.05207,116.003807 C374.141251,111.260969 372.598567,108.843301 370.144246,106.874304 L369.953633,106.723696 Z M395.602836,176.704261 C391.512111,163.695961 366.236813,156.615203 344.352126,157.861714 L343.634,157.907 L342.343802,159.501144 L341.17493,160.954181 L339.559544,162.979795 C322.440267,184.567183 314.744003,198.256849 317.859307,203.94341 C320.76257,209.242917 340.855504,208.451426 361.664252,202.20471 C384.089392,195.472759 398.325935,185.363578 395.602836,176.704261 Z M135.668,146.431 L135.626294,147.076231 C134.522983,165.172281 136.692,182.062682 143.351594,189.873455 C146.735062,193.84179 150.124269,193.146612 152.547432,188.459982 C155.300771,183.134761 155.524851,174.711648 152.563834,166.695998 C149.719937,158.997399 144.261664,152.134722 136.167516,146.758632 L135.668,146.431 Z M270.328,121.037 L270.226947,121.348717 C268.415281,126.904764 266.937266,132.601124 265.905532,138.174798 C263.914925,148.928527 263.827938,158.117326 265.779478,164.255856 C267.536321,169.781976 270.796455,172.59303 275.798392,172.515791 L276.02,172.509 L276.051284,172.373404 C279.428686,157.147355 279.845863,145.558685 277.323152,137.644016 L277.179977,137.208093 C275.217962,131.408673 272.96924,126.082369 270.491009,121.344918 L270.328,121.037 Z M119.693692,139.111444 C106.264854,134.91392 89.2698831,133.488273 68.5979055,135.276512 L67.561242,135.368605 C42.4506283,137.657517 28.6275751,141.710507 27.8907089,145.221913 C27.3584507,147.758296 36.8971187,151.10755 51.0470248,151.966781 C68.186391,153.007542 88.2162463,150.583303 106.321191,144.545226 C110.527432,143.142427 114.589811,141.563808 118.494246,139.808538 L119.884,139.172 L119.693692,139.111444 Z M133.784,135.05 L133.13514,135.45516 C131.659528,136.366497 130.154417,137.247129 128.620809,138.097132 L127.438,138.742 L127.905518,138.940795 C128.469922,139.182811 129.027155,139.430496 129.577226,139.683812 L130.12491,139.939003 C130.943952,140.325118 131.745044,140.723249 132.528162,141.13302 L133.054,141.411 L133.081404,141.114763 C133.270162,139.166122 133.494847,137.213597 133.754157,135.265874 L133.784,135.05 Z M399.373867,118.90187 C392.803063,115.960396 386.020958,115.475149 380.137394,117.688309 L379.942,117.763 L380.264206,118.643622 L381.344888,121.642858 C381.648778,122.475634 381.886001,123.104813 382.149591,123.777353 C384.46959,129.696755 389.741562,135.589443 395.36722,138.495354 C401.422581,141.623226 406.797662,140.913996 410.448473,135.850164 C413.974695,130.959144 408.895059,123.164109 399.373867,118.90187 Z M176.036469,40.8734178 C166.293986,32.0075549 144.715026,33.5968472 123.183816,44.4275829 C100.51543,55.8303471 70.3709805,87.0305396 32.8569522,137.982851 L32.31,138.726 L32.639958,138.599308 C39.4843546,135.993164 50.8169958,133.917532 66.4883257,132.454836 L67.2889115,132.380991 C90.1633267,130.295915 108.772128,132.049871 123.23715,137.126305 L123.727,137.3 L124.267369,137.024094 C127.691321,135.255074 130.977095,133.337797 134.113902,131.271625 L134.362,131.106 L134.395482,130.895265 C138.199259,107.183754 147.052114,85.1705374 158.558084,80.8244655 L159.265826,80.58059 C164.00238,79.1048346 168.816988,79.565044 173.719973,81.9455581 L174.203,82.187 L174.238455,82.1159242 C183.825508,62.4838619 184.127603,48.6316441 176.369087,41.1842817 L176.036469,40.8734178 Z M172.549474,84.7402469 C168.261925,82.6349733 164.128446,82.2077959 160.158217,83.4447894 C150.083985,86.5835907 141.994886,105.857909 138.023161,127.486325 L137.801,128.723 L138.064006,128.533024 C145.796649,122.891532 152.513712,116.263705 158.031755,108.638706 L158.488812,108.000981 C164.26937,99.8566626 168.933829,92.3446031 172.529479,85.4889427 L172.842,84.888 L172.549474,84.7402469 Z" fill="#7C00D9" fill-rule="nonzero" mask="url(#mask-8)"></path>
                    </g>
                    <ellipse id="Oval" fill="#7C00D9" transform="translate(96.132236, 446.841289) rotate(-45.000000) translate(-96.132236, -446.841289) " cx="96.1322355" cy="446.841289" rx="13" ry="43"></ellipse>
                    <path d="M120.894953,456.354848 C96.522541,496.16731 82.1713151,516.073541 77.8412755,516.073541 C71.3462162,516.073541 -3.66151675,425.777323 8.28712752,413.182894 C12.8463284,408.377283 27.191702,418.694161 51.3232484,444.133528 L51.3232484,453.269487 L54.2349974,446.841289 L60.2217292,450.129608 L61.4895086,459.600992 L63.9474766,453.269487 L69.5230903,456.354848 L70.9119186,466.861312 L74.2726429,459.600992 L81.0218125,466.861312 L100.776809,432.861312 L111.566795,444.133528 L120.894953,456.354848 Z" id="Path-9" fill="#DD63B1"></path>
                    <ellipse id="Oval" fill="#7C00D9" transform="translate(43.941744, 467.419591) rotate(-37.000000) translate(-43.941744, -467.419591) " cx="43.9417443" cy="467.419591" rx="9" ry="60.5"></ellipse>
                    <polygon id="Path-10" fill="#DD63B1" points="462.40566 295.899427 512.216395 281.503278 532.303827 407.251722 497.354744 344.3775 502.41878 331.204649 495.382451 339.316173 491.715698 332.651318 497.354744 318.393698 489.034123 327.81984 482.894748 318.393698 470.375315 321.361312"></polygon>
                </g>
            </g>
        </g>
    </g>
</svg>