<?xml version="1.0" encoding="UTF-8"?>
<svg width="429px" height="779px" viewBox="0 0 429 779" version="1.1" xmlns="http://www.w3.org/2000/svg" xmlns:xlink="http://www.w3.org/1999/xlink">
    <title>illustration-1</title>
    <defs>
        <circle id="path-1" cx="32.5" cy="32.5" r="32.5"></circle>
        <path d="M192.745693,3.25307869 C165.745693,-4.60980069 15.865837,-0.568890687 2.35606112,41.9157159 C-6.65045612,70.238787 10.1649436,125.543865 52.8022602,207.83095 C68.0057675,213.958757 81.2016863,215.001994 92.3900165,210.960662 C103.578347,206.91933 112.257508,198.706315 118.427499,186.321615 L81.010166,82.9639201 C130.132867,79.0002088 156.369463,77.7089232 159.719955,79.0900631 C164.745693,81.161773 224.188479,185.681245 224.188479,194.302191 C224.188479,200.049488 218.936435,241.826651 208.432347,319.633679 C217.256625,335.836973 228.536496,343.93862 242.271963,343.93862 C256.007429,343.93862 268.594195,341.709559 280.032261,337.251439 C302.288272,249.918611 309.713692,194.824568 302.308521,171.96931 C291.200764,137.686422 248.449126,44.9239349 236.318802,32.577202 C224.188479,20.2304691 219.745693,11.1159581 192.745693,3.25307869 Z" id="path-3"></path>
    </defs>
    <g id="Desktop" stroke="none" stroke-width="1" fill="none" fill-rule="evenodd">
        <g id="Desktop-Intersoft-Screen-3" transform="translate(-1143.000000, -73.000000)">
            <g id="illustration-1" transform="translate(1143.000000, 73.000000)">
                <polygon id="Triangle" fill="#F7AD01" transform="translate(110.126286, 668.037536) rotate(-27.000000) translate(-110.126286, -668.037536) " points="110.126286 595.037536 196.126286 741.037536 24.1262865 741.037536"></polygon>
                <circle id="Oval" fill="#E73D11" cx="403" cy="170" r="22"></circle>
                <circle id="Oval" fill="#DD63B1" cx="36.5" cy="487.5" r="18.5"></circle>
                <polygon id="Triangle" fill="#DD63B1" transform="translate(184.703686, 68.605429) rotate(63.000000) translate(-184.703686, -68.605429) " points="184.703686 17.6054286 235.703686 119.605429 133.703686 119.605429"></polygon>
                <path d="M314.5,550 C377.736604,550 429,601.263396 429,664.5 C429,727.736604 377.736604,779 314.5,779 C251.263396,779 200,727.736604 200,664.5 C200,601.263396 251.263396,550 314.5,550 Z M314.5,600 C278.877634,600 250,628.877634 250,664.5 C250,700.122366 278.877634,729 314.5,729 C350.122366,729 379,700.122366 379,664.5 C379,628.877634 350.122366,600 314.5,600 Z" id="Oval" fill="#CF6DAB" fill-rule="nonzero"></path>
                <circle id="Oval" fill="#FFFFFF" cx="209" cy="613" r="32"></circle>
                <g id="Oval-Copy-10" transform="translate(237.000000, 122.000000)">
                    <mask id="mask-2" fill="white">
                        <use xlink:href="#path-1"></use>
                    </mask>
                    <use id="Mask" fill="#DD63B1" xlink:href="#path-1"></use>
                    <circle fill="#131313" mask="url(#mask-2)" cx="43.5" cy="2.5" r="32.5"></circle>
                </g>
                <path d="M156.351749,522.2088 C156.351749,522.2088 163.378186,538.761485 177.43106,571.866855 L59.2543072,610 L103.610864,576.036916 L123.18938,576.036916 L109.823217,571.866855 L116.555628,566.1044 L133.886678,568.4882 L120.795989,563.545906 L126.3582,559.228854 L144.673448,559.228854 L129.955013,555.984409 L140.547059,549 L129.955013,526.95482 C147.552837,523.790807 156.351749,522.2088 156.351749,522.2088 Z" id="Path-14" fill="#E73D11"></path>
                <path d="M363.011305,659.681108 C363.011305,659.681108 370.037742,676.233792 384.090616,709.339162 L265.913863,747.472307 L310.27042,713.509223 L329.848936,713.509223 L316.482772,709.339162 L323.215184,703.576707 L340.546234,705.960508 L327.455544,701.018213 L333.017756,696.701162 L351.333004,696.701162 L336.614568,693.456716 L347.206614,686.472307 L336.614568,664.427128 C354.212393,661.263114 363.011305,659.681108 363.011305,659.681108 Z" id="Path-14-Copy" fill="#E73D11" transform="translate(325.002239, 703.576707) scale(-1, 1) rotate(-5.000000) translate(-325.002239, -703.576707) "></path>
                <g id="Path-13" transform="translate(59.254307, 321.192119)">
                    <mask id="mask-4" fill="white">
                        <use xlink:href="#path-3"></use>
                    </mask>
                    <use id="Mask" fill="#F7AD01" xlink:href="#path-3"></use>
                    <path d="M235.174574,18.1259069 L237.912682,19.3517816 C223.040758,52.5696303 221.983493,71.8268005 233.886573,77.4516837 C238.314564,79.5441616 243.100735,80.2861378 248.910895,80.0297092 L249.515626,79.999635 C251.976274,79.8637225 254.113542,79.6238311 257.863062,79.0900604 L261.78431,78.5236856 C268.831518,77.5262723 272.071833,77.2990999 276.081035,77.6966592 C281.988332,78.2824368 286.866806,80.5131924 291.035136,84.9173467 C298.974516,93.3058974 294.791977,107.305202 282.590659,118.135914 C269.761688,129.523773 252.051013,134.160545 236.038698,128.436416 C228.05226,125.581401 222.939288,118.963529 220.02767,108.923141 C217.78955,101.205236 216.891099,92.1315988 216.635916,78.8902597 L216.567893,74.0046968 L216.488333,64.349897 C216.355422,52.8576333 216.021117,47.3918691 214.980518,42.0291571 L214.927898,41.7610799 C213.406699,34.0986105 210.600495,30.0644948 205.971355,29.2871705 C193.317443,27.1623276 172.605256,36.4313184 158.799151,51.4311369 C142.050717,69.6276876 137.344969,92.7460865 148.912537,117.375978 L149.334493,118.266693 C156.113022,132.450136 160.807429,136.160565 164.355049,132.921017 L164.589899,132.699349 C167.545232,129.817363 169.782149,124.075382 173.579165,110.848289 L175.501899,104.053235 C177.959499,95.4061066 179.322782,91.2022644 181.128426,87.0761866 C183.91027,80.7193919 186.910735,77.3078813 190.771607,77.3078813 C209.59464,77.3078813 218.307411,143.817004 204.106485,174.438948 C201.022134,181.089838 200.461975,185.386004 201.801232,187.329919 C202.841804,188.840295 205.470111,189.145148 209.268677,188.052904 C217.089328,185.804146 226.496463,178.651434 228.233435,173.61074 L228.309202,173.376032 C230.196472,167.09828 237.850141,159.881002 246.030393,156.491629 C255.634896,152.512138 263.922246,154.48712 267.394418,163.451107 C268.819103,167.129167 269.063203,171.97845 268.367924,178.388385 L268.155472,180.195177 C267.682315,183.974447 267.078488,187.296395 265.533551,194.910337 L264.103679,201.932123 C263.929958,202.797072 263.774345,203.582692 263.620198,204.37322 L263.37161,205.664538 C259.402067,226.561615 259.893261,237.961414 267.003254,244.408233 C274.536408,251.238743 283.048788,250.871553 289.230245,244.849718 C295.146048,239.086676 296.766734,230.105525 292.485368,223.47156 C281.404558,206.301877 280.73694,185.343323 292.969357,177.944289 C297.040811,175.481585 302.794238,181.180752 309.394466,192.356546 C315.621893,202.901099 321.82258,217.254018 326.211364,231.641667 C337.396141,268.308457 335.256664,296.749098 315.257318,304.977438 C295.19718,313.230789 279.120515,312.606495 267.683009,304.645071 C258.503082,298.255104 253.020778,287.346314 252.279132,276.284854 L252.247844,275.766253 C251.803913,267.486087 239.629267,257.23461 225.14465,252.475421 C209.670003,247.39094 197.883435,250.330436 195.647474,261.637769 C194.451555,267.685575 197.165042,273.612684 203.54948,279.873654 C208.422845,284.652774 214.658089,289.077751 224.826419,295.331182 L236.309929,302.298228 L238.050798,303.370688 C240.846522,305.103923 243.133361,306.579712 245.207325,308.001289 C251.428822,312.265746 255.471118,315.893963 257.631069,319.486915 C258.788174,321.411692 259.392502,323.326731 259.392502,325.244624 C259.392502,343.362966 241.082895,360.952589 224.642795,361.30257 L224.145203,361.307881 L224.145203,358.307881 C239.087199,358.307881 256.392502,341.854316 256.392502,325.244624 C256.392502,323.911771 255.952441,322.517274 255.059911,321.032601 C253.178176,317.902446 249.404295,314.515148 243.511203,310.475793 L242.685729,309.914802 C240.589298,308.501936 238.234397,307.002323 235.331043,305.21734 L225.102409,299.016791 L223.848619,298.251128 C213.144686,291.691847 206.622906,287.089461 201.448972,282.015585 C194.413888,275.11655 191.278372,268.267598 192.704463,261.055805 C195.387872,247.485709 209.134817,244.057309 226.081102,249.625324 C241.454565,254.676559 254.450828,265.540131 255.223711,275.307006 L255.243542,275.605642 C255.799118,285.96821 260.881761,296.25562 269.396913,302.18285 C279.924914,309.511185 294.936345,310.094114 314.115862,302.203077 C332.083481,294.810652 334.113246,267.828433 323.341895,232.516966 C319.020534,218.350349 312.914115,204.215634 306.811317,193.882109 C301.19829,184.377887 296.243589,179.469913 294.522028,180.511235 C284.111734,186.80812 284.720107,205.906818 295.006018,221.844807 C300.110132,229.753618 298.208528,240.291499 291.323639,246.998602 C284.030073,254.103828 273.720489,254.548542 264.988114,246.630666 C260.370066,242.44336 258.191625,236.214428 257.93605,227.960539 C257.739658,221.617963 258.60344,214.552035 260.532596,204.53715 L261.161912,201.343883 L262.577031,194.373291 C266.112738,176.736974 266.723041,170.195949 264.664286,164.711269 L264.596949,164.534698 C261.83049,157.392626 255.394827,155.858924 247.178733,159.263148 C239.898268,162.279707 233.030715,168.686962 231.272965,173.953617 L231.182184,174.239731 C229.321349,180.42955 218.925463,188.39774 210.097709,190.936081 C199.195545,194.0709 194.748849,187.806168 201.186485,173.609444 L201.384901,173.176814 C207.804821,159.333321 209.705853,136.591933 206.901122,115.181963 L206.733935,113.948369 C203.929295,93.9292234 197.524627,80.3078813 190.771607,80.3078813 C188.525057,80.3078813 186.216256,82.9329741 183.876779,88.2789141 L183.568378,88.9954079 C182.112288,92.4360274 180.883443,96.1881276 178.940703,102.938967 L176.444053,111.74344 C172.349343,126.020416 170.042679,131.789902 166.377999,135.136344 C160.487972,140.514886 153.961984,135.184427 146.197106,118.651296 C134.085334,92.8626731 139.053727,68.4539514 156.591818,49.3994676 C171.029429,33.7135405 192.6984,24.0163762 206.468159,26.3285921 C212.501634,27.3417322 216.011362,32.255137 217.779039,40.7276944 L217.870471,41.176903 C219.072408,47.2312138 219.39293,53.1357778 219.512028,66.6742668 L219.58791,75.8294509 C219.597315,76.5760774 219.607964,77.2825138 219.620931,78.039366 L219.650986,79.5993208 C219.921166,92.1774906 220.805531,100.83414 222.908964,108.087592 C225.575396,117.282482 230.087929,123.123189 237.048559,125.611495 C251.952034,130.939233 268.540641,126.596225 280.599099,115.892326 C291.699788,106.038607 295.345552,93.8359299 288.856284,86.9795307 C285.205182,83.1218675 281.000449,81.1991902 275.785002,80.6820176 L275.271681,80.634588 C271.614965,80.3221772 268.36569,80.6035583 261.178808,81.6408076 L258.263989,82.0632483 C254.442979,82.6070235 252.244701,82.8534688 249.681077,82.9950692 C243.136743,83.356542 237.690226,82.5672265 232.604812,80.164079 C218.681625,73.5845805 219.661039,53.1436292 234.714114,19.159863 L235.174574,18.1259069 Z" fill="#7C00D9" fill-rule="nonzero" mask="url(#mask-4)"></path>
                    <path d="M-20.5962115,4.15121509 C-9.39166506,-13.9237045 47.2056394,-5.79747419 47.2056394,13.9663416 C47.2056394,24.7246948 41.2667949,33.6751153 28.9783767,45.3211019 L27.5957027,46.621039 L22.4609394,51.3644121 L20.9973672,52.7317822 C19.2869449,54.3437621 17.9983817,55.6164154 16.8554695,56.8343279 C14.7887201,59.0367017 14.5320329,60.2397084 15.4988589,61.6250508 L15.8108989,62.0392126 C16.4696262,62.8688606 17.17479,63.466251 20.0342435,65.6272903 L21.6042687,66.8096208 C25.6789193,69.8714907 28.4312146,72.2166818 31.3323227,75.3484021 C36.4112635,80.8310731 40.4542379,87.4169648 43.3914296,95.7187077 C49.086944,111.816634 42.7644927,131.063847 24.5784243,153.503566 L24.24,153.917 L24.3099301,153.882279 C31.8744705,150.075335 39.038029,149.318636 45.7994321,151.659724 L46.2214962,151.810076 C51.19333,153.630979 54.4076358,156.959339 56.354545,161.778326 C57.7530349,165.239866 58.3204031,168.347893 59.1161271,175.332888 L59.4048575,177.852917 C60.1108147,183.786459 60.7343126,186.829977 62.0438449,189.876829 C63.8355824,194.045616 66.6839944,196.830383 71.1913077,198.39038 C79.9031552,201.405582 85.3810557,198.181916 86.9611532,190.958013 C88.4095768,184.336098 85.9046699,176.539357 81.1776368,173.40603 L80.9268031,173.245455 C68.5504001,165.600085 68.7349525,131.348916 81.7151261,131.348916 C85.1387542,131.348916 89.0791961,132.781658 96.5725744,136.288738 L100.391306,138.082296 C106.419803,140.889312 108.881756,141.834479 111.284856,142.168503 L111.634196,142.211258 C114.172063,142.475938 114.867493,141.458402 114.166705,137.633654 C113.295937,132.881195 108.966336,127.066584 101.574104,120.302739 C97.3524734,116.439973 92.2695982,112.376185 86.0214294,107.774639 L84.8080939,106.889849 C81.2868061,104.370551 62.6171813,91.2255126 59.3195918,88.4759353 C52.6709156,82.9321739 53.4958024,74.3368293 60.1713296,66.6448321 C66.5363147,59.3106626 76.8668674,54.3078813 86.786098,54.3078813 C89.2866688,54.3078813 91.8822791,54.7630895 94.5614427,55.63862 C101.725296,57.9797133 109.278036,63.2169265 116.925421,70.4781071 C120.599778,73.9669035 124.05751,77.7002994 127.199106,81.4337184 C128.298975,82.7407846 129.281351,83.9552301 130.133543,85.0463968 L130.779077,85.8825183 L131.160132,86.3879556 L131.194924,86.4350304 L128.778353,88.2127214 L128.250198,87.5141684 C128.103453,87.3228654 127.942995,87.1155145 127.769173,86.8929492 L127.122375,86.0729455 C126.451772,85.2308561 125.710368,84.3239578 124.903665,83.3652851 C121.82962,79.7121429 118.446195,76.0589775 114.859747,72.6536501 C107.506682,65.6719269 100.28742,60.6659537 93.6295626,58.4902159 C91.2378052,57.7086076 88.9528521,57.3078813 86.786098,57.3078813 C77.7625689,57.3078813 68.247848,61.9155794 62.4370653,68.611159 C56.741409,75.1740822 56.0975332,81.8832879 61.240799,86.1718165 L61.6398687,86.4955707 C65.9874624,89.9506415 85.2731135,103.506387 87.0387357,104.799616 L88.5568633,105.917693 C94.5401362,110.349384 99.460379,114.302378 103.599265,118.089433 C111.439491,125.26319 116.09586,131.516646 117.117581,137.092981 C118.184003,142.913277 115.895213,145.730799 111.12099,145.17186 L110.871836,145.139936 C108.066594,144.750016 105.518472,143.779918 99.1817345,140.828739 L94.8699491,138.804779 C88.1135641,135.659535 84.4585992,134.348916 81.7151261,134.348916 C72.4556696,134.348916 72.2938219,164.386293 82.5034491,170.693165 C88.5698157,174.440588 91.6193644,183.701254 89.8918644,191.599053 C87.9339511,200.550257 80.647956,204.837961 70.2101032,201.225382 C64.8781396,199.37997 61.4024634,195.981955 59.2876356,191.061444 L59.0586594,190.513741 C57.6876053,187.138294 57.058902,183.744733 56.3109356,177.22308 L56.0293422,174.753789 C55.3195351,168.691773 54.7752414,165.877948 53.5729758,162.902102 C51.9310919,158.838113 49.3280464,156.142703 45.1897827,154.62709 C36.9108642,151.594989 27.7042517,153.923789 17.566895,161.737082 L17.349,161.906 L16.5561323,162.775756 C12.220396,167.499408 7.39805975,172.354474 2.09040923,177.341316 L1.02240864,178.340441 L-1.15864824,176.290216 C4.25118908,169.710543 9.49582966,164.370555 14.5749618,160.282884 L15.28,159.722 L15.8252507,159.120917 C37.9988697,134.478261 46.2470681,113.862325 40.7722702,97.3297873 L40.5632255,96.7193383 C37.7647407,88.8096398 33.9374707,82.5751243 29.1315197,77.3871434 C26.3762132,74.4128147 23.7456324,72.1713347 19.8020537,69.2079579 L17.7012666,67.6242676 C14.6452365,65.3061133 14.1276662,64.8059345 13.1932564,63.5557635 C11.147612,60.8188432 11.6201075,58.0291885 14.6678613,54.7814347 L15.1787055,54.2432139 C16.4799863,52.8873328 17.9774973,51.4385153 20.0076861,49.5487283 L24.9531441,44.9822919 C25.4642324,44.5076821 25.9303387,44.0721583 26.3804418,43.6483409 L26.9147387,43.1436268 C38.6447664,32.0268383 44.2056394,23.6460578 44.2056394,13.9663416 C44.2056394,-2.46140373 -8.29467774,-9.9993894 -18.0463831,5.7318401 C-22.6130651,13.0987076 -20.2321326,30.8834004 -12.7293087,50.1107467 L-12.2827749,51.2413882 C-5.08357606,69.2535499 4.70356232,83.4608779 11.9422421,85.8147473 L12.1676154,85.8844381 C30.6703021,91.3078765 30.8223,121.48263 12.3965319,130.356239 C0.983049448,135.852822 -12.2945488,139.901437 -27.4346077,142.50748 L-28.6029011,142.705099 L-29.0947385,139.745691 C-13.736566,137.193247 -0.340630482,133.160524 11.0948537,127.653345 C27.0112942,119.988196 27.0394242,93.8984641 11.7905333,88.9080397 L11.3237701,88.7633137 C2.69623808,86.2344438 -7.88614128,70.7748782 -15.5240677,51.2013072 L-15.987445,49.9992296 C-23.4504768,30.3976027 -25.7305278,12.4337774 -20.5962115,4.15121509 Z" id="Path-12" fill="#7C00D9" fill-rule="nonzero" mask="url(#mask-4)"></path>
                </g>
                <polygon id="Path-10" fill="#DD63B1" points="101.231635 202.103568 85.0135751 318.172676 159.333472 371.541812 174.89645 257.884525"></polygon>
                <polygon id="Path-11" fill="#6E24C9" points="174.89645 257.884525 159.333472 371.541812 273.210351 385.881135 289 272.003516"></polygon>
                <polygon id="Path" fill="#FFFFFF" fill-rule="nonzero" points="159.307465 371.288845 174.838177 258.211275 288.695543 272.257066 285.460674 295.516718 282.489273 295.103466 285.304 274.861 177.407 261.55 162.692 368.69 270.375 382.208 278.466058 324.031549 281.437459 324.444801 272.938634 385.553823"></polygon>
                <path d="M253.430276,263.321742 C294.299347,263.321742 327.430276,230.190813 327.430276,189.321742 L179.430276,189.321742 C179.430276,230.190813 212.561204,263.321742 253.430276,263.321742 Z" id="Oval" fill="#E73D11" transform="translate(253.430276, 226.321742) rotate(20.000000) translate(-253.430276, -226.321742) "></path>
                <polygon id="Path-9" fill="#F7AD01" points="101.231635 202.103568 218.343993 217.127547 289 272.003516 174.89645 257.884525"></polygon>
                <circle id="Oval" fill="#131313" cx="292.5" cy="117.5" r="12.5"></circle>
                <ellipse id="Oval" fill="#131313" cx="266" cy="169" rx="4" ry="5"></ellipse>
                <ellipse id="Oval-Copy-9" fill="#131313" cx="252" cy="167" rx="4" ry="5"></ellipse>
                <circle id="Oval-Copy-8" fill="#131313" cx="317" cy="85" r="37"></circle>
                <path d="M268.067009,158.114 C268.643643,157.593732 269.513322,157.604053 270.077046,158.114184 L270.185534,158.222865 L275.028981,163.59106 C275.583934,164.206136 275.535193,165.154632 274.920116,165.709585 C274.343482,166.229852 273.473803,166.219531 272.910079,165.709401 L272.801591,165.60072 L267.958144,160.232525 C267.403192,159.617448 267.451932,158.668952 268.067009,158.114 Z" id="Path-3" fill="#131313" fill-rule="nonzero"></path>
                <path d="M249.015319,153.291967 L257.070195,153.452022 C257.898458,153.46848 258.556557,154.153263 258.540099,154.981526 C258.524609,155.761068 257.917108,156.389876 257.155163,156.447435 L257.010595,156.45143 L248.955719,156.291375 C248.127456,156.274917 247.469357,155.590135 247.485815,154.761871 C247.501305,153.982329 248.108806,153.353521 248.870751,153.295963 L249.015319,153.291967 Z" id="Path-4" fill="#131313" fill-rule="nonzero"></path>
                <path d="M257.964255,170.115636 C258.511949,170.186698 258.898336,170.688299 258.827274,171.235993 C258.412541,174.432466 256.443348,176.331531 253.138664,176.750275 C252.590761,176.819702 252.090316,176.431819 252.02089,175.883915 C251.951463,175.336012 252.339346,174.835567 252.88725,174.766141 C255.302187,174.460138 256.548081,173.258614 256.843899,170.978655 C256.909885,170.470082 257.347101,170.100596 257.847738,170.107303 L257.964255,170.115636 Z" id="Path-5" fill="#131313" fill-rule="nonzero"></path>
                <path d="M73.5159727,182.994225 C73.5159727,169.448637 111.602669,164.11559 189.267685,165.500238 C190.09598,165.515006 190.755475,166.198443 190.741186,167.026738 C190.72594,167.855034 190.042503,168.514529 189.214208,168.499762 C114.579259,167.169135 76.5159727,172.498904 76.5159727,182.994225 C76.5159727,194.205909 93.9700335,209.302212 128.93534,227.69841 C129.43247,227.959964 129.741796,228.47736 129.736858,229.039076 L129.715624,232.224672 C129.663518,243.926063 129.920979,252.875358 130.485691,259.058771 L130.523793,259.466901 C130.839401,262.774038 131.245187,265.23463 131.726689,266.819155 C131.893344,267.367581 132.063213,267.789414 132.221892,268.076638 L132.279,268.174 L132.298526,268.153936 C132.409062,268.029172 132.567771,267.81742 132.76197,267.48552 L132.847333,267.335824 C133.417108,266.311458 133.990262,264.685741 134.542458,262.483313 C135.683482,257.93235 136.70946,251.04142 137.611482,241.83444 C137.793824,239.973272 140.534955,240.057023 140.603332,241.925852 L140.756636,245.881429 C141.199032,256.660098 141.751772,264.944019 142.413152,270.723414 L142.460578,271.131969 C142.817197,274.160254 143.20354,276.455689 143.610938,277.997331 L143.707872,278.348513 L143.762,278.532 L143.82864,278.324765 C144.194785,277.132036 144.544267,275.387874 144.867911,273.110581 L144.932292,272.648019 L145.032332,271.890313 C145.726095,266.466671 146.282921,258.529556 146.699769,248.093821 C146.773491,246.248202 149.46872,246.141608 149.687969,247.97564 L149.952671,250.153601 C150.948596,258.21048 151.898429,264.329308 152.79859,268.497617 L152.977296,269.302253 C153.33295,270.857786 153.67773,272.090318 154.00571,272.989849 L154.065,273.149 L154.080521,273.1028 C154.422434,271.989131 154.76602,270.36233 155.103291,268.239138 L155.284094,267.049164 C156.019295,261.998308 156.712922,254.623935 157.362156,244.939138 C157.41428,244.161587 158.053136,243.553461 158.832311,243.539701 L160.947359,243.497284 C168.067278,243.336661 173.479191,243.026091 177.168728,242.568439 C179.001327,242.341122 180.388976,242.079249 181.308398,241.795253 L181.555,241.714 L181.404751,241.602728 C181.179209,241.441186 180.906587,241.266906 180.588549,241.081548 L180.058098,240.784264 C179.19723,240.317453 178.221403,239.857476 176.595443,239.142695 L173.191153,237.660263 C169.648755,236.09789 168.200369,235.313355 167.123555,234.274082 L166.8345,233.984339 C164.105733,231.178443 151.382049,216.658234 128.432005,190.166743 C127.889568,189.540601 127.957424,188.593281 128.583565,188.050843 C129.209707,187.508406 130.157027,187.576262 130.699464,188.202403 L143.630853,203.10742 C159.140566,220.952367 167.710566,230.671286 169.206914,232.115468 L169.361239,232.256345 C170.124615,232.917193 171.51408,233.638031 174.428878,234.926321 L177.698918,236.350661 C183.55383,238.918125 185.018233,239.887819 185.018233,241.980697 C185.018233,245.045164 178.516419,246.067442 162.652744,246.460201 L160.262,246.512 L160.147006,248.148923 C159.535994,256.680886 158.885653,263.254949 158.19379,267.881311 L158.02014,269.00182 C157.096985,274.768916 156.219075,277.201101 154.147537,277.201101 C151.987134,277.201101 150.464418,273.366265 148.941666,264.484889 L148.854,263.969 L148.746397,265.370069 C147.793262,277.196651 146.373487,282.436669 143.81779,282.579943 L143.709125,282.582968 C141.406075,282.582968 140.469634,279.533509 139.5799,272.303435 L139.481166,271.482832 C139.13528,268.545691 138.819161,264.958996 138.53258,260.72144 L138.411,258.858 L138.347476,259.200051 C136.816136,267.281318 134.918846,271.182999 132.253941,271.301138 L132.128459,271.303906 C127.834715,271.303906 126.553879,259.223282 126.717824,231.601982 L126.729,229.926 L126.464005,229.786221 C91.5401778,211.292085 73.8746957,196.006767 73.5213806,183.379931 L73.5159727,182.994225 Z" id="Path-6" fill="#FFFFFF" fill-rule="nonzero"></path>
                <path d="M245.140686,310.556676 L244.71779,310.975278 C241.116291,314.547871 238.541331,317.309848 236.799934,319.549977 L236.602692,319.806154 C234.889103,322.053823 234.349629,323.453406 234.463728,323.573712 C235.038785,324.18005 237.092582,323.734846 240.60453,321.589305 C244.581898,319.159427 249.998066,314.810836 256.822109,308.556707 C258.084426,307.399814 259.987755,308.920907 259.137667,310.407244 L257.673433,312.977427 C252.683369,321.772584 249.108393,328.4623 246.953398,333.03484 C246.167335,334.702733 245.57474,336.080293 245.177708,337.155212 L245.06,337.479 L245.127481,337.42427 C245.891594,336.784704 246.890326,335.857968 248.060444,334.658859 L248.602165,334.096923 L249.166055,333.49919 C252.138639,330.318614 256.027956,325.707755 260.825935,319.673839 C261.985953,318.215006 264.237173,319.759544 263.293551,321.366844 L262.294458,323.076943 C259.274393,328.272838 257.077907,332.307119 255.709741,335.167945 L255.364,335.903 L255.969188,335.209293 C257.08638,333.909576 258.321402,332.39413 260.299343,329.913132 L264.038978,325.21446 C269.577427,318.286272 270.65501,317.229904 272.132042,317.202619 L272.192979,317.202065 C272.720977,317.202065 273.18098,317.391201 274.645681,318.230869 L276.291738,319.191856 C277.654601,319.998378 281.610423,322.35473 282.976296,323.160819 C290.950961,327.867177 298.118629,331.86722 305.809587,335.76596 C316.133502,340.999411 325.989314,345.291606 335.271184,348.424049 C353.177779,354.467162 367.841645,355.814122 378.249065,351.462242 C399.782276,342.458093 390.358002,301.295082 348.769792,227.998621 C348.360968,227.278097 348.613652,226.36258 349.334176,225.953757 C350.0547,225.544934 350.970217,225.797617 351.37904,226.518141 C393.933984,301.518406 403.678591,344.080558 379.406412,354.230011 C368.168872,358.929007 352.846356,357.521547 334.3119,351.266543 C324.879087,348.08316 314.896036,343.735552 304.453143,338.441788 C297.181498,334.755609 290.381335,330.983902 282.947153,326.62434 L274.430892,321.577136 C273.707224,321.152429 273.15259,320.833741 272.727229,320.599199 L272.264,320.351 L272.112012,320.481647 L271.86859,320.704927 L271.556814,321.009858 C271.118993,321.45007 270.592694,322.024701 269.977936,322.732141 L269.296297,323.526732 C268.518299,324.443376 267.733897,325.40125 266.496603,326.945876 L261.094251,333.723173 C256.020401,340.037333 254.557831,341.472972 253.012957,341.472972 C251.251373,341.472972 250.863644,340.0579 251.215759,338.44306 C251.406969,337.566151 251.851576,336.377361 252.553616,334.835884 L252.849565,334.19747 L253.116,333.637 L252.928952,333.846855 C248.365558,338.925664 245.400407,341.382864 243.646744,341.470538 L243.550562,341.472972 C242.474237,341.472972 241.753012,340.703851 241.619465,339.696506 C241.545714,339.140196 241.633414,338.494443 241.851273,337.687568 C242.220623,336.319616 243.014538,334.355426 244.239677,331.755888 L244.802328,330.579929 C246.44303,327.198046 248.731953,322.854931 251.670618,317.546935 L252.139,316.702 L251.907969,316.898654 C241.599747,325.588712 235.348471,328.632612 232.393637,325.746381 L232.287002,325.63814 C229.631669,322.838366 233.14653,318.228017 242.605034,308.845428 L243.923507,307.545605 L253.151121,298.513534 C256.707926,295.000502 256.221111,295.345975 256.389693,294.735436 C256.640164,293.828329 256.009482,291.397774 254.316567,286.526835 L252.921626,282.552899 C252.321489,280.819984 251.982882,279.768785 251.703938,278.75806 L251.533812,278.119106 L251.395766,277.560469 C250.797922,275.027761 250.865046,273.52665 252.259655,272.716735 C254.862234,271.205294 260.483141,276.135707 271.81718,288.716728 L273.018,290.055 L340.123,308.786 L313.838671,262.834839 C313.451535,262.158044 313.649765,261.30648 314.27394,260.865708 L314.395926,260.78802 C315.072721,260.400884 315.924284,260.599114 316.365057,261.223289 L316.442744,261.345274 L344.541725,310.468213 C345.185357,311.593417 344.198054,312.926132 342.964812,312.688072 L342.836415,312.657769 L271.789705,292.826806 C271.513613,292.749741 271.265382,292.595181 271.074401,292.381424 L269.631304,290.774141 C264.756978,285.373026 260.878501,281.368042 258.006778,278.767597 C256.575211,277.471264 255.406985,276.536698 254.522813,275.971912 L254.255858,275.807519 L254.105,275.721 L254.109116,275.754377 C254.155439,276.122727 254.242974,276.573693 254.371596,277.101724 L254.557292,277.818627 C254.867397,278.960326 255.258536,280.153719 256.069929,282.470626 L257.1776,285.61768 C259.188196,291.383151 259.77411,293.7498 259.28148,295.533917 C258.992577,296.580212 257.85643,297.989276 255.566506,300.343362 L254.563312,301.361084 C254.127012,301.796513 253.441635,302.470131 252.650111,303.244193 L245.140686,310.556676 Z" id="Path-8" fill="#FFFFFF" fill-rule="nonzero"></path>
                <path d="M275.694289,172.040398 C275.931628,171.54171 276.528294,171.329845 277.026982,171.567184 C277.525669,171.804522 277.737534,172.401189 277.500196,172.899876 C273.727541,180.826847 266.349958,183.272435 255.727172,180.259961 C255.19584,180.109283 254.887259,179.556403 255.037937,179.025071 C255.188616,178.493738 255.741495,178.185157 256.272828,178.335835 C266.029777,181.10277 272.383689,178.996518 275.694289,172.040398 Z" id="Path-15" fill="#131313" fill-rule="nonzero"></path>
            </g>
        </g>
    </g>
</svg>