<?xml version="1.0" encoding="UTF-8"?>
<svg width="978px" height="683px" viewBox="0 0 978 683" version="1.1" xmlns="http://www.w3.org/2000/svg" xmlns:xlink="http://www.w3.org/1999/xlink">
    <title>Screen-3 Star-1</title>
    <g id="Desktop" stroke="none" stroke-width="1" fill="none" fill-rule="evenodd">
        <g id="Desktop-Intersoft-Screen-3-Copy" transform="translate(-818.000000, 0.000000)" fill="#131313">
            <g id="decore-screen-3" transform="translate(481.000000, -129.000000)">
                <path d="M413.728337,199.277856 C556.114754,264.176775 644.295082,288.41843 678.269321,272.002821 C712.24356,255.587212 712.24356,164.919605 678.269321,0 C743.9274,141.250588 805.19555,213.975552 862.07377,218.174894 C918.951991,222.374236 1009.99532,157.093559 1135.20375,22.3328632 C1028.3185,177.70851 997.20726,267.6126 1041.87002,292.045134 C1086.53279,316.477668 1177.57611,307.888105 1315,266.276446 C1150.09133,358.280207 1067.637,436.349788 1067.637,500.48519 C1067.637,564.620592 1100.65691,641.926657 1166.69672,732.403385 C1020.11124,660.632816 912.653396,630.664786 844.323185,642.499295 C775.992974,654.333803 667.008197,710.834039 517.368852,812 C608.221311,691.364363 640.096019,615.776211 612.992974,585.235543 C585.88993,554.694875 493.892272,563.475317 337,611.576869 C495.800937,519.191349 575.201405,450.665726 575.201405,406 C575.201405,361.334274 521.377049,292.426892 413.728337,199.277856 Z" id="Screen-3-Star-1"></path>
            </g>
        </g>
    </g>
</svg>