<?xml version="1.0" encoding="UTF-8"?>
<svg width="43px" height="34px" viewBox="0 0 43 34" version="1.1" xmlns="http://www.w3.org/2000/svg" xmlns:xlink="http://www.w3.org/1999/xlink">
    <title>arrow screen-7</title>
    <g id="UI" stroke="none" stroke-width="1" fill="none" fill-rule="evenodd">
        <g id="Desktop-Intersoft-UI" transform="translate(-1397.000000, -297.000000)" fill-rule="nonzero">
            <g id="arrow-screen-7" transform="translate(1397.000000, 297.000000)">
                <path d="M25.9439652,1 C34.7805212,1 41.9439652,8.163444 41.9439652,17 C41.9439652,25.836556 34.7805212,33 25.9439652,33 C17.1074092,33 9.94396518,25.836556 9.94396518,17 C9.94396518,8.163444 17.1074092,1 25.9439652,1 Z M25.9439652,3 C18.2119787,3 11.9439652,9.2680135 11.9439652,17 C11.9439652,24.7319865 18.2119787,31 25.9439652,31 C33.6759517,31 39.9439652,24.7319865 39.9439652,17 C39.9439652,9.2680135 33.6759517,3 25.9439652,3 Z" id="Oval" fill="#F7AD01"></path>
                <path d="M26,0 C35.3888407,0 43,7.61115925 43,17 C43,26.3888407 35.3888407,34 26,34 C16.6111593,34 9,26.3888407 9,17 C9,7.61115925 16.6111593,0 26,0 Z M26,4 C18.8202983,4 13,9.82029825 13,17 C13,24.1797017 18.8202983,30 26,30 C33.1797017,30 39,24.1797017 39,17 C39,9.82029825 33.1797017,4 26,4 Z" id="Combined-Shape-Copy-5" fill="#FFFFFF"></path>
                <polygon id="Path" fill="#F7AD01" points="33.4439652 15.9845654 3.94677847 15.9845654 7.51715191 12.4394801 6.08124749 11 0 17 6.08114572 23 7.51705014 21.5605199 3.94677847 18.0154346 33.4439652 18.0154346"></polygon>
            </g>
        </g>
    </g>
</svg>