<?xml version="1.0" encoding="UTF-8"?>
<svg width="39px" height="33px" viewBox="0 0 39 33" version="1.1" xmlns="http://www.w3.org/2000/svg" xmlns:xlink="http://www.w3.org/1999/xlink">
    <title>arrow screen-2</title>
    <g id="UI" stroke="none" stroke-width="1" fill="none" fill-rule="evenodd">
        <g id="Desktop-Intersoft-UI" transform="translate(-1098.000000, -297.000000)" fill-rule="nonzero">
            <g id="arrow-screen-2" transform="translate(1098.000000, 297.000000)">
                <path d="M22.9439652,1 C31.7805212,1 38.9439652,8.163444 38.9439652,17 C38.9439652,25.836556 31.7805212,33 22.9439652,33 C14.1074092,33 6.94396518,25.836556 6.94396518,17 C6.94396518,8.163444 14.1074092,1 22.9439652,1 Z M22.9439652,3 C15.2119787,3 8.94396518,9.2680135 8.94396518,17 C8.94396518,24.7319865 15.2119787,31 22.9439652,31 C30.6759517,31 36.9439652,24.7319865 36.9439652,17 C36.9439652,9.2680135 30.6759517,3 22.9439652,3 Z" id="Oval" fill="#F7AD01"></path>
                <path d="M23,0 C29.3923935,0 34.9607305,3.5282055 37.8638908,8.7434963 L34.3665732,10.6863261 C32.1465286,6.69809499 27.8883512,4 23,4 L23,0 L23,0 Z" id="Combined-Shape" fill="#FFFFFF"></path>
                <polygon id="Path" fill="#F7AD01" transform="translate(16.721983, 17.000000) scale(-1, 1) translate(-16.721983, -17.000000) " points="33.4439652 15.9845654 3.94677847 15.9845654 7.51715191 12.4394801 6.08124749 11 5.68434189e-14 17 6.08114572 23 7.51705014 21.5605199 3.94677847 18.0154346 33.4439652 18.0154346"></polygon>
            </g>
        </g>
    </g>
</svg>