<?xml version="1.0" encoding="UTF-8"?>
<svg width="39px" height="32px" viewBox="0 0 39 32" version="1.1" xmlns="http://www.w3.org/2000/svg" xmlns:xlink="http://www.w3.org/1999/xlink">
    <title>arrow screen-1 </title>
    <g id="UI" stroke="none" stroke-width="1" fill="none" fill-rule="evenodd">
        <g id="Desktop-Intersoft-UI" transform="translate(-1039.000000, -298.000000)" fill="#F7AD01" fill-rule="nonzero">
            <g id="arrow-screen-1-" transform="translate(1039.000000, 298.000000)">
                <path d="M22.9439652,0 C31.7805212,0 38.9439652,7.163444 38.9439652,16 C38.9439652,24.836556 31.7805212,32 22.9439652,32 C14.1074092,32 6.94396518,24.836556 6.94396518,16 C6.94396518,7.163444 14.1074092,0 22.9439652,0 Z M22.9439652,2 C15.2119787,2 8.94396518,8.2680135 8.94396518,16 C8.94396518,23.7319865 15.2119787,30 22.9439652,30 C30.6759517,30 36.9439652,23.7319865 36.9439652,16 C36.9439652,8.2680135 30.6759517,2 22.9439652,2 Z" id="Oval"></path>
                <polygon id="Path" transform="translate(16.721983, 16.000000) scale(-1, 1) translate(-16.721983, -16.000000) " points="33.4439652 14.9845654 3.94677847 14.9845654 7.51715191 11.4394801 6.08124749 10 8.17124146e-14 16 6.08114572 22 7.51705014 20.5605199 3.94677847 17.0154346 33.4439652 17.0154346"></polygon>
            </g>
        </g>
    </g>
</svg>