<?xml version="1.0" encoding="UTF-8"?>
<svg width="40px" height="34px" viewBox="0 0 40 34" version="1.1" xmlns="http://www.w3.org/2000/svg" xmlns:xlink="http://www.w3.org/1999/xlink">
    <title>arrow screen-6</title>
    <g id="UI" stroke="none" stroke-width="1" fill="none" fill-rule="evenodd">
        <g id="Desktop-Intersoft-UI" transform="translate(-1337.000000, -297.000000)" fill-rule="nonzero">
            <g id="arrow-screen-6" transform="translate(1337.000000, 297.000000)">
                <path d="M22.9439652,1 C31.7805212,1 38.9439652,8.163444 38.9439652,17 C38.9439652,25.836556 31.7805212,33 22.9439652,33 C14.1074092,33 6.94396518,25.836556 6.94396518,17 C6.94396518,8.163444 14.1074092,1 22.9439652,1 Z M22.9439652,3 C15.2119787,3 8.94396518,9.2680135 8.94396518,17 C8.94396518,24.7319865 15.2119787,31 22.9439652,31 C30.6759517,31 36.9439652,24.7319865 36.9439652,17 C36.9439652,9.2680135 30.6759517,3 22.9439652,3 Z" id="Oval" fill="#F7AD01"></path>
                <path d="M23,0 C32.3888407,0 40,7.61115925 40,17 C40,26.3888407 32.3888407,34 23,34 C13.6111593,34 6,26.3888407 6,17 C6,14.0031456 6.77545779,11.187409 8.13666408,8.74249958 L11.6339858,10.685322 C10.5930223,12.5549862 10,14.7082392 10,17 C10,24.1797017 15.8202983,30 23,30 C30.1797017,30 36,24.1797017 36,17 C36,9.82029825 30.1797017,4 23,4 L23,0 L23,0 Z" id="Combined-Shape-Copy-3" fill="#FFFFFF"></path>
                <polygon id="Path" fill="#F7AD01" transform="translate(16.721983, 17.000000) scale(-1, 1) translate(-16.721983, -17.000000) " points="33.4439652 15.9845654 3.94677847 15.9845654 7.51715191 12.4394801 6.08124749 11 0 17 6.08114572 23 7.51705014 21.5605199 3.94677847 18.0154346 33.4439652 18.0154346"></polygon>
            </g>
        </g>
    </g>
</svg>