<?xml version="1.0" encoding="UTF-8"?>
<svg width="40px" height="33px" viewBox="0 0 40 33" version="1.1" xmlns="http://www.w3.org/2000/svg" xmlns:xlink="http://www.w3.org/1999/xlink">
    <title>arrow screen-3</title>
    <g id="UI" stroke="none" stroke-width="1" fill="none" fill-rule="evenodd">
        <g id="Desktop-Intersoft-UI" transform="translate(-1157.000000, -297.000000)" fill-rule="nonzero">
            <g id="arrow-screen-3" transform="translate(1157.000000, 297.000000)">
                <path d="M22.9439652,1 C31.7805212,1 38.9439652,8.163444 38.9439652,17 C38.9439652,25.836556 31.7805212,33 22.9439652,33 C14.1074092,33 6.94396518,25.836556 6.94396518,17 C6.94396518,8.163444 14.1074092,1 22.9439652,1 Z M22.9439652,3 C15.2119787,3 8.94396518,9.2680135 8.94396518,17 C8.94396518,24.7319865 15.2119787,31 22.9439652,31 C30.6759517,31 36.9439652,24.7319865 36.9439652,17 C36.9439652,9.2680135 30.6759517,3 22.9439652,3 Z" id="Oval" fill="#F7AD01"></path>
                <path d="M23,0 C32.3888407,0 40,7.61115925 40,17 C40,19.9968544 39.2245422,22.812591 37.8633359,25.2575004 L34.3660142,23.314678 C35.4069777,21.4450138 36,19.2917608 36,17 C36,9.82029825 30.1797017,4 23,4 L23,0 L23,0 Z" id="Combined-Shape-Copy" fill="#FFFFFF"></path>
                <polygon id="Path" fill="#F7AD01" transform="translate(16.721983, 17.000000) scale(-1, 1) translate(-16.721983, -17.000000) " points="33.4439652 15.9845654 3.94677847 15.9845654 7.51715191 12.4394801 6.08124749 11 5.68434189e-14 17 6.08114572 23 7.51705014 21.5605199 3.94677847 18.0154346 33.4439652 18.0154346"></polygon>
            </g>
        </g>
    </g>
</svg>