<svg xmlns="http://www.w3.org/2000/svg" xmlns:xlink="http://www.w3.org/1999/xlink" width="1068" height="740" viewBox="0 0 1068 740">
    <defs>
        <circle id="25eejgqena" cx="97.085" cy="97" r="97"/>
        <circle id="b717z4e6oc" cx="70.868" cy="70.988" r="70"/>
        <circle id="fuuvmks6xe" cx="84.041" cy="84.666" r="84"/>
        <path id="zs68ae64yg" d="M.585 232.216l150.67-198.052C166.561 11.54 187.762.227 214.855.227c40.642 0 66.898 30.726 70.784 48 2.591 11.517 8.35 34.182 17.276 67.995l87.426-17.535c12.46 7.376 19.456 20.81 20.988 40.302s-2.175 33.168-11.122 41.027l-99.633 17.892c-33.28 5.056-55.123-5.53-65.53-31.763-10.406-26.231-17.978-59.352-22.715-99.362l-2.095 16.61L60.618 292.913.585 232.216z"/>
    </defs>
    <g fill="none" fill-rule="evenodd">
        <g transform="translate(408.915 455)">
            <mask id="hxlzb88o2b" fill="#fff">
                <use xlink:href="#25eejgqena"/>
            </mask>
            <use fill="#EB370D" xlink:href="#25eejgqena"/>
            <path fill="#7C00D9" fill-rule="nonzero" d="M67.459-23.5c11.35 0 18.956 7.869 22.72 23.141 5.428 22.023-22.92 59.562-45.704 63.054-6.952 1.065-14.558-1.7-25.607-8.235l-1.737-1.04c-1.006-.61-2.04-1.248-3.292-2.028l-5.699-3.56c-7.823-4.85-10.913-6.52-14.991-8.047-6.013-2.25-10.295-1.963-13.437 1.183-6.37 6.38-5.491 35.357 2.398 68.805l.241 1.015c9.218 38.491 25.241 74.375 44.756 96.192 18.644 20.842 59.853 24.62 101.456 13.989 17.193-4.393 31.534-10.796 38.377-17.062l.421-.394c6.141-5.873 4.782-10.523-5.42-14.116l-.343-.119c-23.191-7.96-39.503-21.652-47.396-37.691-6.858-13.937-6.208-28.098 1.368-34.822 5.05-4.481 13.102-5.257 26.966-3.955l1.238.12c1.064.106 2.096.216 3.435.363l5.083.56c7.633.82 10.777.998 14.045.72l.197-.017c4.524-.41 6.464-1.776 6.464-4.561 0-4.348-5.509-7.978-19.471-13.887l-5.349-2.247c-9.369-3.966-13.99-6.296-17.818-9.337-5.626-4.47-7.204-9.522-3.79-15.174 4.667-7.723 12.764-8.858 24.036-4.713l.43.16c8.13 3.065 15.642 7.406 31.786 17.813l6.819 4.4c6.43 4.133 9.945 6.308 14.074 8.69 12.871 7.43 30.187-6.19 32.084-25.13 1.023-10.217-2.634-20.404-11.292-29.105C214.292 31.2 197.59 23.368 174.21 18.807l-1.641-.315c-26.603-5.02-43.079-3.89-52.796 2.58-7.48 4.98-10.571 11.535-14.323 27.063l-1.831 7.65c-.698 2.848-1.096 4.288-1.774 6.571C97 78.668 89.33 89.788 74.66 98.012l-.547.303c-12.68 6.964-17.538 14.802-16.338 23.817.959 7.201 5.315 14.49 13.719 24.64l1.959 2.327c2.095 2.47 5.624 6.626 6.748 8.01l.666.828c2.476 3.11 4.092 5.505 5.068 7.64 2.842 6.219-.073 10.186-9.074 11.497-17.848 2.6-30.779-6.527-37.547-23.929-5.801-14.914-6.447-34.903-2.088-51.712 5.138-19.818-11.194-33.743-49.95-41.722l-1.182-.24.59-2.942c41.065 8.232 59.208 23.433 53.446 45.657-4.207 16.224-3.582 35.572 1.98 49.872 6.296 16.188 17.972 24.43 34.318 22.048 7.196-1.049 8.695-3.089 6.779-7.281-.892-1.95-2.493-4.293-5.015-7.429l-.545-.67c-1.783-2.17-7.21-8.535-8.012-9.496l-.92-1.111c-8.444-10.275-12.876-17.803-13.914-25.591-1.362-10.236 4.05-19.116 17.394-26.58l.474-.263c14.076-7.73 21.414-18.1 26.12-33.577l.562-1.901c.541-1.874.945-3.426 1.69-6.512l1.487-6.242c1.81-7.537 3.033-11.627 4.912-15.782 2.563-5.665 5.948-9.951 10.671-13.096 10.62-7.071 28.05-8.206 55.83-2.876l.845.163c23.926 4.668 41.166 12.753 51.847 23.487 9.289 9.335 13.264 20.406 12.151 31.52-2.088 20.855-21.503 36.126-36.57 27.43l-1.644-.958c-3.8-2.231-7.458-4.525-13.869-8.655l-7.185-4.636c-14.796-9.502-21.963-13.59-29.539-16.446-10.303-3.883-17.025-3.014-20.839 3.298-2.54 4.203-1.46 7.66 3.088 11.272l.413.323c3.55 2.72 8.14 4.986 17.244 8.827l4.312 1.81c7.083 2.982 11.133 4.897 14.497 7.047l.264.17c4.583 2.978 7.042 6.062 7.042 9.644 0 4.594-3.19 6.928-8.864 7.517l-.33.032c-3.952.357-7.417.118-17.267-.974l-3.35-.371c-.784-.085-1.467-.158-2.138-.226l-1.79-.176c-13.006-1.218-20.512-.503-24.697 3.212-6.406 5.686-6.99 18.406-.668 31.253 7.449 15.137 22.874 28.182 44.948 35.925l.73.254c12.815 4.398 14.834 11.95 6.395 19.678-7.28 6.665-22.033 13.252-39.662 17.756-18.897 4.83-39.186 6.83-56.976 5.199-20.611-1.89-37.073-8.485-47.458-20.094-19.898-22.245-36.114-58.56-45.437-97.493-8.378-34.985-9.36-65.113-1.845-72.638 4.043-4.05 9.407-4.48 16.224-2.016l.837.313c4.465 1.71 7.888 3.645 17.22 9.475l4.617 2.884c1.016.63 1.901 1.17 2.792 1.707 11.087 6.672 18.48 9.477 24.741 8.518C65.137 56.493 92.252 20.588 87.266.359c-3.425-13.898-9.883-20.7-19.468-20.856l-.34-.003v-3z" mask="url(#hxlzb88o2b)"/>
        </g>
        <g transform="translate(.132 598.012)">
            <mask id="t7qacdc2ad" fill="#fff">
                <use xlink:href="#b717z4e6oc"/>
            </mask>
            <use fill="#7C00D9" xlink:href="#b717z4e6oc"/>
            <path fill="#F7AD01" fill-rule="nonzero" d="M71.244-60.881l2.99-.238.016.245c.218 4.412-1.167 29.324-4.175 75.31-.473 7.24-1.742 13.625-3.721 19.179l-.218.594.353.206c7.476 4.285 14.963 6.17 22.457 5.67l.608-.046c6.807-.571 9.228-2.103 9.121-4.485l-.014-.234c-.144-1.86-1.044-3.575-4.47-8.772l-1.687-2.546c-1.21-1.836-2.043-3.182-2.803-4.564l-.325-.603C84.808 10.146 86.224 3.778 96.24-.396c13.47-5.615 29.061 4.461 38.629 21.83 9.484 17.22 8.957 34.322-3.954 39.236-11.67 4.44-19.676 10.38-22.674 16.1-2.5 4.769-1.043 8.525 4.077 10.24l.278.09c4.436 1.387 8.69-.669 18.529-7.919l2.174-1.611.908-.666c9.393-6.851 14.614-9.15 20.297-7.345 6.813 2.163 15.13 12.874 19.912 24.988l.195.498c5.35 13.876 4.768 25.809-3.454 30.933-5.72 3.565-13.577 2.348-24.017-2.804l-1.071-.536c-6.655-3.367-12.679-7.22-25.64-16.122l-7.646-5.26C101.85 93.774 95.5 89.768 89 86.458c-6.876-3.501-14.899-5.725-23.215-6.781l-.287-.036-.059.285c-.128.592-.274 1.19-.439 1.792l-.127.452-.18.62c-1.21 4.077-2.504 7.014-5.923 13.075l-.648 1.14.059.01c8.887 1.565 19.483 5.88 28.103 11.58l.572.381c12.528 8.46 18.528 18.221 14.285 26.792-4.46 9.008-18.793 20.058-32.124 24.533-16.351 5.49-28.318.618-30.649-16.177-.971-6.997.03-13.962 2.759-21.371l.31-.83c1.893-4.954 4.282-9.597 8.286-16.472l3.53-6.019-.271-.016c-.336-.017-.667-.029-.992-.035l-.485-.004c-4.275 0-9.594 1.328-16.945 3.995l-1.21.444c-1.458.542-2.967 1.12-4.883 1.87l-5.574 2.167c-8.746 3.369-11.168 4.067-14.568 4.307l-.146.01c-6.398.426-8.625-3.65-6.053-11.864 3.735-11.925 17.691-20.16 36.667-23.131 7.815-1.224 15.978-1.46 23.842-.76l.333.031.01-.09c.543-5.366-.797-10.188-4.33-14.893l-.27-.352c-.854-1.102-1.83-2.198-2.935-3.287-1.174-1.159-2.366-2.254-3.574-3.285l-.411-.347-.337.24c-6.757 4.74-15.064 7.317-24.534 7.837l-.75.037c-9.208.398-18.853-1.311-26.392-4.326l-.672-.274c-7.185-2.999-11.17-6.759-8.529-9.943 4.16-5.015 14.821-9.149 26.17-9.408 12.072-.276 24.087 3.517 34.902 11.87l.19.149.319-.262c4.36-3.663 7.901-8.446 10.489-14.406l.107-.254-.253-.162c-11.865-7.726-23.56-21.125-35.101-40.141l-.618-1.024L29.02-7.42c11.268 18.773 22.578 31.96 33.915 39.616l.602.399.07-.195c1.762-5.015 2.921-10.762 3.412-17.27l.063-.891.862-13.302c2.412-37.57 3.519-58.284 3.307-61.71l-.007-.11zM56.674 99.806l-.153-.023-2.82 4.814-1.045 1.778c-4.355 7.447-6.796 12.205-8.715 17.415-2.569 6.974-3.5 13.454-2.602 19.922 2.034 14.657 11.965 18.7 26.722 13.745 12.627-4.239 26.318-14.793 30.39-23.02 3.36-6.788-1.844-15.256-13.275-22.975-8.717-5.885-19.707-10.307-28.501-11.656zm75.566-76.924C123.319 6.686 109.096-2.505 97.393 2.373l-.622.267c-7.695 3.412-8.493 7.841-4.598 15.065l.156.287c.716 1.3 1.515 2.591 2.688 4.371l2.17 3.28c3.593 5.48 4.368 7.15 4.485 9.777.2 4.475-3.663 6.92-11.867 7.608-8.234.69-16.384-1.25-24.456-5.805l-.346-.198-.04.093c-2.68 6.096-6.313 11.052-10.76 14.907l-.33.281.076.066c1.044.895 2.075 1.835 3.093 2.82l.508.496c1.196 1.182 2.261 2.376 3.199 3.585 4.18 5.39 5.805 11.008 5.234 17.161l-.034.335.588.074c8.52 1.112 16.548 3.348 23.22 6.64l.603.302 1.048.54c6.636 3.462 13.304 7.741 24.831 15.664l8.346 5.738c11.805 8.068 17.388 11.552 23.882 14.757 9.596 4.735 16.514 5.807 21.103 2.948 6.622-4.127 7.134-14.618 2.24-27.307-4.453-11.55-12.388-21.857-18.215-23.707-4.404-1.398-9.056.662-17.655 6.934l-4.413 3.26c-4.029 2.951-6.116 4.318-8.683 5.62-4.158 2.109-7.782 2.783-11.144 1.731-7.137-2.232-9.527-8.08-6.117-14.586 3.39-6.468 11.971-12.833 24.264-17.51 10.659-4.057 11.123-19.135 2.393-34.985zM61.605 79.245c-25.173-2.011-51.716 6.31-56.617 21.958l-.19.626c-1.747 5.904-.684 7.605 3.18 7.348l.402-.03c3.23-.267 5.979-1.184 16.68-5.352l3.81-1.485c1.262-.49 2.36-.907 3.435-1.306l1.258-.462c7.647-2.774 13.232-4.165 17.941-4.165 1.029 0 2.105.055 3.22.163l.194.019.87-1.518c3.587-6.32 4.874-9.202 6.056-13.202l.145-.496c.164-.573.31-1.14.44-1.7l.07-.321-.894-.077zm-12.881-27.22C38.66 44.497 27.594 41.1 16.481 41.353c-10.379.237-20.07 3.934-23.753 8.118l-.176.206c-.067.08-.071.108-.018.262.119.345.48.825 1.083 1.369 1.407 1.269 3.848 2.649 6.94 3.886 7.15 2.859 16.374 4.493 25.149 4.114 8.97-.388 16.815-2.672 23.203-6.996l.102-.071-.287-.218z" mask="url(#t7qacdc2ad)"/>
        </g>
        <path fill="#F7AD01" d="M740.149 479.741L840.649 680.741 639.649 680.741z" transform="rotate(-24 740.149 580.241)"/>
        <g transform="translate(898.959 500.334)">
            <mask id="63v6wfascf" fill="#fff">
                <use xlink:href="#fuuvmks6xe"/>
            </mask>
            <use fill="#FFF" xlink:href="#fuuvmks6xe"/>
            <path fill="#7C00D9" fill-rule="nonzero" d="M165.292 126.432c-18.34-5.798-41.227-9.19-58.599-9l-.291.003-.134.06c3.47 5.198 7.831 10.38 13 15.39l.68.653c22.16 21.125 50.088 30.615 65.989 20.46 7.752-4.951 8.964-9.551 4.822-14.334-4.062-4.689-13.092-9.32-25.467-13.232zM188.9 35.786c-4.848-9.745-16.562-10.794-33.062-3.504-15.875 7.013-34.68 21.234-51.517 38.947-10.463 11.008-9.675 26.846-.185 42.88l.223.372.702-.019.67-.014.94-.415.7-.304c21.219-9.143 44.732-13.082 60.433-9.994l.545.11c13.145 2.756 21.784-6.115 25.13-23.073 2.955-14.973.95-33.871-4.58-44.986zM18.032 28.022l-8.427-4.05c-4.256-2.036-7.177-3.366-9.832-4.442l-.874-.348c-5.876-2.299-9.754-2.933-12.139-1.923-5.918 2.507-5.785 13.685 1.08 24.384C-3.923 54.48 10.98 62.904 30.035 63.08l.61.003c20.359 0 40.826 8.145 53.009 19.387 5.498 5.073 8.494 10.188 8.087 14.305-.468 4.73-5.066 7.287-12.91 7.287-8.552 0-17.789-2.816-31.408-8.778l-3.106-1.376-6.753-3.044c-13.647-6.129-19.083-8.187-25.622-9.36l-.255-.045c-9.22-1.613-15.656.52-20.055 7.371-3.465 5.397-2.189 10.082 3.553 14.43 5.49 4.158 14.81 7.696 26.733 10.305 22.38 4.896 51.17 5.872 68.688 2.417l.66-.133c2.628-.545 5.603-.927 8.847-1.157l.856-.057-.054-.095c-9.396-16.504-10.084-32.977.754-44.864l.478-.514c17.091-17.98 36.205-32.435 52.479-39.625 17.777-7.854 31.207-6.65 36.96 4.913 5.838 11.736 7.914 31.306 4.837 46.903-3.594 18.21-13.37 28.393-28.238 25.52l-.452-.091c-13.795-2.891-34.507.101-54.021 7.603l-.356.138.615.023c16.237.638 35.459 3.817 51.465 8.787l.76.239c12.863 4.066 22.312 8.912 26.83 14.128 5.457 6.3 3.7 12.966-5.475 18.826-17.367 11.092-46.632 1.149-69.673-20.817-5.469-5.213-10.109-10.642-13.817-16.119l-.542-.813-.28.134c-19.693 9.509-33.868 22.427-38.367 36.333l-.145.46c-7.068 22.968-19.828 35.454-38.176 37.152l-.558.048-.24-2.99c17.128-1.373 29.06-12.749 35.901-34.433l.206-.66c4.318-14.03 17.566-26.865 36.077-36.598l.793-.413-.01.001c-2.277.206-4.397.494-6.325.87l-.521.105c-17.89 3.704-47.546 2.752-70.597-2.29l-1.436-.322c-11.628-2.661-20.793-6.225-26.467-10.522-6.908-5.232-8.648-11.619-4.267-18.443 5.12-7.972 12.778-10.51 23.097-8.705l.528.095c6.747 1.236 12.325 3.359 26.052 9.524l7.48 3.37c.709.315 1.371.608 2.032.898l1.71.744c12.506 5.393 21.087 7.927 28.825 7.927 6.494 0 9.645-1.753 9.925-4.582.291-2.949-2.263-7.308-7.137-11.805-11.5-10.614-30.928-18.413-50.306-18.589l-.669-.003c-20.379 0-36.458-8.994-45.33-22.82-7.723-12.037-7.88-25.311.276-28.766 3.48-1.474 8.237-.614 15.31 2.253l1.035.427c2.219.928 4.676 2.048 7.915 3.588l9.47 4.547c1.033.492 1.982.94 2.928 1.382l1.68.779c16.653 7.66 29.15 11.54 41.598 11.821 6.196.14 12.05-.71 17.591-2.643 24.709-8.62 28.576-29.273 11.324-62.934l-.529-1.024 2.66-1.386C115.174 7 111.114 30.06 84.106 39.484c-5.893 2.056-12.103 2.957-18.647 2.81-13.167-.298-26.205-4.406-43.62-12.481l-2.51-1.177c-.421-.198-.85-.402-1.296-.614z" mask="url(#63v6wfascf)"/>
        </g>
        <path fill="#DD63B1" d="M201 511H349V659H201z" transform="rotate(31 275 585)"/>
        <g transform="translate(485.216 .139)">
            <path stroke="#FFF" stroke-linecap="round" stroke-linejoin="round" stroke-width="3" d="M208.36 105.37c-10.479 15.337-17.104 25.318-19.876 29.94-2.772 4.622-6.313 10.31-10.623 17.065-31.048-19.963-54.6-29.945-70.659-29.945-24.087 0-46.908 24.51-45.579 26.558 1.329 2.046 32.38-8.99 32.38-8.99s-29.75 14.966-29.75 18.356c0 2.26 12.354-.863 37.062-9.366-15.813 8.597-23.187 14.267-22.121 17.009 1.065 2.741 13.66-.693 37.786-10.303 33.393 29.972 55.472 44.188 66.236 42.647 10.764-1.541 26.135-17.684 46.111-48.427M330.813 87.93c40.656 12.813 63.619 24.247 68.888 34.304 5.27 10.056 10.453 29.617 15.551 58.682 21.285 1.647 31.927 3.554 31.927 5.72s-8.617 4.36-25.852 6.58c19.773.458 29.659 1.759 29.659 3.902 0 2.143-10.364 3.691-31.091 4.645 15.217 1.386 22.825 2.992 22.825 4.818 0 2.738-37.363 10.419-44.592 5.97-7.229-4.45-21.378-33.023-25.848-49.162-2.98-10.76-4.62-16.917-4.92-18.473l-46.49-14.468"/>
            <circle cx="258.784" cy="40.861" r="26" fill="#DD63B1"/>
            <rect width="136" height="70" x="202.544" y="79.411" fill="#7C00D9" rx="35" transform="rotate(-11 270.544 114.411)"/>
            <ellipse cx="251.784" cy="43.361" fill="#131313" rx="3" ry="4.5"/>
            <ellipse cx="241.284" cy="41.861" fill="#131313" rx="2.5" ry="4"/>
            <path stroke="#131313" stroke-linecap="round" stroke-width="2" d="M240.42 51.874c3.706-1.342 5.559-3.346 5.559-6.013"/>
            <path fill="#7C00D9" d="M289.49 36.721l-21.399 4.538V26.072c-8.926 1.598-16.476 1.01-22.65-1.76-9.26-4.157-13.453-17.424-4.157-22.45 6.198-3.352 12-2.178 17.406 3.522 2.37-2.829 4.748-3.464 7.134-1.906s4.123 3.786 5.208 6.685c7.823-1.19 13.706.87 17.647 6.182 5.913 7.967.81 20.376.81 20.376z"/>
            <circle cx="285.784" cy="42.861" r="10" fill="#DD63B1"/>
            <path stroke="#FFF" stroke-linecap="round" stroke-linejoin="round" stroke-width="3" d="M108.611 128.376c-2.47 9.971-3.294 15.432-2.47 16.383.823.95 5.992-2.774 15.507-11.174"/>
            <g transform="translate(65.372 184.634)">
                <mask id="nx5egsuk6h" fill="#fff">
                    <use xlink:href="#zs68ae64yg"/>
                </mask>
                <use fill="#F7AD01" xlink:href="#zs68ae64yg"/>
                <path fill="#7C00D9" fill-rule="nonzero" d="M297.15-16.673l1.758 7.548c10.801 46.384 8.596 76.988-6.942 91.8l-.475.443c-7.278 6.673-14.493 19.415-19.666 33.602l-.171.47.196.344c2.957 5.267 5.609 11.286 7.889 17.885l.283.828c2.747 8.12 2.54 19.69-.603 34.743l-.234 1.097.086-.018c6.382-1.396 12.402-5.207 18.51-11.39l.447-.456.857-.895c4.448-4.716 8.524-10.109 14.558-18.932l6.153-9.08c.486-.713.936-1.37 1.379-2.013l.808-1.167c10.425-14.978 17.684-22.377 26.475-25.06 10.756-3.284 18.18-2.734 23.338 1.28 2.99 2.327 4.758 4.964 6.824 9.992l.244.605.045-.017c6.554-2.52 14.079-2.074 21.297 1.054l.394.174c11 4.924 17.262 14.533 12.282 21.44-4.606 6.39-11.616 7.315-18.892 3.557-6.276-3.242-12.05-9.695-14.634-16.289l-.48-1.252c-.135-.364-.278-.752-.44-1.198l-.987-2.74-.23-.629-.05.028c-2.45 1.395-4.687 3.327-6.614 5.815l-1.253 1.654c-1.903 2.49-4.169 5.327-7.083 8.882l-4.072 4.927c-2.89 3.477-8.928 10.736-11.259 13.568l-.699.85.067-.002c22.274-.776 46.955 6.689 51.974 20.342l.235.687c3.495 11.115-11.926 22.066-35.938 29.274-22.298 6.694-43.346 7.523-47.299.307-4.076-7.442 3.876-21.534 22.456-44.867l1.784-2.23-.25.03c-10.428 1.27-19.562 4.604-24.476 10.286l-.462.557-.79.985c-10.414 12.894-26.683 29.142-48.816 48.763l-5.512 4.875 2.267-5.789c6.32-16.144 10.926-30.209 13.823-42.178l.072-.304-.303-.007c-5.818-.217-9.891-3.74-11.984-9.985l-.117-.356c-2.128-6.695-2.037-16.341.036-27.536 1.216-6.573 3.035-13.306 5.288-19.8l.112-.322-.298-.502c-8.332-13.844-18.803-21.354-29.57-18.8l-.462.115c-11.657 3.073-20.53 14.773-26.51 35.315l-.188.652-1.107 3.877-1.696-3.658c-11.652-25.136-22.6-41.035-32.731-47.872l-.367-.243-.46.883c-3.486 6.609-7.91 13.756-13.292 21.416l-.74 1.047c-6.22 8.765-13.944 16.262-22.91 22.51l-.897.617-.028.187c-.485 3.266-.874 6.558-1.162 9.831l-.014.168c9.486 5.774 15.921 13.416 19.265 22.104l.189.502c3.241 8.774 2.994 18.071-.166 24.182-3.343 6.467-9.28 7.685-14.143 1.982-7.343-8.612-9.692-26.952-8.351-46.331l.059-.806-.401-.225c-.945-.524-1.92-1.029-2.924-1.516l-.606-.29c-1.421-.67-2.894-1.3-4.42-1.89l-.513-.197-.127.064c-4.972 2.46-10.214 4.62-15.692 6.485l-.824.277c-18.479 6.163-38.892 8.634-56.405 7.57l-1.156-.075c-12.037-.845-20.93-3.281-23.827-6.848l-.176-.229-1.307 1.822c-4.84 6.754-9.794 13.818-14.865 21.193l-1.444 2.103 1.084-.436c35.755-14.288 64.913-16.31 87.443-5.954l.717.335c16.328 7.745 30.957 21.685 40.463 37.109l.523.858c8.408 13.98 10.772 26.359 4.677 30.114-5.278 3.252-24.695-.549-50.97-8.897l-1.617-.516c-24.264-7.798-47.93-17.503-56.808-23.466l-.265-.18c-7.857-5.391-15.596-6.69-22.37-4.376-6.025 2.058-10.925 6.934-13.379 13.067-.674 1.685 3.094 4.14 11.754 6.997l.882.287c3.522 1.131 7.614 2.288 13.25 3.773l19.037 4.938 3.016.808c12.477 3.382 21.417 6.294 28.613 9.544 9.78 4.417 15.48 9.184 16.585 14.835.911 4.658.508 7.394-1.57 8.747-1.5.975-2.628.998-6.813.541l-.356-.039c-4.372-.485-6.851-.423-9.583.595-7.413 2.765-12.69 12.643-15.237 33.368l-.153 1.282-2.98-.343.16-1.342c2.675-21.704 8.47-32.534 17.162-35.776 3.067-1.143 5.756-1.284 9.993-.867l1.897.201c2.79.289 3.674.255 4.273-.134.724-.472.962-2.086.263-5.657-1.594-8.15-15.72-14.678-43.727-22.245l-3.798-1.009-15.6-4.036c-6.708-1.748-11.37-3.05-15.349-4.327l-1.338-.438c-10.318-3.437-14.877-6.541-13.166-10.817 2.77-6.923 8.317-12.442 15.194-14.792 7.57-2.586 16.119-1.218 24.584 4.435l.453.307c8.354 5.732 32.051 15.472 56.294 23.262l1.54.492c25.034 7.95 44.43 11.765 48.555 9.224 4.114-2.534 1.827-13.853-6.18-26.844-9.216-14.955-23.422-28.491-39.195-35.972-22.688-10.762-52.78-8.283-90.316 7.566l-1.14.484-4.713 2.017 2.884-4.24c50.855-74.753 90.48-119.28 119.073-133.662 22.517-11.327 45.326-13.007 56.22-3.093 9.184 8.358 9.157 23.37-.859 44.196l-.404.831.419.273c10.073 6.696 20.523 21.345 31.437 43.813l.93 1.932.036-.111c6.175-19.287 15.229-30.701 27.253-34.063l.393-.107c11.956-3.152 23.152 4.122 32.035 17.872l.38.596.021-.056c5.187-13.637 12.203-25.805 19.418-32.6l.35-.324c14.027-12.86 16.888-39.945 8.305-81.265l-.14-.661-.033.18c-7.409 38.656-22.942 58.44-46.69 58.857l-.77.006c-25.636 0-38.388-24.134-38.532-71.583v-1.444l3 .006c-.11 46.963 11.83 70.021 35.533 70.021 23.633 0 38.878-20.72 45.625-62.758l.202-1.28 1.185-7.659zm72.804 123.397c-4.274-3.327-10.712-3.803-20.62-.78-7.926 2.42-14.853 9.487-24.9 23.922l-1.458 2.114-6.477 9.553c-6.726 9.863-11.08 15.59-16.118 20.78-6.96 7.17-13.924 11.524-21.513 12.895l-.402.068-.207.876c-2.5 10.429-6.275 22.371-11.316 35.837l-.498 1.321 2.14-1.923c19.007-17.15 33.189-31.517 42.538-43.084l.809-1.01c5.73-7.206 17.159-11.154 29.907-12.253l.278-.022 1.65-2.018 3.722-4.506c3.863-4.66 9.309-11.203 9.884-11.898l2.519-3.058c3.421-4.173 5.937-7.342 8.012-10.113 2.24-2.99 4.867-5.296 7.753-6.945l.478-.267-.083-.21c-1.91-4.742-3.453-7.16-5.908-9.129l-.19-.15zm25.649 69.98c-4.09-13.008-29.366-20.089-51.25-18.842l-.719.045-1.29 1.594-1.17 1.453-1.614 2.026c-17.12 21.587-24.816 35.277-21.7 40.963 2.903 5.3 22.996 4.508 43.804-1.738 22.425-6.732 36.662-16.841 33.939-25.5zm-259.935-30.273l-.042.645c-1.103 18.096 1.066 34.987 7.726 42.797 3.383 3.969 6.772 3.274 9.195-1.413 2.754-5.325 2.978-13.748.017-21.764-2.844-7.699-8.302-14.561-16.396-19.937l-.5-.328zm134.66-25.394l-.101.312c-1.812 5.556-3.29 11.252-4.321 16.826-1.991 10.754-2.078 19.942-.127 26.08 1.757 5.527 5.017 8.338 10.02 8.26l.221-.006.031-.136c3.378-15.226 3.795-26.814 1.272-34.729l-.143-.436c-1.962-5.8-4.21-11.126-6.689-15.863l-.163-.308zm-150.634 18.074c-13.43-4.197-30.424-5.623-51.096-3.834l-1.037.092c-25.11 2.289-38.933 6.342-39.67 9.853-.533 2.536 9.006 5.886 23.156 6.745 17.14 1.04 37.17-1.384 55.274-7.422 4.206-1.403 8.269-2.981 12.173-4.736l1.39-.637-.19-.06zm14.09-4.061l-.649.405c-1.475.911-2.98 1.792-4.514 2.642l-1.183.645.468.199c.564.242 1.121.49 1.671.743l.548.255c.819.386 1.62.784 2.403 1.194l.526.278.027-.296c.19-1.949.414-3.901.673-5.85l.03-.215zm265.59-16.148c-6.57-2.942-13.353-3.427-19.237-1.214l-.195.075.322.88 1.08 3c.305.833.542 1.462.806 2.134 2.32 5.92 7.592 11.812 13.217 14.718 6.056 3.128 11.43 2.419 15.081-2.645 3.527-4.89-1.553-12.686-11.074-16.948zM176.036 40.873c-9.742-8.865-31.321-7.276-52.852 3.555C100.515 55.83 70.37 87.03 32.857 137.983l-.547.743.33-.127c6.844-2.606 18.177-4.681 33.848-6.144l.8-.074c22.875-2.085 41.484-.331 55.95 4.745l.489.174.54-.276c3.424-1.769 6.71-3.686 9.847-5.752l.248-.166.033-.21c3.804-23.712 12.657-45.725 24.163-50.072l.708-.243c4.736-1.476 9.551-1.016 14.454 1.365l.483.241.035-.071c9.588-19.632 9.89-33.484 2.131-40.932l-.333-.31zM172.55 84.74c-4.287-2.105-8.42-2.532-12.39-1.295-10.075 3.139-18.164 22.413-22.136 44.041l-.222 1.237.263-.19c7.733-5.641 14.45-12.27 19.968-19.894l.457-.638c5.78-8.144 10.445-15.656 14.04-22.512l.313-.601-.293-.148z" mask="url(#nx5egsuk6h)"/>
            </g>
            <ellipse cx="96.132" cy="446.841" fill="#7C00D9" rx="13" ry="43" transform="rotate(-45 96.132 446.841)"/>
            <path fill="#DD63B1" d="M120.895 456.355c-24.372 39.812-38.724 59.719-43.054 59.719-6.495 0-81.503-90.297-69.554-102.891 4.56-4.806 18.905 5.511 43.036 30.95v9.136l2.912-6.428 5.987 3.289 1.268 9.471 2.457-6.332 5.576 3.086 1.389 10.506 3.36-7.26 6.75 7.26 19.755-34 10.79 11.273 9.328 12.22z"/>
            <ellipse cx="43.942" cy="467.42" fill="#7C00D9" rx="9" ry="60.5" transform="rotate(-37 43.942 467.42)"/>
            <path fill="#DD63B1" d="M462.406 295.899L512.216 281.503 532.304 407.252 497.355 344.377 502.419 331.205 495.382 339.316 491.716 332.651 497.355 318.394 489.034 327.82 482.895 318.394 470.375 321.361z"/>
        </g>
    </g>
</svg>
