<svg xmlns="http://www.w3.org/2000/svg" width="132" height="24" viewBox="0 0 132 24">
    <g fill="none" fill-rule="evenodd">
        <path fill="#FFF" fill-rule="nonzero" d="M33.502 23.614V11.59H37.2v12.024h-3.698zM33.38 5.81h3.967v3.453H33.38V5.81zm14.204 5.486c1.437 0 2.506.42 3.208 1.261.702.84 1.053 2.11 1.053 3.808v7.25h-3.698v-7.078c0-.817-.15-1.413-.453-1.788-.302-.376-.771-.563-1.408-.563-.767 0-1.384.245-1.85.734-.464.49-.697 1.143-.697 1.96v6.734H40.04V11.59h3.6v1.714c.424-.653.975-1.151 1.653-1.494.678-.343 1.44-.514 2.29-.514zm13.69 9.796c.375 0 .767-.025 1.175-.074l-.196 2.694c-.473.065-.947.098-1.42.098-1.829 0-3.163-.4-4.004-1.2-.841-.8-1.261-2.016-1.261-3.649v-4.604H53.29V11.59h2.278V8.063h3.697v3.527h3.013v2.767h-3.013v4.58c0 1.436.67 2.155 2.009 2.155zm14-2.792h-7.836c.114.963.428 1.661.943 2.094.514.432 1.245.649 2.192.649.62 0 1.236-.102 1.849-.306.612-.204 1.17-.494 1.677-.87l.98 2.474c-.588.457-1.302.816-2.143 1.077-.841.262-1.686.392-2.535.392-2.024 0-3.62-.56-4.788-1.677-1.167-1.119-1.75-2.641-1.75-4.568 0-1.224.252-2.31.759-3.257.506-.947 1.208-1.686 2.106-2.216.898-.53 1.918-.796 3.06-.796 1.683 0 3.017.547 4.005 1.64.988 1.095 1.482 2.58 1.482 4.458v.906zm-5.387-4.457c-.702 0-1.261.224-1.678.673-.416.45-.673 1.098-.771 1.947h4.726c-.049-.865-.265-1.518-.649-1.959-.383-.44-.926-.661-1.628-.661zm16.212.49l-2.082.22c-1.028.098-1.755.388-2.18.87-.424.481-.636 1.122-.636 1.922v6.27h-3.698V11.59h3.551v2.032c.604-1.387 1.853-2.147 3.747-2.277l1.078-.074.22 3.062zm5.853 9.477c-1.11 0-2.126-.126-3.049-.38-.922-.253-1.718-.616-2.388-1.09l.98-2.546c.653.44 1.371.783 2.155 1.028.784.245 1.576.368 2.376.368.571 0 1.016-.094 1.334-.282.319-.188.478-.445.478-.771 0-.294-.11-.523-.33-.686-.221-.163-.633-.31-1.237-.44l-1.96-.442c-1.159-.26-2.012-.665-2.559-1.212-.547-.547-.82-1.294-.82-2.24 0-.752.216-1.413.649-1.984.432-.572 1.045-1.02 1.836-1.347.792-.327 1.694-.49 2.707-.49.865 0 1.706.13 2.522.392.816.26 1.551.628 2.204 1.102l-.98 2.449c-1.273-.882-2.53-1.323-3.77-1.323-.572 0-1.021.098-1.348.294-.326.196-.49.474-.49.833 0 .261.098.465.294.612.196.147.539.286 1.029.416l2.032.466c1.225.277 2.119.698 2.682 1.26.563.564.845 1.327.845 2.29 0 1.16-.461 2.07-1.384 2.731-.922.662-2.192.992-3.808.992zm13.078 0c-1.274 0-2.392-.257-3.355-.771-.964-.515-1.707-1.241-2.229-2.18-.522-.939-.784-2.045-.784-3.318 0-1.274.262-2.38.784-3.319.522-.938 1.265-1.66 2.229-2.167.963-.506 2.081-.76 3.355-.76 1.273 0 2.392.254 3.355.76.963.506 1.706 1.229 2.228 2.167.523.94.784 2.045.784 3.319 0 1.273-.261 2.38-.784 3.318-.522.939-1.265 1.665-2.228 2.18-.963.514-2.082.771-3.355.771zm0-2.816c1.796 0 2.694-1.151 2.694-3.453 0-1.16-.233-2.025-.698-2.596-.466-.572-1.131-.857-1.996-.857-1.796 0-2.694 1.15-2.694 3.453 0 2.302.898 3.453 2.694 3.453zm13.273-9.404h3.012v2.767h-3.012v9.257h-3.698v-9.257h-2.277V11.59h2.277c.033-1.698.527-2.976 1.482-3.833.955-.857 2.412-1.343 4.371-1.457l1.347-.074.22 2.719-1.15.049c-.947.032-1.613.208-1.996.526-.384.319-.576.845-.576 1.58v.49zm11.179 9.502c.376 0 .767-.025 1.176-.074l-.196 2.694c-.474.065-.947.098-1.42.098-1.83 0-3.164-.4-4.005-1.2-.84-.8-1.261-2.016-1.261-3.649V8.063h3.698v3.527h3.012v2.767h-3.012v4.58c0 1.436.67 2.155 2.008 2.155z"/>
        <path fill="#F7AD01" fill-rule="nonzero" d="M91.952 23.81c-1.11 0-2.126-.126-3.049-.38-.922-.253-1.718-.616-2.388-1.09l.98-2.546c.653.44 1.371.783 2.155 1.028.784.245 1.576.368 2.376.368.571 0 1.016-.094 1.334-.282.319-.188.478-.445.478-.771 0-.294-.11-.523-.33-.686-.221-.163-.633-.31-1.237-.44l-1.96-.442c-1.159-.26-2.012-.665-2.559-1.212-.547-.547-.82-1.294-.82-2.24 0-.752.216-1.413.649-1.984.432-.572 1.045-1.02 1.836-1.347.792-.327 1.694-.49 2.707-.49.865 0 1.706.13 2.522.392.816.26 1.551.628 2.204 1.102l-.98 2.449c-1.273-.882-2.53-1.323-3.77-1.323-.572 0-1.021.098-1.348.294-.326.196-.49.474-.49.833 0 .261.098.465.294.612.196.147.539.286 1.029.416l2.032.466c1.225.277 2.119.698 2.682 1.26.563.564.845 1.327.845 2.29 0 1.16-.461 2.07-1.384 2.731-.922.662-2.192.992-3.808.992zm13.078 0c-1.274 0-2.392-.257-3.355-.771-.964-.515-1.707-1.241-2.229-2.18-.522-.939-.784-2.045-.784-3.318 0-1.274.262-2.38.784-3.319.522-.938 1.265-1.66 2.229-2.167.963-.506 2.081-.76 3.355-.76 1.273 0 2.392.254 3.355.76.963.506 1.706 1.229 2.228 2.167.523.94.784 2.045.784 3.319 0 1.273-.261 2.38-.784 3.318-.522.939-1.265 1.665-2.228 2.18-.963.514-2.082.771-3.355.771zm0-2.816c1.796 0 2.694-1.151 2.694-3.453 0-1.16-.233-2.025-.698-2.596-.466-.572-1.131-.857-1.996-.857-1.796 0-2.694 1.15-2.694 3.453 0 2.302.898 3.453 2.694 3.453zm13.273-9.404h3.012v2.767h-3.012v9.257h-3.698v-9.257h-2.277V11.59h2.277c.033-1.698.527-2.976 1.482-3.833.955-.857 2.412-1.343 4.371-1.457l1.347-.074.22 2.719-1.15.049c-.947.032-1.613.208-1.996.526-.384.319-.576.845-.576 1.58v.49zm11.179 9.502c.376 0 .767-.025 1.176-.074l-.196 2.694c-.474.065-.947.098-1.42.098-1.83 0-3.164-.4-4.005-1.2-.84-.8-1.261-2.016-1.261-3.649V8.063h3.698v3.527h3.012v2.767h-3.012v4.58c0 1.436.67 2.155 2.008 2.155z"/>
        <path fill="#F7AD01" d="M8 0v24H0v-8l7.999-8H0V0h8zm6.978 0l.262.004c4.775.138 8.603 4.053 8.603 8.861V24h-8v-8.157C15.843 11.512 12.332 8 8 8l6.978-8z"/>
    </g>
</svg>
